# Simple cube OBJ file
# Vertices
v -1.0 -1.0  1.0
v  1.0 -1.0  1.0
v  1.0  1.0  1.0
v -1.0  1.0  1.0
v -1.0 -1.0 -1.0
v  1.0 -1.0 -1.0
v  1.0  1.0 -1.0
v -1.0  1.0 -1.0

# Texture coordinates
vt 0.0 0.0
vt 1.0 0.0
vt 1.0 1.0
vt 0.0 1.0

# Normals
vn  0.0  0.0  1.0
vn  0.0  0.0 -1.0
vn  0.0  1.0  0.0
vn  0.0 -1.0  0.0
vn  1.0  0.0  0.0
vn -1.0  0.0  0.0

# Faces (front, back, top, bottom, right, left)
f 1/1/1 2/2/1 3/3/1 4/4/1
f 5/1/2 8/2/2 7/3/2 6/4/2
f 4/1/3 3/2/3 7/3/3 8/4/3
f 1/1/4 5/2/4 6/3/4 2/4/4
f 2/1/5 6/2/5 7/3/5 3/4/5
f 1/1/6 4/2/6 8/3/6 5/4/6 