# Blender 4.3.2
# www.blender.org
o beggar
v 0.190272 1.154562 0.141317
v 0.175938 1.206380 -0.105729
v 0.179627 0.922962 0.113575
v 0.188194 1.467369 0.148894
v 0.199279 0.853349 -0.117628
v 0.198779 1.553256 -0.021001
v 0.193138 0.923960 0.129813
v 0.232815 0.855866 -0.126630
v 0.263588 0.758076 -0.020907
v 0.093404 0.675218 -0.050333
v 0.316737 0.599249 0.080446
v 0.290463 0.508478 0.151652
v 0.290551 0.598424 0.192904
v 0.311670 0.574484 0.083111
v 0.179349 0.572139 0.209269
v 0.188667 0.551863 0.088666
v 0.179066 0.512958 0.180685
v 0.192326 0.606062 0.094808
v 0.279599 0.570905 -0.085228
v 0.268894 0.448605 -0.009563
v 0.145527 0.453901 0.020331
v 0.138706 0.594052 -0.062902
v 0.155691 0.363836 -0.283772
v 0.168386 0.408643 -0.260448
v 0.087016 0.432735 -0.256452
v 0.075727 0.404006 -0.265564
v 0.087374 0.769277 0.170374
v 0.231043 0.836108 0.153312
v 0.150204 1.547544 0.086693
v 0.072797 0.404017 -0.187579
v 0.056484 0.350965 -0.267784
v 0.142338 0.336511 -0.271385
v 0.175933 0.383423 -0.196035
v 0.087449 0.566646 -0.220748
v 0.171516 0.551649 -0.222365
v 0.070584 0.604326 -0.181472
v 0.193661 0.581619 -0.182487
v 0.073442 0.494576 -0.176362
v 0.085100 0.498903 -0.239363
v 0.185727 0.473463 -0.178104
v 0.167800 0.481333 -0.239673
v 0.152645 1.328460 0.103815
v 0.114368 1.557382 0.088018
v 0.170012 1.345224 -0.051898
v 0.129662 1.562400 -0.035735
v 0.285878 1.361283 0.094025
v 0.233657 1.522232 0.059895
v 0.299773 1.373462 -0.030574
v 0.250592 1.535749 -0.015320
v 0.221154 1.184924 0.089419
v 0.226655 1.158978 -0.046940
v 0.321424 1.208570 0.088820
v 0.332995 1.191268 -0.036342
v 0.271266 0.859177 0.173149
v 0.201658 1.184214 0.062427
v 0.323219 0.832305 0.050416
v 0.238016 1.170352 -0.052206
v 0.366013 0.885336 0.203229
v 0.303910 1.223962 0.092067
v 0.410261 0.856337 0.078049
v 0.333126 1.207325 -0.024636
v 0.225680 1.043220 0.100499
v 0.267499 1.016611 -0.008087
v 0.385561 1.064649 0.025610
v 0.340112 1.093567 0.143621
v 0.306409 0.800599 0.214089
v 0.291727 0.861000 0.157679
v 0.347567 0.761230 0.072424
v 0.331124 0.841791 0.060407
v 0.360044 0.793985 0.202926
v 0.353871 0.879792 0.179138
v 0.410826 0.780358 0.094267
v 0.393268 0.860582 0.081866
v 0.346321 0.687838 0.100195
v 0.308779 0.685589 0.204897
v 0.382917 0.706857 0.110031
v 0.354113 0.718890 0.203304
v 0.312777 0.776618 0.194237
v 0.077921 1.681043 0.193817
v 0.065576 1.721558 0.040144
v 0.058033 1.607570 0.175804
v 0.061916 1.829713 0.188280
v 0.068674 1.657302 0.061147
v 0.051880 1.845843 0.072298
v 0.013729 1.683875 0.232131
v 0.027407 1.581214 0.195492
v 0.040738 1.641661 0.056561
v 0.025257 1.842993 0.203324
v 0.072895 1.839128 0.131243
v 0.077023 1.631490 0.108856
v 0.092916 1.717723 0.126153
v 0.025563 1.872482 0.131869
v 0.041696 1.607234 0.126277
v 0.042928 1.527955 0.008032
v 0.043880 1.496680 0.083826
v 0.030092 1.750860 0.221442
v 0.079652 1.749440 0.195896
v 0.019524 1.650107 0.221873
v 0.082357 1.654852 0.113727
v 0.087297 1.732871 0.088791
v 0.078185 1.668203 0.088314
v 0.107823 1.736842 0.086753
v -0.002878 1.227431 -0.145159
v -0.000304 1.145524 0.219050
v -0.194557 1.153165 0.147892
v -0.182043 1.206382 -0.100058
v -0.190839 0.907891 0.118959
v -0.193503 1.467368 0.146612
v -0.192363 0.847753 -0.105394
v -0.202119 1.553256 -0.023631
v -0.001638 1.598332 -0.028054
v -0.002463 0.874861 -0.212870
v -0.003304 1.488347 0.184156
v -0.002516 0.891950 0.195003
v -0.204467 0.908057 0.135207
v -0.227058 0.842310 -0.134730
v 0.000066 0.819309 -0.153935
v -0.001545 0.886254 0.135509
v -0.002004 0.877427 -0.158399
v -0.000878 0.833364 0.142640
v -0.238283 0.732612 -0.026929
v -0.058723 0.682805 -0.052286
v -0.253045 0.514023 0.039850
v -0.241076 0.479969 0.176839
v -0.242412 0.564377 0.179611
v -0.249567 0.530850 0.055366
v -0.130144 0.557912 0.197976
v -0.121511 0.522665 0.057465
v -0.129004 0.488207 0.195209
v -0.124679 0.519768 0.040731
v -0.240446 0.357503 -0.034401
v -0.239543 0.326730 0.107715
v -0.116357 0.333689 0.128748
v -0.096692 0.369672 -0.030104
v -0.157421 0.073459 -0.046115
v -0.169776 0.066369 0.036101
v -0.089695 0.066712 0.059080
v -0.073482 0.090516 -0.038210
v -0.078464 0.766519 0.172592
v -0.227017 0.806520 0.151708
v -0.002708 1.566347 0.083669
v -0.155201 1.547544 0.084374
v -0.074646 -0.011096 0.039172
v -0.061457 0.002997 -0.064613
v -0.148656 -0.006763 -0.068946
v -0.178585 -0.010821 0.020191
v -0.086019 0.031336 0.193980
v -0.170226 0.033901 0.180085
v -0.068643 -0.009398 0.230098
v -0.191974 -0.007506 0.209113
v -0.072860 -0.010575 0.120677
v -0.084517 0.052568 0.126229
v -0.185429 -0.008607 0.101549
v -0.167400 0.053472 0.107552
v -0.157002 1.322079 0.076797
v -0.120867 1.551491 0.090377
v -0.169659 1.357681 -0.076178
v -0.132322 1.571532 -0.032264
v -0.290228 1.354856 0.066761
v -0.238804 1.519162 0.054294
v -0.300341 1.382117 -0.055799
v -0.253522 1.541673 -0.019214
v -0.223380 1.180882 0.042728
v -0.224298 1.171813 -0.095888
v -0.323845 1.203671 0.041759
v -0.331280 1.201761 -0.084889
v -0.270067 0.844268 0.076786
v -0.208515 1.184904 0.022637
v -0.305867 0.833593 -0.053939
v -0.230586 1.186577 -0.096379
v -0.369072 0.861426 0.098462
v -0.315752 1.215218 0.044890
v -0.396820 0.849355 -0.034027
v -0.330334 1.214774 -0.075680
v -0.227956 1.038895 0.037099
v -0.255343 1.026835 -0.078453
v -0.379234 1.064031 -0.052970
v -0.349469 1.077138 0.072611
v -0.305041 0.779260 0.104489
v -0.288659 0.848141 0.059400
v -0.326776 0.759104 -0.045292
v -0.315207 0.841376 -0.043714
v -0.356410 0.771272 0.085983
v -0.354077 0.859877 0.075472
v -0.393367 0.771051 -0.028932
v -0.380624 0.853112 -0.027642
v -0.323149 0.682593 -0.028205
v -0.297661 0.666961 0.078954
v -0.361956 0.697773 -0.020370
v -0.344906 0.697433 0.076498
v -0.307287 0.758174 0.080823
v -0.002823 1.726946 0.010367
v -0.001580 1.684487 0.242722
v -0.081552 1.680800 0.194587
v -0.070901 1.721307 0.040824
v -0.061586 1.607388 0.176401
v -0.066038 1.828173 0.188555
v -0.073546 1.657051 0.061852
v -0.056891 1.844534 0.072531
v -0.002618 1.850267 0.048320
v -0.002557 1.651952 0.035245
v -0.002238 1.847327 0.209111
v -0.001603 1.574471 0.201901
v -0.016990 1.683871 0.232257
v -0.030693 1.581175 0.195795
v -0.045600 1.641515 0.056990
v -0.029645 1.842333 0.203442
v -0.077485 1.837319 0.131566
v -0.081320 1.631265 0.109632
v -0.097369 1.717373 0.127100
v -0.002702 1.872142 0.131929
v -0.001932 1.599207 0.143948
v -0.030967 1.871802 0.131990
v -0.045752 1.607148 0.126717
v -0.048171 1.527941 0.008493
v -0.002732 1.522075 -0.013019
v -0.002185 1.478775 0.095502
v -0.048352 1.496668 0.084293
v -0.033759 1.750651 0.221735
v -0.001788 1.750754 0.232748
v -0.083506 1.748928 0.196650
v -0.001593 1.640789 0.223641
v 0.093905 1.758104 0.128115
v -0.076908 1.756910 0.042008
v 0.071464 1.757183 0.041269
v -0.002897 1.763688 0.009001
v -0.001500 1.642565 0.243118
v -0.022758 1.649809 0.222152
v -0.086689 1.654563 0.114580
v -0.092177 1.732541 0.089685
v -0.082822 1.667925 0.089125
v -0.112738 1.736436 0.087851
v -0.098354 1.762439 0.129301
vn 0.3001 0.1433 -0.9431
vn 0.9939 0.0996 0.0468
vn 0.1902 -0.0685 -0.9794
vn 0.9994 -0.0289 -0.0185
vn 0.1467 0.7259 0.6720
vn 0.1623 0.2621 -0.9513
vn 0.3526 -0.0681 0.9333
vn 0.1909 0.1011 0.9764
vn 0.0295 -0.9610 0.2750
vn 0.1914 -0.9800 0.0549
vn -0.0855 -0.9954 -0.0438
vn 0.0907 0.9848 -0.1483
vn -0.0471 0.3710 0.9274
vn 0.0923 0.1342 0.9867
vn -0.9886 -0.0707 -0.1330
vn 0.2548 -0.5243 -0.8125
vn 0.9584 0.2731 0.0830
vn -0.8839 -0.4540 0.1123
vn 0.0566 0.1964 0.9789
vn 0.2207 -0.4141 0.8831
vn 0.0835 -0.0530 0.9951
vn 0.9711 -0.0778 0.2256
vn 0.9052 -0.3256 -0.2731
vn 0.9643 -0.2418 -0.1079
vn 0.0461 -0.9395 0.3395
vn -0.9574 0.1864 0.2207
vn -0.9615 0.0181 -0.2741
vn 0.0671 0.6933 -0.7175
vn -0.1163 -0.9820 0.1488
vn -0.9723 0.0338 0.2315
vn -0.7838 -0.6099 0.1169
vn 0.8648 0.4972 -0.0697
vn 0.3003 -0.4881 -0.8195
vn 0.1685 0.9644 0.2038
vn 0.7098 0.6098 0.3525
vn -0.1158 -0.8183 0.5630
vn -0.9346 0.3539 -0.0352
vn 0.9374 -0.3164 -0.1456
vn -0.1507 -0.0637 -0.9865
vn 0.1282 0.7497 -0.6493
vn 0.0197 0.0431 0.9989
vn 0.0377 0.2501 -0.9675
vn 0.9321 -0.0347 -0.3606
vn 0.9797 -0.0078 -0.2002
vn 0.0416 0.2635 -0.9638
vn 0.0157 -0.1602 0.9870
vn -0.9822 0.0257 -0.1863
vn -0.9768 -0.1721 -0.1276
vn 0.1885 0.1077 -0.9761
vn 0.9349 0.3040 0.1833
vn 0.2585 0.1095 0.9598
vn 0.0556 -0.0465 0.9974
vn 0.2509 0.9592 0.1300
vn 0.2495 -0.9526 0.1738
vn 0.9757 0.1972 0.0954
vn -0.9337 -0.3526 -0.0620
vn 0.1256 0.0328 -0.9915
vn -0.8945 -0.3466 -0.2825
vn 0.3420 -0.1900 -0.9203
vn 0.9345 0.1938 0.2985
vn -0.3949 0.2281 0.8900
vn 0.1720 -0.9446 0.2796
vn -0.3014 0.9305 -0.2081
vn -0.3886 0.2100 0.8971
vn 0.9026 0.3730 0.2147
vn 0.3428 -0.1976 -0.9184
vn -0.9277 -0.2466 -0.2802
vn -0.9201 -0.2875 -0.2661
vn 0.0192 0.2134 0.9768
vn 0.1326 0.1325 -0.9823
vn 0.3443 -0.0694 -0.9363
vn 0.9076 0.2091 0.3641
vn 0.0854 -0.6218 0.7785
vn -0.1157 0.0727 0.9906
vn -0.1941 0.9445 -0.2651
vn 0.5107 -0.8331 0.2123
vn 0.9101 -0.1660 0.3798
vn -0.9525 -0.0402 -0.3018
vn 0.3982 -0.3324 -0.8549
vn -0.9689 -0.2471 -0.0124
vn 0.2283 0.2753 0.9338
vn -0.4167 0.5643 0.7127
vn 0.3784 -0.0199 0.9254
vn 0.4444 0.1889 0.8757
vn -0.4049 -0.0363 -0.9136
vn 0.9592 -0.2457 0.1397
vn 0.5689 -0.2587 0.7807
vn 0.4129 -0.7967 -0.4414
vn -0.9774 -0.0316 0.2091
vn 0.1323 0.9459 -0.2961
vn 0.6633 -0.0458 0.7470
vn 0.2843 0.2147 0.9344
vn 0.5715 0.8131 -0.1111
vn 0.9998 0.0210 -0.0037
vn 0.3623 -0.2923 -0.8850
vn 0.0685 -0.9291 -0.3633
vn 0.5053 0.8126 0.2904
vn 0.1027 0.9343 0.3412
vn 0.9245 0.2744 -0.2646
vn 0.5372 -0.8258 -0.1716
vn 0.9370 -0.1193 -0.3284
vn 0.2685 -0.8922 -0.3632
vn 0.4182 0.3384 -0.8429
vn 0.3792 -0.3361 0.8621
vn 0.9460 0.2335 0.2250
vn 0.3462 -0.2909 -0.8919
vn 0.2495 -0.3118 0.9168
vn 0.4081 -0.9094 0.0810
vn -0.1030 0.0218 -0.9944
vn 0.9439 -0.2091 0.2557
vn -0.1374 0.9106 0.3898
vn 0.8604 -0.3793 -0.3405
vn -0.3070 0.1533 -0.9393
vn -0.9959 0.0885 0.0172
vn -0.2553 -0.0831 -0.9633
vn -0.9995 -0.0267 -0.0182
vn -0.1563 0.7267 0.6690
vn -0.1683 0.2525 -0.9529
vn -0.3166 -0.0620 0.9465
vn -0.2031 0.0974 0.9743
vn 0.0395 -0.9688 0.2448
vn -0.1067 -0.9927 0.0563
vn 0.1570 -0.9872 0.0285
vn -0.0109 0.4265 -0.9044
vn -0.0042 0.3518 0.9361
vn -0.0713 0.1324 0.9886
vn 0.9982 -0.0398 0.0443
vn -0.1498 -0.4394 -0.8857
vn -0.9970 0.0689 0.0362
vn 0.9583 -0.2414 0.1530
vn -0.1240 0.1347 0.9831
vn -0.1612 -0.0380 0.9862
vn 0.0142 0.8517 -0.5239
vn -0.9973 0.0079 0.0730
vn -0.9623 -0.2559 -0.0923
vn -0.9977 -0.0603 0.0320
vn -0.1255 -0.4048 0.9057
vn 0.9914 0.0894 0.0952
vn 0.9617 0.2736 0.0162
vn 0.0478 0.0441 -0.9979
vn -0.1929 -0.2867 0.9384
vn 0.9857 0.0681 0.1540
vn 0.8598 -0.4946 0.1268
vn -0.9447 0.3191 -0.0762
vn -0.2674 -0.4848 -0.8328
vn -0.1716 0.9644 0.2013
vn -0.7158 0.6083 0.3431
vn 0.0592 -0.9950 -0.0804
vn 0.9797 0.1143 0.1648
vn -0.9701 0.0583 -0.2356
vn 0.0240 0.2843 -0.9584
vn -0.1169 0.6209 0.7751
vn -0.0181 -0.9998 0.0103
vn -0.0343 0.9599 0.2781
vn -0.9343 0.3564 -0.0121
vn -0.9814 0.1915 -0.0153
vn -0.0461 0.9800 0.1937
vn -0.0132 -0.9998 0.0164
vn 0.9812 0.1910 -0.0285
vn 0.9822 -0.1478 -0.1158
vn -0.1590 0.2251 -0.9613
vn -0.9436 0.2722 0.1886
vn -0.2898 -0.0110 0.9570
vn -0.0864 -0.1688 0.9819
vn -0.2659 0.9341 0.2381
vn -0.2439 -0.9686 0.0478
vn -0.9804 0.1767 0.0870
vn 0.9392 -0.3353 -0.0742
vn -0.0948 0.1532 -0.9836
vn 0.9407 -0.2606 -0.2173
vn -0.2220 -0.0666 -0.9728
vn -0.9727 0.1055 0.2065
vn 0.2755 0.1111 0.9549
vn -0.1440 -0.9823 0.1197
vn 0.2650 0.9636 -0.0356
vn 0.2696 0.0919 0.9586
vn -0.9426 0.2964 0.1535
vn -0.2225 -0.0744 -0.9721
vn 0.9672 -0.1607 -0.1968
vn 0.9634 -0.1906 -0.1886
vn -0.0523 0.0918 0.9944
vn -0.1032 0.2510 -0.9625
vn -0.2297 0.0509 -0.9719
vn -0.9562 0.0993 0.2753
vn -0.1259 -0.7347 0.6666
vn -0.0032 -0.0690 0.9976
vn 0.1510 0.9831 -0.1034
vn -0.4671 -0.8838 0.0282
vn -0.9321 -0.2734 0.2375
vn 0.9809 0.0607 -0.1848
vn -0.2725 -0.2240 -0.9357
vn 0.9799 -0.1857 0.0724
vn -0.3529 0.1194 0.9280
vn 0.2894 0.4751 0.8310
vn -0.3438 0.0050 0.9390
vn -0.4419 0.1911 0.8764
vn 0.3959 -0.0349 -0.9176
vn -0.9569 -0.2493 0.1493
vn -0.5612 -0.2600 0.7858
vn -0.4144 -0.7985 -0.4367
vn 0.3970 0.3793 -0.8358
vn -0.1562 0.9425 -0.2955
vn -0.6550 -0.0473 0.7541
vn -0.2812 0.2138 0.9355
vn -0.4074 0.3803 -0.8303
vn -0.5913 0.7991 -0.1086
vn -0.9998 0.0203 0.0069
vn -0.3700 -0.2937 -0.8814
vn -0.0707 -0.9293 -0.3624
vn -0.5235 0.8002 0.2926
vn -0.1237 0.9316 0.3417
vn -0.9222 0.2848 -0.2617
vn -0.5355 -0.8279 -0.1667
vn -0.9398 -0.1228 -0.3189
vn -0.2720 -0.8923 -0.3605
vn -0.4274 0.3381 -0.8385
vn -0.3702 -0.3362 0.8660
vn -0.4808 -0.0118 0.8767
vn -0.4124 0.0871 0.9068
vn 0.4200 0.0891 0.9031
vn 0.4892 -0.0099 0.8721
vn -0.3540 -0.2922 -0.8884
vn -0.2371 -0.3137 0.9194
vn -0.3957 -0.9144 0.0853
vn 0.0930 0.0221 -0.9954
vn -0.9405 -0.2127 0.2650
vn 0.1380 0.9111 0.3885
vn -0.8622 -0.3827 -0.3318
vn 0.9789 -0.0338 0.2015
vn 0.9633 0.0037 -0.2685
vn -0.9770 -0.0344 0.2103
vn 0.9793 -0.0309 0.2003
vn -0.9392 0.2428 0.2429
vn -0.9667 0.0028 -0.2560
vt 0.769832 0.195645
vt 0.775252 0.120749
vt 0.898457 0.115387
vt 0.893855 0.199439
vt 0.779478 0.033265
vt 0.875888 0.020883
vt 0.079276 0.380758
vt 0.015809 0.352495
vt 0.092810 0.349129
vt 0.640892 0.115732
vt 0.651808 0.045918
vt 0.972902 0.747099
vt 0.945788 0.808209
vt 0.869285 0.817542
vt 0.869303 0.746010
vt 0.623064 0.191154
vt 0.978616 0.563599
vt 0.869350 0.563483
vt 0.869382 0.439703
vt 0.981068 0.426748
vt 0.887298 0.020144
vt 0.903448 0.092046
vt 0.869386 0.423683
vt 0.966087 0.423037
vt 0.919014 0.125551
vt 0.901661 0.199678
vt 0.080227 0.193471
vt 0.035111 0.194551
vt 0.029851 0.129329
vt 0.078457 0.129531
vt 0.524664 0.024934
vt 0.453935 0.048979
vt 0.476762 0.096074
vt 0.529992 0.085338
vt 0.458519 0.014915
vt 0.140591 0.209945
vt 0.084060 0.210053
vt 0.139428 0.189660
vt 0.088688 0.293915
vt 0.019697 0.289600
vt 0.036330 0.210891
vt 0.589766 0.089175
vt 0.538912 0.169399
vt 0.588096 0.171055
vt 0.169119 0.280272
vt 0.494132 0.172296
vt 0.495777 0.194811
vt 0.540097 0.192752
vt 0.594693 0.186440
vt 0.602720 0.254314
vt 0.550300 0.251019
vt 0.546511 0.359212
vt 0.576655 0.358602
vt 0.502818 0.254080
vt 0.133655 0.131663
vt 0.460444 0.638059
vt 0.461859 0.667341
vt 0.511272 0.661029
vt 0.492341 0.643217
vt 0.059953 0.028917
vt 0.089979 0.037143
vt 0.513486 0.356281
vt 0.126069 0.032173
vt 0.187391 0.328606
vt 0.600139 0.026470
vt 0.980612 0.851849
vt 0.869271 0.873069
vt 0.214036 0.700438
vt 0.168892 0.698897
vt 0.170775 0.659242
vt 0.208186 0.653496
vt 0.429138 0.636018
vt 0.382088 0.640297
vt 0.380987 0.679254
vt 0.425514 0.672609
vt 0.172591 0.619486
vt 0.211119 0.618494
vt 0.342980 0.638844
vt 0.341450 0.677655
vt 0.504441 0.606319
vt 0.529468 0.607110
vt 0.250819 0.702808
vt 0.243337 0.651469
vt 0.292311 0.649141
vt 0.300801 0.705699
vt 0.244056 0.622019
vt 0.258050 0.585846
vt 0.290061 0.591615
vt 0.277688 0.628694
vt 0.226990 0.579872
vt 0.239778 0.437910
vt 0.241642 0.380815
vt 0.334062 0.371731
vt 0.335105 0.430080
vt 0.244961 0.564466
vt 0.270260 0.519900
vt 0.334573 0.576660
vt 0.267325 0.484741
vt 0.339743 0.479221
vt 0.337393 0.523671
vt 0.397256 0.433766
vt 0.400592 0.476589
vt 0.218167 0.523740
vt 0.216842 0.468389
vt 0.934188 0.071641
vt 0.985147 0.071450
vt 0.980416 0.114135
vt 0.934188 0.111273
vt 0.409685 0.525397
vt 0.413123 0.381914
vt 0.413123 0.570440
vt 0.588235 0.616390
vt 0.541774 0.616014
vt 0.540412 0.699472
vt 0.594290 0.698674
vt 0.733169 0.616366
vt 0.683834 0.612729
vt 0.688349 0.697632
vt 0.724849 0.697622
vt 0.637083 0.612063
vt 0.634642 0.698467
vt 0.933176 0.242559
vt 0.985452 0.244219
vt 0.985670 0.280546
vt 0.933413 0.282101
vt 0.980360 0.291116
vt 0.933814 0.295150
vt 0.933988 0.335813
vt 0.980548 0.334832
vt 0.637975 0.554612
vt 0.592385 0.555443
vt 0.685764 0.549762
vt 0.727568 0.549351
vt 0.544847 0.548303
vt 0.557765 0.809694
vt 0.510229 0.803468
vt 0.511171 0.765578
vt 0.565124 0.764368
vt 0.479691 0.799649
vt 0.486340 0.766582
vt 0.437092 0.787533
vt 0.443585 0.748829
vt 0.425923 0.754711
vt 0.422123 0.742946
vt 0.429690 0.730629
vt 0.447798 0.694577
vt 0.457086 0.718428
vt 0.949739 0.404064
vt 0.949739 0.353270
vt 0.982292 0.353270
vt 0.982292 0.404064
vt 0.460533 0.693281
vt 0.502277 0.717435
vt 0.495857 0.735141
vt 0.514016 0.729944
vt 0.562185 0.720311
vt 0.408828 0.775679
vt 0.278149 0.967649
vt 0.246334 0.979776
vt 0.249708 0.914564
vt 0.277992 0.912907
vt 0.013923 0.884272
vt 0.022151 0.852843
vt 0.077991 0.867331
vt 0.074449 0.892252
vt 0.315578 0.881871
vt 0.272833 0.868911
vt 0.266436 0.823662
vt 0.311469 0.826118
vt 0.312630 0.841540
vt 0.233032 0.873502
vt 0.237034 0.853143
vt 0.243726 0.809688
vt 0.293162 0.797592
vt 0.353002 0.808376
vt 0.344750 0.831707
vt 0.171111 0.912654
vt 0.129263 0.910165
vt 0.133762 0.881302
vt 0.504295 0.904470
vt 0.456722 0.873442
vt 0.486878 0.832177
vt 0.523186 0.892354
vt 0.393060 0.750737
vt 0.369166 0.770382
vt 0.342151 0.723866
vt 0.371660 0.694150
vt 0.224422 0.982399
vt 0.224589 0.913793
vt 0.464697 0.929008
vt 0.510943 0.418646
vt 0.509620 0.457222
vt 0.450276 0.457321
vt 0.451259 0.416801
vt 0.371260 0.868269
vt 0.391399 0.792592
vt 0.427034 0.854273
vt 0.224914 0.800301
vt 0.250611 0.780243
vt 0.499027 0.969201
vt 0.535560 0.959128
vt 0.557854 0.949811
vt 0.378068 0.967627
vt 0.326324 0.969178
vt 0.319455 0.907637
vt 0.374611 0.893121
vt 0.340158 0.885118
vt 0.330117 0.844664
vt 0.450534 0.480546
vt 0.422105 0.480397
vt 0.434613 0.451640
vt 0.511818 0.394240
vt 0.445658 0.392364
vt 0.509788 0.480859
vt 0.224768 0.847580
vt 0.329170 0.701515
vt 0.145363 0.785723
vt 0.128390 0.783055
vt 0.170261 0.738493
vt 0.116930 0.746993
vt 0.160651 0.716692
vt 0.111510 0.779844
vt 0.893310 0.283615
vt 0.770664 0.270731
vt 0.865483 0.388919
vt 0.769534 0.358310
vt 0.423897 0.371814
vt 0.408299 0.341150
vt 0.485355 0.339413
vt 0.636248 0.267526
vt 0.642876 0.337877
vt 0.765704 0.747046
vt 0.792786 0.808169
vt 0.760084 0.563543
vt 0.757703 0.426691
vt 0.876826 0.390354
vt 0.896865 0.307217
vt 0.772687 0.422987
vt 0.914451 0.274726
vt 0.410556 0.185000
vt 0.408092 0.121083
vt 0.456578 0.117665
vt 0.455645 0.183093
vt 0.253560 0.018334
vt 0.251430 0.078936
vt 0.305153 0.086844
vt 0.325460 0.038610
vt 0.319084 0.004836
vt 0.351414 0.205432
vt 0.351233 0.185114
vt 0.407829 0.201799
vt 0.408760 0.285783
vt 0.455510 0.199477
vt 0.477314 0.276913
vt 0.191942 0.085924
vt 0.197935 0.167602
vt 0.246963 0.163350
vt 0.327602 0.277492
vt 0.291833 0.163878
vt 0.247013 0.186734
vt 0.291379 0.186449
vt 0.192159 0.183314
vt 0.187729 0.251517
vt 0.219266 0.354283
vt 0.249400 0.353300
vt 0.239901 0.245457
vt 0.287479 0.246007
vt 0.353156 0.126862
vt 0.373466 0.625371
vt 0.341578 0.620155
vt 0.322681 0.602307
vt 0.372105 0.596087
vt 0.390482 0.029659
vt 0.419898 0.019465
vt 0.282224 0.348629
vt 0.354142 0.027088
vt 0.312568 0.326929
vt 0.178272 0.023855
vt 0.757941 0.851792
vt 0.013855 0.710087
vt 0.062637 0.719760
vt 0.053791 0.758555
vt 0.012068 0.757539
vt 0.404768 0.627471
vt 0.408460 0.590887
vt 0.452999 0.584325
vt 0.451825 0.623280
vt 0.095615 0.759647
vt 0.099560 0.719322
vt 0.492533 0.585997
vt 0.490931 0.624805
vt 0.329410 0.657029
vt 0.304385 0.656192
vt 0.014143 0.671338
vt 0.013329 0.626462
vt 0.071995 0.639628
vt 0.067412 0.683054
vt 0.098346 0.684520
vt 0.093882 0.648751
vt 0.133695 0.638573
vt 0.137331 0.672574
vt 0.141254 0.705593
vt 0.185664 0.538131
vt 0.086734 0.549483
vt 0.089781 0.610162
vt 0.185643 0.597604
vt 0.176017 0.406617
vt 0.082362 0.396940
vt 0.151191 0.453841
vt 0.081208 0.452173
vt 0.080256 0.498505
vt 0.155426 0.490326
vt 0.011387 0.503289
vt 0.011387 0.547736
vt 0.208505 0.505645
vt 0.205267 0.448094
vt 0.933051 0.227541
vt 0.935500 0.187984
vt 0.981816 0.187984
vt 0.983901 0.230880
vt 0.011387 0.452807
vt 0.011387 0.602224
vt 0.011387 0.406053
vt 0.685388 0.464625
vt 0.679517 0.382326
vt 0.733395 0.381660
vt 0.731848 0.465114
vt 0.540455 0.464294
vt 0.548955 0.383058
vt 0.585455 0.383138
vt 0.589782 0.468052
vt 0.639164 0.382434
vt 0.636531 0.468832
vt 0.926036 0.053242
vt 0.926036 0.013699
vt 0.978301 0.014940
vt 0.978301 0.051267
vt 0.941318 0.172865
vt 0.942408 0.129162
vt 0.988977 0.129542
vt 0.987962 0.170192
vt 0.635511 0.526281
vt 0.681104 0.525562
vt 0.587712 0.531014
vt 0.545907 0.531323
vt 0.728625 0.532818
vt 0.736669 0.725394
vt 0.735353 0.771722
vt 0.683130 0.758703
vt 0.689295 0.721117
vt 0.659178 0.752270
vt 0.658895 0.718191
vt 0.614298 0.760413
vt 0.615218 0.720808
vt 0.598227 0.750739
vt 0.592334 0.761513
vt 0.621741 0.793364
vt 0.608255 0.814858
vt 0.597389 0.775323
vt 0.902963 0.354102
vt 0.935516 0.354102
vt 0.935516 0.404895
vt 0.902963 0.404895
vt 0.620394 0.818928
vt 0.662554 0.785374
vt 0.665487 0.804249
vt 0.724263 0.814542
vt 0.679237 0.794482
vt 0.585527 0.726307
vt 0.170921 0.966691
vt 0.199450 0.914463
vt 0.202557 0.979360
vt 0.434990 0.885665
vt 0.136920 0.840949
vt 0.138178 0.825523
vt 0.183245 0.823379
vt 0.176564 0.868613
vt 0.206044 0.809560
vt 0.212468 0.853064
vt 0.216352 0.873452
vt 0.156680 0.797114
vt 0.104811 0.830875
vt 0.096708 0.807441
vt 0.427703 0.967162
vt 0.542713 0.881290
vt 0.537443 0.824738
vt 0.340263 0.781402
vt 0.301717 0.734772
vt 0.020099 0.966282
vt 0.069986 0.966279
vt 0.582883 0.857700
vt 0.510287 0.543080
vt 0.450588 0.544296
vt 0.450031 0.503768
vt 0.509371 0.504492
vt 0.058337 0.791326
vt 0.199393 0.779972
vt 0.602434 0.906809
vt 0.576490 0.934433
vt 0.122173 0.967791
vt 0.119390 0.843962
vt 0.109116 0.884444
vt 0.434309 0.509284
vt 0.510905 0.567494
vt 0.444729 0.568673
vt 0.612579 0.943799
vt 0.704302 0.960286
vt 0.690069 0.863893
vt 0.628178 0.846809
vt 0.727017 0.964931
vt 0.742045 0.877429
vt 0.749981 0.968131
vt 0.795559 0.882010
vt 0.849700 0.973890
vt 0.859604 0.886554
vt 0.262137 0.727847
vt 0.208247 0.720642
vt 0.265551 0.745007
vt 0.235108 0.768630
vt 0.190786 0.737487
vt 0.268411 0.762268
s 0
f 103/1/1 2/2/1 8/3/1 112/4/1
f 2/2/2 1/5/2 7/6/2 8/3/2
f 119/7/3 5/8/3 117/9/3
f 6/10/4 4/11/4 1/5/4 2/2/4
f 4/12/5 29/13/5 141/14/5 113/15/5
f 111/16/6 6/10/6 2/2/6 103/1/6
f 1/17/7 104/18/7 114/19/7 7/20/7
f 4/12/8 113/15/8 104/18/8
f 3/21/9 5/22/9 8/3/9 7/6/9
f 118/23/10 3/24/10 7/20/10 114/19/10
f 5/25/11 119/26/11 112/4/11 8/3/11
f 18/27/12 11/28/12 19/29/12 22/30/12
f 3/31/13 120/32/13 27/33/13 28/34/13
f 3/31/14 118/35/14 120/32/14
f 15/36/15 16/37/15 18/27/15 17/38/15
f 10/39/16 9/40/16 14/41/16 16/37/16
f 9/42/17 28/34/17 13/43/17 14/44/17
f 27/45/18 10/39/18 16/37/18 15/36/18
f 28/34/19 27/33/19 15/46/19 13/43/19
f 13/43/20 15/46/20 17/47/20 12/48/20
f 16/37/21 14/41/21 11/28/21 18/27/21
f 14/44/22 13/43/22 12/48/22 11/49/22
f 19/50/23 20/51/23 24/52/23 23/53/23
f 11/49/24 12/48/24 20/51/24 19/50/24
f 12/48/25 17/47/25 21/54/25 20/51/25
f 17/38/26 18/27/26 22/30/26 21/55/26
f 39/56/27 38/57/27 36/58/27 34/59/27
f 22/30/28 19/29/28 23/60/28 26/61/28
f 20/51/29 21/54/29 25/62/29 24/52/29
f 21/55/30 22/30/30 26/61/30 25/63/30
f 120/64/31 117/9/31 10/39/31 27/45/31
f 5/65/32 3/31/32 28/34/32 9/42/32
f 117/9/33 5/8/33 9/40/33 10/39/33
f 141/14/34 29/13/34 6/66/34 111/67/34
f 6/66/35 29/13/35 4/12/35
f 30/68/36 31/69/36 32/70/36 33/71/36
f 25/72/37 26/73/37 31/74/37 30/75/37
f 23/76/38 24/77/38 33/71/38 32/70/38
f 26/73/39 23/78/39 32/79/39 31/74/39
f 35/80/40 34/59/40 36/58/40 37/81/40
f 38/82/41 40/83/41 37/84/41 36/85/41
f 41/86/42 39/87/42 34/88/42 35/89/42
f 40/83/43 41/86/43 35/89/43 37/84/43
f 33/71/44 24/77/44 41/86/44 40/83/44
f 24/77/45 25/90/45 39/87/45 41/86/45
f 30/68/46 33/71/46 40/83/46 38/82/46
f 25/72/47 30/75/47 38/57/47 39/56/47
f 43/91/48 45/92/48 44/93/48 42/94/48
f 45/95/49 49/96/49 44/97/49
f 49/96/50 47/98/50 46/99/50 48/100/50
f 47/98/51 43/91/51 42/94/51
f 46/99/52 42/94/52 50/101/52 52/102/52
f 47/98/53 49/96/53 45/103/53 43/104/53
f 50/105/54 51/106/54 53/107/54 52/108/54
f 48/100/55 46/99/55 52/102/55 53/109/55
f 42/94/56 44/93/56 51/110/56 50/101/56
f 44/97/57 48/100/57 53/109/57 51/111/57
f 62/112/58 63/113/58 56/114/58 54/115/58
f 63/116/59 64/117/59 60/118/59 56/119/59
f 64/117/60 65/120/60 58/121/60 60/118/60
f 65/120/61 62/112/61 54/115/61 58/121/61
f 54/122/62 56/123/62 60/124/62 58/125/62
f 59/126/63 61/127/63 57/128/63 55/129/63
f 59/130/64 55/131/64 62/112/64 65/120/64
f 61/132/65 59/130/65 65/120/65 64/117/65
f 57/133/66 61/132/66 64/117/66 63/116/66
f 55/131/67 57/134/67 63/113/67 62/112/67
f 67/135/68 69/136/68 68/137/68 78/138/68
f 42/94/69 46/99/69 47/98/69
f 44/97/70 49/96/70 48/100/70
f 69/136/71 73/139/71 72/140/71 68/137/71
f 73/139/72 71/141/72 70/142/72 72/140/72
f 66/143/73 78/144/73 70/142/73
f 70/142/74 78/145/74 75/146/74 77/147/74
f 71/148/75 73/149/75 69/150/75 67/151/75
f 75/152/76 74/153/76 76/154/76 77/147/76
f 72/140/77 70/142/77 77/147/77 76/154/77
f 78/138/78 68/137/78 74/155/78 75/156/78
f 68/137/79 72/140/79 76/154/79 74/155/79
f 67/157/80 78/144/80 66/143/80
f 71/141/81 66/143/81 70/142/81
f 67/157/82 66/143/82 71/141/82
f 104/18/83 1/17/83 4/12/83
f 82/158/84 88/159/84 96/160/84 97/161/84
f 226/162/85 192/163/85 195/164/85 224/165/85
f 91/166/86 79/167/86 81/168/86 90/169/86 99/170/86
f 79/167/87 85/171/87 98/172/87 86/173/87 81/168/87
f 93/174/88 87/175/88 83/176/88 90/169/88
f 221/177/89 233/178/89 210/179/89
f 92/180/90 84/181/90 200/182/90 211/183/90
f 85/184/91 193/185/91 227/186/91 98/187/91
f 88/159/92 202/188/92 220/189/92 96/160/92
f 89/190/93 84/181/93 92/180/93
f 87/191/94 93/192/94 95/193/94 94/194/94
f 80/195/95 201/196/95 192/197/95
f 203/198/96 212/199/96 93/174/96 86/173/96
f 82/200/97 89/190/97 92/180/97 88/201/97
f 88/201/98 92/180/98 211/183/98 202/202/98
f 84/203/99 89/204/99 223/205/99 225/206/99
f 86/173/100 93/174/100 90/169/100 81/168/100
f 80/195/101 100/207/101 101/208/101 99/170/101 90/169/101 83/176/101
f 217/209/102 216/210/102 94/211/102 95/193/102
f 201/212/103 87/191/103 94/194/103 216/213/103
f 93/192/104 212/214/104 217/209/104 95/193/104
f 89/204/105 82/158/105 97/161/105 223/205/105
f 87/175/106 201/196/106 80/195/106 83/176/106
f 98/172/107 222/215/107 203/198/107 86/173/107
f 222/216/108 98/187/108 227/186/108
f 100/217/109 102/218/109 101/219/109
f 91/220/110 99/221/110 102/218/110
f 100/222/111 91/220/111 102/218/111
f 102/218/112 99/221/112 101/219/112
f 103/1/113 112/4/113 116/223/113 106/224/113
f 106/224/114 116/223/114 115/225/114 105/226/114
f 119/227/115 117/228/115 109/229/115
f 110/230/116 106/224/116 105/226/116 108/231/116
f 108/232/117 113/15/117 141/14/117 142/233/117
f 111/16/118 103/1/118 106/224/118 110/230/118
f 105/234/119 115/235/119 114/19/119 104/18/119
f 108/232/120 104/18/120 113/15/120
f 107/236/121 115/225/121 116/223/121 109/237/121
f 118/23/122 114/19/122 115/235/122 107/238/122
f 109/239/123 116/223/123 112/4/123 119/26/123
f 130/240/124 134/241/124 131/242/124 123/243/124
f 107/244/125 140/245/125 139/246/125 120/247/125
f 107/244/126 120/247/126 118/248/126
f 127/249/127 129/250/127 130/240/127 128/251/127
f 122/252/128 128/251/128 126/253/128 121/254/128
f 121/255/129 126/256/129 125/257/129 140/245/129
f 139/258/130 127/249/130 128/251/130 122/252/130
f 140/245/131 125/257/131 127/259/131 139/246/131
f 125/257/132 124/260/132 129/261/132 127/259/132
f 128/251/133 130/240/133 123/243/133 126/253/133
f 126/256/134 123/262/134 124/260/134 125/257/134
f 131/263/135 135/264/135 136/265/135 132/266/135
f 123/262/136 131/263/136 132/266/136 124/260/136
f 124/260/137 132/266/137 133/267/137 129/261/137
f 129/250/138 133/268/138 134/241/138 130/240/138
f 152/269/139 147/270/139 149/271/139 151/272/139
f 134/241/140 138/273/140 135/274/140 131/242/140
f 132/266/141 136/265/141 137/275/141 133/267/141
f 133/268/142 137/276/142 138/273/142 134/241/142
f 120/277/143 139/258/143 122/252/143 117/228/143
f 109/278/144 121/255/144 140/245/144 107/244/144
f 117/228/145 122/252/145 121/254/145 109/229/145
f 141/14/146 111/67/146 110/279/146 142/233/146
f 110/279/147 108/232/147 142/233/147
f 143/280/148 146/281/148 145/282/148 144/283/148
f 137/284/149 143/285/149 144/286/149 138/287/149
f 135/288/150 145/282/150 146/281/150 136/289/150
f 138/287/151 144/286/151 145/290/151 135/291/151
f 148/292/152 150/293/152 149/271/152 147/270/152
f 151/294/153 149/295/153 150/296/153 153/297/153
f 154/298/154 148/299/154 147/300/154 152/301/154
f 153/297/155 150/296/155 148/299/155 154/298/155
f 146/281/156 153/297/156 154/298/156 136/289/156
f 136/289/157 154/298/157 152/301/157 137/302/157
f 143/280/158 151/294/158 153/297/158 146/281/158
f 137/284/159 152/269/159 151/272/159 143/285/159
f 156/303/160 155/304/160 157/305/160 158/306/160
f 158/307/161 157/308/161 162/309/161
f 162/309/162 161/310/162 159/311/162 160/312/162
f 160/312/163 155/304/163 156/303/163
f 159/311/164 165/313/164 163/314/164 155/304/164
f 160/312/165 156/315/165 158/316/165 162/309/165
f 163/317/166 165/318/166 166/319/166 164/320/166
f 161/310/167 166/321/167 165/313/167 159/311/167
f 155/304/168 163/314/168 164/322/168 157/305/168
f 157/308/169 164/323/169 166/321/169 161/310/169
f 175/324/170 167/325/170 169/326/170 176/327/170
f 176/328/171 169/329/171 173/330/171 177/331/171
f 177/331/172 173/330/172 171/332/172 178/333/172
f 178/333/173 171/332/173 167/325/173 175/324/173
f 167/334/174 171/335/174 173/336/174 169/337/174
f 172/338/175 168/339/175 170/340/175 174/341/175
f 172/342/176 178/333/176 175/324/176 168/343/176
f 174/344/177 177/331/177 178/333/177 172/342/177
f 170/345/178 176/328/178 177/331/178 174/344/178
f 168/343/179 175/324/179 176/327/179 170/346/179
f 180/347/180 191/348/180 181/349/180 182/350/180
f 155/304/181 160/312/181 159/311/181
f 157/308/182 161/310/182 162/309/182
f 182/350/183 181/349/183 185/351/183 186/352/183
f 186/352/184 185/351/184 183/353/184 184/354/184
f 179/355/185 183/353/185 191/356/185
f 183/353/186 190/357/186 188/358/186 191/359/186
f 184/360/187 180/361/187 182/362/187 186/363/187
f 188/364/188 190/357/188 189/365/188 187/366/188
f 185/351/189 189/365/189 190/357/189 183/353/189
f 191/348/190 188/367/190 187/368/190 181/349/190
f 181/349/191 187/368/191 189/365/191 185/351/191
f 180/369/192 179/355/192 191/356/192
f 184/354/193 183/353/193 179/355/193
f 180/369/194 184/354/194 179/355/194
f 104/18/195 108/232/195 105/234/195
f 197/370/196 221/177/196 219/371/196 207/372/196
f 80/195/197 192/197/197 226/373/197 225/206/197
f 210/179/198 229/374/198 209/375/198 196/376/198 194/377/198
f 194/377/199 196/376/199 205/378/199 228/379/199 204/380/199
f 214/381/200 209/375/200 198/382/200 206/383/200
f 225/206/201 226/373/201 200/384/201 84/203/201
f 213/385/202 211/183/202 200/182/202 199/386/202
f 204/387/203 228/388/203 227/186/203 193/185/203
f 207/372/204 219/371/204 220/189/204 202/188/204
f 200/389/205 226/162/205 224/165/205 199/390/205
f 208/391/206 213/385/206 199/386/206
f 206/392/207 215/393/207 218/394/207 214/395/207
f 195/164/208 192/163/208 201/396/208
f 203/198/209 205/378/209 214/381/209 212/397/209
f 197/398/210 207/399/210 213/385/210 208/391/210
f 207/399/211 202/202/211 211/183/211 213/385/211
f 199/390/212 224/165/212 233/178/212 208/400/212
f 205/378/213 196/376/213 209/375/213 214/381/213
f 195/164/214 198/382/214 209/375/214 229/374/214 231/401/214 230/402/214
f 217/209/215 218/394/215 215/403/215 216/210/215
f 201/404/216 216/405/216 215/393/216 206/392/216
f 214/395/217 218/394/217 217/209/217 212/214/217
f 194/406/218 204/407/218 219/408/218 221/409/218
f 204/407/219 193/410/219 220/411/219 219/408/219
f 85/412/220 96/413/220 220/411/220 193/410/220
f 79/414/221 97/415/221 96/413/221 85/412/221
f 206/383/222 198/382/222 195/164/222 201/396/222
f 228/379/223 205/378/223 203/198/223 222/215/223
f 222/216/224 227/186/224 228/388/224
f 230/416/225 231/417/225 232/418/225
f 210/419/226 232/418/226 229/420/226
f 230/421/227 232/418/227 210/419/227
f 232/418/228 231/417/228 229/420/228
f 223/205/229 97/161/229 91/166/229
f 225/206/230 223/205/230 91/166/230 100/207/230 80/195/230
f 221/177/231 210/179/231 194/377/231
f 91/166/232 97/161/232 79/167/232
f 233/178/233 221/177/233 197/370/233 208/400/233
f 233/178/234 224/165/234 195/164/234 230/402/234 210/179/234
