# Blender 4.3.2
# www.blender.org
o beggar
v 0.202714 1.199503 0.157720
v 0.176305 1.269127 -0.097833
v 0.190175 0.888329 0.095711
v 0.183039 1.526577 0.151127
v 0.182856 0.949768 -0.143791
v 0.195507 1.612464 -0.018361
v 0.204919 0.888822 0.113158
v 0.216652 0.943724 -0.154730
v 0.215461 0.816166 -0.149315
v 0.032726 0.802399 -0.181183
v 0.201495 0.577381 -0.259513
v 0.193831 0.497685 -0.133228
v 0.195190 0.557056 -0.102818
v 0.199303 0.605325 -0.227177
v 0.080344 0.551570 -0.087314
v 0.070105 0.605495 -0.228437
v 0.079055 0.494148 -0.116736
v 0.072281 0.579436 -0.260044
v 0.206298 0.422773 -0.362409
v 0.207242 0.364181 -0.228351
v 0.081850 0.356516 -0.209400
v 0.062155 0.421280 -0.359261
v 0.149666 0.129753 -0.432561
v 0.162576 0.133094 -0.353108
v 0.080661 0.138935 -0.330295
v 0.064345 0.146455 -0.421906
v 0.058295 0.730954 0.049870
v 0.208752 0.755488 0.034461
v 0.145370 1.606752 0.088995
v 0.067672 0.058169 -0.331125
v 0.056524 0.057819 -0.446598
v 0.144013 0.050822 -0.449904
v 0.171745 0.054438 -0.351291
v 0.080266 0.145267 -0.192197
v 0.164268 0.142786 -0.207049
v 0.063299 0.117836 -0.145105
v 0.186344 0.112390 -0.167059
v 0.066131 0.082796 -0.249032
v 0.077928 0.144523 -0.262941
v 0.178467 0.078286 -0.269202
v 0.160574 0.139587 -0.280757
v 0.138822 1.398222 0.128291
v 0.109787 1.624922 0.084883
v 0.161559 1.396129 -0.027619
v 0.129032 1.614964 -0.038016
v 0.273444 1.425096 0.119415
v 0.228455 1.582668 0.065161
v 0.291590 1.422194 -0.005199
v 0.248180 1.586743 -0.010476
v 0.202224 1.251724 0.132930
v 0.210893 1.209897 0.000745
v 0.303293 1.271688 0.133091
v 0.318012 1.239538 0.011236
v 0.193508 0.943044 0.255252
v 0.178526 1.255408 0.097272
v 0.256162 0.894210 0.144914
v 0.226451 1.222164 -0.008806
v 0.286438 0.962793 0.294497
v 0.280581 1.287677 0.135445
v 0.341533 0.912353 0.180967
v 0.321379 1.252180 0.026701
v 0.180146 1.119207 0.155173
v 0.231144 1.073654 0.057336
v 0.349308 1.112952 0.100633
v 0.293884 1.162458 0.206961
v 0.211446 0.890133 0.305981
v 0.215954 0.944090 0.241839
v 0.261803 0.825563 0.177109
v 0.262877 0.905422 0.154169
v 0.263767 0.872742 0.303717
v 0.277335 0.954336 0.270173
v 0.324285 0.835992 0.205951
v 0.324258 0.915668 0.182503
v 0.242909 0.757917 0.212125
v 0.192708 0.776323 0.309686
v 0.280946 0.771332 0.225201
v 0.243449 0.800601 0.311292
v 0.215521 0.862972 0.290000
v 0.074921 1.739970 0.193118
v 0.061228 1.780515 0.039571
v 0.054599 1.666593 0.175305
v 0.059422 1.888685 0.187729
v 0.064289 1.716262 0.060547
v 0.048306 1.904850 0.071851
v 0.011117 1.743029 0.232060
v 0.024095 1.640343 0.195295
v 0.036252 1.700724 0.056235
v 0.022962 1.902101 0.203132
v 0.069875 1.898059 0.130587
v 0.073008 1.690455 0.108174
v 0.089398 1.776581 0.125306
v 0.022674 1.931587 0.131676
v 0.037784 1.666349 0.125943
v 0.037863 1.587149 0.007695
v 0.039544 1.555876 0.083476
v 0.027635 1.809950 0.221207
v 0.076936 1.808348 0.195175
v 0.016681 1.709246 0.221748
v 0.078472 1.713777 0.112990
v 0.083467 1.791749 0.088001
v 0.074103 1.727132 0.087618
v 0.103987 1.795644 0.085761
v -0.008375 1.286639 -0.144935
v 0.008254 1.200170 0.220417
v -0.190213 1.210832 0.134799
v -0.184598 1.257877 -0.100871
v -0.189581 1.018461 0.095101
v -0.198495 1.526576 0.144481
v -0.196273 0.887599 -0.073663
v -0.205225 1.612464 -0.026022
v -0.004768 1.657540 -0.027927
v -0.011968 0.939575 -0.208952
v -0.009619 1.547554 0.184202
v 0.006497 0.942469 0.184714
v -0.202453 1.017504 0.110440
v -0.231864 0.879140 -0.099767
v -0.011037 0.889530 -0.149745
v 0.004677 0.940756 0.128854
v -0.009653 0.941566 -0.154910
v 0.003999 0.891180 0.135224
v -0.248557 0.821661 0.053545
v -0.071509 0.760673 0.052755
v -0.276825 0.682328 0.215915
v -0.263416 0.697389 0.350840
v -0.264140 0.781064 0.317194
v -0.272967 0.694305 0.226715
v -0.152708 0.780148 0.340494
v -0.146007 0.685742 0.236877
v -0.152028 0.714603 0.366040
v -0.149221 0.690263 0.216905
v -0.256767 0.515213 0.187274
v -0.255702 0.528932 0.331648
v -0.133006 0.546391 0.349153
v -0.113502 0.533213 0.187035
v -0.163303 0.250283 0.261379
v -0.176349 0.251587 0.343318
v -0.096537 0.252307 0.366825
v -0.080211 0.266729 0.263716
v -0.086730 0.935127 0.205262
v -0.234508 0.975462 0.170371
v -0.007883 1.625555 0.083758
v -0.159915 1.606752 0.082240
v -0.081378 0.174447 0.349838
v -0.066357 0.179047 0.253236
v -0.153302 0.168043 0.250356
v -0.184992 0.174104 0.330775
v -0.094628 0.218836 0.502562
v -0.178624 0.221466 0.487535
v -0.077892 0.178715 0.539656
v -0.200924 0.180688 0.517037
v -0.080688 0.175517 0.430219
v -0.092156 0.238799 0.434431
v -0.192994 0.177551 0.409640
v -0.174794 0.239657 0.414755
v -0.156965 1.378623 0.050838
v -0.127606 1.605683 0.092092
v -0.165966 1.431513 -0.097320
v -0.135894 1.639614 -0.027715
v -0.290680 1.409152 0.040239
v -0.243459 1.574974 0.048605
v -0.297828 1.450274 -0.078606
v -0.256562 1.605547 -0.022249
v -0.218357 1.240818 -0.001545
v -0.214829 1.247961 -0.140232
v -0.319338 1.261156 -0.003209
v -0.322882 1.273856 -0.129404
v -0.273989 0.899274 -0.017755
v -0.209231 1.243595 -0.016087
v -0.294971 0.907466 -0.151834
v -0.217956 1.262241 -0.135380
v -0.374908 0.914059 -0.004995
v -0.318489 1.271394 -0.001813
v -0.387682 0.921049 -0.140112
v -0.319584 1.288099 -0.122103
v -0.229117 1.097180 -0.024637
v -0.243414 1.101788 -0.143052
v -0.369630 1.136090 -0.126479
v -0.354092 1.131082 0.002214
v -0.308058 0.833174 -0.002573
v -0.290545 0.908234 -0.035818
v -0.311271 0.833047 -0.155226
v -0.304649 0.914712 -0.141374
v -0.356425 0.825740 -0.028076
v -0.357935 0.914968 -0.026401
v -0.379870 0.839901 -0.145639
v -0.372040 0.921446 -0.131956
v -0.305292 0.755119 -0.148106
v -0.291431 0.725876 -0.041665
v -0.345540 0.767480 -0.143103
v -0.339736 0.754449 -0.045785
v -0.306372 0.815488 -0.028919
v -0.007440 1.786153 0.010467
v -0.004084 1.743695 0.242801
v -0.084538 1.740287 0.195453
v -0.075236 1.780766 0.041592
v -0.065009 1.666780 0.177076
v -0.068528 1.887616 0.189262
v -0.077918 1.716505 0.062647
v -0.060462 1.903941 0.073153
v -0.006409 1.909474 0.048410
v -0.007213 1.711160 0.035345
v -0.004459 1.906536 0.209189
v -0.004869 1.633678 0.201988
v -0.019600 1.743133 0.232488
v -0.034000 1.640462 0.196166
v -0.050078 1.700867 0.057512
v -0.031938 1.901642 0.203790
v -0.080501 1.896803 0.132388
v -0.085321 1.690712 0.110502
v -0.100869 1.776931 0.128124
v -0.005590 1.931350 0.132014
v -0.005686 1.658415 0.144040
v -0.033855 1.931114 0.132353
v -0.049656 1.666448 0.127237
v -0.053227 1.587162 0.009038
v -0.007993 1.581283 -0.012912
v -0.006393 1.537982 0.095598
v -0.052679 1.555887 0.084837
v -0.036210 1.809977 0.222127
v -0.004132 1.809962 0.232826
v -0.086207 1.808436 0.197533
v -0.004448 1.699996 0.223724
v 0.090554 1.816958 0.127257
v -0.081100 1.816391 0.042833
v 0.067258 1.816118 0.040636
v -0.007392 1.822896 0.009100
v -0.004156 1.701773 0.243199
v -0.025593 1.709088 0.222442
v -0.090557 1.714055 0.115502
v -0.095990 1.792079 0.090659
v -0.086889 1.727412 0.090010
v -0.116552 1.796050 0.089027
v -0.101667 1.822000 0.130332
vn 0.2396 0.1845 -0.9532
vn 0.9976 0.0686 -0.0117
vn 0.0616 -0.1002 -0.9931
vn 0.9995 0.0041 -0.0313
vn 0.1377 0.7250 0.6749
vn 0.1813 0.2555 -0.9497
vn 0.3040 -0.1330 0.9434
vn 0.1799 0.1112 0.9774
vn -0.0811 -0.9713 -0.2234
vn -0.2440 -0.9661 0.0842
vn 0.0094 -0.9918 0.1272
vn -0.0069 0.5428 -0.8398
vn 0.1726 -0.4060 0.8974
vn 0.2078 0.1219 0.9705
vn -0.9984 -0.0400 0.0402
vn 0.0881 0.2964 -0.9510
vn 0.9970 -0.0766 0.0079
vn -0.9842 -0.1732 0.0363
vn 0.1587 -0.5780 0.8005
vn 0.1404 -0.4539 0.8799
vn 0.0110 0.7643 -0.6448
vn 0.9991 -0.0177 0.0379
vn 0.9830 -0.1517 -0.1030
vn 0.9985 0.0333 0.0434
vn 0.1466 -0.5573 0.8173
vn -0.9967 -0.0253 0.0771
vn -0.9610 0.2703 -0.0581
vn -0.0431 0.2314 -0.9719
vn 0.1767 -0.4865 0.8556
vn -0.9899 -0.0513 0.1323
vn -0.9258 -0.3773 0.0218
vn 0.9831 0.1764 0.0495
vn 0.0620 0.1857 -0.9807
vn 0.1656 0.9644 0.2062
vn 0.7043 0.6110 0.3614
vn -0.0525 -0.9982 0.0280
vn -0.9858 0.1009 0.1342
vn 0.9736 0.0438 -0.2239
vn -0.0444 0.2464 -0.9681
vn 0.1284 0.8296 0.5434
vn 0.0168 -0.9480 0.3177
vn 0.0388 0.9988 -0.0289
vn 0.9337 0.3328 -0.1320
vn 0.9808 0.1833 -0.0660
vn 0.0443 0.9954 -0.0846
vn 0.0162 -0.9591 0.2827
vn -0.9843 0.1656 -0.0616
vn -0.9783 -0.1522 -0.1407
vn 0.2222 -0.0133 -0.9749
vn 0.9397 0.2910 0.1794
vn 0.2331 0.2116 0.9492
vn 0.0233 0.0682 0.9974
vn 0.2832 0.9587 0.0272
vn 0.2076 -0.9339 0.2911
vn 0.9791 0.1734 0.1059
vn -0.9441 -0.3252 -0.0534
vn 0.1570 -0.0872 -0.9837
vn -0.8898 -0.2844 -0.3569
vn 0.4243 -0.3498 -0.8352
vn 0.9084 0.1318 0.3967
vn -0.4681 0.3888 0.7936
vn 0.0188 -0.9103 0.4136
vn -0.1566 0.9201 -0.3591
vn -0.4650 0.3713 0.8037
vn 0.9093 0.3003 0.2881
vn 0.4240 -0.3571 -0.8323
vn -0.9105 -0.1820 -0.3714
vn -0.9171 -0.1539 -0.3678
vn -0.0025 0.3249 0.9457
vn 0.1675 0.0126 -0.9858
vn 0.4400 -0.2534 -0.8615
vn 0.8774 0.0927 0.4707
vn -0.1354 -0.5174 0.8449
vn -0.2238 0.2236 0.9486
vn 0.0271 0.9199 -0.3912
vn 0.3092 -0.8741 0.3746
vn 0.8054 -0.2715 0.5269
vn -0.8964 0.0883 -0.4344
vn 0.4314 -0.5086 -0.7452
vn -0.9889 -0.0719 -0.1300
vn 0.1572 0.3530 0.9223
vn -0.3866 0.7189 0.5776
vn 0.3068 0.0376 0.9510
vn 0.4537 0.1873 0.8712
vn -0.4140 -0.0349 -0.9096
vn 0.9596 -0.2493 0.1302
vn 0.5756 -0.2607 0.7751
vn 0.4057 -0.7984 -0.4450
vn -0.9754 -0.0280 0.2187
vn 0.1328 0.9454 -0.2975
vn 0.6705 -0.0483 0.7404
vn 0.2942 0.2137 0.9315
vn 0.5733 0.8109 -0.1168
vn 0.9997 0.0203 -0.0129
vn 0.3525 -0.2937 -0.8885
vn 0.0627 -0.9293 -0.3641
vn 0.5112 0.8107 0.2854
vn 0.1095 0.9340 0.3402
vn 0.9228 0.2710 -0.2737
vn 0.5323 -0.8278 -0.1773
vn 0.9333 -0.1229 -0.3375
vn 0.2648 -0.8923 -0.3658
vn 0.4107 0.3381 -0.8468
vn 0.3873 -0.3362 0.8585
vn 0.9490 0.2300 0.2157
vn 0.3364 -0.2923 -0.8952
vn 0.2575 -0.3125 0.9143
vn 0.4058 -0.9107 0.0770
vn -0.1127 0.0222 -0.9934
vn 0.9456 -0.2128 0.2463
vn -0.1303 0.9111 0.3911
vn 0.8555 -0.3826 -0.3488
vn -0.3795 0.1063 -0.9191
vn -0.9943 0.1021 0.0321
vn -0.3779 -0.0815 -0.9222
vn -0.9991 -0.0417 -0.0109
vn -0.1654 0.7273 0.6661
vn -0.1652 0.2485 -0.9544
vn -0.3831 -0.1102 0.9171
vn -0.2146 0.0903 0.9725
vn 0.0304 -0.8162 0.5770
vn -0.3437 -0.9381 -0.0434
vn 0.2700 -0.9629 -0.0021
vn -0.0141 0.1753 -0.9844
vn 0.3574 0.8745 0.3279
vn -0.1198 0.1281 0.9845
vn 0.9978 -0.0364 0.0547
vn -0.1750 -0.8352 -0.5213
vn -0.9910 0.1278 -0.0389
vn 0.9417 -0.1885 0.2785
vn -0.0705 0.6382 0.7666
vn -0.1844 0.3609 0.9142
vn 0.0128 0.9711 -0.2382
vn -0.9959 0.0506 0.0754
vn -0.9510 -0.3078 -0.0299
vn -0.9940 -0.0909 0.0609
vn -0.1207 -0.1152 0.9860
vn 0.9860 0.1585 0.0516
vn 0.9625 0.2701 0.0237
vn 0.0488 -0.2619 -0.9639
vn -0.1993 0.0099 0.9799
vn 0.9805 0.1444 0.1331
vn 0.7668 -0.5953 0.2400
vn -0.9085 0.3272 -0.2601
vn -0.2472 -0.7949 -0.5541
vn -0.1745 0.9644 0.1988
vn -0.7216 0.6065 0.3340
vn 0.0568 -0.9981 0.0232
vn 0.9755 0.1433 0.1668
vn -0.9632 0.0312 -0.2668
vn 0.0099 0.1269 -0.9919
vn -0.1244 0.6357 0.7618
vn -0.0223 -0.9993 0.0287
vn -0.0339 0.9651 0.2598
vn -0.9325 0.3598 -0.0308
vn -0.9808 0.1926 -0.0312
vn -0.0475 0.9822 0.1817
vn -0.0129 -0.9995 0.0278
vn 0.9820 0.1879 -0.0179
vn 0.9890 -0.1098 -0.0994
vn -0.1360 0.3319 -0.9335
vn -0.9560 0.2257 0.1874
vn -0.3182 -0.1295 0.9391
vn -0.1114 -0.2842 0.9523
vn -0.2986 0.8934 0.3357
vn -0.2184 -0.9731 -0.0729
vn -0.9871 0.1419 0.0742
vn 0.9499 -0.3018 -0.0813
vn -0.0692 0.2646 -0.9619
vn 0.9608 -0.2355 -0.1462
vn -0.1120 0.0733 -0.9910
vn -0.9904 0.0838 0.1101
vn 0.1670 -0.0272 0.9856
vn -0.1494 -0.9881 -0.0370
vn 0.2604 0.9566 0.1305
vn 0.1608 -0.0467 0.9859
vn -0.9559 0.2800 0.0883
vn -0.1126 0.0654 -0.9915
vn 0.9842 -0.1397 -0.1090
vn 0.9879 -0.1234 -0.0938
vn -0.0849 -0.0261 0.9960
vn -0.0809 0.3590 -0.9298
vn -0.1190 0.1754 -0.9773
vn -0.9856 0.0214 0.1678
vn -0.1597 -0.8243 0.5432
vn -0.1138 -0.2063 0.9718
vn 0.1058 0.9933 0.0468
vn -0.4163 -0.8974 -0.1460
vn -0.9362 -0.3413 0.0842
vn 0.9906 0.1255 -0.0546
vn -0.1500 -0.1034 -0.9833
vn 0.9741 -0.1539 0.1657
vn -0.4633 -0.0245 0.8859
vn 0.1646 0.3671 0.9155
vn -0.3976 -0.0385 0.9168
vn -0.4326 0.1928 0.8807
vn 0.3867 -0.0363 -0.9215
vn -0.9563 -0.2457 0.1587
vn -0.5543 -0.2580 0.7913
vn -0.4215 -0.7967 -0.4330
vn 0.3901 0.3778 -0.8397
vn -0.1557 0.9430 -0.2940
vn -0.6477 -0.0449 0.7606
vn -0.2712 0.2149 0.9382
vn -0.4142 0.3818 -0.8262
vn -0.5894 0.8012 -0.1028
vn -0.9996 0.0210 0.0161
vn -0.3797 -0.2923 -0.8777
vn -0.0764 -0.9292 -0.3616
vn -0.5177 0.8021 0.2977
vn -0.1169 0.9321 0.3429
vn -0.9237 0.2882 -0.2526
vn -0.5402 -0.8260 -0.1609
vn -0.9433 -0.1193 -0.3097
vn -0.2756 -0.8922 -0.3578
vn -0.4349 0.3384 -0.8345
vn -0.3621 -0.3361 0.8694
vn -0.4722 -0.0099 0.8814
vn -0.4031 0.0887 0.9108
vn 0.4292 0.0875 0.8990
vn 0.4977 -0.0118 0.8673
vn -0.3637 -0.2909 -0.8849
vn -0.2290 -0.3130 0.9217
vn -0.3980 -0.9131 0.0893
vn 0.0832 0.0217 -0.9963
vn -0.9386 -0.2090 0.2743
vn 0.1451 0.9106 0.3871
vn -0.8669 -0.3793 -0.3235
vn 0.9807 -0.0373 0.1919
vn 0.9606 0.0001 -0.2780
vn -0.9751 -0.0306 0.2199
vn 0.9810 -0.0346 0.1907
vn -0.9359 0.2463 0.2521
vn -0.9691 0.0063 -0.2465
vt 0.769832 0.195645
vt 0.775252 0.120749
vt 0.898457 0.115387
vt 0.893855 0.199439
vt 0.779478 0.033265
vt 0.875888 0.020883
vt 0.079276 0.380758
vt 0.015809 0.352495
vt 0.092810 0.349129
vt 0.640892 0.115732
vt 0.651808 0.045918
vt 0.972902 0.747099
vt 0.945788 0.808209
vt 0.869285 0.817542
vt 0.869303 0.746010
vt 0.623064 0.191154
vt 0.978616 0.563599
vt 0.869350 0.563483
vt 0.869382 0.439703
vt 0.981068 0.426748
vt 0.887298 0.020144
vt 0.903448 0.092046
vt 0.869386 0.423683
vt 0.966087 0.423037
vt 0.919014 0.125551
vt 0.901661 0.199678
vt 0.080227 0.193471
vt 0.035111 0.194551
vt 0.029851 0.129329
vt 0.078457 0.129531
vt 0.524664 0.024934
vt 0.453935 0.048979
vt 0.476762 0.096074
vt 0.529992 0.085338
vt 0.458519 0.014915
vt 0.140591 0.209945
vt 0.084060 0.210053
vt 0.139428 0.189660
vt 0.088688 0.293915
vt 0.019697 0.289600
vt 0.036330 0.210891
vt 0.589766 0.089175
vt 0.538912 0.169399
vt 0.588096 0.171055
vt 0.169119 0.280272
vt 0.494132 0.172296
vt 0.495777 0.194811
vt 0.540097 0.192752
vt 0.594693 0.186440
vt 0.602720 0.254314
vt 0.550300 0.251019
vt 0.546511 0.359212
vt 0.576655 0.358602
vt 0.502818 0.254080
vt 0.133655 0.131663
vt 0.460444 0.638059
vt 0.461859 0.667341
vt 0.511272 0.661029
vt 0.492341 0.643217
vt 0.059953 0.028917
vt 0.089979 0.037143
vt 0.513486 0.356281
vt 0.126069 0.032173
vt 0.187391 0.328606
vt 0.600139 0.026470
vt 0.980612 0.851849
vt 0.869271 0.873069
vt 0.214036 0.700438
vt 0.168892 0.698897
vt 0.170775 0.659242
vt 0.208186 0.653496
vt 0.429138 0.636018
vt 0.382088 0.640297
vt 0.380987 0.679254
vt 0.425514 0.672609
vt 0.172591 0.619486
vt 0.211119 0.618494
vt 0.342980 0.638844
vt 0.341450 0.677655
vt 0.504441 0.606319
vt 0.529468 0.607110
vt 0.250819 0.702808
vt 0.243337 0.651469
vt 0.292311 0.649141
vt 0.300801 0.705699
vt 0.244056 0.622019
vt 0.258050 0.585846
vt 0.290061 0.591615
vt 0.277688 0.628694
vt 0.226990 0.579872
vt 0.239778 0.437910
vt 0.241642 0.380815
vt 0.334062 0.371731
vt 0.335105 0.430080
vt 0.244961 0.564466
vt 0.270260 0.519900
vt 0.334573 0.576660
vt 0.267325 0.484741
vt 0.339743 0.479221
vt 0.337393 0.523671
vt 0.397256 0.433766
vt 0.400592 0.476589
vt 0.218167 0.523740
vt 0.216842 0.468389
vt 0.934188 0.071641
vt 0.985147 0.071450
vt 0.980416 0.114135
vt 0.934188 0.111273
vt 0.409685 0.525397
vt 0.413123 0.381914
vt 0.413123 0.570440
vt 0.588235 0.616390
vt 0.541774 0.616014
vt 0.540412 0.699472
vt 0.594290 0.698674
vt 0.733169 0.616366
vt 0.683834 0.612729
vt 0.688349 0.697632
vt 0.724849 0.697622
vt 0.637083 0.612063
vt 0.634642 0.698467
vt 0.933176 0.242559
vt 0.985452 0.244219
vt 0.985670 0.280546
vt 0.933413 0.282101
vt 0.980360 0.291116
vt 0.933814 0.295150
vt 0.933988 0.335813
vt 0.980548 0.334832
vt 0.637975 0.554612
vt 0.592385 0.555443
vt 0.685764 0.549762
vt 0.727568 0.549351
vt 0.544847 0.548303
vt 0.557765 0.809694
vt 0.510229 0.803468
vt 0.511171 0.765578
vt 0.565124 0.764368
vt 0.479691 0.799649
vt 0.486340 0.766582
vt 0.437092 0.787533
vt 0.443585 0.748829
vt 0.425923 0.754711
vt 0.422123 0.742946
vt 0.429690 0.730629
vt 0.447798 0.694577
vt 0.457086 0.718428
vt 0.949739 0.404064
vt 0.949739 0.353270
vt 0.982292 0.353270
vt 0.982292 0.404064
vt 0.460533 0.693281
vt 0.502277 0.717435
vt 0.495857 0.735141
vt 0.514016 0.729944
vt 0.562185 0.720311
vt 0.408828 0.775679
vt 0.278149 0.967649
vt 0.246334 0.979776
vt 0.249708 0.914564
vt 0.277992 0.912907
vt 0.013923 0.884272
vt 0.022151 0.852843
vt 0.077991 0.867331
vt 0.074449 0.892252
vt 0.315578 0.881871
vt 0.272833 0.868911
vt 0.266436 0.823662
vt 0.311469 0.826118
vt 0.312630 0.841540
vt 0.233032 0.873502
vt 0.237034 0.853143
vt 0.243726 0.809688
vt 0.293162 0.797592
vt 0.353002 0.808376
vt 0.344750 0.831707
vt 0.171111 0.912654
vt 0.129263 0.910165
vt 0.133762 0.881302
vt 0.504295 0.904470
vt 0.456722 0.873442
vt 0.486878 0.832177
vt 0.523186 0.892354
vt 0.393060 0.750737
vt 0.369166 0.770382
vt 0.342151 0.723866
vt 0.371660 0.694150
vt 0.224422 0.982399
vt 0.224589 0.913793
vt 0.464697 0.929008
vt 0.510943 0.418646
vt 0.509620 0.457222
vt 0.450276 0.457321
vt 0.451259 0.416801
vt 0.371260 0.868269
vt 0.391399 0.792592
vt 0.427034 0.854273
vt 0.224914 0.800301
vt 0.250611 0.780243
vt 0.499027 0.969201
vt 0.535560 0.959128
vt 0.557854 0.949811
vt 0.378068 0.967627
vt 0.326324 0.969178
vt 0.319455 0.907637
vt 0.374611 0.893121
vt 0.340158 0.885118
vt 0.330117 0.844664
vt 0.450534 0.480546
vt 0.422105 0.480397
vt 0.434613 0.451640
vt 0.511818 0.394240
vt 0.445658 0.392364
vt 0.509788 0.480859
vt 0.224768 0.847580
vt 0.329170 0.701515
vt 0.145363 0.785723
vt 0.128390 0.783055
vt 0.170261 0.738493
vt 0.116930 0.746993
vt 0.160651 0.716692
vt 0.111510 0.779844
vt 0.893310 0.283615
vt 0.770664 0.270731
vt 0.865483 0.388919
vt 0.769534 0.358310
vt 0.423897 0.371814
vt 0.408299 0.341150
vt 0.485355 0.339413
vt 0.636248 0.267526
vt 0.642876 0.337877
vt 0.765704 0.747046
vt 0.792786 0.808169
vt 0.760084 0.563543
vt 0.757703 0.426691
vt 0.876826 0.390354
vt 0.896865 0.307217
vt 0.772687 0.422987
vt 0.914451 0.274726
vt 0.410556 0.185000
vt 0.408092 0.121083
vt 0.456578 0.117665
vt 0.455645 0.183093
vt 0.253560 0.018334
vt 0.251430 0.078936
vt 0.305153 0.086844
vt 0.325460 0.038610
vt 0.319084 0.004836
vt 0.351414 0.205432
vt 0.351233 0.185114
vt 0.407829 0.201799
vt 0.408760 0.285783
vt 0.455510 0.199477
vt 0.477314 0.276913
vt 0.191942 0.085924
vt 0.197935 0.167602
vt 0.246963 0.163350
vt 0.327602 0.277492
vt 0.291833 0.163878
vt 0.247013 0.186734
vt 0.291379 0.186449
vt 0.192159 0.183314
vt 0.187729 0.251517
vt 0.219266 0.354283
vt 0.249400 0.353300
vt 0.239901 0.245457
vt 0.287479 0.246007
vt 0.353156 0.126862
vt 0.373466 0.625371
vt 0.341578 0.620155
vt 0.322681 0.602307
vt 0.372105 0.596087
vt 0.390482 0.029659
vt 0.419898 0.019465
vt 0.282224 0.348629
vt 0.354142 0.027088
vt 0.312568 0.326929
vt 0.178272 0.023855
vt 0.757941 0.851792
vt 0.013855 0.710087
vt 0.062637 0.719760
vt 0.053791 0.758555
vt 0.012068 0.757539
vt 0.404768 0.627471
vt 0.408460 0.590887
vt 0.452999 0.584325
vt 0.451825 0.623280
vt 0.095615 0.759647
vt 0.099560 0.719322
vt 0.492533 0.585997
vt 0.490931 0.624805
vt 0.329410 0.657029
vt 0.304385 0.656192
vt 0.014143 0.671338
vt 0.013329 0.626462
vt 0.071995 0.639628
vt 0.067412 0.683054
vt 0.098346 0.684520
vt 0.093882 0.648751
vt 0.133695 0.638573
vt 0.137331 0.672574
vt 0.141254 0.705593
vt 0.185664 0.538131
vt 0.086734 0.549483
vt 0.089781 0.610162
vt 0.185643 0.597604
vt 0.176017 0.406617
vt 0.082362 0.396940
vt 0.151191 0.453841
vt 0.081208 0.452173
vt 0.080256 0.498505
vt 0.155426 0.490326
vt 0.011387 0.503289
vt 0.011387 0.547736
vt 0.208505 0.505645
vt 0.205267 0.448094
vt 0.933051 0.227541
vt 0.935500 0.187984
vt 0.981816 0.187984
vt 0.983901 0.230880
vt 0.011387 0.452807
vt 0.011387 0.602224
vt 0.011387 0.406053
vt 0.685388 0.464625
vt 0.679517 0.382326
vt 0.733395 0.381660
vt 0.731848 0.465114
vt 0.540455 0.464294
vt 0.548955 0.383058
vt 0.585455 0.383138
vt 0.589782 0.468052
vt 0.639164 0.382434
vt 0.636531 0.468832
vt 0.926036 0.053242
vt 0.926036 0.013699
vt 0.978301 0.014940
vt 0.978301 0.051267
vt 0.941318 0.172865
vt 0.942408 0.129162
vt 0.988977 0.129542
vt 0.987962 0.170192
vt 0.635511 0.526281
vt 0.681104 0.525562
vt 0.587712 0.531014
vt 0.545907 0.531323
vt 0.728625 0.532818
vt 0.736669 0.725394
vt 0.735353 0.771722
vt 0.683130 0.758703
vt 0.689295 0.721117
vt 0.659178 0.752270
vt 0.658895 0.718191
vt 0.614298 0.760413
vt 0.615218 0.720808
vt 0.598227 0.750739
vt 0.592334 0.761513
vt 0.621741 0.793364
vt 0.608255 0.814858
vt 0.597389 0.775323
vt 0.902963 0.354102
vt 0.935516 0.354102
vt 0.935516 0.404895
vt 0.902963 0.404895
vt 0.620394 0.818928
vt 0.662554 0.785374
vt 0.665487 0.804249
vt 0.724263 0.814542
vt 0.679237 0.794482
vt 0.585527 0.726307
vt 0.170921 0.966691
vt 0.199450 0.914463
vt 0.202557 0.979360
vt 0.434990 0.885665
vt 0.136920 0.840949
vt 0.138178 0.825523
vt 0.183245 0.823379
vt 0.176564 0.868613
vt 0.206044 0.809560
vt 0.212468 0.853064
vt 0.216352 0.873452
vt 0.156680 0.797114
vt 0.104811 0.830875
vt 0.096708 0.807441
vt 0.427703 0.967162
vt 0.542713 0.881290
vt 0.537443 0.824738
vt 0.340263 0.781402
vt 0.301717 0.734772
vt 0.020099 0.966282
vt 0.069986 0.966279
vt 0.582883 0.857700
vt 0.510287 0.543080
vt 0.450588 0.544296
vt 0.450031 0.503768
vt 0.509371 0.504492
vt 0.058337 0.791326
vt 0.199393 0.779972
vt 0.602434 0.906809
vt 0.576490 0.934433
vt 0.122173 0.967791
vt 0.119390 0.843962
vt 0.109116 0.884444
vt 0.434309 0.509284
vt 0.510905 0.567494
vt 0.444729 0.568673
vt 0.612579 0.943799
vt 0.704302 0.960286
vt 0.690069 0.863893
vt 0.628178 0.846809
vt 0.727017 0.964931
vt 0.742045 0.877429
vt 0.749981 0.968131
vt 0.795559 0.882010
vt 0.849700 0.973890
vt 0.859604 0.886554
vt 0.262137 0.727847
vt 0.208247 0.720642
vt 0.265551 0.745007
vt 0.235108 0.768630
vt 0.190786 0.737487
vt 0.268411 0.762268
s 0
f 103/1/1 2/2/1 8/3/1 112/4/1
f 2/2/2 1/5/2 7/6/2 8/3/2
f 119/7/3 5/8/3 117/9/3
f 6/10/4 4/11/4 1/5/4 2/2/4
f 4/12/5 29/13/5 141/14/5 113/15/5
f 111/16/6 6/10/6 2/2/6 103/1/6
f 1/17/7 104/18/7 114/19/7 7/20/7
f 4/12/8 113/15/8 104/18/8
f 3/21/9 5/22/9 8/3/9 7/6/9
f 118/23/10 3/24/10 7/20/10 114/19/10
f 5/25/11 119/26/11 112/4/11 8/3/11
f 18/27/12 11/28/12 19/29/12 22/30/12
f 3/31/13 120/32/13 27/33/13 28/34/13
f 3/31/14 118/35/14 120/32/14
f 15/36/15 16/37/15 18/27/15 17/38/15
f 10/39/16 9/40/16 14/41/16 16/37/16
f 9/42/17 28/34/17 13/43/17 14/44/17
f 27/45/18 10/39/18 16/37/18 15/36/18
f 28/34/19 27/33/19 15/46/19 13/43/19
f 13/43/20 15/46/20 17/47/20 12/48/20
f 16/37/21 14/41/21 11/28/21 18/27/21
f 14/44/22 13/43/22 12/48/22 11/49/22
f 19/50/23 20/51/23 24/52/23 23/53/23
f 11/49/24 12/48/24 20/51/24 19/50/24
f 12/48/25 17/47/25 21/54/25 20/51/25
f 17/38/26 18/27/26 22/30/26 21/55/26
f 39/56/27 38/57/27 36/58/27 34/59/27
f 22/30/28 19/29/28 23/60/28 26/61/28
f 20/51/29 21/54/29 25/62/29 24/52/29
f 21/55/30 22/30/30 26/61/30 25/63/30
f 120/64/31 117/9/31 10/39/31 27/45/31
f 5/65/32 3/31/32 28/34/32 9/42/32
f 117/9/33 5/8/33 9/40/33 10/39/33
f 141/14/34 29/13/34 6/66/34 111/67/34
f 6/66/35 29/13/35 4/12/35
f 30/68/36 31/69/36 32/70/36 33/71/36
f 25/72/37 26/73/37 31/74/37 30/75/37
f 23/76/38 24/77/38 33/71/38 32/70/38
f 26/73/39 23/78/39 32/79/39 31/74/39
f 35/80/40 34/59/40 36/58/40 37/81/40
f 38/82/41 40/83/41 37/84/41 36/85/41
f 41/86/42 39/87/42 34/88/42 35/89/42
f 40/83/43 41/86/43 35/89/43 37/84/43
f 33/71/44 24/77/44 41/86/44 40/83/44
f 24/77/45 25/90/45 39/87/45 41/86/45
f 30/68/46 33/71/46 40/83/46 38/82/46
f 25/72/47 30/75/47 38/57/47 39/56/47
f 43/91/48 45/92/48 44/93/48 42/94/48
f 45/95/49 49/96/49 44/97/49
f 49/96/50 47/98/50 46/99/50 48/100/50
f 47/98/51 43/91/51 42/94/51
f 46/99/52 42/94/52 50/101/52 52/102/52
f 47/98/53 49/96/53 45/103/53 43/104/53
f 50/105/54 51/106/54 53/107/54 52/108/54
f 48/100/55 46/99/55 52/102/55 53/109/55
f 42/94/56 44/93/56 51/110/56 50/101/56
f 44/97/57 48/100/57 53/109/57 51/111/57
f 62/112/58 63/113/58 56/114/58 54/115/58
f 63/116/59 64/117/59 60/118/59 56/119/59
f 64/117/60 65/120/60 58/121/60 60/118/60
f 65/120/61 62/112/61 54/115/61 58/121/61
f 54/122/62 56/123/62 60/124/62 58/125/62
f 59/126/63 61/127/63 57/128/63 55/129/63
f 59/130/64 55/131/64 62/112/64 65/120/64
f 61/132/65 59/130/65 65/120/65 64/117/65
f 57/133/66 61/132/66 64/117/66 63/116/66
f 55/131/67 57/134/67 63/113/67 62/112/67
f 67/135/68 69/136/68 68/137/68 78/138/68
f 42/94/69 46/99/69 47/98/69
f 44/97/70 49/96/70 48/100/70
f 69/136/71 73/139/71 72/140/71 68/137/71
f 73/139/72 71/141/72 70/142/72 72/140/72
f 66/143/73 78/144/73 70/142/73
f 70/142/74 78/145/74 75/146/74 77/147/74
f 71/148/75 73/149/75 69/150/75 67/151/75
f 75/152/76 74/153/76 76/154/76 77/147/76
f 72/140/77 70/142/77 77/147/77 76/154/77
f 78/138/78 68/137/78 74/155/78 75/156/78
f 68/137/79 72/140/79 76/154/79 74/155/79
f 67/157/80 78/144/80 66/143/80
f 71/141/81 66/143/81 70/142/81
f 67/157/82 66/143/82 71/141/82
f 104/18/83 1/17/83 4/12/83
f 82/158/84 88/159/84 96/160/84 97/161/84
f 226/162/85 192/163/85 195/164/85 224/165/85
f 91/166/86 79/167/86 81/168/86 90/169/86 99/170/86
f 79/167/87 85/171/87 98/172/87 86/173/87 81/168/87
f 93/174/88 87/175/88 83/176/88 90/169/88
f 221/177/89 233/178/89 210/179/89
f 92/180/90 84/181/90 200/182/90 211/183/90
f 85/184/91 193/185/91 227/186/91 98/187/91
f 88/159/92 202/188/92 220/189/92 96/160/92
f 89/190/93 84/181/93 92/180/93
f 87/191/94 93/192/94 95/193/94 94/194/94
f 80/195/95 201/196/95 192/197/95
f 203/198/96 212/199/96 93/174/96 86/173/96
f 82/200/97 89/190/97 92/180/97 88/201/97
f 88/201/98 92/180/98 211/183/98 202/202/98
f 84/203/99 89/204/99 223/205/99 225/206/99
f 86/173/100 93/174/100 90/169/100 81/168/100
f 80/195/101 100/207/101 101/208/101 99/170/101 90/169/101 83/176/101
f 217/209/102 216/210/102 94/211/102 95/193/102
f 201/212/103 87/191/103 94/194/103 216/213/103
f 93/192/104 212/214/104 217/209/104 95/193/104
f 89/204/105 82/158/105 97/161/105 223/205/105
f 87/175/106 201/196/106 80/195/106 83/176/106
f 98/172/107 222/215/107 203/198/107 86/173/107
f 222/216/108 98/187/108 227/186/108
f 100/217/109 102/218/109 101/219/109
f 91/220/110 99/221/110 102/218/110
f 100/222/111 91/220/111 102/218/111
f 102/218/112 99/221/112 101/219/112
f 103/1/113 112/4/113 116/223/113 106/224/113
f 106/224/114 116/223/114 115/225/114 105/226/114
f 119/227/115 117/228/115 109/229/115
f 110/230/116 106/224/116 105/226/116 108/231/116
f 108/232/117 113/15/117 141/14/117 142/233/117
f 111/16/118 103/1/118 106/224/118 110/230/118
f 105/234/119 115/235/119 114/19/119 104/18/119
f 108/232/120 104/18/120 113/15/120
f 107/236/121 115/225/121 116/223/121 109/237/121
f 118/23/122 114/19/122 115/235/122 107/238/122
f 109/239/123 116/223/123 112/4/123 119/26/123
f 130/240/124 134/241/124 131/242/124 123/243/124
f 107/244/125 140/245/125 139/246/125 120/247/125
f 107/244/126 120/247/126 118/248/126
f 127/249/127 129/250/127 130/240/127 128/251/127
f 122/252/128 128/251/128 126/253/128 121/254/128
f 121/255/129 126/256/129 125/257/129 140/245/129
f 139/258/130 127/249/130 128/251/130 122/252/130
f 140/245/131 125/257/131 127/259/131 139/246/131
f 125/257/132 124/260/132 129/261/132 127/259/132
f 128/251/133 130/240/133 123/243/133 126/253/133
f 126/256/134 123/262/134 124/260/134 125/257/134
f 131/263/135 135/264/135 136/265/135 132/266/135
f 123/262/136 131/263/136 132/266/136 124/260/136
f 124/260/137 132/266/137 133/267/137 129/261/137
f 129/250/138 133/268/138 134/241/138 130/240/138
f 152/269/139 147/270/139 149/271/139 151/272/139
f 134/241/140 138/273/140 135/274/140 131/242/140
f 132/266/141 136/265/141 137/275/141 133/267/141
f 133/268/142 137/276/142 138/273/142 134/241/142
f 120/277/143 139/258/143 122/252/143 117/228/143
f 109/278/144 121/255/144 140/245/144 107/244/144
f 117/228/145 122/252/145 121/254/145 109/229/145
f 141/14/146 111/67/146 110/279/146 142/233/146
f 110/279/147 108/232/147 142/233/147
f 143/280/148 146/281/148 145/282/148 144/283/148
f 137/284/149 143/285/149 144/286/149 138/287/149
f 135/288/150 145/282/150 146/281/150 136/289/150
f 138/287/151 144/286/151 145/290/151 135/291/151
f 148/292/152 150/293/152 149/271/152 147/270/152
f 151/294/153 149/295/153 150/296/153 153/297/153
f 154/298/154 148/299/154 147/300/154 152/301/154
f 153/297/155 150/296/155 148/299/155 154/298/155
f 146/281/156 153/297/156 154/298/156 136/289/156
f 136/289/157 154/298/157 152/301/157 137/302/157
f 143/280/158 151/294/158 153/297/158 146/281/158
f 137/284/159 152/269/159 151/272/159 143/285/159
f 156/303/160 155/304/160 157/305/160 158/306/160
f 158/307/161 157/308/161 162/309/161
f 162/309/162 161/310/162 159/311/162 160/312/162
f 160/312/163 155/304/163 156/303/163
f 159/311/164 165/313/164 163/314/164 155/304/164
f 160/312/165 156/315/165 158/316/165 162/309/165
f 163/317/166 165/318/166 166/319/166 164/320/166
f 161/310/167 166/321/167 165/313/167 159/311/167
f 155/304/168 163/314/168 164/322/168 157/305/168
f 157/308/169 164/323/169 166/321/169 161/310/169
f 175/324/170 167/325/170 169/326/170 176/327/170
f 176/328/171 169/329/171 173/330/171 177/331/171
f 177/331/172 173/330/172 171/332/172 178/333/172
f 178/333/173 171/332/173 167/325/173 175/324/173
f 167/334/174 171/335/174 173/336/174 169/337/174
f 172/338/175 168/339/175 170/340/175 174/341/175
f 172/342/176 178/333/176 175/324/176 168/343/176
f 174/344/177 177/331/177 178/333/177 172/342/177
f 170/345/178 176/328/178 177/331/178 174/344/178
f 168/343/179 175/324/179 176/327/179 170/346/179
f 180/347/180 191/348/180 181/349/180 182/350/180
f 155/304/181 160/312/181 159/311/181
f 157/308/182 161/310/182 162/309/182
f 182/350/183 181/349/183 185/351/183 186/352/183
f 186/352/184 185/351/184 183/353/184 184/354/184
f 179/355/185 183/353/185 191/356/185
f 183/353/186 190/357/186 188/358/186 191/359/186
f 184/360/187 180/361/187 182/362/187 186/363/187
f 188/364/188 190/357/188 189/365/188 187/366/188
f 185/351/189 189/365/189 190/357/189 183/353/189
f 191/348/190 188/367/190 187/368/190 181/349/190
f 181/349/191 187/368/191 189/365/191 185/351/191
f 180/369/192 179/355/192 191/356/192
f 184/354/193 183/353/193 179/355/193
f 180/369/194 184/354/194 179/355/194
f 104/18/195 108/232/195 105/234/195
f 197/370/196 221/177/196 219/371/196 207/372/196
f 80/195/197 192/197/197 226/373/197 225/206/197
f 210/179/198 229/374/198 209/375/198 196/376/198 194/377/198
f 194/377/199 196/376/199 205/378/199 228/379/199 204/380/199
f 214/381/200 209/375/200 198/382/200 206/383/200
f 225/206/201 226/373/201 200/384/201 84/203/201
f 213/385/202 211/183/202 200/182/202 199/386/202
f 204/387/203 228/388/203 227/186/203 193/185/203
f 207/372/204 219/371/204 220/189/204 202/188/204
f 200/389/205 226/162/205 224/165/205 199/390/205
f 208/391/206 213/385/206 199/386/206
f 206/392/207 215/393/207 218/394/207 214/395/207
f 195/164/208 192/163/208 201/396/208
f 203/198/209 205/378/209 214/381/209 212/397/209
f 197/398/210 207/399/210 213/385/210 208/391/210
f 207/399/211 202/202/211 211/183/211 213/385/211
f 199/390/212 224/165/212 233/178/212 208/400/212
f 205/378/213 196/376/213 209/375/213 214/381/213
f 195/164/214 198/382/214 209/375/214 229/374/214 231/401/214 230/402/214
f 217/209/215 218/394/215 215/403/215 216/210/215
f 201/404/216 216/405/216 215/393/216 206/392/216
f 214/395/217 218/394/217 217/209/217 212/214/217
f 194/406/218 204/407/218 219/408/218 221/409/218
f 204/407/219 193/410/219 220/411/219 219/408/219
f 85/412/220 96/413/220 220/411/220 193/410/220
f 79/414/221 97/415/221 96/413/221 85/412/221
f 206/383/222 198/382/222 195/164/222 201/396/222
f 228/379/223 205/378/223 203/198/223 222/215/223
f 222/216/224 227/186/224 228/388/224
f 230/416/225 231/417/225 232/418/225
f 210/419/226 232/418/226 229/420/226
f 230/421/227 232/418/227 210/419/227
f 232/418/228 231/417/228 229/420/228
f 223/205/229 97/161/229 91/166/229
f 225/206/230 223/205/230 91/166/230 100/207/230 80/195/230
f 221/177/231 210/179/231 194/377/231
f 91/166/232 97/161/232 79/167/232
f 233/178/233 221/177/233 197/370/233 208/400/233
f 233/178/234 224/165/234 195/164/234 230/402/234 210/179/234
