# Blender 4.3.2
# www.blender.org
o beggar
v 0.198644 1.188010 0.153685
v 0.178988 1.248471 -0.099604
v 0.191224 0.908374 0.114781
v 0.188134 1.506586 0.148920
v 0.187656 0.905166 -0.133515
v 0.198741 1.592474 -0.020971
v 0.205454 0.909017 0.131533
v 0.222056 0.902040 -0.142809
v 0.228213 0.773959 -0.088611
v 0.046763 0.740275 -0.121798
v 0.230568 0.531074 -0.105497
v 0.220720 0.471328 0.027142
v 0.222249 0.546177 0.047606
v 0.227642 0.553188 -0.083469
v 0.107650 0.539440 0.063698
v 0.098894 0.548543 -0.084415
v 0.106366 0.473953 0.045645
v 0.101686 0.535263 -0.105087
v 0.225136 0.378740 -0.197649
v 0.225267 0.329721 -0.060332
v 0.099995 0.329790 -0.039167
v 0.081084 0.384947 -0.192623
v 0.153039 0.091890 -0.246875
v 0.165505 0.083448 -0.165288
v 0.083489 0.084299 -0.142230
v 0.068421 0.107921 -0.236688
v 0.069059 0.748804 0.120343
v 0.219640 0.782454 0.104664
v 0.150147 1.586762 0.086720
v 0.070435 0.005841 -0.160348
v 0.058182 0.021196 -0.267990
v 0.145551 0.012911 -0.272626
v 0.174473 0.005998 -0.179819
v 0.082126 0.054193 -0.006096
v 0.166248 0.056167 -0.020448
v 0.064916 0.014874 0.031621
v 0.188137 0.015902 0.010006
v 0.068612 0.009541 -0.077738
v 0.080303 0.072834 -0.074592
v 0.181098 0.010746 -0.097397
v 0.163107 0.072994 -0.093381
v 0.150658 1.368149 0.104078
v 0.114599 1.597409 0.087968
v 0.168287 1.384548 -0.051644
v 0.130022 1.602124 -0.035780
v 0.284207 1.399674 0.094336
v 0.233562 1.561076 0.059969
v 0.298300 1.411561 -0.030269
v 0.250676 1.574334 -0.015252
v 0.217789 1.223941 0.089909
v 0.223129 1.197771 -0.046415
v 0.318283 1.246619 0.089346
v 0.329769 1.229048 -0.035786
v 0.244573 0.898399 0.172820
v 0.197768 1.227603 0.062424
v 0.295435 0.868330 0.050371
v 0.233890 1.211550 -0.051997
v 0.340660 0.918057 0.203594
v 0.302260 1.260315 0.092841
v 0.383706 0.886390 0.078642
v 0.331084 1.241978 -0.023704
v 0.211980 1.085236 0.100313
v 0.252652 1.056085 -0.008056
v 0.373449 1.095996 0.026545
v 0.329247 1.127676 0.144319
v 0.274492 0.838019 0.213756
v 0.265189 0.899562 0.157437
v 0.313444 0.795831 0.072279
v 0.303667 0.877491 0.060405
v 0.327502 0.827117 0.202980
v 0.328478 0.913206 0.179431
v 0.377870 0.809719 0.094667
v 0.366956 0.891134 0.082399
v 0.306047 0.722706 0.099795
v 0.267624 0.723219 0.204200
v 0.343984 0.738675 0.109973
v 0.315514 0.752748 0.203063
v 0.279056 0.813655 0.193874
v 0.078126 1.719980 0.193796
v 0.065902 1.760524 0.040125
v 0.057975 1.646602 0.175790
v 0.062679 1.868695 0.188259
v 0.068761 1.696272 0.061129
v 0.052672 1.884859 0.072280
v 0.013953 1.723038 0.232126
v 0.027281 1.620353 0.195487
v 0.040767 1.680734 0.056550
v 0.026073 1.882110 0.203313
v 0.073678 1.878068 0.131220
v 0.077025 1.670464 0.108838
v 0.093251 1.756591 0.126126
v 0.026469 1.911596 0.131857
v 0.041633 1.646359 0.126269
v 0.042843 1.567159 0.008027
v 0.043799 1.535885 0.083821
v 0.030574 1.789960 0.221432
v 0.080121 1.788358 0.195873
v 0.019614 1.689255 0.221867
v 0.082443 1.693786 0.113705
v 0.087677 1.771758 0.088765
v 0.078316 1.707142 0.088293
v 0.108217 1.775654 0.086722
v -0.002943 1.266648 -0.145157
v 0.005265 1.182712 0.216559
v -0.187718 1.190582 0.127580
v -0.179704 1.236988 -0.106369
v -0.179924 1.010960 0.082008
v -0.193563 1.506586 0.146587
v -0.201175 0.874207 -0.077628
v -0.202156 1.592474 -0.023660
v -0.001675 1.637550 -0.028053
v -0.005686 0.914022 -0.208906
v -0.003379 1.527564 0.184156
v 0.006506 0.936064 0.185303
v -0.192920 1.010640 0.097004
v -0.236744 0.867286 -0.104209
v -0.007105 0.860524 -0.147096
v 0.004431 0.929318 0.129405
v -0.004589 0.916712 -0.154974
v 0.001311 0.877822 0.138270
v -0.266044 0.826629 0.051629
v -0.096705 0.742831 0.060278
v -0.320222 0.745433 0.221354
v -0.294760 0.706453 0.330289
v -0.294382 0.804550 0.317401
v -0.315318 0.726065 0.236789
v -0.185213 0.790779 0.345508
v -0.192430 0.709298 0.254057
v -0.185094 0.724465 0.352567
v -0.195773 0.758262 0.230465
v -0.283039 0.632817 0.096690
v -0.273323 0.569717 0.225998
v -0.151746 0.588825 0.248787
v -0.142041 0.663594 0.103989
v -0.160142 0.351943 0.026322
v -0.172868 0.403774 0.065567
v -0.093389 0.428023 0.072786
v -0.080004 0.394548 0.031394
v -0.091277 0.926529 0.199870
v -0.233538 0.984983 0.158250
v -0.002769 1.605564 0.083669
v -0.155257 1.586762 0.084349
v -0.077166 0.386486 0.139150
v -0.060910 0.319307 0.046439
v -0.146821 0.302002 0.047582
v -0.180293 0.365082 0.129411
v -0.092784 0.552913 0.121377
v -0.176633 0.537199 0.119113
v -0.076245 0.587613 0.163303
v -0.199044 0.563613 0.160928
v -0.077891 0.477405 0.159899
v -0.089708 0.487154 0.097790
v -0.189984 0.455273 0.156434
v -0.172168 0.470892 0.096468
v -0.159008 1.360862 0.076451
v -0.120670 1.589895 0.090379
v -0.171312 1.396815 -0.076471
v -0.131924 1.610231 -0.032232
v -0.291912 1.394933 0.066457
v -0.238910 1.558756 0.054242
v -0.301753 1.422475 -0.056061
v -0.253405 1.581519 -0.019232
v -0.226737 1.220361 0.042165
v -0.227733 1.211511 -0.096464
v -0.326979 1.244116 0.041226
v -0.334424 1.242470 -0.085426
v -0.291742 0.883898 0.074519
v -0.212220 1.221022 0.021818
v -0.328446 0.875804 -0.056141
v -0.234519 1.224467 -0.097117
v -0.389623 0.906216 0.096594
v -0.317616 1.256914 0.044560
v -0.418366 0.896307 -0.035862
v -0.332555 1.257853 -0.075963
v -0.239398 1.076190 0.035637
v -0.267732 1.066189 -0.079883
v -0.389380 1.109828 -0.053825
v -0.358588 1.120697 0.071722
v -0.331013 0.820266 0.101927
v -0.310226 0.888157 0.057155
v -0.354633 0.802492 -0.047870
v -0.337568 0.883792 -0.045881
v -0.382874 0.815849 0.083596
v -0.374646 0.904158 0.073571
v -0.420209 0.818779 -0.031159
v -0.401988 0.899793 -0.029464
v -0.356078 0.725810 -0.031226
v -0.331279 0.707877 0.075734
v -0.393749 0.743511 -0.023141
v -0.376384 0.741461 0.073650
v -0.334761 0.799518 0.078154
v -0.002485 1.766163 0.010366
v -0.001350 1.723705 0.242721
v -0.081348 1.720297 0.194607
v -0.070575 1.760775 0.040841
v -0.061644 1.646790 0.176416
v -0.065280 1.867626 0.188568
v -0.073458 1.696515 0.061870
v -0.056104 1.883951 0.072542
v -0.001817 1.889483 0.048317
v -0.002495 1.691170 0.035245
v -0.001404 1.886545 0.209107
v -0.001745 1.613688 0.201902
v -0.016767 1.723142 0.232260
v -0.030819 1.620471 0.195803
v -0.045571 1.680876 0.057001
v -0.028830 1.881652 0.203445
v -0.076708 1.876812 0.131583
v -0.081319 1.670721 0.109651
v -0.097034 1.756941 0.127125
v -0.001797 1.911360 0.131925
v -0.002008 1.638424 0.143949
v -0.030064 1.911124 0.131993
v -0.045815 1.646458 0.126727
v -0.048256 1.567172 0.008499
v -0.002814 1.561292 -0.013018
v -0.002252 1.517992 0.095503
v -0.048433 1.535897 0.084300
v -0.033277 1.789986 0.221742
v -0.001304 1.789971 0.232746
v -0.083037 1.788445 0.196670
v -0.001532 1.680006 0.223641
v 0.094388 1.796968 0.128087
v -0.076451 1.796400 0.042026
v 0.071921 1.796128 0.041247
v -0.002424 1.802906 0.008999
v -0.001426 1.681782 0.243118
v -0.022664 1.689097 0.222157
v -0.086602 1.694064 0.114602
v -0.091797 1.772089 0.089707
v -0.082691 1.707422 0.089145
v -0.112343 1.776059 0.087879
v -0.097853 1.802009 0.129325
vn 0.2705 0.1608 -0.9492
vn 0.9969 0.0793 0.0023
vn 0.1013 -0.1426 -0.9846
vn 0.9996 -0.0111 -0.0252
vn 0.1466 0.7259 0.6720
vn 0.1732 0.2553 -0.9512
vn 0.2790 -0.0928 0.9558
vn 0.1903 0.0966 0.9770
vn -0.0537 -0.9984 0.0181
vn -0.1010 -0.9872 0.1231
vn -0.0675 -0.9961 0.0561
vn 0.0023 0.5104 -0.8600
vn 0.1255 -0.0616 0.9902
vn 0.0952 0.1633 0.9820
vn -0.9987 -0.0369 0.0362
vn 0.1196 -0.0870 -0.9890
vn 0.9991 -0.0004 0.0430
vn -0.9717 -0.2235 0.0770
vn 0.1504 -0.2313 0.9612
vn 0.1487 -0.2645 0.9528
vn -0.0000 0.7699 -0.6382
vn 0.9984 -0.0098 0.0552
vn 0.9718 -0.2084 -0.1106
vn 0.9994 -0.0201 0.0279
vn 0.1347 -0.5122 0.8482
vn -0.9951 0.0376 0.0916
vn -0.9616 0.2743 0.0104
vn -0.0489 0.1702 -0.9842
vn 0.1888 -0.4073 0.8936
vn -0.9899 0.0157 0.1407
vn -0.8972 -0.4355 0.0736
vn 0.9657 0.2596 0.0041
vn 0.1632 -0.2080 -0.9644
vn 0.1685 0.9644 0.2039
vn 0.7098 0.6098 0.3526
vn -0.0547 -0.9936 -0.0991
vn -0.9841 0.0936 0.1511
vn 0.9721 0.0671 -0.2248
vn -0.0349 0.3287 -0.9438
vn 0.1208 0.6499 0.7504
vn 0.0179 -0.9987 0.0480
vn 0.0356 0.9696 0.2419
vn 0.9341 0.3557 -0.0297
vn 0.9812 0.1920 -0.0198
vn 0.0439 0.9867 0.1567
vn 0.0154 -0.9986 0.0507
vn -0.9842 0.1754 -0.0237
vn -0.9783 -0.1628 -0.1280
vn 0.1902 0.1046 -0.9762
vn 0.9376 0.2952 0.1836
vn 0.2589 0.1082 0.9598
vn 0.0545 -0.0457 0.9975
vn 0.2601 0.9569 0.1290
vn 0.2402 -0.9548 0.1752
vn 0.9775 0.1879 0.0958
vn -0.9370 -0.3436 -0.0622
vn 0.1266 0.0304 -0.9915
vn -0.9138 -0.2850 -0.2893
vn 0.3347 -0.2108 -0.9185
vn 0.9434 0.1299 0.3052
vn -0.3847 0.2524 0.8879
vn 0.1061 -0.9546 0.2785
vn -0.2366 0.9491 -0.2079
vn -0.3797 0.2340 0.8950
vn 0.9242 0.3110 0.2217
vn 0.3349 -0.2185 -0.9166
vn -0.9403 -0.1830 -0.2870
vn -0.9382 -0.2114 -0.2741
vn 0.0206 0.2144 0.9765
vn 0.1345 0.1300 -0.9824
vn 0.3449 -0.0945 -0.9339
vn 0.9186 0.1340 0.3717
vn 0.0287 -0.6288 0.7771
vn -0.1172 0.0792 0.9899
vn -0.1149 0.9578 -0.2634
vn 0.4399 -0.8723 0.2134
vn 0.8906 -0.2401 0.3861
vn -0.9502 0.0379 -0.3092
vn 0.3767 -0.3612 -0.8530
vn -0.9856 -0.1678 -0.0206
vn 0.2425 0.2534 0.9365
vn -0.3753 0.5942 0.7114
vn 0.3085 0.0244 0.9509
vn 0.4454 0.1873 0.8755
vn -0.4053 -0.0349 -0.9135
vn 0.9583 -0.2493 0.1393
vn 0.5682 -0.2607 0.7805
vn 0.4099 -0.7984 -0.4411
vn -0.9774 -0.0280 0.2094
vn 0.1356 0.9454 -0.2962
vn 0.6634 -0.0483 0.7467
vn 0.2853 0.2137 0.9343
vn 0.5744 0.8109 -0.1113
vn 0.9998 0.0203 -0.0034
vn 0.3610 -0.2937 -0.8851
vn 0.0662 -0.9293 -0.3635
vn 0.5084 0.8107 0.2903
vn 0.1062 0.9340 0.3412
vn 0.9254 0.2710 -0.2649
vn 0.5340 -0.8278 -0.1722
vn 0.9365 -0.1229 -0.3286
vn 0.2682 -0.8923 -0.3632
vn 0.4188 0.3381 -0.8428
vn 0.3791 -0.3362 0.8621
vn 0.9469 0.2300 0.2248
vn 0.3449 -0.2923 -0.8920
vn 0.2488 -0.3125 0.9168
vn 0.4051 -0.9107 0.0808
vn -0.1032 0.0222 -0.9944
vn 0.9432 -0.2128 0.2553
vn -0.1340 0.9111 0.3899
vn 0.8588 -0.3826 -0.3406
vn -0.3479 0.1082 -0.9313
vn -0.9923 0.1094 0.0573
vn -0.3420 -0.1154 -0.9326
vn -0.9991 -0.0403 -0.0118
vn -0.1564 0.7267 0.6690
vn -0.1601 0.2575 -0.9529
vn -0.4302 -0.1256 0.8939
vn -0.2023 0.0866 0.9755
vn -0.0297 -0.7870 0.6162
vn -0.3843 -0.9229 0.0245
vn 0.2124 -0.9770 0.0199
vn -0.0835 0.7535 -0.6521
vn 0.4170 0.8577 0.3008
vn -0.1707 0.1772 0.9693
vn 0.9897 -0.1332 -0.0532
vn -0.2641 -0.8730 -0.4100
vn -0.9572 0.2784 -0.0789
vn 0.8846 -0.3296 0.3299
vn -0.0003 0.6941 0.7199
vn -0.2250 0.1177 0.9672
vn -0.0850 0.4864 0.8696
vn -0.9724 0.0579 0.2260
vn -0.9026 -0.4281 -0.0447
vn -0.9659 -0.2569 0.0325
vn -0.0552 -0.6131 0.7881
vn 0.9600 0.2605 0.1025
vn 0.9605 0.0498 -0.2738
vn -0.0265 0.2432 -0.9696
vn 0.0466 -0.7055 0.7072
vn 0.9707 0.1793 0.1601
vn 0.6852 -0.6668 0.2931
vn -0.8359 0.4438 -0.3231
vn -0.3013 -0.7939 -0.5281
vn -0.1716 0.9644 0.2012
vn -0.7158 0.6082 0.3430
vn 0.1309 -0.7763 0.6166
vn 0.9579 0.2871 -0.0037
vn -0.9627 -0.2180 -0.1604
vn 0.1128 -0.2497 -0.9617
vn -0.1396 0.7952 -0.5901
vn -0.0176 -0.0367 0.9992
vn -0.0427 0.3279 -0.9437
vn -0.9304 -0.0152 -0.3661
vn -0.9810 0.0151 -0.1934
vn -0.0534 0.4059 -0.9124
vn -0.0076 -0.2554 0.9668
vn 0.9795 0.0409 -0.1975
vn 0.9808 -0.1571 -0.1159
vn -0.1567 0.2281 -0.9609
vn -0.9409 0.2810 0.1890
vn -0.2899 -0.0097 0.9570
vn -0.0881 -0.1695 0.9816
vn -0.2569 0.9363 0.2395
vn -0.2532 -0.9663 0.0463
vn -0.9787 0.1860 0.0872
vn 0.9359 -0.3442 -0.0747
vn -0.0933 0.1556 -0.9834
vn 0.9247 -0.3095 -0.2216
vn -0.2281 -0.0498 -0.9724
vn -0.9651 0.1564 0.2101
vn 0.2839 0.0914 0.9545
vn -0.1960 -0.9738 0.1154
vn 0.3161 0.9482 -0.0318
vn 0.2769 0.0726 0.9581
vn -0.9250 0.3456 0.1580
vn -0.2290 -0.0576 -0.9717
vn 0.9566 -0.2112 -0.2007
vn 0.9477 -0.2537 -0.1938
vn -0.0515 0.0908 0.9945
vn -0.1007 0.2534 -0.9621
vn -0.2295 0.0719 -0.9706
vn -0.9463 0.1616 0.2800
vn -0.1723 -0.7285 0.6630
vn -0.0040 -0.0745 0.9972
vn 0.2162 0.9714 -0.0985
vn -0.5252 -0.8506 0.0253
vn -0.9474 -0.2117 0.2400
vn 0.9820 -0.0041 -0.1887
vn -0.2905 -0.1997 -0.9358
vn 0.9656 -0.2513 0.0672
vn -0.3405 0.1373 0.9302
vn 0.3238 0.4498 0.8324
vn -0.4200 -0.0622 0.9054
vn -0.4410 0.1928 0.8766
vn 0.3955 -0.0363 -0.9177
vn -0.9577 -0.2457 0.1496
vn -0.5619 -0.2580 0.7860
vn -0.4174 -0.7967 -0.4371
vn 0.3982 0.3778 -0.8359
vn -0.1529 0.9430 -0.2955
vn -0.6549 -0.0449 0.7544
vn -0.2802 0.2149 0.9356
vn -0.4062 0.3818 -0.8302
vn -0.5884 0.8012 -0.1085
vn -0.9998 0.0210 0.0066
vn -0.3713 -0.2923 -0.8813
vn -0.0730 -0.9292 -0.3623
vn -0.5205 0.8021 0.2927
vn -0.1202 0.9321 0.3417
vn -0.9212 0.2882 -0.2614
vn -0.5386 -0.8260 -0.1661
vn -0.9403 -0.1193 -0.3187
vn -0.2722 -0.8922 -0.3604
vn -0.4269 0.3384 -0.8386
vn -0.3704 -0.3361 0.8659
vn -0.4806 -0.0099 0.8769
vn -0.4118 0.0887 0.9069
vn 0.4206 0.0875 0.9030
vn 0.4894 -0.0118 0.8720
vn -0.3552 -0.2909 -0.8884
vn -0.2378 -0.3130 0.9195
vn -0.3988 -0.9130 0.0855
vn 0.0928 0.0217 -0.9955
vn -0.9412 -0.2090 0.2653
vn 0.1414 0.9106 0.3884
vn -0.8638 -0.3793 -0.3317
vn 0.9788 -0.0373 0.2013
vn 0.9632 0.0001 -0.2688
vn -0.9771 -0.0306 0.2105
vn 0.9792 -0.0346 0.2001
vn -0.9382 0.2463 0.2431
vn -0.9667 0.0063 -0.2558
vt 0.769832 0.195645
vt 0.775252 0.120749
vt 0.898457 0.115387
vt 0.893855 0.199439
vt 0.779478 0.033265
vt 0.875888 0.020883
vt 0.079276 0.380758
vt 0.015809 0.352495
vt 0.092810 0.349129
vt 0.640892 0.115732
vt 0.651808 0.045918
vt 0.972902 0.747099
vt 0.945788 0.808209
vt 0.869285 0.817542
vt 0.869303 0.746010
vt 0.623064 0.191154
vt 0.978616 0.563599
vt 0.869350 0.563483
vt 0.869382 0.439703
vt 0.981068 0.426748
vt 0.887298 0.020144
vt 0.903448 0.092046
vt 0.869386 0.423683
vt 0.966087 0.423037
vt 0.919014 0.125551
vt 0.901661 0.199678
vt 0.080227 0.193471
vt 0.035111 0.194551
vt 0.029851 0.129329
vt 0.078457 0.129531
vt 0.524664 0.024934
vt 0.453935 0.048979
vt 0.476762 0.096074
vt 0.529992 0.085338
vt 0.458519 0.014915
vt 0.140591 0.209945
vt 0.084060 0.210053
vt 0.139428 0.189660
vt 0.088688 0.293915
vt 0.019697 0.289600
vt 0.036330 0.210891
vt 0.589766 0.089175
vt 0.538912 0.169399
vt 0.588096 0.171055
vt 0.169119 0.280272
vt 0.494132 0.172296
vt 0.495777 0.194811
vt 0.540097 0.192752
vt 0.594693 0.186440
vt 0.602720 0.254314
vt 0.550300 0.251019
vt 0.546511 0.359212
vt 0.576655 0.358602
vt 0.502818 0.254080
vt 0.133655 0.131663
vt 0.460444 0.638059
vt 0.461859 0.667341
vt 0.511272 0.661029
vt 0.492341 0.643217
vt 0.059953 0.028917
vt 0.089979 0.037143
vt 0.513486 0.356281
vt 0.126069 0.032173
vt 0.187391 0.328606
vt 0.600139 0.026470
vt 0.980612 0.851849
vt 0.869271 0.873069
vt 0.214036 0.700438
vt 0.168892 0.698897
vt 0.170775 0.659242
vt 0.208186 0.653496
vt 0.429138 0.636018
vt 0.382088 0.640297
vt 0.380987 0.679254
vt 0.425514 0.672609
vt 0.172591 0.619486
vt 0.211119 0.618494
vt 0.342980 0.638844
vt 0.341450 0.677655
vt 0.504441 0.606319
vt 0.529468 0.607110
vt 0.250819 0.702808
vt 0.243337 0.651469
vt 0.292311 0.649141
vt 0.300801 0.705699
vt 0.244056 0.622019
vt 0.258050 0.585846
vt 0.290061 0.591615
vt 0.277688 0.628694
vt 0.226990 0.579872
vt 0.239778 0.437910
vt 0.241642 0.380815
vt 0.334062 0.371731
vt 0.335105 0.430080
vt 0.244961 0.564466
vt 0.270260 0.519900
vt 0.334573 0.576660
vt 0.267325 0.484741
vt 0.339743 0.479221
vt 0.337393 0.523671
vt 0.397256 0.433766
vt 0.400592 0.476589
vt 0.218167 0.523740
vt 0.216842 0.468389
vt 0.934188 0.071641
vt 0.985147 0.071450
vt 0.980416 0.114135
vt 0.934188 0.111273
vt 0.409685 0.525397
vt 0.413123 0.381914
vt 0.413123 0.570440
vt 0.588235 0.616390
vt 0.541774 0.616014
vt 0.540412 0.699472
vt 0.594290 0.698674
vt 0.733169 0.616366
vt 0.683834 0.612729
vt 0.688349 0.697632
vt 0.724849 0.697622
vt 0.637083 0.612063
vt 0.634642 0.698467
vt 0.933176 0.242559
vt 0.985452 0.244219
vt 0.985670 0.280546
vt 0.933413 0.282101
vt 0.980360 0.291116
vt 0.933814 0.295150
vt 0.933988 0.335813
vt 0.980548 0.334832
vt 0.637975 0.554612
vt 0.592385 0.555443
vt 0.685764 0.549762
vt 0.727568 0.549351
vt 0.544847 0.548303
vt 0.557765 0.809694
vt 0.510229 0.803468
vt 0.511171 0.765578
vt 0.565124 0.764368
vt 0.479691 0.799649
vt 0.486340 0.766582
vt 0.437092 0.787533
vt 0.443585 0.748829
vt 0.425923 0.754711
vt 0.422123 0.742946
vt 0.429690 0.730629
vt 0.447798 0.694577
vt 0.457086 0.718428
vt 0.949739 0.404064
vt 0.949739 0.353270
vt 0.982292 0.353270
vt 0.982292 0.404064
vt 0.460533 0.693281
vt 0.502277 0.717435
vt 0.495857 0.735141
vt 0.514016 0.729944
vt 0.562185 0.720311
vt 0.408828 0.775679
vt 0.278149 0.967649
vt 0.246334 0.979776
vt 0.249708 0.914564
vt 0.277992 0.912907
vt 0.013923 0.884272
vt 0.022151 0.852843
vt 0.077991 0.867331
vt 0.074449 0.892252
vt 0.315578 0.881871
vt 0.272833 0.868911
vt 0.266436 0.823662
vt 0.311469 0.826118
vt 0.312630 0.841540
vt 0.233032 0.873502
vt 0.237034 0.853143
vt 0.243726 0.809688
vt 0.293162 0.797592
vt 0.353002 0.808376
vt 0.344750 0.831707
vt 0.171111 0.912654
vt 0.129263 0.910165
vt 0.133762 0.881302
vt 0.504295 0.904470
vt 0.456722 0.873442
vt 0.486878 0.832177
vt 0.523186 0.892354
vt 0.393060 0.750737
vt 0.369166 0.770382
vt 0.342151 0.723866
vt 0.371660 0.694150
vt 0.224422 0.982399
vt 0.224589 0.913793
vt 0.464697 0.929008
vt 0.510943 0.418646
vt 0.509620 0.457222
vt 0.450276 0.457321
vt 0.451259 0.416801
vt 0.371260 0.868269
vt 0.391399 0.792592
vt 0.427034 0.854273
vt 0.224914 0.800301
vt 0.250611 0.780243
vt 0.499027 0.969201
vt 0.535560 0.959128
vt 0.557854 0.949811
vt 0.378068 0.967627
vt 0.326324 0.969178
vt 0.319455 0.907637
vt 0.374611 0.893121
vt 0.340158 0.885118
vt 0.330117 0.844664
vt 0.450534 0.480546
vt 0.422105 0.480397
vt 0.434613 0.451640
vt 0.511818 0.394240
vt 0.445658 0.392364
vt 0.509788 0.480859
vt 0.224768 0.847580
vt 0.329170 0.701515
vt 0.145363 0.785723
vt 0.128390 0.783055
vt 0.170261 0.738493
vt 0.116930 0.746993
vt 0.160651 0.716692
vt 0.111510 0.779844
vt 0.893310 0.283615
vt 0.770664 0.270731
vt 0.865483 0.388919
vt 0.769534 0.358310
vt 0.423897 0.371814
vt 0.408299 0.341150
vt 0.485355 0.339413
vt 0.636248 0.267526
vt 0.642876 0.337877
vt 0.765704 0.747046
vt 0.792786 0.808169
vt 0.760084 0.563543
vt 0.757703 0.426691
vt 0.876826 0.390354
vt 0.896865 0.307217
vt 0.772687 0.422987
vt 0.914451 0.274726
vt 0.410556 0.185000
vt 0.408092 0.121083
vt 0.456578 0.117665
vt 0.455645 0.183093
vt 0.253560 0.018334
vt 0.251430 0.078936
vt 0.305153 0.086844
vt 0.325460 0.038610
vt 0.319084 0.004836
vt 0.351414 0.205432
vt 0.351233 0.185114
vt 0.407829 0.201799
vt 0.408760 0.285783
vt 0.455510 0.199477
vt 0.477314 0.276913
vt 0.191942 0.085924
vt 0.197935 0.167602
vt 0.246963 0.163350
vt 0.327602 0.277492
vt 0.291833 0.163878
vt 0.247013 0.186734
vt 0.291379 0.186449
vt 0.192159 0.183314
vt 0.187729 0.251517
vt 0.219266 0.354283
vt 0.249400 0.353300
vt 0.239901 0.245457
vt 0.287479 0.246007
vt 0.353156 0.126862
vt 0.373466 0.625371
vt 0.341578 0.620155
vt 0.322681 0.602307
vt 0.372105 0.596087
vt 0.390482 0.029659
vt 0.419898 0.019465
vt 0.282224 0.348629
vt 0.354142 0.027088
vt 0.312568 0.326929
vt 0.178272 0.023855
vt 0.757941 0.851792
vt 0.013855 0.710087
vt 0.062637 0.719760
vt 0.053791 0.758555
vt 0.012068 0.757539
vt 0.404768 0.627471
vt 0.408460 0.590887
vt 0.452999 0.584325
vt 0.451825 0.623280
vt 0.095615 0.759647
vt 0.099560 0.719322
vt 0.492533 0.585997
vt 0.490931 0.624805
vt 0.329410 0.657029
vt 0.304385 0.656192
vt 0.014143 0.671338
vt 0.013329 0.626462
vt 0.071995 0.639628
vt 0.067412 0.683054
vt 0.098346 0.684520
vt 0.093882 0.648751
vt 0.133695 0.638573
vt 0.137331 0.672574
vt 0.141254 0.705593
vt 0.185664 0.538131
vt 0.086734 0.549483
vt 0.089781 0.610162
vt 0.185643 0.597604
vt 0.176017 0.406617
vt 0.082362 0.396940
vt 0.151191 0.453841
vt 0.081208 0.452173
vt 0.080256 0.498505
vt 0.155426 0.490326
vt 0.011387 0.503289
vt 0.011387 0.547736
vt 0.208505 0.505645
vt 0.205267 0.448094
vt 0.933051 0.227541
vt 0.935500 0.187984
vt 0.981816 0.187984
vt 0.983901 0.230880
vt 0.011387 0.452807
vt 0.011387 0.602224
vt 0.011387 0.406053
vt 0.685388 0.464625
vt 0.679517 0.382326
vt 0.733395 0.381660
vt 0.731848 0.465114
vt 0.540455 0.464294
vt 0.548955 0.383058
vt 0.585455 0.383138
vt 0.589782 0.468052
vt 0.639164 0.382434
vt 0.636531 0.468832
vt 0.926036 0.053242
vt 0.926036 0.013699
vt 0.978301 0.014940
vt 0.978301 0.051267
vt 0.941318 0.172865
vt 0.942408 0.129162
vt 0.988977 0.129542
vt 0.987962 0.170192
vt 0.635511 0.526281
vt 0.681104 0.525562
vt 0.587712 0.531014
vt 0.545907 0.531323
vt 0.728625 0.532818
vt 0.736669 0.725394
vt 0.735353 0.771722
vt 0.683130 0.758703
vt 0.689295 0.721117
vt 0.659178 0.752270
vt 0.658895 0.718191
vt 0.614298 0.760413
vt 0.615218 0.720808
vt 0.598227 0.750739
vt 0.592334 0.761513
vt 0.621741 0.793364
vt 0.608255 0.814858
vt 0.597389 0.775323
vt 0.902963 0.354102
vt 0.935516 0.354102
vt 0.935516 0.404895
vt 0.902963 0.404895
vt 0.620394 0.818928
vt 0.662554 0.785374
vt 0.665487 0.804249
vt 0.724263 0.814542
vt 0.679237 0.794482
vt 0.585527 0.726307
vt 0.170921 0.966691
vt 0.199450 0.914463
vt 0.202557 0.979360
vt 0.434990 0.885665
vt 0.136920 0.840949
vt 0.138178 0.825523
vt 0.183245 0.823379
vt 0.176564 0.868613
vt 0.206044 0.809560
vt 0.212468 0.853064
vt 0.216352 0.873452
vt 0.156680 0.797114
vt 0.104811 0.830875
vt 0.096708 0.807441
vt 0.427703 0.967162
vt 0.542713 0.881290
vt 0.537443 0.824738
vt 0.340263 0.781402
vt 0.301717 0.734772
vt 0.020099 0.966282
vt 0.069986 0.966279
vt 0.582883 0.857700
vt 0.510287 0.543080
vt 0.450588 0.544296
vt 0.450031 0.503768
vt 0.509371 0.504492
vt 0.058337 0.791326
vt 0.199393 0.779972
vt 0.602434 0.906809
vt 0.576490 0.934433
vt 0.122173 0.967791
vt 0.119390 0.843962
vt 0.109116 0.884444
vt 0.434309 0.509284
vt 0.510905 0.567494
vt 0.444729 0.568673
vt 0.612579 0.943799
vt 0.704302 0.960286
vt 0.690069 0.863893
vt 0.628178 0.846809
vt 0.727017 0.964931
vt 0.742045 0.877429
vt 0.749981 0.968131
vt 0.795559 0.882010
vt 0.849700 0.973890
vt 0.859604 0.886554
vt 0.262137 0.727847
vt 0.208247 0.720642
vt 0.265551 0.745007
vt 0.235108 0.768630
vt 0.190786 0.737487
vt 0.268411 0.762268
s 0
f 103/1/1 2/2/1 8/3/1 112/4/1
f 2/2/2 1/5/2 7/6/2 8/3/2
f 119/7/3 5/8/3 117/9/3
f 6/10/4 4/11/4 1/5/4 2/2/4
f 4/12/5 29/13/5 141/14/5 113/15/5
f 111/16/6 6/10/6 2/2/6 103/1/6
f 1/17/7 104/18/7 114/19/7 7/20/7
f 4/12/8 113/15/8 104/18/8
f 3/21/9 5/22/9 8/3/9 7/6/9
f 118/23/10 3/24/10 7/20/10 114/19/10
f 5/25/11 119/26/11 112/4/11 8/3/11
f 18/27/12 11/28/12 19/29/12 22/30/12
f 3/31/13 120/32/13 27/33/13 28/34/13
f 3/31/14 118/35/14 120/32/14
f 15/36/15 16/37/15 18/27/15 17/38/15
f 10/39/16 9/40/16 14/41/16 16/37/16
f 9/42/17 28/34/17 13/43/17 14/44/17
f 27/45/18 10/39/18 16/37/18 15/36/18
f 28/34/19 27/33/19 15/46/19 13/43/19
f 13/43/20 15/46/20 17/47/20 12/48/20
f 16/37/21 14/41/21 11/28/21 18/27/21
f 14/44/22 13/43/22 12/48/22 11/49/22
f 19/50/23 20/51/23 24/52/23 23/53/23
f 11/49/24 12/48/24 20/51/24 19/50/24
f 12/48/25 17/47/25 21/54/25 20/51/25
f 17/38/26 18/27/26 22/30/26 21/55/26
f 39/56/27 38/57/27 36/58/27 34/59/27
f 22/30/28 19/29/28 23/60/28 26/61/28
f 20/51/29 21/54/29 25/62/29 24/52/29
f 21/55/30 22/30/30 26/61/30 25/63/30
f 120/64/31 117/9/31 10/39/31 27/45/31
f 5/65/32 3/31/32 28/34/32 9/42/32
f 117/9/33 5/8/33 9/40/33 10/39/33
f 141/14/34 29/13/34 6/66/34 111/67/34
f 6/66/35 29/13/35 4/12/35
f 30/68/36 31/69/36 32/70/36 33/71/36
f 25/72/37 26/73/37 31/74/37 30/75/37
f 23/76/38 24/77/38 33/71/38 32/70/38
f 26/73/39 23/78/39 32/79/39 31/74/39
f 35/80/40 34/59/40 36/58/40 37/81/40
f 38/82/41 40/83/41 37/84/41 36/85/41
f 41/86/42 39/87/42 34/88/42 35/89/42
f 40/83/43 41/86/43 35/89/43 37/84/43
f 33/71/44 24/77/44 41/86/44 40/83/44
f 24/77/45 25/90/45 39/87/45 41/86/45
f 30/68/46 33/71/46 40/83/46 38/82/46
f 25/72/47 30/75/47 38/57/47 39/56/47
f 43/91/48 45/92/48 44/93/48 42/94/48
f 45/95/49 49/96/49 44/97/49
f 49/96/50 47/98/50 46/99/50 48/100/50
f 47/98/51 43/91/51 42/94/51
f 46/99/52 42/94/52 50/101/52 52/102/52
f 47/98/53 49/96/53 45/103/53 43/104/53
f 50/105/54 51/106/54 53/107/54 52/108/54
f 48/100/55 46/99/55 52/102/55 53/109/55
f 42/94/56 44/93/56 51/110/56 50/101/56
f 44/97/57 48/100/57 53/109/57 51/111/57
f 62/112/58 63/113/58 56/114/58 54/115/58
f 63/116/59 64/117/59 60/118/59 56/119/59
f 64/117/60 65/120/60 58/121/60 60/118/60
f 65/120/61 62/112/61 54/115/61 58/121/61
f 54/122/62 56/123/62 60/124/62 58/125/62
f 59/126/63 61/127/63 57/128/63 55/129/63
f 59/130/64 55/131/64 62/112/64 65/120/64
f 61/132/65 59/130/65 65/120/65 64/117/65
f 57/133/66 61/132/66 64/117/66 63/116/66
f 55/131/67 57/134/67 63/113/67 62/112/67
f 67/135/68 69/136/68 68/137/68 78/138/68
f 42/94/69 46/99/69 47/98/69
f 44/97/70 49/96/70 48/100/70
f 69/136/71 73/139/71 72/140/71 68/137/71
f 73/139/72 71/141/72 70/142/72 72/140/72
f 66/143/73 78/144/73 70/142/73
f 70/142/74 78/145/74 75/146/74 77/147/74
f 71/148/75 73/149/75 69/150/75 67/151/75
f 75/152/76 74/153/76 76/154/76 77/147/76
f 72/140/77 70/142/77 77/147/77 76/154/77
f 78/138/78 68/137/78 74/155/78 75/156/78
f 68/137/79 72/140/79 76/154/79 74/155/79
f 67/157/80 78/144/80 66/143/80
f 71/141/81 66/143/81 70/142/81
f 67/157/82 66/143/82 71/141/82
f 104/18/83 1/17/83 4/12/83
f 82/158/84 88/159/84 96/160/84 97/161/84
f 226/162/85 192/163/85 195/164/85 224/165/85
f 91/166/86 79/167/86 81/168/86 90/169/86 99/170/86
f 79/167/87 85/171/87 98/172/87 86/173/87 81/168/87
f 93/174/88 87/175/88 83/176/88 90/169/88
f 221/177/89 233/178/89 210/179/89
f 92/180/90 84/181/90 200/182/90 211/183/90
f 85/184/91 193/185/91 227/186/91 98/187/91
f 88/159/92 202/188/92 220/189/92 96/160/92
f 89/190/93 84/181/93 92/180/93
f 87/191/94 93/192/94 95/193/94 94/194/94
f 80/195/95 201/196/95 192/197/95
f 203/198/96 212/199/96 93/174/96 86/173/96
f 82/200/97 89/190/97 92/180/97 88/201/97
f 88/201/98 92/180/98 211/183/98 202/202/98
f 84/203/99 89/204/99 223/205/99 225/206/99
f 86/173/100 93/174/100 90/169/100 81/168/100
f 80/195/101 100/207/101 101/208/101 99/170/101 90/169/101 83/176/101
f 217/209/102 216/210/102 94/211/102 95/193/102
f 201/212/103 87/191/103 94/194/103 216/213/103
f 93/192/104 212/214/104 217/209/104 95/193/104
f 89/204/105 82/158/105 97/161/105 223/205/105
f 87/175/106 201/196/106 80/195/106 83/176/106
f 98/172/107 222/215/107 203/198/107 86/173/107
f 222/216/108 98/187/108 227/186/108
f 100/217/109 102/218/109 101/219/109
f 91/220/110 99/221/110 102/218/110
f 100/222/111 91/220/111 102/218/111
f 102/218/112 99/221/112 101/219/112
f 103/1/113 112/4/113 116/223/113 106/224/113
f 106/224/114 116/223/114 115/225/114 105/226/114
f 119/227/115 117/228/115 109/229/115
f 110/230/116 106/224/116 105/226/116 108/231/116
f 108/232/117 113/15/117 141/14/117 142/233/117
f 111/16/118 103/1/118 106/224/118 110/230/118
f 105/234/119 115/235/119 114/19/119 104/18/119
f 108/232/120 104/18/120 113/15/120
f 107/236/121 115/225/121 116/223/121 109/237/121
f 118/23/122 114/19/122 115/235/122 107/238/122
f 109/239/123 116/223/123 112/4/123 119/26/123
f 130/240/124 134/241/124 131/242/124 123/243/124
f 107/244/125 140/245/125 139/246/125 120/247/125
f 107/244/126 120/247/126 118/248/126
f 127/249/127 129/250/127 130/240/127 128/251/127
f 122/252/128 128/251/128 126/253/128 121/254/128
f 121/255/129 126/256/129 125/257/129 140/245/129
f 139/258/130 127/249/130 128/251/130 122/252/130
f 140/245/131 125/257/131 127/259/131 139/246/131
f 125/257/132 124/260/132 129/261/132 127/259/132
f 128/251/133 130/240/133 123/243/133 126/253/133
f 126/256/134 123/262/134 124/260/134 125/257/134
f 131/263/135 135/264/135 136/265/135 132/266/135
f 123/262/136 131/263/136 132/266/136 124/260/136
f 124/260/137 132/266/137 133/267/137 129/261/137
f 129/250/138 133/268/138 134/241/138 130/240/138
f 152/269/139 147/270/139 149/271/139 151/272/139
f 134/241/140 138/273/140 135/274/140 131/242/140
f 132/266/141 136/265/141 137/275/141 133/267/141
f 133/268/142 137/276/142 138/273/142 134/241/142
f 120/277/143 139/258/143 122/252/143 117/228/143
f 109/278/144 121/255/144 140/245/144 107/244/144
f 117/228/145 122/252/145 121/254/145 109/229/145
f 141/14/146 111/67/146 110/279/146 142/233/146
f 110/279/147 108/232/147 142/233/147
f 143/280/148 146/281/148 145/282/148 144/283/148
f 137/284/149 143/285/149 144/286/149 138/287/149
f 135/288/150 145/282/150 146/281/150 136/289/150
f 138/287/151 144/286/151 145/290/151 135/291/151
f 148/292/152 150/293/152 149/271/152 147/270/152
f 151/294/153 149/295/153 150/296/153 153/297/153
f 154/298/154 148/299/154 147/300/154 152/301/154
f 153/297/155 150/296/155 148/299/155 154/298/155
f 146/281/156 153/297/156 154/298/156 136/289/156
f 136/289/157 154/298/157 152/301/157 137/302/157
f 143/280/158 151/294/158 153/297/158 146/281/158
f 137/284/159 152/269/159 151/272/159 143/285/159
f 156/303/160 155/304/160 157/305/160 158/306/160
f 158/307/161 157/308/161 162/309/161
f 162/309/162 161/310/162 159/311/162 160/312/162
f 160/312/163 155/304/163 156/303/163
f 159/311/164 165/313/164 163/314/164 155/304/164
f 160/312/165 156/315/165 158/316/165 162/309/165
f 163/317/166 165/318/166 166/319/166 164/320/166
f 161/310/167 166/321/167 165/313/167 159/311/167
f 155/304/168 163/314/168 164/322/168 157/305/168
f 157/308/169 164/323/169 166/321/169 161/310/169
f 175/324/170 167/325/170 169/326/170 176/327/170
f 176/328/171 169/329/171 173/330/171 177/331/171
f 177/331/172 173/330/172 171/332/172 178/333/172
f 178/333/173 171/332/173 167/325/173 175/324/173
f 167/334/174 171/335/174 173/336/174 169/337/174
f 172/338/175 168/339/175 170/340/175 174/341/175
f 172/342/176 178/333/176 175/324/176 168/343/176
f 174/344/177 177/331/177 178/333/177 172/342/177
f 170/345/178 176/328/178 177/331/178 174/344/178
f 168/343/179 175/324/179 176/327/179 170/346/179
f 180/347/180 191/348/180 181/349/180 182/350/180
f 155/304/181 160/312/181 159/311/181
f 157/308/182 161/310/182 162/309/182
f 182/350/183 181/349/183 185/351/183 186/352/183
f 186/352/184 185/351/184 183/353/184 184/354/184
f 179/355/185 183/353/185 191/356/185
f 183/353/186 190/357/186 188/358/186 191/359/186
f 184/360/187 180/361/187 182/362/187 186/363/187
f 188/364/188 190/357/188 189/365/188 187/366/188
f 185/351/189 189/365/189 190/357/189 183/353/189
f 191/348/190 188/367/190 187/368/190 181/349/190
f 181/349/191 187/368/191 189/365/191 185/351/191
f 180/369/192 179/355/192 191/356/192
f 184/354/193 183/353/193 179/355/193
f 180/369/194 184/354/194 179/355/194
f 104/18/195 108/232/195 105/234/195
f 197/370/196 221/177/196 219/371/196 207/372/196
f 80/195/197 192/197/197 226/373/197 225/206/197
f 210/179/198 229/374/198 209/375/198 196/376/198 194/377/198
f 194/377/199 196/376/199 205/378/199 228/379/199 204/380/199
f 214/381/200 209/375/200 198/382/200 206/383/200
f 225/206/201 226/373/201 200/384/201 84/203/201
f 213/385/202 211/183/202 200/182/202 199/386/202
f 204/387/203 228/388/203 227/186/203 193/185/203
f 207/372/204 219/371/204 220/189/204 202/188/204
f 200/389/205 226/162/205 224/165/205 199/390/205
f 208/391/206 213/385/206 199/386/206
f 206/392/207 215/393/207 218/394/207 214/395/207
f 195/164/208 192/163/208 201/396/208
f 203/198/209 205/378/209 214/381/209 212/397/209
f 197/398/210 207/399/210 213/385/210 208/391/210
f 207/399/211 202/202/211 211/183/211 213/385/211
f 199/390/212 224/165/212 233/178/212 208/400/212
f 205/378/213 196/376/213 209/375/213 214/381/213
f 195/164/214 198/382/214 209/375/214 229/374/214 231/401/214 230/402/214
f 217/209/215 218/394/215 215/403/215 216/210/215
f 201/404/216 216/405/216 215/393/216 206/392/216
f 214/395/217 218/394/217 217/209/217 212/214/217
f 194/406/218 204/407/218 219/408/218 221/409/218
f 204/407/219 193/410/219 220/411/219 219/408/219
f 85/412/220 96/413/220 220/411/220 193/410/220
f 79/414/221 97/415/221 96/413/221 85/412/221
f 206/383/222 198/382/222 195/164/222 201/396/222
f 228/379/223 205/378/223 203/198/223 222/215/223
f 222/216/224 227/186/224 228/388/224
f 230/416/225 231/417/225 232/418/225
f 210/419/226 232/418/226 229/420/226
f 230/421/227 232/418/227 210/419/227
f 232/418/228 231/417/228 229/420/228
f 223/205/229 97/161/229 91/166/229
f 225/206/230 223/205/230 91/166/230 100/207/230 80/195/230
f 221/177/231 210/179/231 194/377/231
f 91/166/232 97/161/232 79/167/232
f 233/178/233 221/177/233 197/370/233 208/400/233
f 233/178/234 224/165/234 195/164/234 230/402/234 210/179/234
