# Blender 4.3.2
# www.blender.org
o beggar
v 0.193521 1.174327 0.154755
v 0.189718 1.227244 -0.091800
v 0.191254 0.929203 0.128907
v 0.202213 1.489419 0.142901
v 0.192076 0.857964 -0.101281
v 0.207515 1.575307 -0.027751
v 0.204205 0.928339 0.145407
v 0.227966 0.856646 -0.109120
v 0.223290 0.743806 -0.005752
v 0.042364 0.711489 -0.033340
v 0.212771 0.496010 0.081911
v 0.205944 0.526471 0.228101
v 0.206508 0.590449 0.208545
v 0.210172 0.538377 0.085738
v 0.091725 0.596084 0.224444
v 0.080988 0.536261 0.085782
v 0.091207 0.534305 0.243316
v 0.083543 0.495853 0.081124
v 0.219518 0.313483 0.115154
v 0.221041 0.364457 0.252277
v 0.095733 0.370940 0.272201
v 0.075398 0.313256 0.119563
v 0.166354 0.077954 0.265032
v 0.179574 0.058193 0.340197
v 0.097734 0.049136 0.361288
v 0.080925 0.077342 0.264259
v 0.064210 0.804270 0.186734
v 0.217108 0.828524 0.168275
v 0.163437 1.569595 0.080677
v 0.085496 -0.018765 0.318670
v 0.073955 0.005449 0.251177
v 0.161484 0.002712 0.246213
v 0.189552 -0.012170 0.303092
v 0.096680 0.002411 0.475076
v 0.180923 0.002524 0.461036
v 0.079385 -0.035638 0.513357
v 0.202747 -0.035565 0.491807
v 0.083678 -0.043146 0.402648
v 0.095142 0.018707 0.408210
v 0.196240 -0.040663 0.382317
v 0.177927 0.017880 0.397666
v 0.151658 1.342433 0.031883
v 0.133313 1.566093 0.093199
v 0.159320 1.407530 -0.111410
v 0.140130 1.609894 -0.023457
v 0.286282 1.368177 0.020151
v 0.246602 1.534472 0.043986
v 0.292300 1.419100 -0.094901
v 0.259285 1.570492 -0.024339
v 0.205637 1.207246 -0.033799
v 0.199013 1.226508 -0.171213
v 0.307341 1.223434 -0.036577
v 0.308331 1.246852 -0.161274
v 0.244504 0.865888 -0.085699
v 0.201285 1.211088 -0.044190
v 0.253422 0.886713 -0.219757
v 0.200031 1.241408 -0.161382
v 0.346885 0.874085 -0.081552
v 0.312886 1.231629 -0.038100
v 0.347475 0.894243 -0.215948
v 0.303838 1.260514 -0.155716
v 0.211332 1.065497 -0.068854
v 0.214840 1.081496 -0.187089
v 0.343904 1.107390 -0.179756
v 0.340092 1.090002 -0.051259
v 0.271319 0.800116 -0.078151
v 0.260352 0.879475 -0.103207
v 0.257668 0.813521 -0.229634
v 0.263488 0.893775 -0.208889
v 0.315172 0.789160 -0.109804
v 0.328664 0.877001 -0.101515
v 0.327205 0.811003 -0.227911
v 0.331800 0.891302 -0.207196
v 0.242239 0.736594 -0.227815
v 0.236424 0.699686 -0.123025
v 0.284074 0.743415 -0.226783
v 0.287339 0.722372 -0.130758
v 0.264415 0.785248 -0.105372
v 0.086967 1.703093 0.196183
v 0.078793 1.743609 0.042232
v 0.067574 1.629620 0.177637
v 0.071118 1.851763 0.190214
v 0.081320 1.679352 0.063311
v 0.064231 1.867893 0.074002
v 0.021759 1.705925 0.232742
v 0.036426 1.603265 0.196488
v 0.053519 1.663711 0.057969
v 0.034065 1.865044 0.204259
v 0.083640 1.861179 0.133496
v 0.088373 1.653540 0.111229
v 0.103791 1.739774 0.128950
v 0.036308 1.894532 0.132838
v 0.052587 1.629284 0.127686
v 0.057024 1.550005 0.009518
v 0.055921 1.518730 0.085309
v 0.038406 1.772910 0.222501
v 0.088641 1.771491 0.198308
v 0.027830 1.672157 0.222645
v 0.093573 1.676903 0.116242
v 0.099187 1.754922 0.091450
v 0.090091 1.690254 0.090726
v 0.119761 1.758893 0.089969
v 0.012523 1.249481 -0.144621
v -0.009160 1.161975 0.226794
v -0.203645 1.159290 0.156382
v -0.172991 1.231873 -0.099007
v -0.189829 0.840508 0.085311
v -0.179091 1.489419 0.152852
v -0.181581 0.919166 -0.136811
v -0.192983 1.575307 -0.016281
v 0.007128 1.620383 -0.027748
v 0.017078 0.908206 -0.212053
v 0.014391 1.510397 0.184266
v -0.007390 0.886551 0.193688
v -0.204812 0.840815 0.103241
v -0.213803 0.920213 -0.168499
v 0.013699 0.859951 -0.157805
v -0.005422 0.891104 0.134661
v 0.013846 0.909319 -0.157386
v -0.011342 0.842016 0.135954
v -0.216796 0.794856 -0.168298
v -0.033877 0.780856 -0.200746
v -0.207355 0.576679 -0.304958
v -0.199350 0.475214 -0.196587
v -0.200857 0.531238 -0.154512
v -0.205008 0.596006 -0.270612
v -0.087978 0.521840 -0.140791
v -0.075884 0.595184 -0.272122
v -0.086584 0.469274 -0.180373
v -0.078194 0.579342 -0.304393
v -0.208920 0.449398 -0.436983
v -0.209929 0.364182 -0.318235
v -0.086470 0.354069 -0.300322
v -0.064772 0.449189 -0.432774
v -0.147416 0.169615 -0.565118
v -0.160777 0.184966 -0.493442
v -0.080952 0.196942 -0.472348
v -0.062408 0.191651 -0.551234
v -0.062056 0.684487 0.020082
v -0.210053 0.711756 0.006486
v 0.011791 1.588397 0.083883
v -0.141680 1.569595 0.090790
v -0.065903 0.118877 -0.452800
v -0.053693 0.106219 -0.573175
v -0.141124 0.097938 -0.576017
v -0.169790 0.110210 -0.472769
v -0.079750 0.246826 -0.345713
v -0.163618 0.238680 -0.359109
v -0.063138 0.237819 -0.291965
v -0.185986 0.224305 -0.311445
v -0.065063 0.168300 -0.377196
v -0.076825 0.221412 -0.411267
v -0.177226 0.156588 -0.395607
v -0.159312 0.211186 -0.425472
v -0.127410 1.370921 0.145493
v -0.106778 1.593760 0.081956
v -0.153809 1.354595 -0.008992
v -0.128639 1.572579 -0.039070
v -0.263006 1.392850 0.137939
v -0.224456 1.546393 0.069128
v -0.284038 1.378578 0.014569
v -0.246116 1.543279 -0.006024
v -0.185908 1.223535 0.164430
v -0.196395 1.170132 0.036619
v -0.287538 1.240381 0.165574
v -0.304133 1.197329 0.047380
v -0.143921 0.932688 0.311142
v -0.160410 1.226966 0.121717
v -0.213611 0.869717 0.212844
v -0.215916 1.180591 0.024644
v -0.233827 0.952301 0.356950
v -0.260170 1.258495 0.166076
v -0.296205 0.887735 0.254926
v -0.308709 1.209918 0.065906
v -0.149336 1.097710 0.192963
v -0.206476 1.039841 0.105591
v -0.322170 1.078173 0.155865
v -0.260070 1.141065 0.250821
v -0.150477 0.887818 0.366330
v -0.168200 0.934609 0.298932
v -0.206255 0.806167 0.249990
v -0.219274 0.882885 0.220837
v -0.200295 0.864689 0.371641
v -0.226987 0.940749 0.333312
v -0.266096 0.812418 0.284986
v -0.278061 0.889025 0.255216
v -0.175811 0.744628 0.288005
v -0.118032 0.777604 0.377175
v -0.213559 0.754999 0.304292
v -0.170840 0.796245 0.382702
v -0.152972 0.858977 0.353227
v 0.011227 1.748996 0.010611
v 0.006169 1.706538 0.242914
v -0.072468 1.702851 0.192629
v -0.057652 1.743358 0.039211
v -0.052017 1.629438 0.174991
v -0.056796 1.850224 0.187019
v -0.060866 1.679101 0.060159
v -0.044507 1.866585 0.071287
v 0.010402 1.872318 0.048556
v 0.010818 1.674003 0.035487
v 0.006423 1.869377 0.209298
v 0.007253 1.596521 0.202108
v -0.008951 1.705922 0.232036
v -0.021661 1.603226 0.195215
v -0.032799 1.663565 0.056057
v -0.020820 1.864383 0.202888
v -0.066694 1.859369 0.129741
v -0.069934 1.653315 0.107711
v -0.086449 1.739424 0.124738
v 0.008052 1.894192 0.132132
v 0.008495 1.621257 0.144167
v -0.020205 1.893852 0.131426
v -0.034841 1.629199 0.125755
v -0.034055 1.549991 0.007508
v 0.011951 1.544126 -0.012763
v 0.009556 1.500825 0.095733
v -0.036290 1.518718 0.083276
v -0.025429 1.772702 0.221063
v 0.006231 1.772804 0.232939
v -0.074478 1.770978 0.194638
v 0.006674 1.662839 0.223840
v 0.104726 1.780154 0.130939
v -0.063690 1.778961 0.040232
v 0.084648 1.779233 0.043516
v 0.011190 1.785739 0.009244
v 0.006238 1.664615 0.243313
v -0.014443 1.671860 0.221778
v -0.075434 1.676614 0.112512
v -0.080246 1.754592 0.087477
v -0.070879 1.689975 0.087171
v -0.100749 1.758487 0.085087
v -0.087494 1.784489 0.126912
vn 0.3907 0.1320 -0.9110
vn 0.9963 0.0775 0.0368
vn 0.3021 0.0072 -0.9532
vn 0.9992 -0.0392 -0.0094
vn 0.1724 0.7276 0.6639
vn 0.1760 0.2374 -0.9553
vn 0.2867 -0.0709 0.9554
vn 0.2249 0.1031 0.9689
vn -0.0919 -0.9564 0.2773
vn 0.1789 -0.9792 -0.0962
vn -0.2169 -0.9713 -0.0979
vn -0.0127 -0.1926 -0.9812
vn -0.0930 0.4946 0.8641
vn 0.0247 0.0233 0.9994
vn -0.9979 -0.0109 0.0646
vn 0.1299 -0.4733 -0.8712
vn 0.9980 -0.0383 0.0507
vn -0.9840 -0.1134 0.1376
vn 0.1133 0.1752 0.9780
vn 0.1452 0.2880 0.9466
vn 0.0020 0.1021 -0.9948
vn 0.9992 0.0238 0.0317
vn 0.9811 -0.1891 -0.0403
vn 0.9980 0.0633 0.0005
vn 0.1526 0.1680 0.9739
vn -0.9964 0.0261 0.0806
vn -0.9611 0.2763 -0.0012
vn -0.0115 -0.5290 -0.8485
vn 0.1847 0.2558 0.9489
vn -0.9888 0.0460 0.1417
vn -0.8938 -0.4445 0.0592
vn 0.9739 0.2168 -0.0668
vn 0.2306 -0.5934 -0.7712
vn 0.1768 0.9644 0.1969
vn 0.7260 0.6049 0.3270
vn -0.0125 -0.9550 -0.2962
vn -0.9803 0.0598 0.1880
vn 0.9553 0.1347 -0.2634
vn -0.0210 0.2135 -0.9767
vn 0.1248 0.6706 0.7312
vn 0.0209 -0.9982 0.0569
vn 0.0387 0.9713 0.2347
vn 0.9247 0.3796 -0.0283
vn 0.9798 0.1907 0.0598
vn 0.0667 0.8247 0.5616
vn -0.0112 -0.9514 -0.3079
vn -0.9854 0.1665 0.0365
vn -0.9950 -0.0595 -0.0804
vn 0.1274 0.4055 -0.9052
vn 0.9693 0.1687 0.1788
vn 0.3352 -0.2234 0.9153
vn 0.1222 -0.3700 0.9210
vn 0.3457 0.8477 0.4023
vn 0.1737 -0.9714 -0.1619
vn 0.9939 0.0937 0.0581
vn -0.9639 -0.2539 -0.0799
vn 0.0570 0.3438 -0.9373
vn -0.9828 -0.1696 -0.0732
vn 0.0239 0.1688 -0.9854
vn 0.9996 0.0211 0.0198
vn -0.0762 -0.1196 0.9899
vn 0.0849 -0.9854 -0.1474
vn -0.1884 0.9503 0.2479
vn -0.0712 -0.1393 0.9877
vn 0.9753 0.2200 0.0206
vn 0.0240 0.1610 -0.9867
vn -0.9967 -0.0770 -0.0247
vn -0.9998 0.0078 0.0171
vn 0.1082 -0.1157 0.9874
vn 0.0736 0.4345 -0.8977
vn 0.0330 0.2479 -0.9682
vn 0.9922 -0.1151 0.0487
vn 0.1079 -0.8838 0.4553
vn 0.1917 -0.3065 0.9324
vn 0.0325 0.9903 0.1350
vn 0.2751 -0.9246 -0.2633
vn 0.8863 -0.4598 -0.0558
vn -0.9652 0.2506 0.0752
vn 0.0259 -0.0309 -0.9992
vn -0.9617 -0.0477 0.2699
vn 0.5506 -0.1618 0.8189
vn -0.0128 0.2995 0.9540
vn 0.3334 0.0263 0.9424
vn 0.4205 0.1889 0.8874
vn -0.3800 -0.0363 -0.9243
vn 0.9551 -0.2457 0.1656
vn 0.5475 -0.2587 0.7958
vn 0.4247 -0.7967 -0.4301
vn -0.9827 -0.0316 0.1826
vn 0.1402 0.9459 -0.2924
vn 0.6428 -0.0458 0.7647
vn 0.2588 0.2147 0.9418
vn 0.5743 0.8131 -0.0956
vn 0.9995 0.0210 0.0235
vn 0.3861 -0.2923 -0.8749
vn 0.0783 -0.9291 -0.3613
vn 0.4973 0.8126 0.3040
vn 0.0934 0.9343 0.3439
vn 0.9313 0.2744 -0.2395
vn 0.5416 -0.8258 -0.1570
vn 0.9455 -0.1193 -0.3029
vn 0.2782 -0.8922 -0.3558
vn 0.4410 0.3384 -0.8313
vn 0.3557 -0.3361 0.8721
vn 0.9395 0.2335 0.2506
vn 0.3702 -0.2909 -0.8822
vn 0.2245 -0.3118 0.9233
vn 0.4057 -0.9094 0.0920
vn -0.0760 0.0218 -0.9969
vn 0.9366 -0.2091 0.2812
vn -0.1480 0.9106 0.3860
vn 0.8693 -0.3793 -0.3170
vn -0.2074 0.2118 -0.9551
vn -0.9973 0.0705 -0.0207
vn -0.1043 0.0087 -0.9945
vn -0.9993 0.0109 -0.0354
vn -0.1309 0.7242 0.6771
vn -0.1824 0.2586 -0.9486
vn -0.3620 -0.1343 0.9224
vn -0.1727 0.1308 0.9762
vn 0.0614 -0.9506 -0.3043
vn 0.2445 -0.9696 0.0004
vn -0.0486 -0.9987 0.0171
vn 0.0059 0.7113 -0.7029
vn -0.2044 -0.5153 0.8322
vn -0.2730 0.0582 0.9603
vn 0.9976 -0.0555 0.0401
vn -0.0789 0.4155 -0.9062
vn -0.9982 -0.0600 0.0069
vn 0.9795 -0.2011 0.0151
vn -0.1698 -0.6698 0.7229
vn -0.1452 -0.5971 0.7889
vn -0.0080 0.8845 -0.4664
vn -0.9991 -0.0250 0.0356
vn -0.9801 -0.1508 -0.1293
vn -0.9992 0.0097 0.0387
vn -0.1470 -0.7188 0.6795
vn 0.9954 -0.0350 0.0888
vn 0.9610 0.2370 -0.1428
vn 0.0316 0.4200 -0.9070
vn -0.1239 -0.7224 0.6803
vn 0.9848 -0.0868 0.1506
vn 0.9213 -0.3887 0.0089
vn -0.9804 0.1838 0.0712
vn -0.0607 0.3647 -0.9291
vn -0.1634 0.9644 0.2080
vn -0.7002 0.6117 0.3681
vn 0.0729 -0.9896 0.1237
vn 0.9803 0.1405 0.1386
vn -0.9722 0.0024 -0.2340
vn 0.0578 0.2095 -0.9761
vn -0.1356 0.9671 0.2153
vn -0.0180 -0.7772 0.6290
vn -0.0403 0.9266 -0.3738
vn -0.9317 0.2649 -0.2484
vn -0.9803 0.1575 -0.1191
vn -0.0482 0.9304 -0.3634
vn -0.0144 -0.8474 0.5308
vn 0.9813 0.1523 -0.1180
vn 0.9790 -0.1343 -0.1532
vn -0.2450 -0.1047 -0.9639
vn -0.9441 0.2771 0.1788
vn -0.2169 0.2862 0.9333
vn -0.0015 0.1539 0.9881
vn -0.3133 0.9484 -0.0479
vn -0.1702 -0.9109 0.3759
vn -0.9814 0.1524 0.1167
vn 0.9526 -0.3000 -0.0504
vn -0.1777 -0.1771 -0.9680
vn 0.8678 -0.2804 -0.4103
vn -0.4790 -0.4547 -0.7509
vn -0.8743 0.1323 0.4669
vn 0.5165 0.4910 0.7015
vn 0.0685 -0.8614 0.5033
vn 0.0729 0.8830 -0.4636
vn 0.5153 0.4746 0.7136
vn -0.8943 0.2881 0.3425
vn -0.4779 -0.4617 -0.7473
vn 0.8814 -0.1793 -0.4370
vn 0.8843 -0.0872 -0.4586
vn 0.0147 0.4058 0.9138
vn -0.1914 -0.0783 -0.9784
vn -0.4961 -0.3807 -0.7803
vn -0.8269 0.0408 0.5609
vn 0.2855 -0.4168 0.8630
vn 0.2955 0.3360 0.8943
vn -0.1780 0.8700 -0.4598
vn -0.1611 -0.8630 0.4789
vn -0.7065 -0.3063 0.6380
vn 0.8280 0.1438 -0.5420
vn -0.4448 -0.6212 -0.6452
vn 0.9709 0.0243 -0.2384
vn -0.0988 0.4200 0.9022
vn 0.3577 0.8085 0.4673
vn -0.3406 0.0354 0.9395
vn -0.4655 0.1911 0.8641
vn 0.4206 -0.0349 -0.9066
vn -0.9606 -0.2493 0.1233
vn -0.5823 -0.2600 0.7703
vn -0.4024 -0.7985 -0.4478
vn 0.4195 0.3793 -0.8247
vn -0.1482 0.9425 -0.2996
vn -0.6752 -0.0473 0.7361
vn -0.3065 0.2138 0.9276
vn -0.3848 0.3803 -0.8410
vn -0.5882 0.7991 -0.1246
vn -0.9996 0.0203 -0.0202
vn -0.3460 -0.2937 -0.8911
vn -0.0608 -0.9293 -0.3642
vn -0.5312 0.8002 0.2783
vn -0.1329 0.9316 0.3383
vn -0.9147 0.2848 -0.2866
vn -0.5308 -0.8279 -0.1811
vn -0.9308 -0.1228 -0.3443
vn -0.2621 -0.8923 -0.3677
vn -0.4045 0.3381 -0.8498
vn -0.3935 -0.3362 0.8556
vn -0.5044 -0.0118 0.8634
vn -0.4368 0.0871 0.8953
vn 0.3954 0.0891 0.9142
vn 0.4654 -0.0099 0.8850
vn -0.3298 -0.2922 -0.8977
vn -0.2620 -0.3137 0.9127
vn -0.3979 -0.9144 0.0745
vn 0.1199 0.0221 -0.9925
vn -0.9473 -0.2127 0.2394
vn 0.1274 0.9111 0.3921
vn -0.8529 -0.3827 -0.3551
vn 0.9731 -0.0338 0.2280
vn 0.9702 0.0037 -0.2423
vn -0.9824 -0.0344 0.1838
vn 0.9735 -0.0309 0.2268
vn -0.9454 0.2428 0.2173
vn -0.9594 0.0028 -0.2822
vt 0.769832 0.195645
vt 0.775252 0.120749
vt 0.898457 0.115387
vt 0.893855 0.199439
vt 0.779478 0.033265
vt 0.875888 0.020883
vt 0.079276 0.380758
vt 0.015809 0.352495
vt 0.092810 0.349129
vt 0.640892 0.115732
vt 0.651808 0.045918
vt 0.972902 0.747099
vt 0.945788 0.808209
vt 0.869285 0.817542
vt 0.869303 0.746010
vt 0.623064 0.191154
vt 0.978616 0.563599
vt 0.869350 0.563483
vt 0.869382 0.439703
vt 0.981068 0.426748
vt 0.887298 0.020144
vt 0.903448 0.092046
vt 0.869386 0.423683
vt 0.966087 0.423037
vt 0.919014 0.125551
vt 0.901661 0.199678
vt 0.080227 0.193471
vt 0.035111 0.194551
vt 0.029851 0.129329
vt 0.078457 0.129531
vt 0.524664 0.024934
vt 0.453935 0.048979
vt 0.476762 0.096074
vt 0.529992 0.085338
vt 0.458519 0.014915
vt 0.140591 0.209945
vt 0.084060 0.210053
vt 0.139428 0.189660
vt 0.088688 0.293915
vt 0.019697 0.289600
vt 0.036330 0.210891
vt 0.589766 0.089175
vt 0.538912 0.169399
vt 0.588096 0.171055
vt 0.169119 0.280272
vt 0.494132 0.172296
vt 0.495777 0.194811
vt 0.540097 0.192752
vt 0.594693 0.186440
vt 0.602720 0.254314
vt 0.550300 0.251019
vt 0.546511 0.359212
vt 0.576655 0.358602
vt 0.502818 0.254080
vt 0.133655 0.131663
vt 0.460444 0.638059
vt 0.461859 0.667341
vt 0.511272 0.661029
vt 0.492341 0.643217
vt 0.059953 0.028917
vt 0.089979 0.037143
vt 0.513486 0.356281
vt 0.126069 0.032173
vt 0.187391 0.328606
vt 0.600139 0.026470
vt 0.980612 0.851849
vt 0.869271 0.873069
vt 0.214036 0.700438
vt 0.168892 0.698897
vt 0.170775 0.659242
vt 0.208186 0.653496
vt 0.429138 0.636018
vt 0.382088 0.640297
vt 0.380987 0.679254
vt 0.425514 0.672609
vt 0.172591 0.619486
vt 0.211119 0.618494
vt 0.342980 0.638844
vt 0.341450 0.677655
vt 0.504441 0.606319
vt 0.529468 0.607110
vt 0.250819 0.702808
vt 0.243337 0.651469
vt 0.292311 0.649141
vt 0.300801 0.705699
vt 0.244056 0.622019
vt 0.258050 0.585846
vt 0.290061 0.591615
vt 0.277688 0.628694
vt 0.226990 0.579872
vt 0.239778 0.437910
vt 0.241642 0.380815
vt 0.334062 0.371731
vt 0.335105 0.430080
vt 0.244961 0.564466
vt 0.270260 0.519900
vt 0.334573 0.576660
vt 0.267325 0.484741
vt 0.339743 0.479221
vt 0.337393 0.523671
vt 0.397256 0.433766
vt 0.400592 0.476589
vt 0.218167 0.523740
vt 0.216842 0.468389
vt 0.934188 0.071641
vt 0.985147 0.071450
vt 0.980416 0.114135
vt 0.934188 0.111273
vt 0.409685 0.525397
vt 0.413123 0.381914
vt 0.413123 0.570440
vt 0.588235 0.616390
vt 0.541774 0.616014
vt 0.540412 0.699472
vt 0.594290 0.698674
vt 0.733169 0.616366
vt 0.683834 0.612729
vt 0.688349 0.697632
vt 0.724849 0.697622
vt 0.637083 0.612063
vt 0.634642 0.698467
vt 0.933176 0.242559
vt 0.985452 0.244219
vt 0.985670 0.280546
vt 0.933413 0.282101
vt 0.980360 0.291116
vt 0.933814 0.295150
vt 0.933988 0.335813
vt 0.980548 0.334832
vt 0.637975 0.554612
vt 0.592385 0.555443
vt 0.685764 0.549762
vt 0.727568 0.549351
vt 0.544847 0.548303
vt 0.557765 0.809694
vt 0.510229 0.803468
vt 0.511171 0.765578
vt 0.565124 0.764368
vt 0.479691 0.799649
vt 0.486340 0.766582
vt 0.437092 0.787533
vt 0.443585 0.748829
vt 0.425923 0.754711
vt 0.422123 0.742946
vt 0.429690 0.730629
vt 0.447798 0.694577
vt 0.457086 0.718428
vt 0.949739 0.404064
vt 0.949739 0.353270
vt 0.982292 0.353270
vt 0.982292 0.404064
vt 0.460533 0.693281
vt 0.502277 0.717435
vt 0.495857 0.735141
vt 0.514016 0.729944
vt 0.562185 0.720311
vt 0.408828 0.775679
vt 0.278149 0.967649
vt 0.246334 0.979776
vt 0.249708 0.914564
vt 0.277992 0.912907
vt 0.013923 0.884272
vt 0.022151 0.852843
vt 0.077991 0.867331
vt 0.074449 0.892252
vt 0.315578 0.881871
vt 0.272833 0.868911
vt 0.266436 0.823662
vt 0.311469 0.826118
vt 0.312630 0.841540
vt 0.233032 0.873502
vt 0.237034 0.853143
vt 0.243726 0.809688
vt 0.293162 0.797592
vt 0.353002 0.808376
vt 0.344750 0.831707
vt 0.171111 0.912654
vt 0.129263 0.910165
vt 0.133762 0.881302
vt 0.504295 0.904470
vt 0.456722 0.873442
vt 0.486878 0.832177
vt 0.523186 0.892354
vt 0.393060 0.750737
vt 0.369166 0.770382
vt 0.342151 0.723866
vt 0.371660 0.694150
vt 0.224422 0.982399
vt 0.224589 0.913793
vt 0.464697 0.929008
vt 0.510943 0.418646
vt 0.509620 0.457222
vt 0.450276 0.457321
vt 0.451259 0.416801
vt 0.371260 0.868269
vt 0.391399 0.792592
vt 0.427034 0.854273
vt 0.224914 0.800301
vt 0.250611 0.780243
vt 0.499027 0.969201
vt 0.535560 0.959128
vt 0.557854 0.949811
vt 0.378068 0.967627
vt 0.326324 0.969178
vt 0.319455 0.907637
vt 0.374611 0.893121
vt 0.340158 0.885118
vt 0.330117 0.844664
vt 0.450534 0.480546
vt 0.422105 0.480397
vt 0.434613 0.451640
vt 0.511818 0.394240
vt 0.445658 0.392364
vt 0.509788 0.480859
vt 0.224768 0.847580
vt 0.329170 0.701515
vt 0.145363 0.785723
vt 0.128390 0.783055
vt 0.170261 0.738493
vt 0.116930 0.746993
vt 0.160651 0.716692
vt 0.111510 0.779844
vt 0.893310 0.283615
vt 0.770664 0.270731
vt 0.865483 0.388919
vt 0.769534 0.358310
vt 0.423897 0.371814
vt 0.408299 0.341150
vt 0.485355 0.339413
vt 0.636248 0.267526
vt 0.642876 0.337877
vt 0.765704 0.747046
vt 0.792786 0.808169
vt 0.760084 0.563543
vt 0.757703 0.426691
vt 0.876826 0.390354
vt 0.896865 0.307217
vt 0.772687 0.422987
vt 0.914451 0.274726
vt 0.410556 0.185000
vt 0.408092 0.121083
vt 0.456578 0.117665
vt 0.455645 0.183093
vt 0.253560 0.018334
vt 0.251430 0.078936
vt 0.305153 0.086844
vt 0.325460 0.038610
vt 0.319084 0.004836
vt 0.351414 0.205432
vt 0.351233 0.185114
vt 0.407829 0.201799
vt 0.408760 0.285783
vt 0.455510 0.199477
vt 0.477314 0.276913
vt 0.191942 0.085924
vt 0.197935 0.167602
vt 0.246963 0.163350
vt 0.327602 0.277492
vt 0.291833 0.163878
vt 0.247013 0.186734
vt 0.291379 0.186449
vt 0.192159 0.183314
vt 0.187729 0.251517
vt 0.219266 0.354283
vt 0.249400 0.353300
vt 0.239901 0.245457
vt 0.287479 0.246007
vt 0.353156 0.126862
vt 0.373466 0.625371
vt 0.341578 0.620155
vt 0.322681 0.602307
vt 0.372105 0.596087
vt 0.390482 0.029659
vt 0.419898 0.019465
vt 0.282224 0.348629
vt 0.354142 0.027088
vt 0.312568 0.326929
vt 0.178272 0.023855
vt 0.757941 0.851792
vt 0.013855 0.710087
vt 0.062637 0.719760
vt 0.053791 0.758555
vt 0.012068 0.757539
vt 0.404768 0.627471
vt 0.408460 0.590887
vt 0.452999 0.584325
vt 0.451825 0.623280
vt 0.095615 0.759647
vt 0.099560 0.719322
vt 0.492533 0.585997
vt 0.490931 0.624805
vt 0.329410 0.657029
vt 0.304385 0.656192
vt 0.014143 0.671338
vt 0.013329 0.626462
vt 0.071995 0.639628
vt 0.067412 0.683054
vt 0.098346 0.684520
vt 0.093882 0.648751
vt 0.133695 0.638573
vt 0.137331 0.672574
vt 0.141254 0.705593
vt 0.185664 0.538131
vt 0.086734 0.549483
vt 0.089781 0.610162
vt 0.185643 0.597604
vt 0.176017 0.406617
vt 0.082362 0.396940
vt 0.151191 0.453841
vt 0.081208 0.452173
vt 0.080256 0.498505
vt 0.155426 0.490326
vt 0.011387 0.503289
vt 0.011387 0.547736
vt 0.208505 0.505645
vt 0.205267 0.448094
vt 0.933051 0.227541
vt 0.935500 0.187984
vt 0.981816 0.187984
vt 0.983901 0.230880
vt 0.011387 0.452807
vt 0.011387 0.602224
vt 0.011387 0.406053
vt 0.685388 0.464625
vt 0.679517 0.382326
vt 0.733395 0.381660
vt 0.731848 0.465114
vt 0.540455 0.464294
vt 0.548955 0.383058
vt 0.585455 0.383138
vt 0.589782 0.468052
vt 0.639164 0.382434
vt 0.636531 0.468832
vt 0.926036 0.053242
vt 0.926036 0.013699
vt 0.978301 0.014940
vt 0.978301 0.051267
vt 0.941318 0.172865
vt 0.942408 0.129162
vt 0.988977 0.129542
vt 0.987962 0.170192
vt 0.635511 0.526281
vt 0.681104 0.525562
vt 0.587712 0.531014
vt 0.545907 0.531323
vt 0.728625 0.532818
vt 0.736669 0.725394
vt 0.735353 0.771722
vt 0.683130 0.758703
vt 0.689295 0.721117
vt 0.659178 0.752270
vt 0.658895 0.718191
vt 0.614298 0.760413
vt 0.615218 0.720808
vt 0.598227 0.750739
vt 0.592334 0.761513
vt 0.621741 0.793364
vt 0.608255 0.814858
vt 0.597389 0.775323
vt 0.902963 0.354102
vt 0.935516 0.354102
vt 0.935516 0.404895
vt 0.902963 0.404895
vt 0.620394 0.818928
vt 0.662554 0.785374
vt 0.665487 0.804249
vt 0.724263 0.814542
vt 0.679237 0.794482
vt 0.585527 0.726307
vt 0.170921 0.966691
vt 0.199450 0.914463
vt 0.202557 0.979360
vt 0.434990 0.885665
vt 0.136920 0.840949
vt 0.138178 0.825523
vt 0.183245 0.823379
vt 0.176564 0.868613
vt 0.206044 0.809560
vt 0.212468 0.853064
vt 0.216352 0.873452
vt 0.156680 0.797114
vt 0.104811 0.830875
vt 0.096708 0.807441
vt 0.427703 0.967162
vt 0.542713 0.881290
vt 0.537443 0.824738
vt 0.340263 0.781402
vt 0.301717 0.734772
vt 0.020099 0.966282
vt 0.069986 0.966279
vt 0.582883 0.857700
vt 0.510287 0.543080
vt 0.450588 0.544296
vt 0.450031 0.503768
vt 0.509371 0.504492
vt 0.058337 0.791326
vt 0.199393 0.779972
vt 0.602434 0.906809
vt 0.576490 0.934433
vt 0.122173 0.967791
vt 0.119390 0.843962
vt 0.109116 0.884444
vt 0.434309 0.509284
vt 0.510905 0.567494
vt 0.444729 0.568673
vt 0.612579 0.943799
vt 0.704302 0.960286
vt 0.690069 0.863893
vt 0.628178 0.846809
vt 0.727017 0.964931
vt 0.742045 0.877429
vt 0.749981 0.968131
vt 0.795559 0.882010
vt 0.849700 0.973890
vt 0.859604 0.886554
vt 0.262137 0.727847
vt 0.208247 0.720642
vt 0.265551 0.745007
vt 0.235108 0.768630
vt 0.190786 0.737487
vt 0.268411 0.762268
s 0
f 103/1/1 2/2/1 8/3/1 112/4/1
f 2/2/2 1/5/2 7/6/2 8/3/2
f 119/7/3 5/8/3 117/9/3
f 6/10/4 4/11/4 1/5/4 2/2/4
f 4/12/5 29/13/5 141/14/5 113/15/5
f 111/16/6 6/10/6 2/2/6 103/1/6
f 1/17/7 104/18/7 114/19/7 7/20/7
f 4/12/8 113/15/8 104/18/8
f 3/21/9 5/22/9 8/3/9 7/6/9
f 118/23/10 3/24/10 7/20/10 114/19/10
f 5/25/11 119/26/11 112/4/11 8/3/11
f 18/27/12 11/28/12 19/29/12 22/30/12
f 3/31/13 120/32/13 27/33/13 28/34/13
f 3/31/14 118/35/14 120/32/14
f 15/36/15 16/37/15 18/27/15 17/38/15
f 10/39/16 9/40/16 14/41/16 16/37/16
f 9/42/17 28/34/17 13/43/17 14/44/17
f 27/45/18 10/39/18 16/37/18 15/36/18
f 28/34/19 27/33/19 15/46/19 13/43/19
f 13/43/20 15/46/20 17/47/20 12/48/20
f 16/37/21 14/41/21 11/28/21 18/27/21
f 14/44/22 13/43/22 12/48/22 11/49/22
f 19/50/23 20/51/23 24/52/23 23/53/23
f 11/49/24 12/48/24 20/51/24 19/50/24
f 12/48/25 17/47/25 21/54/25 20/51/25
f 17/38/26 18/27/26 22/30/26 21/55/26
f 39/56/27 38/57/27 36/58/27 34/59/27
f 22/30/28 19/29/28 23/60/28 26/61/28
f 20/51/29 21/54/29 25/62/29 24/52/29
f 21/55/30 22/30/30 26/61/30 25/63/30
f 120/64/31 117/9/31 10/39/31 27/45/31
f 5/65/32 3/31/32 28/34/32 9/42/32
f 117/9/33 5/8/33 9/40/33 10/39/33
f 141/14/34 29/13/34 6/66/34 111/67/34
f 6/66/35 29/13/35 4/12/35
f 30/68/36 31/69/36 32/70/36 33/71/36
f 25/72/37 26/73/37 31/74/37 30/75/37
f 23/76/38 24/77/38 33/71/38 32/70/38
f 26/73/39 23/78/39 32/79/39 31/74/39
f 35/80/40 34/59/40 36/58/40 37/81/40
f 38/82/41 40/83/41 37/84/41 36/85/41
f 41/86/42 39/87/42 34/88/42 35/89/42
f 40/83/43 41/86/43 35/89/43 37/84/43
f 33/71/44 24/77/44 41/86/44 40/83/44
f 24/77/45 25/90/45 39/87/45 41/86/45
f 30/68/46 33/71/46 40/83/46 38/82/46
f 25/72/47 30/75/47 38/57/47 39/56/47
f 43/91/48 45/92/48 44/93/48 42/94/48
f 45/95/49 49/96/49 44/97/49
f 49/96/50 47/98/50 46/99/50 48/100/50
f 47/98/51 43/91/51 42/94/51
f 46/99/52 42/94/52 50/101/52 52/102/52
f 47/98/53 49/96/53 45/103/53 43/104/53
f 50/105/54 51/106/54 53/107/54 52/108/54
f 48/100/55 46/99/55 52/102/55 53/109/55
f 42/94/56 44/93/56 51/110/56 50/101/56
f 44/97/57 48/100/57 53/109/57 51/111/57
f 62/112/58 63/113/58 56/114/58 54/115/58
f 63/116/59 64/117/59 60/118/59 56/119/59
f 64/117/60 65/120/60 58/121/60 60/118/60
f 65/120/61 62/112/61 54/115/61 58/121/61
f 54/122/62 56/123/62 60/124/62 58/125/62
f 59/126/63 61/127/63 57/128/63 55/129/63
f 59/130/64 55/131/64 62/112/64 65/120/64
f 61/132/65 59/130/65 65/120/65 64/117/65
f 57/133/66 61/132/66 64/117/66 63/116/66
f 55/131/67 57/134/67 63/113/67 62/112/67
f 67/135/68 69/136/68 68/137/68 78/138/68
f 42/94/69 46/99/69 47/98/69
f 44/97/70 49/96/70 48/100/70
f 69/136/71 73/139/71 72/140/71 68/137/71
f 73/139/72 71/141/72 70/142/72 72/140/72
f 66/143/73 78/144/73 70/142/73
f 70/142/74 78/145/74 75/146/74 77/147/74
f 71/148/75 73/149/75 69/150/75 67/151/75
f 75/152/76 74/153/76 76/154/76 77/147/76
f 72/140/77 70/142/77 77/147/77 76/154/77
f 78/138/78 68/137/78 74/155/78 75/156/78
f 68/137/79 72/140/79 76/154/79 74/155/79
f 67/157/80 78/144/80 66/143/80
f 71/141/81 66/143/81 70/142/81
f 67/157/82 66/143/82 71/141/82
f 104/18/83 1/17/83 4/12/83
f 82/158/84 88/159/84 96/160/84 97/161/84
f 226/162/85 192/163/85 195/164/85 224/165/85
f 91/166/86 79/167/86 81/168/86 90/169/86 99/170/86
f 79/167/87 85/171/87 98/172/87 86/173/87 81/168/87
f 93/174/88 87/175/88 83/176/88 90/169/88
f 221/177/89 233/178/89 210/179/89
f 92/180/90 84/181/90 200/182/90 211/183/90
f 85/184/91 193/185/91 227/186/91 98/187/91
f 88/159/92 202/188/92 220/189/92 96/160/92
f 89/190/93 84/181/93 92/180/93
f 87/191/94 93/192/94 95/193/94 94/194/94
f 80/195/95 201/196/95 192/197/95
f 203/198/96 212/199/96 93/174/96 86/173/96
f 82/200/97 89/190/97 92/180/97 88/201/97
f 88/201/98 92/180/98 211/183/98 202/202/98
f 84/203/99 89/204/99 223/205/99 225/206/99
f 86/173/100 93/174/100 90/169/100 81/168/100
f 80/195/101 100/207/101 101/208/101 99/170/101 90/169/101 83/176/101
f 217/209/102 216/210/102 94/211/102 95/193/102
f 201/212/103 87/191/103 94/194/103 216/213/103
f 93/192/104 212/214/104 217/209/104 95/193/104
f 89/204/105 82/158/105 97/161/105 223/205/105
f 87/175/106 201/196/106 80/195/106 83/176/106
f 98/172/107 222/215/107 203/198/107 86/173/107
f 222/216/108 98/187/108 227/186/108
f 100/217/109 102/218/109 101/219/109
f 91/220/110 99/221/110 102/218/110
f 100/222/111 91/220/111 102/218/111
f 102/218/112 99/221/112 101/219/112
f 103/1/113 112/4/113 116/223/113 106/224/113
f 106/224/114 116/223/114 115/225/114 105/226/114
f 119/227/115 117/228/115 109/229/115
f 110/230/116 106/224/116 105/226/116 108/231/116
f 108/232/117 113/15/117 141/14/117 142/233/117
f 111/16/118 103/1/118 106/224/118 110/230/118
f 105/234/119 115/235/119 114/19/119 104/18/119
f 108/232/120 104/18/120 113/15/120
f 107/236/121 115/225/121 116/223/121 109/237/121
f 118/23/122 114/19/122 115/235/122 107/238/122
f 109/239/123 116/223/123 112/4/123 119/26/123
f 130/240/124 134/241/124 131/242/124 123/243/124
f 107/244/125 140/245/125 139/246/125 120/247/125
f 107/244/126 120/247/126 118/248/126
f 127/249/127 129/250/127 130/240/127 128/251/127
f 122/252/128 128/251/128 126/253/128 121/254/128
f 121/255/129 126/256/129 125/257/129 140/245/129
f 139/258/130 127/249/130 128/251/130 122/252/130
f 140/245/131 125/257/131 127/259/131 139/246/131
f 125/257/132 124/260/132 129/261/132 127/259/132
f 128/251/133 130/240/133 123/243/133 126/253/133
f 126/256/134 123/262/134 124/260/134 125/257/134
f 131/263/135 135/264/135 136/265/135 132/266/135
f 123/262/136 131/263/136 132/266/136 124/260/136
f 124/260/137 132/266/137 133/267/137 129/261/137
f 129/250/138 133/268/138 134/241/138 130/240/138
f 152/269/139 147/270/139 149/271/139 151/272/139
f 134/241/140 138/273/140 135/274/140 131/242/140
f 132/266/141 136/265/141 137/275/141 133/267/141
f 133/268/142 137/276/142 138/273/142 134/241/142
f 120/277/143 139/258/143 122/252/143 117/228/143
f 109/278/144 121/255/144 140/245/144 107/244/144
f 117/228/145 122/252/145 121/254/145 109/229/145
f 141/14/146 111/67/146 110/279/146 142/233/146
f 110/279/147 108/232/147 142/233/147
f 143/280/148 146/281/148 145/282/148 144/283/148
f 137/284/149 143/285/149 144/286/149 138/287/149
f 135/288/150 145/282/150 146/281/150 136/289/150
f 138/287/151 144/286/151 145/290/151 135/291/151
f 148/292/152 150/293/152 149/271/152 147/270/152
f 151/294/153 149/295/153 150/296/153 153/297/153
f 154/298/154 148/299/154 147/300/154 152/301/154
f 153/297/155 150/296/155 148/299/155 154/298/155
f 146/281/156 153/297/156 154/298/156 136/289/156
f 136/289/157 154/298/157 152/301/157 137/302/157
f 143/280/158 151/294/158 153/297/158 146/281/158
f 137/284/159 152/269/159 151/272/159 143/285/159
f 156/303/160 155/304/160 157/305/160 158/306/160
f 158/307/161 157/308/161 162/309/161
f 162/309/162 161/310/162 159/311/162 160/312/162
f 160/312/163 155/304/163 156/303/163
f 159/311/164 165/313/164 163/314/164 155/304/164
f 160/312/165 156/315/165 158/316/165 162/309/165
f 163/317/166 165/318/166 166/319/166 164/320/166
f 161/310/167 166/321/167 165/313/167 159/311/167
f 155/304/168 163/314/168 164/322/168 157/305/168
f 157/308/169 164/323/169 166/321/169 161/310/169
f 175/324/170 167/325/170 169/326/170 176/327/170
f 176/328/171 169/329/171 173/330/171 177/331/171
f 177/331/172 173/330/172 171/332/172 178/333/172
f 178/333/173 171/332/173 167/325/173 175/324/173
f 167/334/174 171/335/174 173/336/174 169/337/174
f 172/338/175 168/339/175 170/340/175 174/341/175
f 172/342/176 178/333/176 175/324/176 168/343/176
f 174/344/177 177/331/177 178/333/177 172/342/177
f 170/345/178 176/328/178 177/331/178 174/344/178
f 168/343/179 175/324/179 176/327/179 170/346/179
f 180/347/180 191/348/180 181/349/180 182/350/180
f 155/304/181 160/312/181 159/311/181
f 157/308/182 161/310/182 162/309/182
f 182/350/183 181/349/183 185/351/183 186/352/183
f 186/352/184 185/351/184 183/353/184 184/354/184
f 179/355/185 183/353/185 191/356/185
f 183/353/186 190/357/186 188/358/186 191/359/186
f 184/360/187 180/361/187 182/362/187 186/363/187
f 188/364/188 190/357/188 189/365/188 187/366/188
f 185/351/189 189/365/189 190/357/189 183/353/189
f 191/348/190 188/367/190 187/368/190 181/349/190
f 181/349/191 187/368/191 189/365/191 185/351/191
f 180/369/192 179/355/192 191/356/192
f 184/354/193 183/353/193 179/355/193
f 180/369/194 184/354/194 179/355/194
f 104/18/195 108/232/195 105/234/195
f 197/370/196 221/177/196 219/371/196 207/372/196
f 80/195/197 192/197/197 226/373/197 225/206/197
f 210/179/198 229/374/198 209/375/198 196/376/198 194/377/198
f 194/377/199 196/376/199 205/378/199 228/379/199 204/380/199
f 214/381/200 209/375/200 198/382/200 206/383/200
f 225/206/201 226/373/201 200/384/201 84/203/201
f 213/385/202 211/183/202 200/182/202 199/386/202
f 204/387/203 228/388/203 227/186/203 193/185/203
f 207/372/204 219/371/204 220/189/204 202/188/204
f 200/389/205 226/162/205 224/165/205 199/390/205
f 208/391/206 213/385/206 199/386/206
f 206/392/207 215/393/207 218/394/207 214/395/207
f 195/164/208 192/163/208 201/396/208
f 203/198/209 205/378/209 214/381/209 212/397/209
f 197/398/210 207/399/210 213/385/210 208/391/210
f 207/399/211 202/202/211 211/183/211 213/385/211
f 199/390/212 224/165/212 233/178/212 208/400/212
f 205/378/213 196/376/213 209/375/213 214/381/213
f 195/164/214 198/382/214 209/375/214 229/374/214 231/401/214 230/402/214
f 217/209/215 218/394/215 215/403/215 216/210/215
f 201/404/216 216/405/216 215/393/216 206/392/216
f 214/395/217 218/394/217 217/209/217 212/214/217
f 194/406/218 204/407/218 219/408/218 221/409/218
f 204/407/219 193/410/219 220/411/219 219/408/219
f 85/412/220 96/413/220 220/411/220 193/410/220
f 79/414/221 97/415/221 96/413/221 85/412/221
f 206/383/222 198/382/222 195/164/222 201/396/222
f 228/379/223 205/378/223 203/198/223 222/215/223
f 222/216/224 227/186/224 228/388/224
f 230/416/225 231/417/225 232/418/225
f 210/419/226 232/418/226 229/420/226
f 230/421/227 232/418/227 210/419/227
f 232/418/228 231/417/228 229/420/228
f 223/205/229 97/161/229 91/166/229
f 225/206/230 223/205/230 91/166/230 100/207/230 80/195/230
f 221/177/231 210/179/231 194/377/231
f 91/166/232 97/161/232 79/167/232
f 233/178/233 221/177/233 197/370/233 208/400/233
f 233/178/234 224/165/234 195/164/234 230/402/234 210/179/234
