# Blender 4.3.2
# www.blender.org
o beggar
v 0.192711 1.128450 0.144968
v 0.183606 1.179102 -0.099629
v 0.190387 0.899320 0.116126
v 0.196108 1.442050 0.145499
v 0.194120 0.811194 -0.105022
v 0.203745 1.527937 -0.024889
v 0.203701 0.899088 0.132106
v 0.229310 0.812120 -0.114058
v 0.241859 0.712186 0.000543
v 0.063088 0.657276 -0.018933
v 0.260790 0.512066 0.100858
v 0.248113 0.492640 0.239040
v 0.249246 0.578689 0.231303
v 0.257137 0.527453 0.114338
v 0.135266 0.573444 0.251039
v 0.129382 0.518501 0.118362
v 0.134372 0.504085 0.256890
v 0.132629 0.518289 0.101615
v 0.246100 0.351421 0.039524
v 0.244855 0.333387 0.183687
v 0.119907 0.344045 0.204070
v 0.102457 0.365451 0.042557
v 0.159919 0.069705 0.052939
v 0.172387 0.066472 0.135373
v 0.090454 0.067473 0.158452
v 0.076227 0.087123 0.059208
v 0.079037 0.772195 0.189534
v 0.229423 0.813361 0.165193
v 0.157660 1.522225 0.083255
v 0.077309 -0.010893 0.141127
v 0.063677 -0.001383 0.038312
v 0.150807 -0.011665 0.034521
v 0.181189 -0.011288 0.122163
v 0.088738 0.036652 0.294108
v 0.172976 0.038660 0.280220
v 0.071306 -0.002694 0.331691
v 0.194673 -0.001615 0.310787
v 0.075664 -0.007960 0.222386
v 0.087321 0.055329 0.225670
v 0.188251 -0.006683 0.203253
v 0.170204 0.055577 0.207088
v 0.156675 1.295117 0.063300
v 0.124432 1.523795 0.091351
v 0.167428 1.339755 -0.087434
v 0.134224 1.551077 -0.030031
v 0.290228 1.326446 0.052991
v 0.241240 1.491958 0.051369
v 0.298795 1.360950 -0.067849
v 0.255126 1.518671 -0.020883
v 0.220231 1.155274 0.019621
v 0.218766 1.154632 -0.119284
v 0.321019 1.176574 0.018317
v 0.326377 1.182253 -0.108323
v 0.267590 0.815309 0.028445
v 0.208246 1.159652 0.002762
v 0.295369 0.813767 -0.104636
v 0.223212 1.169729 -0.116942
v 0.367965 0.829729 0.045265
v 0.317078 1.187058 0.020606
v 0.387581 0.827015 -0.089184
v 0.324443 1.195221 -0.100344
v 0.226232 1.012768 0.005482
v 0.246497 1.008837 -0.112084
v 0.372251 1.042685 -0.091538
v 0.350227 1.046957 0.036231
v 0.301195 0.749189 0.049630
v 0.285153 0.821703 0.010510
v 0.312719 0.738868 -0.102270
v 0.304954 0.821218 -0.094326
v 0.350915 0.740477 0.027336
v 0.351896 0.829627 0.023080
v 0.380660 0.746934 -0.089475
v 0.371698 0.829142 -0.081756
v 0.306742 0.661544 -0.090253
v 0.287246 0.639376 0.017010
v 0.346597 0.674555 -0.083927
v 0.335563 0.668021 0.013591
v 0.301032 0.729765 0.024483
v 0.083232 1.655444 0.195048
v 0.073354 1.695988 0.041208
v 0.063358 1.582066 0.176737
v 0.067872 1.804159 0.189276
v 0.075893 1.631736 0.062254
v 0.059635 1.820323 0.073158
v 0.018481 1.658502 0.232395
v 0.032368 1.555816 0.195963
v 0.047972 1.616197 0.057248
v 0.031040 1.817574 0.203770
v 0.079739 1.813532 0.132411
v 0.083428 1.605928 0.110083
v 0.099388 1.692055 0.127617
v 0.032526 1.847060 0.132328
v 0.047774 1.581823 0.126973
v 0.050787 1.502622 0.008763
v 0.050587 1.471349 0.084562
v 0.035264 1.725424 0.221955
v 0.085196 1.723822 0.197155
v 0.024299 1.624719 0.222224
v 0.088771 1.629250 0.115033
v 0.094385 1.707222 0.090176
v 0.085032 1.642606 0.089561
v 0.114954 1.711118 0.088446
v 0.005737 1.202112 -0.145070
v -0.002731 1.119184 0.220794
v -0.193287 1.125871 0.149770
v -0.174480 1.184147 -0.102891
v -0.183656 0.859374 0.116431
v -0.185524 1.442050 0.150049
v -0.194495 0.846611 -0.120290
v -0.197087 1.527937 -0.019644
v 0.003266 1.573014 -0.028003
v 0.006980 0.851682 -0.213246
v 0.006587 1.463028 0.184174
v -0.000962 0.860071 0.194932
v -0.197543 0.860551 0.133467
v -0.228605 0.845348 -0.150372
v 0.004370 0.797223 -0.155755
v -0.000881 0.856611 0.135285
v 0.005667 0.853916 -0.158713
v -0.005656 0.804420 0.141110
v -0.255837 0.728417 -0.072842
v -0.081918 0.662673 -0.116357
v -0.299778 0.535968 -0.044010
v -0.277955 0.429852 0.019060
v -0.278808 0.507480 0.077210
v -0.295011 0.519118 -0.039862
v -0.168436 0.482404 0.087641
v -0.170254 0.500372 -0.040752
v -0.167565 0.428055 0.045301
v -0.174060 0.540580 -0.031866
v -0.268163 0.517509 -0.209961
v -0.260619 0.387715 -0.147011
v -0.138522 0.385666 -0.119561
v -0.126343 0.533724 -0.187677
v -0.153597 0.328369 -0.432770
v -0.166487 0.367791 -0.398554
v -0.086966 0.390967 -0.389680
v -0.072586 0.363919 -0.409932
v -0.087313 0.687557 0.125329
v -0.230914 0.746585 0.118337
v 0.005399 1.541028 0.083704
v -0.147698 1.522225 0.087879
v -0.071128 0.346326 -0.331314
v -0.054905 0.307511 -0.421044
v -0.141145 0.294561 -0.426028
v -0.174447 0.328546 -0.344674
v -0.083680 0.504419 -0.296050
v -0.168041 0.494662 -0.306747
v -0.066516 0.514685 -0.242187
v -0.189977 0.499050 -0.255676
v -0.071296 0.420631 -0.296569
v -0.082402 0.456131 -0.349426
v -0.183842 0.406090 -0.308023
v -0.165595 0.436417 -0.361688
v -0.146154 1.308157 0.116773
v -0.111816 1.536246 0.086503
v -0.166344 1.315174 -0.039343
v -0.129220 1.533512 -0.037042
v -0.280038 1.338323 0.107333
v -0.230972 1.497668 0.062633
v -0.296173 1.342703 -0.017514
v -0.249356 1.506337 -0.012955
v -0.212580 1.163000 0.112274
v -0.219905 1.128743 -0.022152
v -0.313213 1.185058 0.111988
v -0.326560 1.160018 -0.011679
v -0.239914 0.844554 0.218320
v -0.190750 1.163254 0.081327
v -0.298207 0.807144 0.101328
v -0.233526 1.139962 -0.029498
v -0.333617 0.869276 0.252593
v -0.292524 1.201214 0.114716
v -0.384289 0.829856 0.132814
v -0.328193 1.175272 0.001559
v -0.206536 1.024529 0.130440
v -0.253859 0.988759 0.026860
v -0.371491 1.034689 0.064742
v -0.320061 1.073563 0.177312
v -0.267818 0.788931 0.264926
v -0.261265 0.846152 0.203863
v -0.315005 0.737113 0.129275
v -0.305322 0.817591 0.110985
v -0.321430 0.777882 0.257945
v -0.323111 0.862058 0.228309
v -0.377960 0.753305 0.154159
v -0.367168 0.833497 0.135431
v -0.306595 0.666079 0.161564
v -0.262332 0.673670 0.263348
v -0.343779 0.683168 0.172659
v -0.309995 0.703580 0.262749
v -0.273674 0.763252 0.247148
v 0.005430 1.701627 0.010410
v 0.003019 1.659169 0.242755
v -0.076235 1.655761 0.193426
v -0.063118 1.696239 0.039842
v -0.056257 1.582254 0.175538
v -0.060077 1.803090 0.187633
v -0.066321 1.631979 0.060825
v -0.049132 1.819415 0.071760
v 0.005519 1.824947 0.048366
v 0.005039 1.626633 0.035285
v 0.003478 1.822009 0.209144
v 0.003247 1.549152 0.201935
v -0.012237 1.658606 0.232060
v -0.025731 1.555935 0.195392
v -0.038363 1.616340 0.056382
v -0.023859 1.817115 0.203065
v -0.070635 1.812276 0.130480
v -0.074910 1.606185 0.108481
v -0.090890 1.692405 0.125712
v 0.004262 1.846824 0.131965
v 0.003868 1.573888 0.143984
v -0.024002 1.846588 0.131602
v -0.039671 1.581921 0.126096
v -0.040308 1.502636 0.007845
v 0.005457 1.496756 -0.012976
v 0.004364 1.453456 0.095541
v -0.041642 1.471361 0.083634
v -0.028584 1.725450 0.221291
v 0.003218 1.725435 0.232782
v -0.077956 1.723909 0.195463
v 0.003128 1.615470 0.223675
v 0.100495 1.732431 0.129595
v -0.069011 1.731864 0.040938
v 0.079356 1.731591 0.042423
v 0.005511 1.738370 0.009044
v 0.002937 1.617246 0.243151
v -0.017979 1.624561 0.221868
v -0.080268 1.629528 0.113350
v -0.085083 1.707552 0.088379
v -0.075969 1.642885 0.087956
v -0.105599 1.711523 0.086238
v -0.091743 1.737473 0.127900
vn 0.3549 0.1298 -0.9258
vn 0.9953 0.0934 0.0266
vn 0.2618 -0.0563 -0.9635
vn 0.9993 -0.0338 -0.0147
vn 0.1610 0.7270 0.6675
vn 0.1674 0.2500 -0.9537
vn 0.3338 -0.0658 0.9403
vn 0.2094 0.0979 0.9729
vn -0.0365 -0.9366 0.3486
vn 0.2034 -0.9791 0.0062
vn -0.1684 -0.9827 -0.0765
vn 0.0136 0.3568 -0.9341
vn -0.1053 0.5649 0.8184
vn 0.0762 0.1037 0.9917
vn -0.9987 -0.0388 0.0319
vn 0.1610 -0.5795 -0.7989
vn 0.9955 0.0926 0.0217
vn -0.9539 -0.2399 0.1805
vn 0.1059 0.2979 0.9487
vn 0.1645 0.0838 0.9828
vn -0.0181 0.8868 -0.4618
vn 0.9968 0.0203 0.0778
vn 0.9593 -0.2728 -0.0731
vn 0.9967 -0.0704 0.0398
vn 0.1202 -0.3245 0.9382
vn -0.9907 0.1152 0.0730
vn -0.9617 0.2741 0.0048
vn -0.0469 -0.0442 -0.9979
vn 0.1905 -0.2018 0.9607
vn -0.9867 0.0920 0.1343
vn -0.8298 -0.5402 0.1403
vn 0.9343 0.3340 -0.1247
vn 0.2573 -0.6293 -0.7334
vn 0.1731 0.9644 0.2000
vn 0.7187 0.6074 0.3384
vn -0.0598 -0.9976 -0.0340
vn -0.9815 0.1163 0.1521
vn 0.9688 0.0465 -0.2433
vn -0.0204 0.2279 -0.9735
vn 0.1163 0.6494 0.7515
vn 0.0180 -0.9987 0.0474
vn 0.0341 0.9695 0.2427
vn 0.9342 0.3558 -0.0242
vn 0.9813 0.1910 -0.0235
vn 0.0462 0.9852 0.1651
vn 0.0122 -0.9989 0.0460
vn -0.9843 0.1754 -0.0208
vn -0.9862 -0.1258 -0.1077
vn 0.1470 0.2807 -0.9485
vn 0.9507 0.2461 0.1886
vn 0.3050 -0.0735 0.9495
vn 0.0995 -0.2294 0.9682
vn 0.2846 0.9139 0.2896
vn 0.2292 -0.9733 -0.0151
vn 0.9844 0.1564 0.0808
vn -0.9455 -0.3161 -0.0783
vn 0.0813 0.2113 -0.9740
vn -0.9559 -0.2335 -0.1781
vn 0.1626 0.0019 -0.9867
vn 0.9848 0.0793 0.1543
vn -0.2164 0.0444 0.9753
vn 0.1356 -0.9900 0.0398
vn -0.2516 0.9665 0.0499
vn -0.2106 0.0250 0.9773
vn 0.9546 0.2739 0.1171
vn 0.1630 -0.0060 -0.9866
vn -0.9796 -0.1350 -0.1490
vn -0.9807 -0.1378 -0.1385
vn 0.0698 0.0304 0.9971
vn 0.0916 0.3074 -0.9472
vn 0.1712 0.1106 -0.9790
vn 0.9749 0.0410 0.2190
vn 0.1339 -0.7847 0.6053
vn 0.0617 -0.1398 0.9883
vn -0.1130 0.9933 -0.0259
vn 0.4280 -0.9016 -0.0626
vn 0.9319 -0.3268 0.1575
vn -0.9867 0.1131 -0.1164
vn 0.2039 -0.1677 -0.9645
vn -0.9809 -0.1508 0.1228
vn 0.4145 0.0389 0.9092
vn -0.2160 0.4261 0.8785
vn 0.3619 -0.0055 0.9322
vn 0.4320 0.1873 0.8822
vn -0.3913 -0.0349 -0.9196
vn 0.9561 -0.2493 0.1539
vn 0.5562 -0.2607 0.7891
vn 0.4166 -0.7984 -0.4347
vn -0.9805 -0.0280 0.1945
vn 0.1402 0.9454 -0.2941
vn 0.6519 -0.0483 0.7568
vn 0.2710 0.2137 0.9386
vn 0.5761 0.8109 -0.1025
vn 0.9997 0.0203 0.0119
vn 0.3744 -0.2937 -0.8795
vn 0.0717 -0.9293 -0.3624
vn 0.5039 0.8107 0.2980
vn 0.1010 0.9340 0.3428
vn 0.9293 0.2710 -0.2507
vn 0.5366 -0.8278 -0.1640
vn 0.9414 -0.1229 -0.3142
vn 0.2738 -0.8923 -0.3591
vn 0.4316 0.3381 -0.8363
vn 0.3659 -0.3362 0.8678
vn 0.9433 0.2300 0.2392
vn 0.3585 -0.2923 -0.8866
vn 0.2348 -0.3125 0.9204
vn 0.4038 -0.9107 0.0870
vn -0.0880 0.0222 -0.9959
vn 0.9392 -0.2128 0.2697
vn -0.1399 0.9111 0.3878
vn 0.8639 -0.3826 -0.3274
vn -0.2508 0.1789 -0.9514
vn -0.9952 0.0930 0.0302
vn -0.1867 -0.0469 -0.9813
vn -0.9995 -0.0195 -0.0238
vn -0.1420 0.7254 0.6735
vn -0.1694 0.2605 -0.9505
vn -0.3241 -0.0743 0.9431
vn -0.1854 0.1090 0.9766
vn -0.0131 -0.9984 0.0547
vn -0.0205 -0.9982 0.0566
vn 0.0375 -0.9989 0.0267
vn -0.0652 0.9934 -0.0942
vn -0.0995 -0.0043 0.9950
vn -0.1001 0.1194 0.9878
vn 0.9966 -0.0445 -0.0686
vn -0.2017 -0.2103 -0.9566
vn -0.9743 0.1869 0.1260
vn 0.9086 -0.4173 0.0166
vn -0.1142 -0.1413 0.9834
vn -0.2017 -0.5950 0.7780
vn -0.0498 -0.0901 0.9947
vn -0.9847 -0.0896 0.1493
vn -0.9210 -0.2586 -0.2912
vn -0.9772 -0.1810 -0.1110
vn -0.0709 -0.9688 0.2375
vn 0.9710 0.0999 0.2171
vn 0.9645 0.1439 -0.2215
vn -0.0492 0.7683 -0.6382
vn 0.0944 -0.9941 0.0542
vn 0.9732 -0.0495 0.2247
vn 0.8327 -0.5509 0.0567
vn -0.9004 0.4328 0.0440
vn -0.2560 -0.1770 -0.9503
vn -0.1670 0.9644 0.2051
vn -0.7069 0.6105 0.3572
vn 0.1063 -0.9035 0.4152
vn 0.9390 0.3388 0.0584
vn -0.9440 -0.2431 -0.2229
vn 0.1369 0.0935 -0.9862
vn -0.1037 0.9844 -0.1422
vn -0.0284 -0.4956 0.8681
vn -0.0292 0.7121 -0.7014
vn -0.9333 0.1711 -0.3157
vn -0.9771 0.0475 -0.2074
vn -0.0193 0.4999 -0.8659
vn -0.0399 -0.4272 0.9033
vn 0.9799 0.0697 -0.1871
vn 0.9772 -0.1648 -0.1339
vn -0.2062 0.0454 -0.9775
vn -0.9365 0.3005 0.1808
vn -0.2444 0.1636 0.9558
vn -0.0385 0.0134 0.9992
vn -0.2641 0.9615 0.0761
vn -0.2313 -0.9440 0.2354
vn -0.9770 0.1880 0.1003
vn 0.9381 -0.3416 -0.0568
vn -0.1424 -0.0293 -0.9894
vn 0.8888 -0.3326 -0.3152
vn -0.3901 -0.2673 -0.8811
vn -0.9215 0.1800 0.3443
vn 0.4394 0.3051 0.8449
vn -0.1153 -0.9280 0.3542
vn 0.2493 0.9239 -0.2904
vn 0.4344 0.2874 0.8537
vn -0.9022 0.3539 0.2465
vn -0.3905 -0.2748 -0.8786
vn 0.9180 -0.2315 -0.3220
vn 0.9196 -0.2412 -0.3100
vn -0.0066 0.2720 0.9623
vn -0.1508 0.0706 -0.9860
vn -0.3978 -0.1575 -0.9039
vn -0.8952 0.1708 0.4117
vn 0.0107 -0.5708 0.8210
vn 0.1735 0.1489 0.9735
vn 0.1068 0.9350 -0.3382
vn -0.4335 -0.8496 0.3003
vn -0.8691 -0.2016 0.4517
vn 0.9315 0.0047 -0.3637
vn -0.4269 -0.4174 -0.8022
vn 0.9816 -0.1800 -0.0633
vn -0.1874 0.3229 0.9277
vn 0.4192 0.6396 0.6443
vn -0.3490 0.0077 0.9371
vn -0.4543 0.1928 0.8697
vn 0.4095 -0.0363 -0.9116
vn -0.9599 -0.2457 0.1349
vn -0.5738 -0.2580 0.7773
vn -0.4106 -0.7967 -0.4434
vn 0.4109 0.3778 -0.8297
vn -0.1483 0.9430 -0.2978
vn -0.6664 -0.0449 0.7443
vn -0.2944 0.2149 0.9312
vn -0.3935 0.3818 -0.8363
vn -0.5867 0.8012 -0.1174
vn -0.9997 0.0210 -0.0087
vn -0.3578 -0.2923 -0.8869
vn -0.0674 -0.9292 -0.3633
vn -0.5249 0.8021 0.2848
vn -0.1254 0.9321 0.3399
vn -0.9171 0.2882 -0.2754
vn -0.5360 -0.8260 -0.1743
vn -0.9353 -0.1193 -0.3330
vn -0.2666 -0.8922 -0.3645
vn -0.4140 0.3384 -0.8450
vn -0.3836 -0.3361 0.8602
vn -0.4940 -0.0099 0.8694
vn -0.4256 0.0887 0.9006
vn 0.4068 0.0875 0.9093
vn 0.4760 -0.0118 0.8793
vn -0.3416 -0.2909 -0.8937
vn -0.2519 -0.3130 0.9158
vn -0.4001 -0.9130 0.0793
vn 0.1079 0.0217 -0.9939
vn -0.9452 -0.2090 0.2510
vn 0.1355 0.9106 0.3905
vn -0.8586 -0.3793 -0.3449
vn 0.9756 -0.0373 0.2162
vn 0.9672 0.0001 -0.2541
vn -0.9802 -0.0306 0.1956
vn 0.9760 -0.0346 0.2150
vn -0.9418 0.2463 0.2288
vn -0.9627 0.0063 -0.2705
vt 0.769832 0.195645
vt 0.775252 0.120749
vt 0.898457 0.115387
vt 0.893855 0.199439
vt 0.779478 0.033265
vt 0.875888 0.020883
vt 0.079276 0.380758
vt 0.015809 0.352495
vt 0.092810 0.349129
vt 0.640892 0.115732
vt 0.651808 0.045918
vt 0.972902 0.747099
vt 0.945788 0.808209
vt 0.869285 0.817542
vt 0.869303 0.746010
vt 0.623064 0.191154
vt 0.978616 0.563599
vt 0.869350 0.563483
vt 0.869382 0.439703
vt 0.981068 0.426748
vt 0.887298 0.020144
vt 0.903448 0.092046
vt 0.869386 0.423683
vt 0.966087 0.423037
vt 0.919014 0.125551
vt 0.901661 0.199678
vt 0.080227 0.193471
vt 0.035111 0.194551
vt 0.029851 0.129329
vt 0.078457 0.129531
vt 0.524664 0.024934
vt 0.453935 0.048979
vt 0.476762 0.096074
vt 0.529992 0.085338
vt 0.458519 0.014915
vt 0.140591 0.209945
vt 0.084060 0.210053
vt 0.139428 0.189660
vt 0.088688 0.293915
vt 0.019697 0.289600
vt 0.036330 0.210891
vt 0.589766 0.089175
vt 0.538912 0.169399
vt 0.588096 0.171055
vt 0.169119 0.280272
vt 0.494132 0.172296
vt 0.495777 0.194811
vt 0.540097 0.192752
vt 0.594693 0.186440
vt 0.602720 0.254314
vt 0.550300 0.251019
vt 0.546511 0.359212
vt 0.576655 0.358602
vt 0.502818 0.254080
vt 0.133655 0.131663
vt 0.460444 0.638059
vt 0.461859 0.667341
vt 0.511272 0.661029
vt 0.492341 0.643217
vt 0.059953 0.028917
vt 0.089979 0.037143
vt 0.513486 0.356281
vt 0.126069 0.032173
vt 0.187391 0.328606
vt 0.600139 0.026470
vt 0.980612 0.851849
vt 0.869271 0.873069
vt 0.214036 0.700438
vt 0.168892 0.698897
vt 0.170775 0.659242
vt 0.208186 0.653496
vt 0.429138 0.636018
vt 0.382088 0.640297
vt 0.380987 0.679254
vt 0.425514 0.672609
vt 0.172591 0.619486
vt 0.211119 0.618494
vt 0.342980 0.638844
vt 0.341450 0.677655
vt 0.504441 0.606319
vt 0.529468 0.607110
vt 0.250819 0.702808
vt 0.243337 0.651469
vt 0.292311 0.649141
vt 0.300801 0.705699
vt 0.244056 0.622019
vt 0.258050 0.585846
vt 0.290061 0.591615
vt 0.277688 0.628694
vt 0.226990 0.579872
vt 0.239778 0.437910
vt 0.241642 0.380815
vt 0.334062 0.371731
vt 0.335105 0.430080
vt 0.244961 0.564466
vt 0.270260 0.519900
vt 0.334573 0.576660
vt 0.267325 0.484741
vt 0.339743 0.479221
vt 0.337393 0.523671
vt 0.397256 0.433766
vt 0.400592 0.476589
vt 0.218167 0.523740
vt 0.216842 0.468389
vt 0.934188 0.071641
vt 0.985147 0.071450
vt 0.980416 0.114135
vt 0.934188 0.111273
vt 0.409685 0.525397
vt 0.413123 0.381914
vt 0.413123 0.570440
vt 0.588235 0.616390
vt 0.541774 0.616014
vt 0.540412 0.699472
vt 0.594290 0.698674
vt 0.733169 0.616366
vt 0.683834 0.612729
vt 0.688349 0.697632
vt 0.724849 0.697622
vt 0.637083 0.612063
vt 0.634642 0.698467
vt 0.933176 0.242559
vt 0.985452 0.244219
vt 0.985670 0.280546
vt 0.933413 0.282101
vt 0.980360 0.291116
vt 0.933814 0.295150
vt 0.933988 0.335813
vt 0.980548 0.334832
vt 0.637975 0.554612
vt 0.592385 0.555443
vt 0.685764 0.549762
vt 0.727568 0.549351
vt 0.544847 0.548303
vt 0.557765 0.809694
vt 0.510229 0.803468
vt 0.511171 0.765578
vt 0.565124 0.764368
vt 0.479691 0.799649
vt 0.486340 0.766582
vt 0.437092 0.787533
vt 0.443585 0.748829
vt 0.425923 0.754711
vt 0.422123 0.742946
vt 0.429690 0.730629
vt 0.447798 0.694577
vt 0.457086 0.718428
vt 0.949739 0.404064
vt 0.949739 0.353270
vt 0.982292 0.353270
vt 0.982292 0.404064
vt 0.460533 0.693281
vt 0.502277 0.717435
vt 0.495857 0.735141
vt 0.514016 0.729944
vt 0.562185 0.720311
vt 0.408828 0.775679
vt 0.278149 0.967649
vt 0.246334 0.979776
vt 0.249708 0.914564
vt 0.277992 0.912907
vt 0.013923 0.884272
vt 0.022151 0.852843
vt 0.077991 0.867331
vt 0.074449 0.892252
vt 0.315578 0.881871
vt 0.272833 0.868911
vt 0.266436 0.823662
vt 0.311469 0.826118
vt 0.312630 0.841540
vt 0.233032 0.873502
vt 0.237034 0.853143
vt 0.243726 0.809688
vt 0.293162 0.797592
vt 0.353002 0.808376
vt 0.344750 0.831707
vt 0.171111 0.912654
vt 0.129263 0.910165
vt 0.133762 0.881302
vt 0.504295 0.904470
vt 0.456722 0.873442
vt 0.486878 0.832177
vt 0.523186 0.892354
vt 0.393060 0.750737
vt 0.369166 0.770382
vt 0.342151 0.723866
vt 0.371660 0.694150
vt 0.224422 0.982399
vt 0.224589 0.913793
vt 0.464697 0.929008
vt 0.510943 0.418646
vt 0.509620 0.457222
vt 0.450276 0.457321
vt 0.451259 0.416801
vt 0.371260 0.868269
vt 0.391399 0.792592
vt 0.427034 0.854273
vt 0.224914 0.800301
vt 0.250611 0.780243
vt 0.499027 0.969201
vt 0.535560 0.959128
vt 0.557854 0.949811
vt 0.378068 0.967627
vt 0.326324 0.969178
vt 0.319455 0.907637
vt 0.374611 0.893121
vt 0.340158 0.885118
vt 0.330117 0.844664
vt 0.450534 0.480546
vt 0.422105 0.480397
vt 0.434613 0.451640
vt 0.511818 0.394240
vt 0.445658 0.392364
vt 0.509788 0.480859
vt 0.224768 0.847580
vt 0.329170 0.701515
vt 0.145363 0.785723
vt 0.128390 0.783055
vt 0.170261 0.738493
vt 0.116930 0.746993
vt 0.160651 0.716692
vt 0.111510 0.779844
vt 0.893310 0.283615
vt 0.770664 0.270731
vt 0.865483 0.388919
vt 0.769534 0.358310
vt 0.423897 0.371814
vt 0.408299 0.341150
vt 0.485355 0.339413
vt 0.636248 0.267526
vt 0.642876 0.337877
vt 0.765704 0.747046
vt 0.792786 0.808169
vt 0.760084 0.563543
vt 0.757703 0.426691
vt 0.876826 0.390354
vt 0.896865 0.307217
vt 0.772687 0.422987
vt 0.914451 0.274726
vt 0.410556 0.185000
vt 0.408092 0.121083
vt 0.456578 0.117665
vt 0.455645 0.183093
vt 0.253560 0.018334
vt 0.251430 0.078936
vt 0.305153 0.086844
vt 0.325460 0.038610
vt 0.319084 0.004836
vt 0.351414 0.205432
vt 0.351233 0.185114
vt 0.407829 0.201799
vt 0.408760 0.285783
vt 0.455510 0.199477
vt 0.477314 0.276913
vt 0.191942 0.085924
vt 0.197935 0.167602
vt 0.246963 0.163350
vt 0.327602 0.277492
vt 0.291833 0.163878
vt 0.247013 0.186734
vt 0.291379 0.186449
vt 0.192159 0.183314
vt 0.187729 0.251517
vt 0.219266 0.354283
vt 0.249400 0.353300
vt 0.239901 0.245457
vt 0.287479 0.246007
vt 0.353156 0.126862
vt 0.373466 0.625371
vt 0.341578 0.620155
vt 0.322681 0.602307
vt 0.372105 0.596087
vt 0.390482 0.029659
vt 0.419898 0.019465
vt 0.282224 0.348629
vt 0.354142 0.027088
vt 0.312568 0.326929
vt 0.178272 0.023855
vt 0.757941 0.851792
vt 0.013855 0.710087
vt 0.062637 0.719760
vt 0.053791 0.758555
vt 0.012068 0.757539
vt 0.404768 0.627471
vt 0.408460 0.590887
vt 0.452999 0.584325
vt 0.451825 0.623280
vt 0.095615 0.759647
vt 0.099560 0.719322
vt 0.492533 0.585997
vt 0.490931 0.624805
vt 0.329410 0.657029
vt 0.304385 0.656192
vt 0.014143 0.671338
vt 0.013329 0.626462
vt 0.071995 0.639628
vt 0.067412 0.683054
vt 0.098346 0.684520
vt 0.093882 0.648751
vt 0.133695 0.638573
vt 0.137331 0.672574
vt 0.141254 0.705593
vt 0.185664 0.538131
vt 0.086734 0.549483
vt 0.089781 0.610162
vt 0.185643 0.597604
vt 0.176017 0.406617
vt 0.082362 0.396940
vt 0.151191 0.453841
vt 0.081208 0.452173
vt 0.080256 0.498505
vt 0.155426 0.490326
vt 0.011387 0.503289
vt 0.011387 0.547736
vt 0.208505 0.505645
vt 0.205267 0.448094
vt 0.933051 0.227541
vt 0.935500 0.187984
vt 0.981816 0.187984
vt 0.983901 0.230880
vt 0.011387 0.452807
vt 0.011387 0.602224
vt 0.011387 0.406053
vt 0.685388 0.464625
vt 0.679517 0.382326
vt 0.733395 0.381660
vt 0.731848 0.465114
vt 0.540455 0.464294
vt 0.548955 0.383058
vt 0.585455 0.383138
vt 0.589782 0.468052
vt 0.639164 0.382434
vt 0.636531 0.468832
vt 0.926036 0.053242
vt 0.926036 0.013699
vt 0.978301 0.014940
vt 0.978301 0.051267
vt 0.941318 0.172865
vt 0.942408 0.129162
vt 0.988977 0.129542
vt 0.987962 0.170192
vt 0.635511 0.526281
vt 0.681104 0.525562
vt 0.587712 0.531014
vt 0.545907 0.531323
vt 0.728625 0.532818
vt 0.736669 0.725394
vt 0.735353 0.771722
vt 0.683130 0.758703
vt 0.689295 0.721117
vt 0.659178 0.752270
vt 0.658895 0.718191
vt 0.614298 0.760413
vt 0.615218 0.720808
vt 0.598227 0.750739
vt 0.592334 0.761513
vt 0.621741 0.793364
vt 0.608255 0.814858
vt 0.597389 0.775323
vt 0.902963 0.354102
vt 0.935516 0.354102
vt 0.935516 0.404895
vt 0.902963 0.404895
vt 0.620394 0.818928
vt 0.662554 0.785374
vt 0.665487 0.804249
vt 0.724263 0.814542
vt 0.679237 0.794482
vt 0.585527 0.726307
vt 0.170921 0.966691
vt 0.199450 0.914463
vt 0.202557 0.979360
vt 0.434990 0.885665
vt 0.136920 0.840949
vt 0.138178 0.825523
vt 0.183245 0.823379
vt 0.176564 0.868613
vt 0.206044 0.809560
vt 0.212468 0.853064
vt 0.216352 0.873452
vt 0.156680 0.797114
vt 0.104811 0.830875
vt 0.096708 0.807441
vt 0.427703 0.967162
vt 0.542713 0.881290
vt 0.537443 0.824738
vt 0.340263 0.781402
vt 0.301717 0.734772
vt 0.020099 0.966282
vt 0.069986 0.966279
vt 0.582883 0.857700
vt 0.510287 0.543080
vt 0.450588 0.544296
vt 0.450031 0.503768
vt 0.509371 0.504492
vt 0.058337 0.791326
vt 0.199393 0.779972
vt 0.602434 0.906809
vt 0.576490 0.934433
vt 0.122173 0.967791
vt 0.119390 0.843962
vt 0.109116 0.884444
vt 0.434309 0.509284
vt 0.510905 0.567494
vt 0.444729 0.568673
vt 0.612579 0.943799
vt 0.704302 0.960286
vt 0.690069 0.863893
vt 0.628178 0.846809
vt 0.727017 0.964931
vt 0.742045 0.877429
vt 0.749981 0.968131
vt 0.795559 0.882010
vt 0.849700 0.973890
vt 0.859604 0.886554
vt 0.262137 0.727847
vt 0.208247 0.720642
vt 0.265551 0.745007
vt 0.235108 0.768630
vt 0.190786 0.737487
vt 0.268411 0.762268
s 0
f 103/1/1 2/2/1 8/3/1 112/4/1
f 2/2/2 1/5/2 7/6/2 8/3/2
f 119/7/3 5/8/3 117/9/3
f 6/10/4 4/11/4 1/5/4 2/2/4
f 4/12/5 29/13/5 141/14/5 113/15/5
f 111/16/6 6/10/6 2/2/6 103/1/6
f 1/17/7 104/18/7 114/19/7 7/20/7
f 4/12/8 113/15/8 104/18/8
f 3/21/9 5/22/9 8/3/9 7/6/9
f 118/23/10 3/24/10 7/20/10 114/19/10
f 5/25/11 119/26/11 112/4/11 8/3/11
f 18/27/12 11/28/12 19/29/12 22/30/12
f 3/31/13 120/32/13 27/33/13 28/34/13
f 3/31/14 118/35/14 120/32/14
f 15/36/15 16/37/15 18/27/15 17/38/15
f 10/39/16 9/40/16 14/41/16 16/37/16
f 9/42/17 28/34/17 13/43/17 14/44/17
f 27/45/18 10/39/18 16/37/18 15/36/18
f 28/34/19 27/33/19 15/46/19 13/43/19
f 13/43/20 15/46/20 17/47/20 12/48/20
f 16/37/21 14/41/21 11/28/21 18/27/21
f 14/44/22 13/43/22 12/48/22 11/49/22
f 19/50/23 20/51/23 24/52/23 23/53/23
f 11/49/24 12/48/24 20/51/24 19/50/24
f 12/48/25 17/47/25 21/54/25 20/51/25
f 17/38/26 18/27/26 22/30/26 21/55/26
f 39/56/27 38/57/27 36/58/27 34/59/27
f 22/30/28 19/29/28 23/60/28 26/61/28
f 20/51/29 21/54/29 25/62/29 24/52/29
f 21/55/30 22/30/30 26/61/30 25/63/30
f 120/64/31 117/9/31 10/39/31 27/45/31
f 5/65/32 3/31/32 28/34/32 9/42/32
f 117/9/33 5/8/33 9/40/33 10/39/33
f 141/14/34 29/13/34 6/66/34 111/67/34
f 6/66/35 29/13/35 4/12/35
f 30/68/36 31/69/36 32/70/36 33/71/36
f 25/72/37 26/73/37 31/74/37 30/75/37
f 23/76/38 24/77/38 33/71/38 32/70/38
f 26/73/39 23/78/39 32/79/39 31/74/39
f 35/80/40 34/59/40 36/58/40 37/81/40
f 38/82/41 40/83/41 37/84/41 36/85/41
f 41/86/42 39/87/42 34/88/42 35/89/42
f 40/83/43 41/86/43 35/89/43 37/84/43
f 33/71/44 24/77/44 41/86/44 40/83/44
f 24/77/45 25/90/45 39/87/45 41/86/45
f 30/68/46 33/71/46 40/83/46 38/82/46
f 25/72/47 30/75/47 38/57/47 39/56/47
f 43/91/48 45/92/48 44/93/48 42/94/48
f 45/95/49 49/96/49 44/97/49
f 49/96/50 47/98/50 46/99/50 48/100/50
f 47/98/51 43/91/51 42/94/51
f 46/99/52 42/94/52 50/101/52 52/102/52
f 47/98/53 49/96/53 45/103/53 43/104/53
f 50/105/54 51/106/54 53/107/54 52/108/54
f 48/100/55 46/99/55 52/102/55 53/109/55
f 42/94/56 44/93/56 51/110/56 50/101/56
f 44/97/57 48/100/57 53/109/57 51/111/57
f 62/112/58 63/113/58 56/114/58 54/115/58
f 63/116/59 64/117/59 60/118/59 56/119/59
f 64/117/60 65/120/60 58/121/60 60/118/60
f 65/120/61 62/112/61 54/115/61 58/121/61
f 54/122/62 56/123/62 60/124/62 58/125/62
f 59/126/63 61/127/63 57/128/63 55/129/63
f 59/130/64 55/131/64 62/112/64 65/120/64
f 61/132/65 59/130/65 65/120/65 64/117/65
f 57/133/66 61/132/66 64/117/66 63/116/66
f 55/131/67 57/134/67 63/113/67 62/112/67
f 67/135/68 69/136/68 68/137/68 78/138/68
f 42/94/69 46/99/69 47/98/69
f 44/97/70 49/96/70 48/100/70
f 69/136/71 73/139/71 72/140/71 68/137/71
f 73/139/72 71/141/72 70/142/72 72/140/72
f 66/143/73 78/144/73 70/142/73
f 70/142/74 78/145/74 75/146/74 77/147/74
f 71/148/75 73/149/75 69/150/75 67/151/75
f 75/152/76 74/153/76 76/154/76 77/147/76
f 72/140/77 70/142/77 77/147/77 76/154/77
f 78/138/78 68/137/78 74/155/78 75/156/78
f 68/137/79 72/140/79 76/154/79 74/155/79
f 67/157/80 78/144/80 66/143/80
f 71/141/81 66/143/81 70/142/81
f 67/157/82 66/143/82 71/141/82
f 104/18/83 1/17/83 4/12/83
f 82/158/84 88/159/84 96/160/84 97/161/84
f 226/162/85 192/163/85 195/164/85 224/165/85
f 91/166/86 79/167/86 81/168/86 90/169/86 99/170/86
f 79/167/87 85/171/87 98/172/87 86/173/87 81/168/87
f 93/174/88 87/175/88 83/176/88 90/169/88
f 221/177/89 233/178/89 210/179/89
f 92/180/90 84/181/90 200/182/90 211/183/90
f 85/184/91 193/185/91 227/186/91 98/187/91
f 88/159/92 202/188/92 220/189/92 96/160/92
f 89/190/93 84/181/93 92/180/93
f 87/191/94 93/192/94 95/193/94 94/194/94
f 80/195/95 201/196/95 192/197/95
f 203/198/96 212/199/96 93/174/96 86/173/96
f 82/200/97 89/190/97 92/180/97 88/201/97
f 88/201/98 92/180/98 211/183/98 202/202/98
f 84/203/99 89/204/99 223/205/99 225/206/99
f 86/173/100 93/174/100 90/169/100 81/168/100
f 80/195/101 100/207/101 101/208/101 99/170/101 90/169/101 83/176/101
f 217/209/102 216/210/102 94/211/102 95/193/102
f 201/212/103 87/191/103 94/194/103 216/213/103
f 93/192/104 212/214/104 217/209/104 95/193/104
f 89/204/105 82/158/105 97/161/105 223/205/105
f 87/175/106 201/196/106 80/195/106 83/176/106
f 98/172/107 222/215/107 203/198/107 86/173/107
f 222/216/108 98/187/108 227/186/108
f 100/217/109 102/218/109 101/219/109
f 91/220/110 99/221/110 102/218/110
f 100/222/111 91/220/111 102/218/111
f 102/218/112 99/221/112 101/219/112
f 103/1/113 112/4/113 116/223/113 106/224/113
f 106/224/114 116/223/114 115/225/114 105/226/114
f 119/227/115 117/228/115 109/229/115
f 110/230/116 106/224/116 105/226/116 108/231/116
f 108/232/117 113/15/117 141/14/117 142/233/117
f 111/16/118 103/1/118 106/224/118 110/230/118
f 105/234/119 115/235/119 114/19/119 104/18/119
f 108/232/120 104/18/120 113/15/120
f 107/236/121 115/225/121 116/223/121 109/237/121
f 118/23/122 114/19/122 115/235/122 107/238/122
f 109/239/123 116/223/123 112/4/123 119/26/123
f 130/240/124 134/241/124 131/242/124 123/243/124
f 107/244/125 140/245/125 139/246/125 120/247/125
f 107/244/126 120/247/126 118/248/126
f 127/249/127 129/250/127 130/240/127 128/251/127
f 122/252/128 128/251/128 126/253/128 121/254/128
f 121/255/129 126/256/129 125/257/129 140/245/129
f 139/258/130 127/249/130 128/251/130 122/252/130
f 140/245/131 125/257/131 127/259/131 139/246/131
f 125/257/132 124/260/132 129/261/132 127/259/132
f 128/251/133 130/240/133 123/243/133 126/253/133
f 126/256/134 123/262/134 124/260/134 125/257/134
f 131/263/135 135/264/135 136/265/135 132/266/135
f 123/262/136 131/263/136 132/266/136 124/260/136
f 124/260/137 132/266/137 133/267/137 129/261/137
f 129/250/138 133/268/138 134/241/138 130/240/138
f 152/269/139 147/270/139 149/271/139 151/272/139
f 134/241/140 138/273/140 135/274/140 131/242/140
f 132/266/141 136/265/141 137/275/141 133/267/141
f 133/268/142 137/276/142 138/273/142 134/241/142
f 120/277/143 139/258/143 122/252/143 117/228/143
f 109/278/144 121/255/144 140/245/144 107/244/144
f 117/228/145 122/252/145 121/254/145 109/229/145
f 141/14/146 111/67/146 110/279/146 142/233/146
f 110/279/147 108/232/147 142/233/147
f 143/280/148 146/281/148 145/282/148 144/283/148
f 137/284/149 143/285/149 144/286/149 138/287/149
f 135/288/150 145/282/150 146/281/150 136/289/150
f 138/287/151 144/286/151 145/290/151 135/291/151
f 148/292/152 150/293/152 149/271/152 147/270/152
f 151/294/153 149/295/153 150/296/153 153/297/153
f 154/298/154 148/299/154 147/300/154 152/301/154
f 153/297/155 150/296/155 148/299/155 154/298/155
f 146/281/156 153/297/156 154/298/156 136/289/156
f 136/289/157 154/298/157 152/301/157 137/302/157
f 143/280/158 151/294/158 153/297/158 146/281/158
f 137/284/159 152/269/159 151/272/159 143/285/159
f 156/303/160 155/304/160 157/305/160 158/306/160
f 158/307/161 157/308/161 162/309/161
f 162/309/162 161/310/162 159/311/162 160/312/162
f 160/312/163 155/304/163 156/303/163
f 159/311/164 165/313/164 163/314/164 155/304/164
f 160/312/165 156/315/165 158/316/165 162/309/165
f 163/317/166 165/318/166 166/319/166 164/320/166
f 161/310/167 166/321/167 165/313/167 159/311/167
f 155/304/168 163/314/168 164/322/168 157/305/168
f 157/308/169 164/323/169 166/321/169 161/310/169
f 175/324/170 167/325/170 169/326/170 176/327/170
f 176/328/171 169/329/171 173/330/171 177/331/171
f 177/331/172 173/330/172 171/332/172 178/333/172
f 178/333/173 171/332/173 167/325/173 175/324/173
f 167/334/174 171/335/174 173/336/174 169/337/174
f 172/338/175 168/339/175 170/340/175 174/341/175
f 172/342/176 178/333/176 175/324/176 168/343/176
f 174/344/177 177/331/177 178/333/177 172/342/177
f 170/345/178 176/328/178 177/331/178 174/344/178
f 168/343/179 175/324/179 176/327/179 170/346/179
f 180/347/180 191/348/180 181/349/180 182/350/180
f 155/304/181 160/312/181 159/311/181
f 157/308/182 161/310/182 162/309/182
f 182/350/183 181/349/183 185/351/183 186/352/183
f 186/352/184 185/351/184 183/353/184 184/354/184
f 179/355/185 183/353/185 191/356/185
f 183/353/186 190/357/186 188/358/186 191/359/186
f 184/360/187 180/361/187 182/362/187 186/363/187
f 188/364/188 190/357/188 189/365/188 187/366/188
f 185/351/189 189/365/189 190/357/189 183/353/189
f 191/348/190 188/367/190 187/368/190 181/349/190
f 181/349/191 187/368/191 189/365/191 185/351/191
f 180/369/192 179/355/192 191/356/192
f 184/354/193 183/353/193 179/355/193
f 180/369/194 184/354/194 179/355/194
f 104/18/195 108/232/195 105/234/195
f 197/370/196 221/177/196 219/371/196 207/372/196
f 80/195/197 192/197/197 226/373/197 225/206/197
f 210/179/198 229/374/198 209/375/198 196/376/198 194/377/198
f 194/377/199 196/376/199 205/378/199 228/379/199 204/380/199
f 214/381/200 209/375/200 198/382/200 206/383/200
f 225/206/201 226/373/201 200/384/201 84/203/201
f 213/385/202 211/183/202 200/182/202 199/386/202
f 204/387/203 228/388/203 227/186/203 193/185/203
f 207/372/204 219/371/204 220/189/204 202/188/204
f 200/389/205 226/162/205 224/165/205 199/390/205
f 208/391/206 213/385/206 199/386/206
f 206/392/207 215/393/207 218/394/207 214/395/207
f 195/164/208 192/163/208 201/396/208
f 203/198/209 205/378/209 214/381/209 212/397/209
f 197/398/210 207/399/210 213/385/210 208/391/210
f 207/399/211 202/202/211 211/183/211 213/385/211
f 199/390/212 224/165/212 233/178/212 208/400/212
f 205/378/213 196/376/213 209/375/213 214/381/213
f 195/164/214 198/382/214 209/375/214 229/374/214 231/401/214 230/402/214
f 217/209/215 218/394/215 215/403/215 216/210/215
f 201/404/216 216/405/216 215/393/216 206/392/216
f 214/395/217 218/394/217 217/209/217 212/214/217
f 194/406/218 204/407/218 219/408/218 221/409/218
f 204/407/219 193/410/219 220/411/219 219/408/219
f 85/412/220 96/413/220 220/411/220 193/410/220
f 79/414/221 97/415/221 96/413/221 85/412/221
f 206/383/222 198/382/222 195/164/222 201/396/222
f 228/379/223 205/378/223 203/198/223 222/215/223
f 222/216/224 227/186/224 228/388/224
f 230/416/225 231/417/225 232/418/225
f 210/419/226 232/418/226 229/420/226
f 230/421/227 232/418/227 210/419/227
f 232/418/228 231/417/228 229/420/228
f 223/205/229 97/161/229 91/166/229
f 225/206/230 223/205/230 91/166/230 100/207/230 80/195/230
f 221/177/231 210/179/231 194/377/231
f 91/166/232 97/161/232 79/167/232
f 233/178/233 221/177/233 197/370/233 208/400/233
f 233/178/234 224/165/234 195/164/234 230/402/234 210/179/234
