# Blender 4.3.2
# www.blender.org
o beggar
v 0.198417 1.119839 0.153563
v 0.172503 1.185161 -0.101625
v 0.188347 0.824378 0.104272
v 0.181253 1.442050 0.151906
v 0.187433 0.861875 -0.141850
v 0.194367 1.527937 -0.017426
v 0.202845 0.825336 0.121800
v 0.220992 0.858464 -0.151543
v 0.239808 0.733845 -0.124199
v 0.060433 0.692067 -0.167724
v 0.263253 0.524350 -0.178340
v 0.248502 0.411754 -0.101231
v 0.250224 0.479586 -0.043002
v 0.259393 0.521460 -0.161679
v 0.136476 0.460687 -0.033014
v 0.132095 0.511078 -0.164759
v 0.135125 0.408065 -0.078852
v 0.135566 0.529095 -0.171422
v 0.243660 0.469365 -0.339141
v 0.240941 0.348831 -0.258427
v 0.116225 0.343319 -0.234832
v 0.100421 0.479648 -0.324124
v 0.148900 0.249299 -0.545906
v 0.162047 0.276227 -0.489788
v 0.080451 0.293840 -0.472976
v 0.066040 0.279320 -0.523726
v 0.077667 0.653006 0.072073
v 0.225657 0.698097 0.065597
v 0.143700 1.522226 0.089803
v 0.066915 0.228420 -0.435949
v 0.051728 0.207825 -0.545534
v 0.138594 0.196145 -0.550522
v 0.170520 0.215944 -0.454463
v 0.078786 0.359459 -0.341318
v 0.163142 0.355373 -0.355273
v 0.061656 0.345925 -0.288114
v 0.185121 0.337742 -0.307011
v 0.066518 0.283818 -0.377148
v 0.077531 0.338189 -0.410292
v 0.179080 0.275711 -0.393521
v 0.160759 0.325168 -0.430093
v 0.134462 1.317795 0.136304
v 0.108224 1.542867 0.083635
v 0.158879 1.309294 -0.019133
v 0.128707 1.527852 -0.038548
v 0.269441 1.342977 0.127897
v 0.226661 1.498705 0.066946
v 0.288917 1.334955 0.003710
v 0.247253 1.499582 -0.008565
v 0.196308 1.170982 0.147454
v 0.205993 1.123861 0.017134
v 0.297568 1.189947 0.147970
v 0.313289 1.152845 0.027657
v 0.181338 0.869037 0.283220
v 0.171646 1.172944 0.109150
v 0.248042 0.814886 0.177849
v 0.223453 1.134530 0.006705
v 0.272747 0.891062 0.324759
v 0.272195 1.207449 0.149315
v 0.332016 0.835120 0.216009
v 0.316980 1.166625 0.044064
v 0.171363 1.039857 0.173910
v 0.225959 0.989578 0.080426
v 0.342409 1.031416 0.125933
v 0.283075 1.086059 0.227530
v 0.196043 0.819859 0.336583
v 0.204390 0.870670 0.270291
v 0.250314 0.748373 0.213061
v 0.254075 0.827040 0.186561
v 0.248024 0.801352 0.337348
v 0.264745 0.881010 0.300718
v 0.311752 0.758899 0.244034
v 0.314430 0.837381 0.216988
v 0.228514 0.682818 0.250297
v 0.174703 0.706737 0.344685
v 0.266255 0.696075 0.264355
v 0.225848 0.730058 0.347341
v 0.200191 0.791908 0.322049
v 0.073565 1.655724 0.192918
v 0.059224 1.696239 0.039418
v 0.053445 1.582251 0.175164
v 0.057490 1.804394 0.187589
v 0.062595 1.631983 0.060379
v 0.045948 1.820524 0.071747
v 0.009876 1.658556 0.232062
v 0.023078 1.555895 0.195249
v 0.034602 1.616342 0.056156
v 0.021030 1.817674 0.203108
v 0.067727 1.813809 0.130414
v 0.071563 1.606171 0.107976
v 0.087680 1.692404 0.125064
v 0.020407 1.847163 0.131655
v 0.036466 1.581915 0.125854
v 0.036160 1.502636 0.007603
v 0.038098 1.471361 0.083378
v 0.026099 1.725541 0.221162
v 0.075323 1.724122 0.194974
v 0.015538 1.624788 0.221730
v 0.076960 1.629533 0.112776
v 0.081576 1.707552 0.087778
v 0.072458 1.642884 0.087420
v 0.102074 1.711523 0.085474
v -0.010258 1.202112 -0.144808
v 0.006966 1.117236 0.222554
v -0.191660 1.128005 0.146099
v -0.186857 1.177719 -0.096438
v -0.190995 0.905762 0.117040
v -0.200188 1.442050 0.143761
v -0.194602 0.809676 -0.085695
v -0.206270 1.527937 -0.026814
v -0.005840 1.573013 -0.027854
v -0.013745 0.854913 -0.212228
v -0.011785 1.463028 0.184228
v 0.005352 0.853135 0.192443
v -0.203964 0.905101 0.132973
v -0.230240 0.802166 -0.113078
v -0.010595 0.802929 -0.155666
v 0.003978 0.852358 0.133600
v -0.011152 0.856770 -0.157769
v 0.005696 0.801892 0.138419
v -0.238044 0.711842 0.019522
v -0.058720 0.661497 0.001939
v -0.249923 0.510706 0.139363
v -0.239421 0.520713 0.281998
v -0.240261 0.599941 0.260910
v -0.246540 0.534973 0.148575
v -0.127896 0.599460 0.280015
v -0.118241 0.527947 0.152381
v -0.127169 0.532409 0.297464
v -0.121301 0.514913 0.138710
v -0.241038 0.336550 0.122227
v -0.241139 0.353917 0.266748
v -0.117874 0.364932 0.285451
v -0.097089 0.346639 0.123653
v -0.164168 0.067391 0.204699
v -0.177075 0.071088 0.286905
v -0.097140 0.072737 0.310142
v -0.079914 0.080949 0.207374
v -0.078283 0.791679 0.199392
v -0.227942 0.827556 0.174469
v -0.009656 1.541028 0.083808
v -0.161518 1.522225 0.081525
v -0.082267 -0.009283 0.300527
v -0.068887 -0.007098 0.199804
v -0.156176 -0.015931 0.196873
v -0.186146 -0.011750 0.282332
v -0.094172 0.093053 0.423880
v -0.178356 0.084117 0.412464
v -0.076855 0.083983 0.476974
v -0.200140 0.070767 0.459147
v -0.080774 0.014313 0.389887
v -0.092485 0.068082 0.360369
v -0.193290 0.004467 0.371359
v -0.175241 0.061492 0.355066
v -0.154337 1.294378 0.042178
v -0.130236 1.520195 0.092632
v -0.162712 1.352854 -0.103902
v -0.137832 1.558631 -0.025853
v -0.288531 1.322550 0.031106
v -0.244903 1.488848 0.046532
v -0.295149 1.368155 -0.086122
v -0.257814 1.521907 -0.023233
v -0.212205 1.157507 -0.016311
v -0.207205 1.170166 -0.154558
v -0.313564 1.175818 -0.018444
v -0.315897 1.193393 -0.144080
v -0.255853 0.815621 -0.048068
v -0.205170 1.161755 -0.028665
v -0.271011 0.828956 -0.182519
v -0.209190 1.185336 -0.147334
v -0.357763 0.825950 -0.039480
v -0.315997 1.184689 -0.018407
v -0.364632 0.838445 -0.174629
v -0.312278 1.206669 -0.137792
v -0.218727 1.015210 -0.044379
v -0.227783 1.024526 -0.163034
v -0.355903 1.053200 -0.151005
v -0.346062 1.043076 -0.022052
v -0.285692 0.749140 -0.036460
v -0.272072 0.826506 -0.066040
v -0.280701 0.754699 -0.188964
v -0.280943 0.836031 -0.171934
v -0.331933 0.739209 -0.064888
v -0.340185 0.827960 -0.060204
v -0.350035 0.756178 -0.183022
v -0.349056 0.837484 -0.166098
v -0.269314 0.677194 -0.184228
v -0.259034 0.644928 -0.078256
v -0.310583 0.686397 -0.181073
v -0.309046 0.670058 -0.084094
v -0.281281 0.732658 -0.063267
v -0.009556 1.701627 0.010533
v -0.005293 1.659169 0.242851
v -0.085884 1.655481 0.195760
v -0.077232 1.695988 0.041872
v -0.066157 1.582069 0.177316
v -0.070450 1.802855 0.189526
v -0.079603 1.631732 0.062932
v -0.062812 1.819215 0.073394
v -0.008858 1.824948 0.048480
v -0.008967 1.626633 0.035404
v -0.006388 1.822008 0.209252
v -0.005847 1.549152 0.202035
v -0.020838 1.658553 0.232588
v -0.035014 1.555856 0.196307
v -0.051723 1.616196 0.057708
v -0.033866 1.817014 0.203940
v -0.082637 1.812000 0.132692
v -0.086757 1.605946 0.110809
v -0.102577 1.692054 0.128485
v -0.007855 1.846823 0.132083
v -0.006929 1.573888 0.144091
v -0.036117 1.846483 0.132511
v -0.050969 1.581829 0.127431
v -0.054925 1.502622 0.009248
v -0.009769 1.496756 -0.012852
v -0.007811 1.453456 0.095652
v -0.054120 1.471349 0.085044
v -0.037742 1.725332 0.222285
v -0.005631 1.725435 0.232881
v -0.087811 1.723609 0.197848
v -0.005554 1.615470 0.223773
v 0.088694 1.732785 0.127013
v -0.083224 1.731591 0.043134
v 0.065127 1.731864 0.040467
v -0.009648 1.738369 0.009168
v -0.005208 1.617246 0.243247
v -0.026737 1.624490 0.222558
v -0.092061 1.629244 0.115827
v -0.097872 1.707222 0.091005
v -0.088525 1.642606 0.090323
v -0.118454 1.711118 0.089439
v -0.103533 1.737120 0.130698
vn 0.2429 0.1821 -0.9528
vn 0.9964 0.0847 0.0011
vn 0.0808 -0.0381 -0.9960
vn 0.9995 -0.0032 -0.0313
vn 0.1346 0.7246 0.6759
vn 0.1752 0.2611 -0.9493
vn 0.3302 -0.1023 0.9383
vn 0.1764 0.1179 0.9772
vn -0.0284 -0.9904 -0.1356
vn -0.1316 -0.9901 0.0498
vn 0.0050 -0.9964 0.0842
vn 0.0266 0.9470 -0.3201
vn 0.1748 -0.2897 0.9410
vn 0.1710 0.0994 0.9802
vn -0.9991 -0.0407 -0.0135
vn 0.1298 0.1165 -0.9847
vn 0.9932 0.0703 0.0928
vn -0.9457 -0.3242 -0.0230
vn 0.1609 -0.4295 0.8886
vn 0.1703 -0.6467 0.7435
vn -0.0065 0.7456 0.6663
vn 0.9954 -0.0563 0.0772
vn 0.9480 -0.2245 -0.2258
vn 0.9934 -0.1054 -0.0457
vn 0.1067 -0.9238 0.3676
vn -0.9868 0.0501 0.1542
vn -0.9649 0.2226 -0.1395
vn 0.0053 0.6942 -0.7198
vn -0.0071 -0.9674 0.2533
vn -0.9831 -0.0379 0.1792
vn -0.8735 -0.4864 0.0183
vn 0.9419 0.3253 0.0833
vn 0.1375 0.0479 -0.9893
vn 0.1646 0.9644 0.2071
vn 0.7024 0.6113 0.3645
vn -0.0970 -0.9722 0.2132
vn -0.9683 0.2117 0.1324
vn 0.9622 -0.0856 -0.2587
vn -0.0998 0.2252 -0.9692
vn 0.1017 0.9523 0.2876
vn 0.0299 -0.8162 0.5770
vn 0.0281 0.9409 -0.3375
vn 0.9329 0.2895 -0.2142
vn 0.9770 0.1257 -0.1722
vn 0.0132 0.7954 -0.6059
vn 0.0428 -0.7215 0.6910
vn -0.9836 0.1255 -0.1299
vn -0.9782 -0.1481 -0.1457
vn 0.2327 -0.0541 -0.9710
vn 0.9406 0.2887 0.1784
vn 0.2249 0.2468 0.9426
vn 0.0131 0.1075 0.9941
vn 0.2927 0.9562 -0.0076
vn 0.1949 -0.9236 0.3301
vn 0.9796 0.1679 0.1100
vn -0.9468 -0.3178 -0.0511
vn 0.1669 -0.1277 -0.9777
vn -0.8758 -0.3051 -0.3740
vn 0.4550 -0.3902 -0.8004
vn 0.8932 0.1548 0.4222
vn -0.4972 0.4269 0.7553
vn 0.0051 -0.8881 0.4596
vn -0.1448 0.9002 -0.4108
vn -0.4945 0.4100 0.7664
vn 0.8977 0.3175 0.3053
vn 0.4545 -0.3974 -0.7972
vn -0.8961 -0.2036 -0.3945
vn -0.9041 -0.1527 -0.3992
vn -0.0095 0.3622 0.9321
vn 0.1783 -0.0282 -0.9836
vn 0.4699 -0.3019 -0.8295
vn 0.8588 0.0972 0.5029
vn -0.1817 -0.4747 0.8612
vn -0.2582 0.2720 0.9270
vn 0.0633 0.8999 -0.4314
vn 0.2743 -0.8617 0.4270
vn 0.7767 -0.2625 0.5726
vn -0.8754 0.0857 -0.4758
vn 0.4509 -0.5511 -0.7021
vn -0.9840 -0.0584 -0.1686
vn 0.1263 0.3924 0.9111
vn -0.3947 0.7526 0.5271
vn 0.3387 0.0229 0.9406
vn 0.4558 0.1889 0.8698
vn -0.4167 -0.0363 -0.9083
vn 0.9610 -0.2457 0.1272
vn 0.5790 -0.2587 0.7732
vn 0.4071 -0.7967 -0.4467
vn -0.9746 -0.0316 0.2218
vn 0.1284 0.9459 -0.2978
vn 0.6729 -0.0458 0.7383
vn 0.2964 0.2147 0.9306
vn 0.5700 0.8131 -0.1185
vn 0.9996 0.0210 -0.0166
vn 0.3507 -0.2923 -0.8897
vn 0.0638 -0.9291 -0.3642
vn 0.5091 0.8126 0.2838
vn 0.1071 0.9343 0.3399
vn 0.9210 0.2744 -0.2766
vn 0.5349 -0.8258 -0.1786
vn 0.9326 -0.1193 -0.3405
vn 0.2637 -0.8922 -0.3666
vn 0.4073 0.3384 -0.8483
vn 0.3904 -0.3361 0.8571
vn 0.9488 0.2335 0.2127
vn 0.3346 -0.2909 -0.8964
vn 0.2614 -0.3118 0.9135
vn 0.4091 -0.9094 0.0757
vn -0.1159 0.0218 -0.9930
vn 0.9471 -0.2091 0.2434
vn -0.1324 0.9106 0.3916
vn 0.8559 -0.3793 -0.3517
vn -0.3708 0.1310 -0.9194
vn -0.9953 0.0909 0.0338
vn -0.3564 -0.0401 -0.9335
vn -0.9991 -0.0410 -0.0104
vn -0.1686 0.7274 0.6651
vn -0.1700 0.2435 -0.9549
vn -0.3255 -0.0744 0.9426
vn -0.2192 0.0957 0.9710
vn 0.0591 -0.9140 0.4014
vn -0.2456 -0.9687 -0.0366
vn 0.2415 -0.9704 -0.0017
vn -0.0021 0.0934 -0.9956
vn 0.1839 0.6883 0.7018
vn -0.0590 0.0929 0.9939
vn 0.9977 -0.0261 0.0622
vn -0.1534 -0.6424 -0.7508
vn -0.9979 0.0617 0.0194
vn 0.9630 -0.1814 0.1991
vn -0.1016 0.3807 0.9191
vn -0.1595 0.2499 0.9551
vn 0.0162 0.5208 -0.8535
vn -0.9979 0.0310 0.0566
vn -0.9670 -0.2528 -0.0320
vn -0.9990 -0.0247 0.0385
vn -0.1352 -0.0836 0.9873
vn 0.9930 0.0933 0.0722
vn 0.9593 0.2324 -0.1603
vn 0.0471 -0.2888 -0.9562
vn -0.2047 0.0461 0.9777
vn 0.9860 0.0938 0.1381
vn 0.8393 -0.5245 0.1434
vn -0.9434 0.3000 -0.1415
vn -0.2723 -0.6624 -0.6979
vn -0.1756 0.9644 0.1979
vn -0.7236 0.6058 0.3308
vn 0.0564 -0.9981 0.0238
vn 0.9790 0.1335 0.1541
vn -0.9682 0.0248 -0.2488
vn 0.0206 0.0917 -0.9956
vn -0.1332 0.9682 0.2116
vn -0.0174 -0.7895 0.6135
vn -0.0496 0.9287 -0.3675
vn -0.9213 0.3003 -0.2472
vn -0.9815 0.1869 -0.0410
vn -0.0717 0.9898 0.1231
vn 0.0185 -0.9757 0.2183
vn 0.9809 0.1821 -0.0679
vn 0.9922 -0.0854 -0.0912
vn -0.1320 0.3654 -0.9214
vn -0.9627 0.1985 0.1840
vn -0.3264 -0.1728 0.9293
vn -0.1165 -0.3237 0.9390
vn -0.3212 0.8732 0.3666
vn -0.1971 -0.9738 -0.1136
vn -0.9907 0.1185 0.0674
vn 0.9569 -0.2788 -0.0811
vn -0.0635 0.3007 -0.9516
vn 0.9752 -0.1918 -0.1105
vn -0.0696 0.1129 -0.9912
vn -0.9969 0.0408 0.0666
vn 0.1228 -0.0646 0.9903
vn -0.1076 -0.9905 -0.0861
vn 0.2155 0.9592 0.1833
vn 0.1174 -0.0843 0.9895
vn -0.9695 0.2390 0.0548
vn -0.0698 0.1051 -0.9920
vn 0.9930 -0.0969 -0.0681
vn 0.9980 -0.0476 -0.0422
vn -0.0960 -0.0669 0.9931
vn -0.0775 0.3935 -0.9160
vn -0.0793 0.2041 -0.9757
vn -0.9920 -0.0567 0.1127
vn -0.1266 -0.8542 0.5044
vn -0.1500 -0.2516 0.9561
vn 0.0287 0.9958 0.0872
vn -0.3398 -0.9189 -0.2003
vn -0.9113 -0.4113 0.0195
vn 0.9800 0.1991 0.0056
vn -0.0890 -0.0758 -0.9931
vn 0.9726 -0.0891 0.2148
vn -0.5070 -0.0924 0.8570
vn 0.0875 0.3423 0.9355
vn -0.3594 -0.0028 0.9332
vn -0.4305 0.1911 0.8821
vn 0.3839 -0.0349 -0.9227
vn -0.9548 -0.2493 0.1617
vn -0.5509 -0.2600 0.7930
vn -0.4201 -0.7985 -0.4313
vn 0.3861 0.3793 -0.8409
vn -0.1601 0.9425 -0.2935
vn -0.6451 -0.0473 0.7626
vn -0.2690 0.2138 0.9391
vn -0.4182 0.3803 -0.8249
vn -0.5927 0.7991 -0.1009
vn -0.9996 0.0203 0.0199
vn -0.3814 -0.2937 -0.8765
vn -0.0754 -0.9293 -0.3615
vn -0.5197 0.8002 0.2994
vn -0.1192 0.9316 0.3433
vn -0.9255 0.2848 -0.2496
vn -0.5376 -0.8279 -0.1597
vn -0.9439 -0.1228 -0.3067
vn -0.2766 -0.8923 -0.3569
vn -0.4382 0.3381 -0.8329
vn -0.3589 -0.3362 0.8707
vn -0.4694 -0.0118 0.8829
vn -0.4006 0.0871 0.9121
vn 0.4317 0.0891 0.8976
vn 0.5005 -0.0099 0.8657
vn -0.3655 -0.2922 -0.8837
vn -0.2252 -0.3137 0.9224
vn -0.3946 -0.9144 0.0904
vn 0.0800 0.0221 -0.9965
vn -0.9370 -0.2127 0.2772
vn 0.1430 0.9111 0.3867
vn -0.8665 -0.3827 -0.3206
vn 0.9814 -0.0338 0.1888
vn 0.9597 0.0037 -0.2810
vn -0.9742 -0.0344 0.2230
vn 0.9818 -0.0309 0.1875
vn -0.9359 0.2428 0.2550
vn -0.9699 0.0028 -0.2435
vt 0.769832 0.195645
vt 0.775252 0.120749
vt 0.898457 0.115387
vt 0.893855 0.199439
vt 0.779478 0.033265
vt 0.875888 0.020883
vt 0.079276 0.380758
vt 0.015809 0.352495
vt 0.092810 0.349129
vt 0.640892 0.115732
vt 0.651808 0.045918
vt 0.972902 0.747099
vt 0.945788 0.808209
vt 0.869285 0.817542
vt 0.869303 0.746010
vt 0.623064 0.191154
vt 0.978616 0.563599
vt 0.869350 0.563483
vt 0.869382 0.439703
vt 0.981068 0.426748
vt 0.887298 0.020144
vt 0.903448 0.092046
vt 0.869386 0.423683
vt 0.966087 0.423037
vt 0.919014 0.125551
vt 0.901661 0.199678
vt 0.080227 0.193471
vt 0.035111 0.194551
vt 0.029851 0.129329
vt 0.078457 0.129531
vt 0.524664 0.024934
vt 0.453935 0.048979
vt 0.476762 0.096074
vt 0.529992 0.085338
vt 0.458519 0.014915
vt 0.140591 0.209945
vt 0.084060 0.210053
vt 0.139428 0.189660
vt 0.088688 0.293915
vt 0.019697 0.289600
vt 0.036330 0.210891
vt 0.589766 0.089175
vt 0.538912 0.169399
vt 0.588096 0.171055
vt 0.169119 0.280272
vt 0.494132 0.172296
vt 0.495777 0.194811
vt 0.540097 0.192752
vt 0.594693 0.186440
vt 0.602720 0.254314
vt 0.550300 0.251019
vt 0.546511 0.359212
vt 0.576655 0.358602
vt 0.502818 0.254080
vt 0.133655 0.131663
vt 0.460444 0.638059
vt 0.461859 0.667341
vt 0.511272 0.661029
vt 0.492341 0.643217
vt 0.059953 0.028917
vt 0.089979 0.037143
vt 0.513486 0.356281
vt 0.126069 0.032173
vt 0.187391 0.328606
vt 0.600139 0.026470
vt 0.980612 0.851849
vt 0.869271 0.873069
vt 0.214036 0.700438
vt 0.168892 0.698897
vt 0.170775 0.659242
vt 0.208186 0.653496
vt 0.429138 0.636018
vt 0.382088 0.640297
vt 0.380987 0.679254
vt 0.425514 0.672609
vt 0.172591 0.619486
vt 0.211119 0.618494
vt 0.342980 0.638844
vt 0.341450 0.677655
vt 0.504441 0.606319
vt 0.529468 0.607110
vt 0.250819 0.702808
vt 0.243337 0.651469
vt 0.292311 0.649141
vt 0.300801 0.705699
vt 0.244056 0.622019
vt 0.258050 0.585846
vt 0.290061 0.591615
vt 0.277688 0.628694
vt 0.226990 0.579872
vt 0.239778 0.437910
vt 0.241642 0.380815
vt 0.334062 0.371731
vt 0.335105 0.430080
vt 0.244961 0.564466
vt 0.270260 0.519900
vt 0.334573 0.576660
vt 0.267325 0.484741
vt 0.339743 0.479221
vt 0.337393 0.523671
vt 0.397256 0.433766
vt 0.400592 0.476589
vt 0.218167 0.523740
vt 0.216842 0.468389
vt 0.934188 0.071641
vt 0.985147 0.071450
vt 0.980416 0.114135
vt 0.934188 0.111273
vt 0.409685 0.525397
vt 0.413123 0.381914
vt 0.413123 0.570440
vt 0.588235 0.616390
vt 0.541774 0.616014
vt 0.540412 0.699472
vt 0.594290 0.698674
vt 0.733169 0.616366
vt 0.683834 0.612729
vt 0.688349 0.697632
vt 0.724849 0.697622
vt 0.637083 0.612063
vt 0.634642 0.698467
vt 0.933176 0.242559
vt 0.985452 0.244219
vt 0.985670 0.280546
vt 0.933413 0.282101
vt 0.980360 0.291116
vt 0.933814 0.295150
vt 0.933988 0.335813
vt 0.980548 0.334832
vt 0.637975 0.554612
vt 0.592385 0.555443
vt 0.685764 0.549762
vt 0.727568 0.549351
vt 0.544847 0.548303
vt 0.557765 0.809694
vt 0.510229 0.803468
vt 0.511171 0.765578
vt 0.565124 0.764368
vt 0.479691 0.799649
vt 0.486340 0.766582
vt 0.437092 0.787533
vt 0.443585 0.748829
vt 0.425923 0.754711
vt 0.422123 0.742946
vt 0.429690 0.730629
vt 0.447798 0.694577
vt 0.457086 0.718428
vt 0.949739 0.404064
vt 0.949739 0.353270
vt 0.982292 0.353270
vt 0.982292 0.404064
vt 0.460533 0.693281
vt 0.502277 0.717435
vt 0.495857 0.735141
vt 0.514016 0.729944
vt 0.562185 0.720311
vt 0.408828 0.775679
vt 0.278149 0.967649
vt 0.246334 0.979776
vt 0.249708 0.914564
vt 0.277992 0.912907
vt 0.013923 0.884272
vt 0.022151 0.852843
vt 0.077991 0.867331
vt 0.074449 0.892252
vt 0.315578 0.881871
vt 0.272833 0.868911
vt 0.266436 0.823662
vt 0.311469 0.826118
vt 0.312630 0.841540
vt 0.233032 0.873502
vt 0.237034 0.853143
vt 0.243726 0.809688
vt 0.293162 0.797592
vt 0.353002 0.808376
vt 0.344750 0.831707
vt 0.171111 0.912654
vt 0.129263 0.910165
vt 0.133762 0.881302
vt 0.504295 0.904470
vt 0.456722 0.873442
vt 0.486878 0.832177
vt 0.523186 0.892354
vt 0.393060 0.750737
vt 0.369166 0.770382
vt 0.342151 0.723866
vt 0.371660 0.694150
vt 0.224422 0.982399
vt 0.224589 0.913793
vt 0.464697 0.929008
vt 0.510943 0.418646
vt 0.509620 0.457222
vt 0.450276 0.457321
vt 0.451259 0.416801
vt 0.371260 0.868269
vt 0.391399 0.792592
vt 0.427034 0.854273
vt 0.224914 0.800301
vt 0.250611 0.780243
vt 0.499027 0.969201
vt 0.535560 0.959128
vt 0.557854 0.949811
vt 0.378068 0.967627
vt 0.326324 0.969178
vt 0.319455 0.907637
vt 0.374611 0.893121
vt 0.340158 0.885118
vt 0.330117 0.844664
vt 0.450534 0.480546
vt 0.422105 0.480397
vt 0.434613 0.451640
vt 0.511818 0.394240
vt 0.445658 0.392364
vt 0.509788 0.480859
vt 0.224768 0.847580
vt 0.329170 0.701515
vt 0.145363 0.785723
vt 0.128390 0.783055
vt 0.170261 0.738493
vt 0.116930 0.746993
vt 0.160651 0.716692
vt 0.111510 0.779844
vt 0.893310 0.283615
vt 0.770664 0.270731
vt 0.865483 0.388919
vt 0.769534 0.358310
vt 0.423897 0.371814
vt 0.408299 0.341150
vt 0.485355 0.339413
vt 0.636248 0.267526
vt 0.642876 0.337877
vt 0.765704 0.747046
vt 0.792786 0.808169
vt 0.760084 0.563543
vt 0.757703 0.426691
vt 0.876826 0.390354
vt 0.896865 0.307217
vt 0.772687 0.422987
vt 0.914451 0.274726
vt 0.410556 0.185000
vt 0.408092 0.121083
vt 0.456578 0.117665
vt 0.455645 0.183093
vt 0.253560 0.018334
vt 0.251430 0.078936
vt 0.305153 0.086844
vt 0.325460 0.038610
vt 0.319084 0.004836
vt 0.351414 0.205432
vt 0.351233 0.185114
vt 0.407829 0.201799
vt 0.408760 0.285783
vt 0.455510 0.199477
vt 0.477314 0.276913
vt 0.191942 0.085924
vt 0.197935 0.167602
vt 0.246963 0.163350
vt 0.327602 0.277492
vt 0.291833 0.163878
vt 0.247013 0.186734
vt 0.291379 0.186449
vt 0.192159 0.183314
vt 0.187729 0.251517
vt 0.219266 0.354283
vt 0.249400 0.353300
vt 0.239901 0.245457
vt 0.287479 0.246007
vt 0.353156 0.126862
vt 0.373466 0.625371
vt 0.341578 0.620155
vt 0.322681 0.602307
vt 0.372105 0.596087
vt 0.390482 0.029659
vt 0.419898 0.019465
vt 0.282224 0.348629
vt 0.354142 0.027088
vt 0.312568 0.326929
vt 0.178272 0.023855
vt 0.757941 0.851792
vt 0.013855 0.710087
vt 0.062637 0.719760
vt 0.053791 0.758555
vt 0.012068 0.757539
vt 0.404768 0.627471
vt 0.408460 0.590887
vt 0.452999 0.584325
vt 0.451825 0.623280
vt 0.095615 0.759647
vt 0.099560 0.719322
vt 0.492533 0.585997
vt 0.490931 0.624805
vt 0.329410 0.657029
vt 0.304385 0.656192
vt 0.014143 0.671338
vt 0.013329 0.626462
vt 0.071995 0.639628
vt 0.067412 0.683054
vt 0.098346 0.684520
vt 0.093882 0.648751
vt 0.133695 0.638573
vt 0.137331 0.672574
vt 0.141254 0.705593
vt 0.185664 0.538131
vt 0.086734 0.549483
vt 0.089781 0.610162
vt 0.185643 0.597604
vt 0.176017 0.406617
vt 0.082362 0.396940
vt 0.151191 0.453841
vt 0.081208 0.452173
vt 0.080256 0.498505
vt 0.155426 0.490326
vt 0.011387 0.503289
vt 0.011387 0.547736
vt 0.208505 0.505645
vt 0.205267 0.448094
vt 0.933051 0.227541
vt 0.935500 0.187984
vt 0.981816 0.187984
vt 0.983901 0.230880
vt 0.011387 0.452807
vt 0.011387 0.602224
vt 0.011387 0.406053
vt 0.685388 0.464625
vt 0.679517 0.382326
vt 0.733395 0.381660
vt 0.731848 0.465114
vt 0.540455 0.464294
vt 0.548955 0.383058
vt 0.585455 0.383138
vt 0.589782 0.468052
vt 0.639164 0.382434
vt 0.636531 0.468832
vt 0.926036 0.053242
vt 0.926036 0.013699
vt 0.978301 0.014940
vt 0.978301 0.051267
vt 0.941318 0.172865
vt 0.942408 0.129162
vt 0.988977 0.129542
vt 0.987962 0.170192
vt 0.635511 0.526281
vt 0.681104 0.525562
vt 0.587712 0.531014
vt 0.545907 0.531323
vt 0.728625 0.532818
vt 0.736669 0.725394
vt 0.735353 0.771722
vt 0.683130 0.758703
vt 0.689295 0.721117
vt 0.659178 0.752270
vt 0.658895 0.718191
vt 0.614298 0.760413
vt 0.615218 0.720808
vt 0.598227 0.750739
vt 0.592334 0.761513
vt 0.621741 0.793364
vt 0.608255 0.814858
vt 0.597389 0.775323
vt 0.902963 0.354102
vt 0.935516 0.354102
vt 0.935516 0.404895
vt 0.902963 0.404895
vt 0.620394 0.818928
vt 0.662554 0.785374
vt 0.665487 0.804249
vt 0.724263 0.814542
vt 0.679237 0.794482
vt 0.585527 0.726307
vt 0.170921 0.966691
vt 0.199450 0.914463
vt 0.202557 0.979360
vt 0.434990 0.885665
vt 0.136920 0.840949
vt 0.138178 0.825523
vt 0.183245 0.823379
vt 0.176564 0.868613
vt 0.206044 0.809560
vt 0.212468 0.853064
vt 0.216352 0.873452
vt 0.156680 0.797114
vt 0.104811 0.830875
vt 0.096708 0.807441
vt 0.427703 0.967162
vt 0.542713 0.881290
vt 0.537443 0.824738
vt 0.340263 0.781402
vt 0.301717 0.734772
vt 0.020099 0.966282
vt 0.069986 0.966279
vt 0.582883 0.857700
vt 0.510287 0.543080
vt 0.450588 0.544296
vt 0.450031 0.503768
vt 0.509371 0.504492
vt 0.058337 0.791326
vt 0.199393 0.779972
vt 0.602434 0.906809
vt 0.576490 0.934433
vt 0.122173 0.967791
vt 0.119390 0.843962
vt 0.109116 0.884444
vt 0.434309 0.509284
vt 0.510905 0.567494
vt 0.444729 0.568673
vt 0.612579 0.943799
vt 0.704302 0.960286
vt 0.690069 0.863893
vt 0.628178 0.846809
vt 0.727017 0.964931
vt 0.742045 0.877429
vt 0.749981 0.968131
vt 0.795559 0.882010
vt 0.849700 0.973890
vt 0.859604 0.886554
vt 0.262137 0.727847
vt 0.208247 0.720642
vt 0.265551 0.745007
vt 0.235108 0.768630
vt 0.190786 0.737487
vt 0.268411 0.762268
s 0
f 103/1/1 2/2/1 8/3/1 112/4/1
f 2/2/2 1/5/2 7/6/2 8/3/2
f 119/7/3 5/8/3 117/9/3
f 6/10/4 4/11/4 1/5/4 2/2/4
f 4/12/5 29/13/5 141/14/5 113/15/5
f 111/16/6 6/10/6 2/2/6 103/1/6
f 1/17/7 104/18/7 114/19/7 7/20/7
f 4/12/8 113/15/8 104/18/8
f 3/21/9 5/22/9 8/3/9 7/6/9
f 118/23/10 3/24/10 7/20/10 114/19/10
f 5/25/11 119/26/11 112/4/11 8/3/11
f 18/27/12 11/28/12 19/29/12 22/30/12
f 3/31/13 120/32/13 27/33/13 28/34/13
f 3/31/14 118/35/14 120/32/14
f 15/36/15 16/37/15 18/27/15 17/38/15
f 10/39/16 9/40/16 14/41/16 16/37/16
f 9/42/17 28/34/17 13/43/17 14/44/17
f 27/45/18 10/39/18 16/37/18 15/36/18
f 28/34/19 27/33/19 15/46/19 13/43/19
f 13/43/20 15/46/20 17/47/20 12/48/20
f 16/37/21 14/41/21 11/28/21 18/27/21
f 14/44/22 13/43/22 12/48/22 11/49/22
f 19/50/23 20/51/23 24/52/23 23/53/23
f 11/49/24 12/48/24 20/51/24 19/50/24
f 12/48/25 17/47/25 21/54/25 20/51/25
f 17/38/26 18/27/26 22/30/26 21/55/26
f 39/56/27 38/57/27 36/58/27 34/59/27
f 22/30/28 19/29/28 23/60/28 26/61/28
f 20/51/29 21/54/29 25/62/29 24/52/29
f 21/55/30 22/30/30 26/61/30 25/63/30
f 120/64/31 117/9/31 10/39/31 27/45/31
f 5/65/32 3/31/32 28/34/32 9/42/32
f 117/9/33 5/8/33 9/40/33 10/39/33
f 141/14/34 29/13/34 6/66/34 111/67/34
f 6/66/35 29/13/35 4/12/35
f 30/68/36 31/69/36 32/70/36 33/71/36
f 25/72/37 26/73/37 31/74/37 30/75/37
f 23/76/38 24/77/38 33/71/38 32/70/38
f 26/73/39 23/78/39 32/79/39 31/74/39
f 35/80/40 34/59/40 36/58/40 37/81/40
f 38/82/41 40/83/41 37/84/41 36/85/41
f 41/86/42 39/87/42 34/88/42 35/89/42
f 40/83/43 41/86/43 35/89/43 37/84/43
f 33/71/44 24/77/44 41/86/44 40/83/44
f 24/77/45 25/90/45 39/87/45 41/86/45
f 30/68/46 33/71/46 40/83/46 38/82/46
f 25/72/47 30/75/47 38/57/47 39/56/47
f 43/91/48 45/92/48 44/93/48 42/94/48
f 45/95/49 49/96/49 44/97/49
f 49/96/50 47/98/50 46/99/50 48/100/50
f 47/98/51 43/91/51 42/94/51
f 46/99/52 42/94/52 50/101/52 52/102/52
f 47/98/53 49/96/53 45/103/53 43/104/53
f 50/105/54 51/106/54 53/107/54 52/108/54
f 48/100/55 46/99/55 52/102/55 53/109/55
f 42/94/56 44/93/56 51/110/56 50/101/56
f 44/97/57 48/100/57 53/109/57 51/111/57
f 62/112/58 63/113/58 56/114/58 54/115/58
f 63/116/59 64/117/59 60/118/59 56/119/59
f 64/117/60 65/120/60 58/121/60 60/118/60
f 65/120/61 62/112/61 54/115/61 58/121/61
f 54/122/62 56/123/62 60/124/62 58/125/62
f 59/126/63 61/127/63 57/128/63 55/129/63
f 59/130/64 55/131/64 62/112/64 65/120/64
f 61/132/65 59/130/65 65/120/65 64/117/65
f 57/133/66 61/132/66 64/117/66 63/116/66
f 55/131/67 57/134/67 63/113/67 62/112/67
f 67/135/68 69/136/68 68/137/68 78/138/68
f 42/94/69 46/99/69 47/98/69
f 44/97/70 49/96/70 48/100/70
f 69/136/71 73/139/71 72/140/71 68/137/71
f 73/139/72 71/141/72 70/142/72 72/140/72
f 66/143/73 78/144/73 70/142/73
f 70/142/74 78/145/74 75/146/74 77/147/74
f 71/148/75 73/149/75 69/150/75 67/151/75
f 75/152/76 74/153/76 76/154/76 77/147/76
f 72/140/77 70/142/77 77/147/77 76/154/77
f 78/138/78 68/137/78 74/155/78 75/156/78
f 68/137/79 72/140/79 76/154/79 74/155/79
f 67/157/80 78/144/80 66/143/80
f 71/141/81 66/143/81 70/142/81
f 67/157/82 66/143/82 71/141/82
f 104/18/83 1/17/83 4/12/83
f 82/158/84 88/159/84 96/160/84 97/161/84
f 226/162/85 192/163/85 195/164/85 224/165/85
f 91/166/86 79/167/86 81/168/86 90/169/86 99/170/86
f 79/167/87 85/171/87 98/172/87 86/173/87 81/168/87
f 93/174/88 87/175/88 83/176/88 90/169/88
f 221/177/89 233/178/89 210/179/89
f 92/180/90 84/181/90 200/182/90 211/183/90
f 85/184/91 193/185/91 227/186/91 98/187/91
f 88/159/92 202/188/92 220/189/92 96/160/92
f 89/190/93 84/181/93 92/180/93
f 87/191/94 93/192/94 95/193/94 94/194/94
f 80/195/95 201/196/95 192/197/95
f 203/198/96 212/199/96 93/174/96 86/173/96
f 82/200/97 89/190/97 92/180/97 88/201/97
f 88/201/98 92/180/98 211/183/98 202/202/98
f 84/203/99 89/204/99 223/205/99 225/206/99
f 86/173/100 93/174/100 90/169/100 81/168/100
f 80/195/101 100/207/101 101/208/101 99/170/101 90/169/101 83/176/101
f 217/209/102 216/210/102 94/211/102 95/193/102
f 201/212/103 87/191/103 94/194/103 216/213/103
f 93/192/104 212/214/104 217/209/104 95/193/104
f 89/204/105 82/158/105 97/161/105 223/205/105
f 87/175/106 201/196/106 80/195/106 83/176/106
f 98/172/107 222/215/107 203/198/107 86/173/107
f 222/216/108 98/187/108 227/186/108
f 100/217/109 102/218/109 101/219/109
f 91/220/110 99/221/110 102/218/110
f 100/222/111 91/220/111 102/218/111
f 102/218/112 99/221/112 101/219/112
f 103/1/113 112/4/113 116/223/113 106/224/113
f 106/224/114 116/223/114 115/225/114 105/226/114
f 119/227/115 117/228/115 109/229/115
f 110/230/116 106/224/116 105/226/116 108/231/116
f 108/232/117 113/15/117 141/14/117 142/233/117
f 111/16/118 103/1/118 106/224/118 110/230/118
f 105/234/119 115/235/119 114/19/119 104/18/119
f 108/232/120 104/18/120 113/15/120
f 107/236/121 115/225/121 116/223/121 109/237/121
f 118/23/122 114/19/122 115/235/122 107/238/122
f 109/239/123 116/223/123 112/4/123 119/26/123
f 130/240/124 134/241/124 131/242/124 123/243/124
f 107/244/125 140/245/125 139/246/125 120/247/125
f 107/244/126 120/247/126 118/248/126
f 127/249/127 129/250/127 130/240/127 128/251/127
f 122/252/128 128/251/128 126/253/128 121/254/128
f 121/255/129 126/256/129 125/257/129 140/245/129
f 139/258/130 127/249/130 128/251/130 122/252/130
f 140/245/131 125/257/131 127/259/131 139/246/131
f 125/257/132 124/260/132 129/261/132 127/259/132
f 128/251/133 130/240/133 123/243/133 126/253/133
f 126/256/134 123/262/134 124/260/134 125/257/134
f 131/263/135 135/264/135 136/265/135 132/266/135
f 123/262/136 131/263/136 132/266/136 124/260/136
f 124/260/137 132/266/137 133/267/137 129/261/137
f 129/250/138 133/268/138 134/241/138 130/240/138
f 152/269/139 147/270/139 149/271/139 151/272/139
f 134/241/140 138/273/140 135/274/140 131/242/140
f 132/266/141 136/265/141 137/275/141 133/267/141
f 133/268/142 137/276/142 138/273/142 134/241/142
f 120/277/143 139/258/143 122/252/143 117/228/143
f 109/278/144 121/255/144 140/245/144 107/244/144
f 117/228/145 122/252/145 121/254/145 109/229/145
f 141/14/146 111/67/146 110/279/146 142/233/146
f 110/279/147 108/232/147 142/233/147
f 143/280/148 146/281/148 145/282/148 144/283/148
f 137/284/149 143/285/149 144/286/149 138/287/149
f 135/288/150 145/282/150 146/281/150 136/289/150
f 138/287/151 144/286/151 145/290/151 135/291/151
f 148/292/152 150/293/152 149/271/152 147/270/152
f 151/294/153 149/295/153 150/296/153 153/297/153
f 154/298/154 148/299/154 147/300/154 152/301/154
f 153/297/155 150/296/155 148/299/155 154/298/155
f 146/281/156 153/297/156 154/298/156 136/289/156
f 136/289/157 154/298/157 152/301/157 137/302/157
f 143/280/158 151/294/158 153/297/158 146/281/158
f 137/284/159 152/269/159 151/272/159 143/285/159
f 156/303/160 155/304/160 157/305/160 158/306/160
f 158/307/161 157/308/161 162/309/161
f 162/309/162 161/310/162 159/311/162 160/312/162
f 160/312/163 155/304/163 156/303/163
f 159/311/164 165/313/164 163/314/164 155/304/164
f 160/312/165 156/315/165 158/316/165 162/309/165
f 163/317/166 165/318/166 166/319/166 164/320/166
f 161/310/167 166/321/167 165/313/167 159/311/167
f 155/304/168 163/314/168 164/322/168 157/305/168
f 157/308/169 164/323/169 166/321/169 161/310/169
f 175/324/170 167/325/170 169/326/170 176/327/170
f 176/328/171 169/329/171 173/330/171 177/331/171
f 177/331/172 173/330/172 171/332/172 178/333/172
f 178/333/173 171/332/173 167/325/173 175/324/173
f 167/334/174 171/335/174 173/336/174 169/337/174
f 172/338/175 168/339/175 170/340/175 174/341/175
f 172/342/176 178/333/176 175/324/176 168/343/176
f 174/344/177 177/331/177 178/333/177 172/342/177
f 170/345/178 176/328/178 177/331/178 174/344/178
f 168/343/179 175/324/179 176/327/179 170/346/179
f 180/347/180 191/348/180 181/349/180 182/350/180
f 155/304/181 160/312/181 159/311/181
f 157/308/182 161/310/182 162/309/182
f 182/350/183 181/349/183 185/351/183 186/352/183
f 186/352/184 185/351/184 183/353/184 184/354/184
f 179/355/185 183/353/185 191/356/185
f 183/353/186 190/357/186 188/358/186 191/359/186
f 184/360/187 180/361/187 182/362/187 186/363/187
f 188/364/188 190/357/188 189/365/188 187/366/188
f 185/351/189 189/365/189 190/357/189 183/353/189
f 191/348/190 188/367/190 187/368/190 181/349/190
f 181/349/191 187/368/191 189/365/191 185/351/191
f 180/369/192 179/355/192 191/356/192
f 184/354/193 183/353/193 179/355/193
f 180/369/194 184/354/194 179/355/194
f 104/18/195 108/232/195 105/234/195
f 197/370/196 221/177/196 219/371/196 207/372/196
f 80/195/197 192/197/197 226/373/197 225/206/197
f 210/179/198 229/374/198 209/375/198 196/376/198 194/377/198
f 194/377/199 196/376/199 205/378/199 228/379/199 204/380/199
f 214/381/200 209/375/200 198/382/200 206/383/200
f 225/206/201 226/373/201 200/384/201 84/203/201
f 213/385/202 211/183/202 200/182/202 199/386/202
f 204/387/203 228/388/203 227/186/203 193/185/203
f 207/372/204 219/371/204 220/189/204 202/188/204
f 200/389/205 226/162/205 224/165/205 199/390/205
f 208/391/206 213/385/206 199/386/206
f 206/392/207 215/393/207 218/394/207 214/395/207
f 195/164/208 192/163/208 201/396/208
f 203/198/209 205/378/209 214/381/209 212/397/209
f 197/398/210 207/399/210 213/385/210 208/391/210
f 207/399/211 202/202/211 211/183/211 213/385/211
f 199/390/212 224/165/212 233/178/212 208/400/212
f 205/378/213 196/376/213 209/375/213 214/381/213
f 195/164/214 198/382/214 209/375/214 229/374/214 231/401/214 230/402/214
f 217/209/215 218/394/215 215/403/215 216/210/215
f 201/404/216 216/405/216 215/393/216 206/392/216
f 214/395/217 218/394/217 217/209/217 212/214/217
f 194/406/218 204/407/218 219/408/218 221/409/218
f 204/407/219 193/410/219 220/411/219 219/408/219
f 85/412/220 96/413/220 220/411/220 193/410/220
f 79/414/221 97/415/221 96/413/221 85/412/221
f 206/383/222 198/382/222 195/164/222 201/396/222
f 228/379/223 205/378/223 203/198/223 222/215/223
f 222/216/224 227/186/224 228/388/224
f 230/416/225 231/417/225 232/418/225
f 210/419/226 232/418/226 229/420/226
f 230/421/227 232/418/227 210/419/227
f 232/418/228 231/417/228 229/420/228
f 223/205/229 97/161/229 91/166/229
f 225/206/230 223/205/230 91/166/230 100/207/230 80/195/230
f 221/177/231 210/179/231 194/377/231
f 91/166/232 97/161/232 79/167/232
f 233/178/233 221/177/233 197/370/233 208/400/233
f 233/178/234 224/165/234 195/164/234 230/402/234 210/179/234
