# Blender 4.3.2
# www.blender.org
o beggar
v 0.205780 1.170476 0.158763
v 0.174784 1.247873 -0.095893
v 0.188041 0.839935 0.070761
v 0.179562 1.506586 0.152646
v 0.179298 0.949753 -0.145319
v 0.193285 1.592474 -0.016532
v 0.203174 0.839822 0.088821
v 0.212550 0.941738 -0.158444
v 0.203369 0.827940 -0.190711
v 0.020487 0.829938 -0.213579
v 0.173286 0.614647 -0.372698
v 0.166890 0.525046 -0.251382
v 0.167819 0.569543 -0.220512
v 0.171802 0.646933 -0.329830
v 0.053067 0.565609 -0.203464
v 0.042675 0.650837 -0.328638
v 0.051935 0.516761 -0.237419
v 0.044171 0.614263 -0.373945
v 0.188585 0.452133 -0.478463
v 0.189515 0.393176 -0.344095
v 0.064247 0.379378 -0.328007
v 0.044743 0.443418 -0.478448
v 0.147565 0.152136 -0.549347
v 0.160825 0.164512 -0.473298
v 0.079006 0.173874 -0.451369
v 0.061755 0.168354 -0.540366
v 0.046814 0.699833 -0.012525
v 0.196737 0.716629 -0.032386
v 0.142120 1.586762 0.090574
v 0.066243 0.093836 -0.438946
v 0.056437 0.079282 -0.557388
v 0.143930 0.073864 -0.559030
v 0.170339 0.087152 -0.458822
v 0.079512 0.208870 -0.319707
v 0.163407 0.202511 -0.333894
v 0.062836 0.193457 -0.267433
v 0.185725 0.182516 -0.288216
v 0.064948 0.134684 -0.360335
v 0.076702 0.191483 -0.387912
v 0.177148 0.125342 -0.379801
v 0.159220 0.182968 -0.403374
v 0.128995 1.386787 0.143536
v 0.107074 1.610157 0.082337
v 0.154970 1.372161 -0.011191
v 0.128645 1.590313 -0.038968
v 0.264457 1.409454 0.135772
v 0.224938 1.563498 0.068651
v 0.285158 1.396540 0.012196
v 0.246369 1.561255 -0.006598
v 0.188270 1.239504 0.160784
v 0.198600 1.187455 0.032404
v 0.289819 1.256835 0.161775
v 0.306240 1.215067 0.043096
v 0.150870 0.946256 0.304965
v 0.162921 1.242921 0.118958
v 0.219878 0.885016 0.205104
v 0.217635 1.198150 0.020690
v 0.241156 0.966004 0.349962
v 0.262953 1.274676 0.162538
v 0.302820 0.903157 0.246441
v 0.310681 1.227688 0.061226
v 0.153657 1.112731 0.188750
v 0.210206 1.056364 0.100021
v 0.326187 1.094973 0.149412
v 0.264731 1.156233 0.245841
v 0.159005 0.900255 0.359850
v 0.174871 0.947982 0.292646
v 0.214440 0.820702 0.241903
v 0.225656 0.897908 0.213296
v 0.209300 0.877969 0.364187
v 0.234056 0.954847 0.326193
v 0.274687 0.827690 0.276052
v 0.284841 0.904773 0.246843
v 0.185670 0.758277 0.279780
v 0.128682 0.789383 0.370122
v 0.223473 0.769166 0.295595
v 0.181231 0.808910 0.375032
v 0.161810 0.871587 0.346434
v 0.072576 1.720193 0.192720
v 0.057788 1.760715 0.039265
v 0.052337 1.646742 0.175031
v 0.056619 1.868874 0.187438
v 0.061166 1.696460 0.060217
v 0.044724 1.885012 0.071634
v 0.009014 1.723079 0.232066
v 0.022016 1.620412 0.195213
v 0.033146 1.680843 0.056083
v 0.020220 1.882187 0.203073
v 0.066683 1.878279 0.130232
v 0.070261 1.670648 0.107786
v 0.086511 1.756856 0.124820
v 0.019397 1.911675 0.131621
v 0.035204 1.646429 0.125776
v 0.034526 1.567169 0.007527
v 0.036699 1.535894 0.083295
v 0.025265 1.790049 0.221113
v 0.074404 1.788585 0.194769
v 0.014611 1.689307 0.221716
v 0.075694 1.694001 0.112568
v 0.080302 1.772009 0.087554
v 0.071124 1.707353 0.087226
v 0.100797 1.775962 0.085184
v -0.012031 1.266648 -0.144665
v 0.010065 1.177148 0.226707
v -0.192821 1.192020 0.151331
v -0.188885 1.243442 -0.093455
v -0.191523 0.956567 0.124907
v -0.201774 1.506586 0.143087
v -0.192934 0.875679 -0.088136
v -0.207245 1.592474 -0.027549
v -0.006848 1.637550 -0.027773
v -0.016430 0.926451 -0.210292
v -0.013825 1.527564 0.184257
v 0.007303 0.900942 0.189131
v -0.204415 0.955612 0.141183
v -0.228576 0.868143 -0.115755
v -0.013840 0.879682 -0.155246
v 0.005388 0.906414 0.131768
v -0.013268 0.927383 -0.155828
v 0.006486 0.859261 0.133876
v -0.228291 0.765957 0.006973
v -0.047705 0.727178 -0.016730
v -0.225431 0.535202 0.111163
v -0.217913 0.561901 0.256433
v -0.218662 0.631079 0.234625
v -0.222630 0.571694 0.116158
v -0.105928 0.634893 0.251664
v -0.093628 0.567997 0.117589
v -0.105261 0.571288 0.271582
v -0.096306 0.536627 0.110341
v -0.226508 0.354648 0.131097
v -0.228115 0.397352 0.270759
v -0.104748 0.405704 0.290157
v -0.082358 0.358148 0.134342
v -0.165096 0.111535 0.265054
v -0.178336 0.092038 0.340967
v -0.098426 0.083242 0.362326
v -0.080018 0.113611 0.264480
v -0.070916 0.837271 0.193929
v -0.221650 0.865454 0.172975
v -0.011327 1.605564 0.083865
v -0.163021 1.586762 0.080861
v -0.084119 0.015905 0.319886
v -0.071669 0.039704 0.249386
v -0.159150 0.035624 0.244701
v -0.188087 0.022506 0.304012
v -0.095696 0.024141 0.478123
v -0.179881 0.027181 0.464237
v -0.078589 -0.019402 0.510364
v -0.201873 -0.015597 0.489009
v -0.082546 -0.010570 0.400336
v -0.093921 0.050723 0.413830
v -0.195047 -0.005452 0.380548
v -0.176688 0.052847 0.400227
v -0.152659 1.359304 0.034066
v -0.132587 1.583439 0.093064
v -0.160376 1.423009 -0.109849
v -0.139511 1.626110 -0.024004
v -0.287145 1.385845 0.022532
v -0.246258 1.552097 0.044556
v -0.293216 1.435649 -0.093006
v -0.258933 1.587514 -0.024085
v -0.207779 1.223835 -0.030068
v -0.201500 1.241670 -0.167690
v -0.309380 1.240686 -0.032663
v -0.310643 1.262856 -0.157586
v -0.249863 0.882278 -0.077926
v -0.202833 1.227496 -0.040959
v -0.260223 0.901645 -0.212098
v -0.202724 1.256452 -0.158501
v -0.352102 0.891517 -0.072631
v -0.314149 1.249190 -0.033752
v -0.354146 0.910133 -0.207235
v -0.306267 1.276631 -0.151798
v -0.214576 1.081735 -0.063805
v -0.219380 1.096406 -0.182167
v -0.348090 1.123637 -0.173568
v -0.342870 1.107692 -0.044934
v -0.277910 0.816329 -0.069643
v -0.265698 0.895226 -0.095567
v -0.266424 0.828164 -0.221436
v -0.270237 0.908695 -0.201307
v -0.322486 0.806027 -0.100497
v -0.334011 0.894199 -0.092766
v -0.335962 0.827118 -0.218585
v -0.338549 0.907667 -0.198506
v -0.252572 0.750948 -0.219187
v -0.245841 0.714813 -0.114183
v -0.294234 0.758653 -0.217550
v -0.296390 0.738495 -0.121304
v -0.271757 0.801089 -0.096840
v -0.011079 1.766163 0.010598
v -0.006121 1.723705 0.242903
v -0.086864 1.720085 0.196066
v -0.078661 1.760585 0.042151
v -0.067257 1.646650 0.177562
v -0.071315 1.867448 0.189782
v -0.081024 1.696328 0.063220
v -0.064031 1.883800 0.073625
v -0.010151 1.889484 0.048540
v -0.010479 1.691170 0.035469
v -0.007174 1.886545 0.209304
v -0.006891 1.613688 0.202090
v -0.021699 1.723102 0.232688
v -0.036072 1.620412 0.196454
v -0.053174 1.680767 0.057908
v -0.034673 1.881575 0.204078
v -0.083674 1.876603 0.132986
v -0.088049 1.670540 0.111120
v -0.103734 1.756675 0.128844
v -0.008864 1.911360 0.132139
v -0.008138 1.638424 0.144149
v -0.037125 1.911045 0.132657
v -0.052226 1.646388 0.127628
v -0.056554 1.567161 0.009457
v -0.011466 1.561292 -0.012785
v -0.009168 1.517992 0.095714
v -0.055513 1.535888 0.085251
v -0.038573 1.789897 0.222437
v -0.006428 1.789971 0.232932
v -0.088721 1.788218 0.198160
v -0.006482 1.680006 0.223826
v 0.087567 1.797236 0.126766
v -0.084617 1.796194 0.043432
v 0.063725 1.796335 0.040294
v -0.011142 1.802906 0.009232
v -0.006072 1.681782 0.243298
v -0.027660 1.689044 0.222678
v -0.093317 1.693849 0.116154
v -0.099135 1.771838 0.091349
v -0.089850 1.707210 0.090639
v -0.119718 1.775752 0.089848
v -0.104643 1.801742 0.131060
vn 0.2320 0.2007 -0.9518
vn 0.9980 0.0596 -0.0217
vn 0.0560 -0.0128 -0.9983
vn 0.9993 0.0151 -0.0349
vn 0.1317 0.7243 0.6768
vn 0.1890 0.2539 -0.9486
vn 0.3650 -0.1655 0.9162
vn 0.1737 0.1301 0.9762
vn -0.1097 -0.9040 -0.4132
vn -0.3187 -0.9478 0.0019
vn 0.0645 -0.9852 0.1591
vn -0.0139 0.5330 -0.8460
vn 0.1836 -0.6324 0.7526
vn 0.3327 0.0499 0.9417
vn -0.9983 -0.0416 0.0402
vn 0.0675 0.5742 -0.8159
vn 0.9901 -0.1302 -0.0525
vn -0.9921 -0.1211 0.0318
vn 0.1440 -0.7988 0.5842
vn 0.1398 -0.5669 0.8119
vn 0.0109 0.7883 -0.6152
vn 0.9993 -0.0212 0.0296
vn 0.9913 -0.0973 -0.0884
vn 0.9943 0.0817 0.0687
vn 0.1532 -0.5424 0.8260
vn -0.9958 -0.0748 0.0525
vn -0.9610 0.2515 -0.1147
vn -0.0308 0.2261 -0.9736
vn 0.1667 -0.4998 0.8499
vn -0.9859 -0.1129 0.1238
vn -0.9450 -0.3270 -0.0105
vn 0.9935 0.1003 0.0536
vn -0.0180 0.5128 -0.8583
vn 0.1637 0.9644 0.2078
vn 0.7007 0.6116 0.3673
vn -0.0475 -0.9899 0.1339
vn -0.9876 0.1024 0.1189
vn 0.9742 0.0299 -0.2236
vn -0.0405 0.1596 -0.9864
vn 0.1340 0.9344 0.3301
vn 0.0180 -0.8468 0.5316
vn 0.0398 0.9646 -0.2607
vn 0.9320 0.2929 -0.2134
vn 0.9802 0.1713 -0.0994
vn 0.0459 0.9647 -0.2595
vn 0.0152 -0.8940 0.4477
vn -0.9847 0.1510 -0.0871
vn -0.9789 -0.1375 -0.1514
vn 0.2424 -0.0937 -0.9656
vn 0.9433 0.2799 0.1785
vn 0.2186 0.2777 0.9355
vn 0.0040 0.1438 0.9896
vn 0.3086 0.9504 -0.0393
vn 0.1759 -0.9138 0.3661
vn 0.9810 0.1560 0.1151
vn -0.9513 -0.3041 -0.0504
vn 0.1754 -0.1664 -0.9703
vn -0.8704 -0.2821 -0.4036
vn 0.4736 -0.4419 -0.7619
vn 0.8787 0.1333 0.4583
vn -0.5120 0.4785 0.7134
vn -0.0561 -0.8679 0.4935
vn -0.0850 0.8880 -0.4519
vn -0.5105 0.4619 0.7252
vn 0.8960 0.2908 0.3356
vn 0.4726 -0.4489 -0.7584
vn -0.8851 -0.1808 -0.4288
vn -0.8895 -0.0987 -0.4461
vn -0.0137 0.3965 0.9180
vn 0.1886 -0.0674 -0.9797
vn 0.4908 -0.3645 -0.7913
vn 0.8345 0.0503 0.5487
vn -0.2649 -0.4299 0.8632
vn -0.2878 0.3223 0.9018
vn 0.1556 0.8773 -0.4540
vn 0.1836 -0.8644 0.4681
vn 0.7214 -0.2996 0.6243
vn -0.8385 0.1341 -0.5281
vn 0.4459 -0.6071 -0.6577
vn -0.9747 0.0093 -0.2235
vn 0.1051 0.4132 0.9046
vn -0.3648 0.7976 0.4803
vn 0.3290 0.0428 0.9434
vn 0.4587 0.1885 0.8684
vn -0.4196 -0.0360 -0.9070
vn 0.9611 -0.2466 0.1241
vn 0.5812 -0.2592 0.7714
vn 0.4050 -0.7971 -0.4479
vn -0.9739 -0.0307 0.2249
vn 0.1283 0.9458 -0.2982
vn 0.6752 -0.0464 0.7361
vn 0.2995 0.2145 0.9297
vn 0.5703 0.8126 -0.1204
vn 0.9996 0.0208 -0.0197
vn 0.3477 -0.2926 -0.8908
vn 0.0621 -0.9292 -0.3644
vn 0.5107 0.8121 0.2822
vn 0.1090 0.9343 0.3395
vn 0.9203 0.2736 -0.2796
vn 0.5336 -0.8263 -0.1803
vn 0.9314 -0.1202 -0.3435
vn 0.2625 -0.8922 -0.3675
vn 0.4048 0.3383 -0.8495
vn 0.3930 -0.3361 0.8559
vn 0.9497 0.2327 0.2097
vn 0.3315 -0.2912 -0.8974
vn 0.2640 -0.3119 0.9127
vn 0.4086 -0.9097 0.0744
vn -0.1190 0.0219 -0.9927
vn 0.9477 -0.2100 0.2404
vn -0.1303 0.9107 0.3920
vn 0.8544 -0.3801 -0.3543
vn -0.3724 0.1358 -0.9181
vn -0.9961 0.0817 0.0343
vn -0.3507 -0.0072 -0.9364
vn -0.9991 -0.0403 -0.0096
vn -0.1716 0.7276 0.6642
vn -0.1736 0.2394 -0.9553
vn -0.2965 -0.0803 0.9516
vn -0.2237 0.1022 0.9693
vn 0.0868 -0.9394 0.3318
vn -0.2317 -0.9655 -0.1188
vn 0.2611 -0.9650 -0.0239
vn 0.0110 -0.1211 -0.9926
vn 0.1505 0.6046 0.7822
vn -0.0236 0.0441 0.9987
vn 0.9971 -0.0110 0.0756
vn -0.1349 -0.5517 -0.8231
vn -0.9992 -0.0043 0.0397
vn 0.9773 -0.1299 0.1674
vn -0.1130 0.2697 0.9563
vn -0.1520 0.2948 0.9434
vn 0.0039 0.1772 -0.9842
vn -0.9991 0.0250 0.0353
vn -0.9758 -0.2143 -0.0441
vn -0.9993 0.0339 0.0125
vn -0.1516 0.1024 0.9831
vn 0.9950 0.0523 0.0848
vn 0.9622 0.2690 0.0426
vn 0.0218 -0.4739 -0.8803
vn -0.1922 0.2007 0.9606
vn 0.9856 0.0699 0.1538
vn 0.8823 -0.4624 0.0881
vn -0.9645 0.2457 -0.0965
vn -0.2492 -0.6067 -0.7548
vn -0.1765 0.9644 0.1971
vn -0.7255 0.6051 0.3278
vn 0.0162 -0.9631 -0.2687
vn 0.9764 0.0740 0.2028
vn -0.9550 0.1300 -0.2665
vn 0.0149 0.2316 -0.9727
vn -0.1219 0.5518 0.8250
vn -0.0225 -0.9960 -0.0868
vn -0.0332 0.9261 0.3758
vn -0.9281 0.3717 0.0233
vn -0.9800 0.1907 0.0560
vn -0.0610 0.8363 0.5448
vn 0.0028 -0.9448 -0.3275
vn 0.9829 0.1808 0.0355
vn 0.9943 -0.0671 -0.0831
vn -0.1278 0.3972 -0.9088
vn -0.9675 0.1771 0.1804
vn -0.3336 -0.2119 0.9186
vn -0.1215 -0.3599 0.9251
vn -0.3386 0.8541 0.3949
vn -0.1808 -0.9718 -0.1515
vn -0.9930 0.1011 0.0605
vn 0.9619 -0.2612 -0.0806
vn -0.0579 0.3347 -0.9405
vn 0.9801 -0.1800 -0.0831
vn -0.0344 0.1577 -0.9869
vn -0.9990 0.0310 0.0316
vn 0.0872 -0.1090 0.9902
vn -0.0961 -0.9862 -0.1349
vn 0.2006 0.9512 0.2345
vn 0.0820 -0.1286 0.9883
vn -0.9728 0.2297 0.0299
vn -0.0345 0.1499 -0.9881
vn 0.9956 -0.0870 -0.0359
vn 0.9999 -0.0130 0.0012
vn -0.1055 -0.1050 0.9889
vn -0.0738 0.4259 -0.9018
vn -0.0434 0.2403 -0.9697
vn -0.9934 -0.0939 0.0655
vn -0.1189 -0.8774 0.4647
vn -0.1830 -0.2945 0.9379
vn -0.0097 0.9919 0.1268
vn -0.2985 -0.9209 -0.2508
vn -0.8964 -0.4416 -0.0376
vn 0.9713 0.2309 0.0577
vn -0.0426 -0.0388 -0.9983
vn 0.9647 -0.0655 0.2550
vn -0.5406 -0.1433 0.8290
vn 0.0344 0.3072 0.9510
vn -0.3473 0.0147 0.9376
vn -0.4275 0.1915 0.8835
vn 0.3810 -0.0352 -0.9239
vn -0.9545 -0.2484 0.1647
vn -0.5486 -0.2595 0.7948
vn -0.4221 -0.7980 -0.4300
vn 0.3838 0.3789 -0.8421
vn -0.1602 0.9426 -0.2930
vn -0.6428 -0.0467 0.7646
vn -0.2658 0.2141 0.9399
vn -0.4204 0.3807 -0.8236
vn -0.5923 0.7996 -0.0991
vn -0.9995 0.0205 0.0229
vn -0.3845 -0.2934 -0.8753
vn -0.0771 -0.9293 -0.3612
vn -0.5180 0.8007 0.3010
vn -0.1173 0.9317 0.3437
vn -0.9260 0.2856 -0.2467
vn -0.5389 -0.8275 -0.1579
vn -0.9449 -0.1220 -0.3037
vn -0.2778 -0.8922 -0.3560
vn -0.4407 0.3382 -0.8315
vn -0.3563 -0.3362 0.8718
vn -0.4666 -0.0113 0.8844
vn -0.3976 0.0875 0.9134
vn 0.4347 0.0887 0.8962
vn 0.5032 -0.0104 0.8641
vn -0.3685 -0.2919 -0.8826
vn -0.2225 -0.3135 0.9231
vn -0.3950 -0.9141 0.0917
vn 0.0769 0.0220 -0.9968
vn -0.9363 -0.2118 0.2802
vn 0.1451 0.9109 0.3862
vn -0.8678 -0.3818 -0.3179
vn 0.9820 -0.0346 0.1857
vn 0.9588 0.0028 -0.2841
vn -0.9735 -0.0335 0.2261
vn 0.9823 -0.0318 0.1844
vn -0.9349 0.2436 0.2580
vn -0.9707 0.0036 -0.2404
vt 0.769832 0.195645
vt 0.775252 0.120749
vt 0.898457 0.115387
vt 0.893855 0.199439
vt 0.779478 0.033265
vt 0.875888 0.020883
vt 0.079276 0.380758
vt 0.015809 0.352495
vt 0.092810 0.349129
vt 0.640892 0.115732
vt 0.651808 0.045918
vt 0.972902 0.747099
vt 0.945788 0.808209
vt 0.869285 0.817542
vt 0.869303 0.746010
vt 0.623064 0.191154
vt 0.978616 0.563599
vt 0.869350 0.563483
vt 0.869382 0.439703
vt 0.981068 0.426748
vt 0.887298 0.020144
vt 0.903448 0.092046
vt 0.869386 0.423683
vt 0.966087 0.423037
vt 0.919014 0.125551
vt 0.901661 0.199678
vt 0.080227 0.193471
vt 0.035111 0.194551
vt 0.029851 0.129329
vt 0.078457 0.129531
vt 0.524664 0.024934
vt 0.453935 0.048979
vt 0.476762 0.096074
vt 0.529992 0.085338
vt 0.458519 0.014915
vt 0.140591 0.209945
vt 0.084060 0.210053
vt 0.139428 0.189660
vt 0.088688 0.293915
vt 0.019697 0.289600
vt 0.036330 0.210891
vt 0.589766 0.089175
vt 0.538912 0.169399
vt 0.588096 0.171055
vt 0.169119 0.280272
vt 0.494132 0.172296
vt 0.495777 0.194811
vt 0.540097 0.192752
vt 0.594693 0.186440
vt 0.602720 0.254314
vt 0.550300 0.251019
vt 0.546511 0.359212
vt 0.576655 0.358602
vt 0.502818 0.254080
vt 0.133655 0.131663
vt 0.460444 0.638059
vt 0.461859 0.667341
vt 0.511272 0.661029
vt 0.492341 0.643217
vt 0.059953 0.028917
vt 0.089979 0.037143
vt 0.513486 0.356281
vt 0.126069 0.032173
vt 0.187391 0.328606
vt 0.600139 0.026470
vt 0.980612 0.851849
vt 0.869271 0.873069
vt 0.214036 0.700438
vt 0.168892 0.698897
vt 0.170775 0.659242
vt 0.208186 0.653496
vt 0.429138 0.636018
vt 0.382088 0.640297
vt 0.380987 0.679254
vt 0.425514 0.672609
vt 0.172591 0.619486
vt 0.211119 0.618494
vt 0.342980 0.638844
vt 0.341450 0.677655
vt 0.504441 0.606319
vt 0.529468 0.607110
vt 0.250819 0.702808
vt 0.243337 0.651469
vt 0.292311 0.649141
vt 0.300801 0.705699
vt 0.244056 0.622019
vt 0.258050 0.585846
vt 0.290061 0.591615
vt 0.277688 0.628694
vt 0.226990 0.579872
vt 0.239778 0.437910
vt 0.241642 0.380815
vt 0.334062 0.371731
vt 0.335105 0.430080
vt 0.244961 0.564466
vt 0.270260 0.519900
vt 0.334573 0.576660
vt 0.267325 0.484741
vt 0.339743 0.479221
vt 0.337393 0.523671
vt 0.397256 0.433766
vt 0.400592 0.476589
vt 0.218167 0.523740
vt 0.216842 0.468389
vt 0.934188 0.071641
vt 0.985147 0.071450
vt 0.980416 0.114135
vt 0.934188 0.111273
vt 0.409685 0.525397
vt 0.413123 0.381914
vt 0.413123 0.570440
vt 0.588235 0.616390
vt 0.541774 0.616014
vt 0.540412 0.699472
vt 0.594290 0.698674
vt 0.733169 0.616366
vt 0.683834 0.612729
vt 0.688349 0.697632
vt 0.724849 0.697622
vt 0.637083 0.612063
vt 0.634642 0.698467
vt 0.933176 0.242559
vt 0.985452 0.244219
vt 0.985670 0.280546
vt 0.933413 0.282101
vt 0.980360 0.291116
vt 0.933814 0.295150
vt 0.933988 0.335813
vt 0.980548 0.334832
vt 0.637975 0.554612
vt 0.592385 0.555443
vt 0.685764 0.549762
vt 0.727568 0.549351
vt 0.544847 0.548303
vt 0.557765 0.809694
vt 0.510229 0.803468
vt 0.511171 0.765578
vt 0.565124 0.764368
vt 0.479691 0.799649
vt 0.486340 0.766582
vt 0.437092 0.787533
vt 0.443585 0.748829
vt 0.425923 0.754711
vt 0.422123 0.742946
vt 0.429690 0.730629
vt 0.447798 0.694577
vt 0.457086 0.718428
vt 0.949739 0.404064
vt 0.949739 0.353270
vt 0.982292 0.353270
vt 0.982292 0.404064
vt 0.460533 0.693281
vt 0.502277 0.717435
vt 0.495857 0.735141
vt 0.514016 0.729944
vt 0.562185 0.720311
vt 0.408828 0.775679
vt 0.278149 0.967649
vt 0.246334 0.979776
vt 0.249708 0.914564
vt 0.277992 0.912907
vt 0.013923 0.884272
vt 0.022151 0.852843
vt 0.077991 0.867331
vt 0.074449 0.892252
vt 0.315578 0.881871
vt 0.272833 0.868911
vt 0.266436 0.823662
vt 0.311469 0.826118
vt 0.312630 0.841540
vt 0.233032 0.873502
vt 0.237034 0.853143
vt 0.243726 0.809688
vt 0.293162 0.797592
vt 0.353002 0.808376
vt 0.344750 0.831707
vt 0.171111 0.912654
vt 0.129263 0.910165
vt 0.133762 0.881302
vt 0.504295 0.904470
vt 0.456722 0.873442
vt 0.486878 0.832177
vt 0.523186 0.892354
vt 0.393060 0.750737
vt 0.369166 0.770382
vt 0.342151 0.723866
vt 0.371660 0.694150
vt 0.224422 0.982399
vt 0.224589 0.913793
vt 0.464697 0.929008
vt 0.510943 0.418646
vt 0.509620 0.457222
vt 0.450276 0.457321
vt 0.451259 0.416801
vt 0.371260 0.868269
vt 0.391399 0.792592
vt 0.427034 0.854273
vt 0.224914 0.800301
vt 0.250611 0.780243
vt 0.499027 0.969201
vt 0.535560 0.959128
vt 0.557854 0.949811
vt 0.378068 0.967627
vt 0.326324 0.969178
vt 0.319455 0.907637
vt 0.374611 0.893121
vt 0.340158 0.885118
vt 0.330117 0.844664
vt 0.450534 0.480546
vt 0.422105 0.480397
vt 0.434613 0.451640
vt 0.511818 0.394240
vt 0.445658 0.392364
vt 0.509788 0.480859
vt 0.224768 0.847580
vt 0.329170 0.701515
vt 0.145363 0.785723
vt 0.128390 0.783055
vt 0.170261 0.738493
vt 0.116930 0.746993
vt 0.160651 0.716692
vt 0.111510 0.779844
vt 0.893310 0.283615
vt 0.770664 0.270731
vt 0.865483 0.388919
vt 0.769534 0.358310
vt 0.423897 0.371814
vt 0.408299 0.341150
vt 0.485355 0.339413
vt 0.636248 0.267526
vt 0.642876 0.337877
vt 0.765704 0.747046
vt 0.792786 0.808169
vt 0.760084 0.563543
vt 0.757703 0.426691
vt 0.876826 0.390354
vt 0.896865 0.307217
vt 0.772687 0.422987
vt 0.914451 0.274726
vt 0.410556 0.185000
vt 0.408092 0.121083
vt 0.456578 0.117665
vt 0.455645 0.183093
vt 0.253560 0.018334
vt 0.251430 0.078936
vt 0.305153 0.086844
vt 0.325460 0.038610
vt 0.319084 0.004836
vt 0.351414 0.205432
vt 0.351233 0.185114
vt 0.407829 0.201799
vt 0.408760 0.285783
vt 0.455510 0.199477
vt 0.477314 0.276913
vt 0.191942 0.085924
vt 0.197935 0.167602
vt 0.246963 0.163350
vt 0.327602 0.277492
vt 0.291833 0.163878
vt 0.247013 0.186734
vt 0.291379 0.186449
vt 0.192159 0.183314
vt 0.187729 0.251517
vt 0.219266 0.354283
vt 0.249400 0.353300
vt 0.239901 0.245457
vt 0.287479 0.246007
vt 0.353156 0.126862
vt 0.373466 0.625371
vt 0.341578 0.620155
vt 0.322681 0.602307
vt 0.372105 0.596087
vt 0.390482 0.029659
vt 0.419898 0.019465
vt 0.282224 0.348629
vt 0.354142 0.027088
vt 0.312568 0.326929
vt 0.178272 0.023855
vt 0.757941 0.851792
vt 0.013855 0.710087
vt 0.062637 0.719760
vt 0.053791 0.758555
vt 0.012068 0.757539
vt 0.404768 0.627471
vt 0.408460 0.590887
vt 0.452999 0.584325
vt 0.451825 0.623280
vt 0.095615 0.759647
vt 0.099560 0.719322
vt 0.492533 0.585997
vt 0.490931 0.624805
vt 0.329410 0.657029
vt 0.304385 0.656192
vt 0.014143 0.671338
vt 0.013329 0.626462
vt 0.071995 0.639628
vt 0.067412 0.683054
vt 0.098346 0.684520
vt 0.093882 0.648751
vt 0.133695 0.638573
vt 0.137331 0.672574
vt 0.141254 0.705593
vt 0.185664 0.538131
vt 0.086734 0.549483
vt 0.089781 0.610162
vt 0.185643 0.597604
vt 0.176017 0.406617
vt 0.082362 0.396940
vt 0.151191 0.453841
vt 0.081208 0.452173
vt 0.080256 0.498505
vt 0.155426 0.490326
vt 0.011387 0.503289
vt 0.011387 0.547736
vt 0.208505 0.505645
vt 0.205267 0.448094
vt 0.933051 0.227541
vt 0.935500 0.187984
vt 0.981816 0.187984
vt 0.983901 0.230880
vt 0.011387 0.452807
vt 0.011387 0.602224
vt 0.011387 0.406053
vt 0.685388 0.464625
vt 0.679517 0.382326
vt 0.733395 0.381660
vt 0.731848 0.465114
vt 0.540455 0.464294
vt 0.548955 0.383058
vt 0.585455 0.383138
vt 0.589782 0.468052
vt 0.639164 0.382434
vt 0.636531 0.468832
vt 0.926036 0.053242
vt 0.926036 0.013699
vt 0.978301 0.014940
vt 0.978301 0.051267
vt 0.941318 0.172865
vt 0.942408 0.129162
vt 0.988977 0.129542
vt 0.987962 0.170192
vt 0.635511 0.526281
vt 0.681104 0.525562
vt 0.587712 0.531014
vt 0.545907 0.531323
vt 0.728625 0.532818
vt 0.736669 0.725394
vt 0.735353 0.771722
vt 0.683130 0.758703
vt 0.689295 0.721117
vt 0.659178 0.752270
vt 0.658895 0.718191
vt 0.614298 0.760413
vt 0.615218 0.720808
vt 0.598227 0.750739
vt 0.592334 0.761513
vt 0.621741 0.793364
vt 0.608255 0.814858
vt 0.597389 0.775323
vt 0.902963 0.354102
vt 0.935516 0.354102
vt 0.935516 0.404895
vt 0.902963 0.404895
vt 0.620394 0.818928
vt 0.662554 0.785374
vt 0.665487 0.804249
vt 0.724263 0.814542
vt 0.679237 0.794482
vt 0.585527 0.726307
vt 0.170921 0.966691
vt 0.199450 0.914463
vt 0.202557 0.979360
vt 0.434990 0.885665
vt 0.136920 0.840949
vt 0.138178 0.825523
vt 0.183245 0.823379
vt 0.176564 0.868613
vt 0.206044 0.809560
vt 0.212468 0.853064
vt 0.216352 0.873452
vt 0.156680 0.797114
vt 0.104811 0.830875
vt 0.096708 0.807441
vt 0.427703 0.967162
vt 0.542713 0.881290
vt 0.537443 0.824738
vt 0.340263 0.781402
vt 0.301717 0.734772
vt 0.020099 0.966282
vt 0.069986 0.966279
vt 0.582883 0.857700
vt 0.510287 0.543080
vt 0.450588 0.544296
vt 0.450031 0.503768
vt 0.509371 0.504492
vt 0.058337 0.791326
vt 0.199393 0.779972
vt 0.602434 0.906809
vt 0.576490 0.934433
vt 0.122173 0.967791
vt 0.119390 0.843962
vt 0.109116 0.884444
vt 0.434309 0.509284
vt 0.510905 0.567494
vt 0.444729 0.568673
vt 0.612579 0.943799
vt 0.704302 0.960286
vt 0.690069 0.863893
vt 0.628178 0.846809
vt 0.727017 0.964931
vt 0.742045 0.877429
vt 0.749981 0.968131
vt 0.795559 0.882010
vt 0.849700 0.973890
vt 0.859604 0.886554
vt 0.262137 0.727847
vt 0.208247 0.720642
vt 0.265551 0.745007
vt 0.235108 0.768630
vt 0.190786 0.737487
vt 0.268411 0.762268
s 0
f 103/1/1 2/2/1 8/3/1 112/4/1
f 2/2/2 1/5/2 7/6/2 8/3/2
f 119/7/3 5/8/3 117/9/3
f 6/10/4 4/11/4 1/5/4 2/2/4
f 4/12/5 29/13/5 141/14/5 113/15/5
f 111/16/6 6/10/6 2/2/6 103/1/6
f 1/17/7 104/18/7 114/19/7 7/20/7
f 4/12/8 113/15/8 104/18/8
f 3/21/9 5/22/9 8/3/9 7/6/9
f 118/23/10 3/24/10 7/20/10 114/19/10
f 5/25/11 119/26/11 112/4/11 8/3/11
f 18/27/12 11/28/12 19/29/12 22/30/12
f 3/31/13 120/32/13 27/33/13 28/34/13
f 3/31/14 118/35/14 120/32/14
f 15/36/15 16/37/15 18/27/15 17/38/15
f 10/39/16 9/40/16 14/41/16 16/37/16
f 9/42/17 28/34/17 13/43/17 14/44/17
f 27/45/18 10/39/18 16/37/18 15/36/18
f 28/34/19 27/33/19 15/46/19 13/43/19
f 13/43/20 15/46/20 17/47/20 12/48/20
f 16/37/21 14/41/21 11/28/21 18/27/21
f 14/44/22 13/43/22 12/48/22 11/49/22
f 19/50/23 20/51/23 24/52/23 23/53/23
f 11/49/24 12/48/24 20/51/24 19/50/24
f 12/48/25 17/47/25 21/54/25 20/51/25
f 17/38/26 18/27/26 22/30/26 21/55/26
f 39/56/27 38/57/27 36/58/27 34/59/27
f 22/30/28 19/29/28 23/60/28 26/61/28
f 20/51/29 21/54/29 25/62/29 24/52/29
f 21/55/30 22/30/30 26/61/30 25/63/30
f 120/64/31 117/9/31 10/39/31 27/45/31
f 5/65/32 3/31/32 28/34/32 9/42/32
f 117/9/33 5/8/33 9/40/33 10/39/33
f 141/14/34 29/13/34 6/66/34 111/67/34
f 6/66/35 29/13/35 4/12/35
f 30/68/36 31/69/36 32/70/36 33/71/36
f 25/72/37 26/73/37 31/74/37 30/75/37
f 23/76/38 24/77/38 33/71/38 32/70/38
f 26/73/39 23/78/39 32/79/39 31/74/39
f 35/80/40 34/59/40 36/58/40 37/81/40
f 38/82/41 40/83/41 37/84/41 36/85/41
f 41/86/42 39/87/42 34/88/42 35/89/42
f 40/83/43 41/86/43 35/89/43 37/84/43
f 33/71/44 24/77/44 41/86/44 40/83/44
f 24/77/45 25/90/45 39/87/45 41/86/45
f 30/68/46 33/71/46 40/83/46 38/82/46
f 25/72/47 30/75/47 38/57/47 39/56/47
f 43/91/48 45/92/48 44/93/48 42/94/48
f 45/95/49 49/96/49 44/97/49
f 49/96/50 47/98/50 46/99/50 48/100/50
f 47/98/51 43/91/51 42/94/51
f 46/99/52 42/94/52 50/101/52 52/102/52
f 47/98/53 49/96/53 45/103/53 43/104/53
f 50/105/54 51/106/54 53/107/54 52/108/54
f 48/100/55 46/99/55 52/102/55 53/109/55
f 42/94/56 44/93/56 51/110/56 50/101/56
f 44/97/57 48/100/57 53/109/57 51/111/57
f 62/112/58 63/113/58 56/114/58 54/115/58
f 63/116/59 64/117/59 60/118/59 56/119/59
f 64/117/60 65/120/60 58/121/60 60/118/60
f 65/120/61 62/112/61 54/115/61 58/121/61
f 54/122/62 56/123/62 60/124/62 58/125/62
f 59/126/63 61/127/63 57/128/63 55/129/63
f 59/130/64 55/131/64 62/112/64 65/120/64
f 61/132/65 59/130/65 65/120/65 64/117/65
f 57/133/66 61/132/66 64/117/66 63/116/66
f 55/131/67 57/134/67 63/113/67 62/112/67
f 67/135/68 69/136/68 68/137/68 78/138/68
f 42/94/69 46/99/69 47/98/69
f 44/97/70 49/96/70 48/100/70
f 69/136/71 73/139/71 72/140/71 68/137/71
f 73/139/72 71/141/72 70/142/72 72/140/72
f 66/143/73 78/144/73 70/142/73
f 70/142/74 78/145/74 75/146/74 77/147/74
f 71/148/75 73/149/75 69/150/75 67/151/75
f 75/152/76 74/153/76 76/154/76 77/147/76
f 72/140/77 70/142/77 77/147/77 76/154/77
f 78/138/78 68/137/78 74/155/78 75/156/78
f 68/137/79 72/140/79 76/154/79 74/155/79
f 67/157/80 78/144/80 66/143/80
f 71/141/81 66/143/81 70/142/81
f 67/157/82 66/143/82 71/141/82
f 104/18/83 1/17/83 4/12/83
f 82/158/84 88/159/84 96/160/84 97/161/84
f 226/162/85 192/163/85 195/164/85 224/165/85
f 91/166/86 79/167/86 81/168/86 90/169/86 99/170/86
f 79/167/87 85/171/87 98/172/87 86/173/87 81/168/87
f 93/174/88 87/175/88 83/176/88 90/169/88
f 221/177/89 233/178/89 210/179/89
f 92/180/90 84/181/90 200/182/90 211/183/90
f 85/184/91 193/185/91 227/186/91 98/187/91
f 88/159/92 202/188/92 220/189/92 96/160/92
f 89/190/93 84/181/93 92/180/93
f 87/191/94 93/192/94 95/193/94 94/194/94
f 80/195/95 201/196/95 192/197/95
f 203/198/96 212/199/96 93/174/96 86/173/96
f 82/200/97 89/190/97 92/180/97 88/201/97
f 88/201/98 92/180/98 211/183/98 202/202/98
f 84/203/99 89/204/99 223/205/99 225/206/99
f 86/173/100 93/174/100 90/169/100 81/168/100
f 80/195/101 100/207/101 101/208/101 99/170/101 90/169/101 83/176/101
f 217/209/102 216/210/102 94/211/102 95/193/102
f 201/212/103 87/191/103 94/194/103 216/213/103
f 93/192/104 212/214/104 217/209/104 95/193/104
f 89/204/105 82/158/105 97/161/105 223/205/105
f 87/175/106 201/196/106 80/195/106 83/176/106
f 98/172/107 222/215/107 203/198/107 86/173/107
f 222/216/108 98/187/108 227/186/108
f 100/217/109 102/218/109 101/219/109
f 91/220/110 99/221/110 102/218/110
f 100/222/111 91/220/111 102/218/111
f 102/218/112 99/221/112 101/219/112
f 103/1/113 112/4/113 116/223/113 106/224/113
f 106/224/114 116/223/114 115/225/114 105/226/114
f 119/227/115 117/228/115 109/229/115
f 110/230/116 106/224/116 105/226/116 108/231/116
f 108/232/117 113/15/117 141/14/117 142/233/117
f 111/16/118 103/1/118 106/224/118 110/230/118
f 105/234/119 115/235/119 114/19/119 104/18/119
f 108/232/120 104/18/120 113/15/120
f 107/236/121 115/225/121 116/223/121 109/237/121
f 118/23/122 114/19/122 115/235/122 107/238/122
f 109/239/123 116/223/123 112/4/123 119/26/123
f 130/240/124 134/241/124 131/242/124 123/243/124
f 107/244/125 140/245/125 139/246/125 120/247/125
f 107/244/126 120/247/126 118/248/126
f 127/249/127 129/250/127 130/240/127 128/251/127
f 122/252/128 128/251/128 126/253/128 121/254/128
f 121/255/129 126/256/129 125/257/129 140/245/129
f 139/258/130 127/249/130 128/251/130 122/252/130
f 140/245/131 125/257/131 127/259/131 139/246/131
f 125/257/132 124/260/132 129/261/132 127/259/132
f 128/251/133 130/240/133 123/243/133 126/253/133
f 126/256/134 123/262/134 124/260/134 125/257/134
f 131/263/135 135/264/135 136/265/135 132/266/135
f 123/262/136 131/263/136 132/266/136 124/260/136
f 124/260/137 132/266/137 133/267/137 129/261/137
f 129/250/138 133/268/138 134/241/138 130/240/138
f 152/269/139 147/270/139 149/271/139 151/272/139
f 134/241/140 138/273/140 135/274/140 131/242/140
f 132/266/141 136/265/141 137/275/141 133/267/141
f 133/268/142 137/276/142 138/273/142 134/241/142
f 120/277/143 139/258/143 122/252/143 117/228/143
f 109/278/144 121/255/144 140/245/144 107/244/144
f 117/228/145 122/252/145 121/254/145 109/229/145
f 141/14/146 111/67/146 110/279/146 142/233/146
f 110/279/147 108/232/147 142/233/147
f 143/280/148 146/281/148 145/282/148 144/283/148
f 137/284/149 143/285/149 144/286/149 138/287/149
f 135/288/150 145/282/150 146/281/150 136/289/150
f 138/287/151 144/286/151 145/290/151 135/291/151
f 148/292/152 150/293/152 149/271/152 147/270/152
f 151/294/153 149/295/153 150/296/153 153/297/153
f 154/298/154 148/299/154 147/300/154 152/301/154
f 153/297/155 150/296/155 148/299/155 154/298/155
f 146/281/156 153/297/156 154/298/156 136/289/156
f 136/289/157 154/298/157 152/301/157 137/302/157
f 143/280/158 151/294/158 153/297/158 146/281/158
f 137/284/159 152/269/159 151/272/159 143/285/159
f 156/303/160 155/304/160 157/305/160 158/306/160
f 158/307/161 157/308/161 162/309/161
f 162/309/162 161/310/162 159/311/162 160/312/162
f 160/312/163 155/304/163 156/303/163
f 159/311/164 165/313/164 163/314/164 155/304/164
f 160/312/165 156/315/165 158/316/165 162/309/165
f 163/317/166 165/318/166 166/319/166 164/320/166
f 161/310/167 166/321/167 165/313/167 159/311/167
f 155/304/168 163/314/168 164/322/168 157/305/168
f 157/308/169 164/323/169 166/321/169 161/310/169
f 175/324/170 167/325/170 169/326/170 176/327/170
f 176/328/171 169/329/171 173/330/171 177/331/171
f 177/331/172 173/330/172 171/332/172 178/333/172
f 178/333/173 171/332/173 167/325/173 175/324/173
f 167/334/174 171/335/174 173/336/174 169/337/174
f 172/338/175 168/339/175 170/340/175 174/341/175
f 172/342/176 178/333/176 175/324/176 168/343/176
f 174/344/177 177/331/177 178/333/177 172/342/177
f 170/345/178 176/328/178 177/331/178 174/344/178
f 168/343/179 175/324/179 176/327/179 170/346/179
f 180/347/180 191/348/180 181/349/180 182/350/180
f 155/304/181 160/312/181 159/311/181
f 157/308/182 161/310/182 162/309/182
f 182/350/183 181/349/183 185/351/183 186/352/183
f 186/352/184 185/351/184 183/353/184 184/354/184
f 179/355/185 183/353/185 191/356/185
f 183/353/186 190/357/186 188/358/186 191/359/186
f 184/360/187 180/361/187 182/362/187 186/363/187
f 188/364/188 190/357/188 189/365/188 187/366/188
f 185/351/189 189/365/189 190/357/189 183/353/189
f 191/348/190 188/367/190 187/368/190 181/349/190
f 181/349/191 187/368/191 189/365/191 185/351/191
f 180/369/192 179/355/192 191/356/192
f 184/354/193 183/353/193 179/355/193
f 180/369/194 184/354/194 179/355/194
f 104/18/195 108/232/195 105/234/195
f 197/370/196 221/177/196 219/371/196 207/372/196
f 80/195/197 192/197/197 226/373/197 225/206/197
f 210/179/198 229/374/198 209/375/198 196/376/198 194/377/198
f 194/377/199 196/376/199 205/378/199 228/379/199 204/380/199
f 214/381/200 209/375/200 198/382/200 206/383/200
f 225/206/201 226/373/201 200/384/201 84/203/201
f 213/385/202 211/183/202 200/182/202 199/386/202
f 204/387/203 228/388/203 227/186/203 193/185/203
f 207/372/204 219/371/204 220/189/204 202/188/204
f 200/389/205 226/162/205 224/165/205 199/390/205
f 208/391/206 213/385/206 199/386/206
f 206/392/207 215/393/207 218/394/207 214/395/207
f 195/164/208 192/163/208 201/396/208
f 203/198/209 205/378/209 214/381/209 212/397/209
f 197/398/210 207/399/210 213/385/210 208/391/210
f 207/399/211 202/202/211 211/183/211 213/385/211
f 199/390/212 224/165/212 233/178/212 208/400/212
f 205/378/213 196/376/213 209/375/213 214/381/213
f 195/164/214 198/382/214 209/375/214 229/374/214 231/401/214 230/402/214
f 217/209/215 218/394/215 215/403/215 216/210/215
f 201/404/216 216/405/216 215/393/216 206/392/216
f 214/395/217 218/394/217 217/209/217 212/214/217
f 194/406/218 204/407/218 219/408/218 221/409/218
f 204/407/219 193/410/219 220/411/219 219/408/219
f 85/412/220 96/413/220 220/411/220 193/410/220
f 79/414/221 97/415/221 96/413/221 85/412/221
f 206/383/222 198/382/222 195/164/222 201/396/222
f 228/379/223 205/378/223 203/198/223 222/215/223
f 222/216/224 227/186/224 228/388/224
f 230/416/225 231/417/225 232/418/225
f 210/419/226 232/418/226 229/420/226
f 230/421/227 232/418/227 210/419/227
f 232/418/228 231/417/228 229/420/228
f 223/205/229 97/161/229 91/166/229
f 225/206/230 223/205/230 91/166/230 100/207/230 80/195/230
f 221/177/231 210/179/231 194/377/231
f 91/166/232 97/161/232 79/167/232
f 233/178/233 221/177/233 197/370/233 208/400/233
f 233/178/234 224/165/234 195/164/234 230/402/234 210/179/234
