# Blender 4.3.2
# www.blender.org
o beggar
v 0.192739 1.161051 0.151592
v 0.188811 1.212580 -0.093383
v 0.191494 0.925142 0.125111
v 0.201716 1.475560 0.143111
v 0.192965 0.841460 -0.098419
v 0.207210 1.561448 -0.027522
v 0.204427 0.924366 0.141397
v 0.228836 0.841056 -0.106558
v 0.228889 0.735026 0.005171
v 0.048329 0.695717 -0.018898
v 0.226811 0.503857 0.106435
v 0.218916 0.527554 0.252047
v 0.219616 0.597531 0.231339
v 0.223929 0.539753 0.112189
v 0.104951 0.600986 0.248322
v 0.094952 0.535731 0.113433
v 0.104363 0.537077 0.267165
v 0.097699 0.505244 0.105405
v 0.227658 0.323182 0.121946
v 0.228939 0.362621 0.262547
v 0.103642 0.371039 0.281808
v 0.083497 0.326723 0.124895
v 0.165693 0.073044 0.248033
v 0.178825 0.065200 0.328220
v 0.096980 0.061314 0.350983
v 0.080637 0.078351 0.248937
v 0.069169 0.804005 0.192962
v 0.221733 0.832640 0.172267
v 0.162967 1.555736 0.080885
v 0.084447 -0.015651 0.324133
v 0.072153 -0.002227 0.239633
v 0.159624 -0.007610 0.235568
v 0.188443 -0.013390 0.306770
v 0.095927 0.048320 0.469528
v 0.180146 0.043765 0.456042
v 0.078626 0.023550 0.517420
v 0.201954 0.016794 0.496654
v 0.082756 -0.016677 0.413705
v 0.094323 0.043778 0.401150
v 0.195298 -0.020398 0.393319
v 0.177097 0.039550 0.392725
v 0.152449 1.328327 0.034384
v 0.132540 1.552560 0.093061
v 0.160245 1.391822 -0.109618
v 0.139521 1.595061 -0.024066
v 0.286958 1.354746 0.022840
v 0.246196 1.521061 0.044621
v 0.293091 1.404382 -0.092767
v 0.258913 1.556372 -0.024068
v 0.207476 1.192724 -0.029546
v 0.201239 1.210369 -0.167195
v 0.309091 1.209492 -0.032145
v 0.310396 1.231484 -0.157099
v 0.247826 0.851148 -0.076528
v 0.202455 1.196677 -0.040402
v 0.258268 0.870137 -0.210748
v 0.202476 1.225345 -0.158015
v 0.350108 0.859909 -0.071263
v 0.313874 1.217854 -0.033256
v 0.352231 0.878186 -0.205911
v 0.306114 1.245044 -0.151368
v 0.213497 1.050806 -0.062893
v 0.218361 1.065164 -0.181290
v 0.347201 1.091798 -0.172767
v 0.341915 1.076193 -0.044093
v 0.275489 0.785137 -0.068052
v 0.263731 0.864034 -0.094186
v 0.264005 0.796626 -0.219871
v 0.268301 0.877187 -0.199964
v 0.319990 0.774489 -0.098896
v 0.332037 0.862612 -0.091411
v 0.333537 0.795179 -0.217047
v 0.336608 0.875766 -0.197189
v 0.249700 0.719500 -0.217406
v 0.242803 0.683691 -0.112301
v 0.291408 0.726963 -0.215807
v 0.293488 0.707055 -0.119507
v 0.269234 0.769860 -0.095204
v 0.086885 1.688954 0.196079
v 0.078697 1.729498 0.042140
v 0.067213 1.615576 0.177551
v 0.071588 1.837669 0.190139
v 0.081005 1.665246 0.063212
v 0.064628 1.853833 0.073937
v 0.021728 1.692012 0.232712
v 0.036013 1.589327 0.196435
v 0.053140 1.649708 0.057900
v 0.034600 1.851084 0.204227
v 0.084080 1.847042 0.133408
v 0.088014 1.639439 0.111121
v 0.103780 1.725565 0.128829
v 0.036871 1.880570 0.132806
v 0.052176 1.615333 0.127618
v 0.056489 1.536133 0.009449
v 0.055455 1.504859 0.085241
v 0.038624 1.758934 0.222458
v 0.088825 1.757332 0.198208
v 0.027657 1.658229 0.222606
v 0.093302 1.662760 0.116130
v 0.099189 1.740732 0.091336
v 0.089844 1.676116 0.090618
v 0.119776 1.744628 0.089832
v 0.011966 1.235622 -0.144671
v -0.008582 1.149331 0.225163
v -0.201938 1.148668 0.155262
v -0.172591 1.218425 -0.100253
v -0.189968 0.838139 0.093131
v -0.179624 1.475560 0.152619
v -0.183429 0.900487 -0.135555
v -0.193324 1.561448 -0.016565
v 0.006812 1.606524 -0.027776
v 0.016272 0.892068 -0.212217
v 0.013751 1.496538 0.184256
v -0.006913 0.878426 0.193602
v -0.204801 0.838713 0.110908
v -0.215887 0.901124 -0.167081
v 0.012933 0.842327 -0.157143
v -0.005080 0.880880 0.134520
v 0.013197 0.893484 -0.157613
v -0.010946 0.830908 0.136980
v -0.225107 0.773862 -0.152603
v -0.042968 0.749893 -0.189660
v -0.227779 0.556236 -0.259504
v -0.217871 0.449832 -0.160672
v -0.219581 0.511408 -0.112635
v -0.224892 0.567658 -0.231077
v -0.106921 0.498788 -0.100389
v -0.096168 0.563642 -0.233526
v -0.105431 0.445080 -0.142620
v -0.098937 0.560160 -0.257106
v -0.221398 0.452667 -0.403859
v -0.221568 0.353772 -0.296758
v -0.098211 0.345676 -0.277189
v -0.077386 0.456903 -0.396281
v -0.147638 0.190477 -0.562306
v -0.160949 0.208411 -0.494185
v -0.081166 0.222011 -0.473911
v -0.063296 0.215508 -0.545316
v -0.069108 0.675059 0.040258
v -0.216693 0.708645 0.029541
v 0.011266 1.574538 0.083863
v -0.142178 1.555736 0.090546
v -0.065967 0.146486 -0.450234
v -0.052534 0.133527 -0.569010
v -0.139825 0.123778 -0.572705
v -0.169758 0.136899 -0.470147
v -0.079139 0.273645 -0.343750
v -0.163182 0.267122 -0.357398
v -0.062296 0.261922 -0.290436
v -0.185370 0.250537 -0.309901
v -0.065228 0.196763 -0.378450
v -0.076805 0.251167 -0.410985
v -0.177544 0.186560 -0.396400
v -0.159525 0.240586 -0.427324
v -0.129248 1.355579 0.143280
v -0.107102 1.579010 0.082386
v -0.155171 1.341181 -0.011477
v -0.128638 1.559346 -0.038954
v -0.264687 1.378378 0.135489
v -0.225002 1.532475 0.068588
v -0.285346 1.365645 0.011887
v -0.246402 1.530350 -0.006673
v -0.188662 1.208327 0.160309
v -0.198984 1.156456 0.031856
v -0.290196 1.225747 0.161279
v -0.306604 1.184151 0.042538
v -0.153839 0.914520 0.304668
v -0.163317 1.211328 0.118740
v -0.222904 0.853770 0.204548
v -0.217986 1.166953 0.020268
v -0.244147 0.934840 0.349364
v -0.263287 1.243719 0.161990
v -0.305867 0.872437 0.245608
v -0.310975 1.197083 0.060497
v -0.155141 1.081054 0.188510
v -0.211754 1.025090 0.099567
v -0.327649 1.064438 0.148576
v -0.266123 1.125259 0.245239
v -0.162527 0.868498 0.359540
v -0.177774 0.916351 0.292283
v -0.218120 0.789381 0.241375
v -0.228639 0.866673 0.212736
v -0.213006 0.846595 0.363685
v -0.237032 0.923663 0.325607
v -0.278441 0.796824 0.275298
v -0.287897 0.873985 0.246060
v -0.189971 0.726735 0.279352
v -0.133089 0.757397 0.369914
v -0.227749 0.737910 0.295026
v -0.185506 0.777324 0.374627
v -0.165499 0.839853 0.346110
v 0.011115 1.735137 0.010597
v 0.006152 1.692679 0.242902
v -0.072556 1.689271 0.192705
v -0.057751 1.729749 0.039275
v -0.052381 1.615764 0.175038
v -0.056334 1.836600 0.187090
v -0.061185 1.665489 0.060221
v -0.044117 1.852925 0.071345
v 0.010787 1.858457 0.048552
v 0.010452 1.660143 0.035467
v 0.006980 1.855519 0.209298
v 0.006829 1.582662 0.202087
v -0.008985 1.692116 0.232040
v -0.022075 1.589445 0.195226
v -0.033179 1.649850 0.056086
v -0.020288 1.850626 0.202919
v -0.066264 1.845786 0.129824
v -0.070297 1.639696 0.107780
v -0.086466 1.725915 0.124834
v 0.008612 1.880334 0.132132
v 0.008086 1.607398 0.144147
v -0.019646 1.880098 0.131459
v -0.035254 1.615432 0.125781
v -0.034591 1.536146 0.007530
v 0.011400 1.530266 -0.012787
v 0.009114 1.486966 0.095711
v -0.036757 1.504871 0.083300
v -0.025214 1.758960 0.221092
v 0.006460 1.758945 0.232932
v -0.074298 1.757419 0.194723
v 0.006470 1.648980 0.223824
v 0.104865 1.765942 0.130820
v -0.063657 1.765374 0.040305
v 0.084685 1.765102 0.043421
v 0.011212 1.771880 0.009232
v 0.006066 1.650756 0.243297
v -0.014615 1.658071 0.221786
v -0.075709 1.663038 0.112589
v -0.080248 1.741063 0.087567
v -0.071130 1.676396 0.087244
v -0.100740 1.745033 0.085201
v -0.087342 1.770983 0.127012
vn 0.3915 0.1271 -0.9114
vn 0.9959 0.0833 0.0360
vn 0.3100 -0.0103 -0.9507
vn 0.9991 -0.0404 -0.0096
vn 0.1715 0.7276 0.6642
vn 0.1737 0.2394 -0.9553
vn 0.2998 -0.0704 0.9514
vn 0.2234 0.0999 0.9696
vn -0.0777 -0.9411 0.3291
vn 0.2050 -0.9761 -0.0720
vn -0.2118 -0.9718 -0.1033
vn -0.0087 -0.0967 -0.9953
vn -0.1265 0.5789 0.8055
vn 0.0377 0.0447 0.9983
vn -0.9980 -0.0158 0.0612
vn 0.1370 -0.5424 -0.8289
vn 0.9992 -0.0008 0.0405
vn -0.9775 -0.1406 0.1573
vn 0.1109 0.2591 0.9595
vn 0.1487 0.2788 0.9488
vn -0.0029 0.2030 -0.9792
vn 0.9989 0.0260 0.0381
vn 0.9768 -0.2117 -0.0335
vn 0.9993 0.0326 0.0159
vn 0.1472 0.0790 0.9859
vn -0.9962 0.0503 0.0718
vn -0.9603 0.2662 -0.0833
vn -0.0322 -0.4449 -0.8950
vn 0.1991 0.1947 0.9604
vn -0.9892 0.0628 0.1328
vn -0.8715 -0.4826 0.0872
vn 0.9639 0.2491 -0.0943
vn 0.2365 -0.6357 -0.7349
vn 0.1765 0.9644 0.1971
vn 0.7254 0.6051 0.3280
vn -0.0290 -0.9930 -0.1148
vn -0.9818 0.0929 0.1659
vn 0.9626 0.0768 -0.2598
vn -0.0201 0.1356 -0.9906
vn 0.1286 0.8590 0.4956
vn 0.0195 -0.9366 0.3500
vn 0.0435 0.9967 -0.0678
vn 0.9230 0.3573 -0.1425
vn 0.9807 0.1956 0.0090
vn 0.0690 0.9327 0.3539
vn -0.0146 -0.9989 -0.0451
vn -0.9848 0.1735 -0.0076
vn -0.9943 -0.0664 -0.0832
vn 0.1283 0.3959 -0.9093
vn 0.9676 0.1766 0.1803
vn 0.3332 -0.2109 0.9190
vn 0.1210 -0.3586 0.9256
vn 0.3392 0.8544 0.3937
vn 0.1801 -0.9721 -0.1501
vn 0.9931 0.1004 0.0606
vn -0.9621 -0.2606 -0.0804
vn 0.0584 0.3333 -0.9410
vn -0.9810 -0.1755 -0.0826
vn 0.0351 0.1551 -0.9873
vn 0.9992 0.0263 0.0315
vn -0.0876 -0.1061 0.9905
vn 0.0914 -0.9870 -0.1325
vn -0.1960 0.9527 0.2322
vn -0.0825 -0.1258 0.9886
vn 0.9739 0.2251 0.0293
vn 0.0351 0.1473 -0.9885
vn -0.9960 -0.0823 -0.0356
vn -1.0000 -0.0071 0.0016
vn 0.1053 -0.1037 0.9890
vn 0.0743 0.4246 -0.9023
vn 0.0444 0.2374 -0.9704
vn 0.9929 -0.0996 0.0653
vn 0.1139 -0.8768 0.4671
vn 0.1817 -0.2931 0.9387
vn 0.0156 0.9922 0.1241
vn 0.2930 -0.9233 -0.2484
vn 0.8938 -0.4470 -0.0368
vn -0.9699 0.2368 0.0574
vn 0.0420 -0.0417 -0.9982
vn -0.9650 -0.0592 0.2556
vn 0.5402 -0.1443 0.8291
vn -0.0321 0.3100 0.9502
vn 0.3424 0.0156 0.9394
vn 0.4222 0.1873 0.8869
vn -0.3812 -0.0349 -0.9239
vn 0.9544 -0.2493 0.1644
vn 0.5475 -0.2607 0.7952
vn 0.4213 -0.7984 -0.4301
vn -0.9826 -0.0280 0.1837
vn 0.1434 0.9454 -0.2925
vn 0.6435 -0.0483 0.7639
vn 0.2607 0.2137 0.9415
vn 0.5772 0.8109 -0.0962
vn 0.9995 0.0203 0.0229
vn 0.3841 -0.2937 -0.8754
vn 0.0757 -0.9293 -0.3616
vn 0.5006 0.8107 0.3035
vn 0.0972 0.9340 0.3439
vn 0.9320 0.2710 -0.2405
vn 0.5383 -0.8278 -0.1581
vn 0.9448 -0.1229 -0.3039
vn 0.2777 -0.8923 -0.3561
vn 0.4408 0.3381 -0.8315
vn 0.3563 -0.3362 0.8718
vn 0.9406 0.2300 0.2496
vn 0.3682 -0.2923 -0.8826
vn 0.2246 -0.3125 0.9230
vn 0.4028 -0.9107 0.0914
vn -0.0770 0.0222 -0.9968
vn 0.9361 -0.2128 0.2800
vn -0.1442 0.9111 0.3862
vn 0.8675 -0.3826 -0.3179
vn -0.2094 0.2067 -0.9557
vn -0.9970 0.0761 -0.0153
vn -0.1118 -0.0086 -0.9937
vn -0.9994 0.0065 -0.0344
vn -0.1318 0.7243 0.6768
vn -0.1793 0.2601 -0.9488
vn -0.3499 -0.1207 0.9290
vn -0.1735 0.1262 0.9767
vn 0.0447 -0.9699 -0.2392
vn 0.2042 -0.9787 0.0203
vn -0.0342 -0.9992 0.0207
vn -0.0026 0.8078 -0.5895
vn -0.2009 -0.4337 0.8784
vn -0.2344 0.0752 0.9692
vn 0.9980 -0.0557 0.0290
vn -0.0926 0.3077 -0.9470
vn -0.9991 -0.0150 0.0396
vn 0.9694 -0.2454 0.0041
vn -0.1735 -0.5824 0.7942
vn -0.1517 -0.6120 0.7762
vn 0.0003 0.9613 -0.2755
vn -0.9984 -0.0320 0.0460
vn -0.9705 -0.1816 -0.1586
vn -0.9993 -0.0333 0.0141
vn -0.1362 -0.8040 0.5789
vn 0.9940 -0.0069 0.1096
vn 0.9621 0.2358 -0.1368
vn 0.0244 0.5241 -0.8513
vn -0.0854 -0.8307 0.5502
vn 0.9844 -0.0693 0.1618
vn 0.9053 -0.4245 0.0165
vn -0.9690 0.2345 0.0772
vn -0.0928 0.2589 -0.9614
vn -0.1637 0.9644 0.2078
vn -0.7008 0.6116 0.3672
vn 0.0835 -0.9876 0.1327
vn 0.9764 0.1609 0.1442
vn -0.9700 -0.0170 -0.2427
vn 0.0701 0.2313 -0.9704
vn -0.1246 0.9570 0.2621
vn -0.0207 -0.8040 0.5943
vn -0.0358 0.9406 -0.3377
vn -0.9332 0.2772 -0.2289
vn -0.9796 0.1514 -0.1324
vn -0.0387 0.9041 -0.4255
vn -0.0235 -0.8246 0.5652
vn 0.9811 0.1483 -0.1246
vn 0.9788 -0.1382 -0.1512
vn -0.2421 -0.0922 -0.9659
vn -0.9431 0.2805 0.1785
vn -0.2187 0.2767 0.9357
vn -0.0043 0.1425 0.9898
vn -0.3077 0.9507 -0.0382
vn -0.1769 -0.9141 0.3648
vn -0.9809 0.1567 0.1149
vn 0.9511 -0.3049 -0.0504
vn -0.1752 -0.1650 -0.9706
vn 0.8699 -0.2876 -0.4007
vn -0.4738 -0.4385 -0.7637
vn -0.8794 0.1389 0.4554
vn 0.5127 0.4749 0.7153
vn 0.0488 -0.8685 0.4933
vn 0.0924 0.8876 -0.4513
vn 0.5111 0.4583 0.7272
vn -0.8952 0.2965 0.3326
vn -0.4729 -0.4455 -0.7602
vn 0.8854 -0.1864 -0.4259
vn 0.8904 -0.1054 -0.4427
vn 0.0137 0.3952 0.9185
vn -0.1883 -0.0659 -0.9799
vn -0.4906 -0.3607 -0.7932
vn -0.8362 0.0566 0.5456
vn 0.2584 -0.4319 0.8641
vn 0.2868 0.3200 0.9029
vn -0.1472 0.8785 -0.4545
vn -0.1920 -0.8630 0.4672
vn -0.7260 -0.2942 0.6216
vn 0.8415 0.1277 -0.5249
vn -0.4480 -0.6036 -0.6595
vn 0.9755 0.0018 -0.2198
vn -0.1053 0.4139 0.9042
vn 0.3690 0.7948 0.4818
vn -0.3399 0.0308 0.9400
vn -0.4639 0.1928 0.8647
vn 0.4195 -0.0363 -0.9070
vn -0.9613 -0.2457 0.1244
vn -0.5823 -0.2580 0.7709
vn -0.4057 -0.7967 -0.4479
vn 0.4200 0.3778 -0.8252
vn -0.1450 0.9430 -0.2994
vn -0.6745 -0.0449 0.7369
vn -0.3046 0.2149 0.9279
vn -0.3843 0.3818 -0.8405
vn -0.5854 0.8012 -0.1239
vn -0.9996 0.0210 -0.0197
vn -0.3481 -0.2923 -0.8907
vn -0.0635 -0.9292 -0.3641
vn -0.5280 0.8021 0.2790
vn -0.1291 0.9321 0.3385
vn -0.9140 0.2882 -0.2855
vn -0.5341 -0.8260 -0.1801
vn -0.9316 -0.1193 -0.3433
vn -0.2626 -0.8922 -0.3674
vn -0.4047 0.3384 -0.8495
vn -0.3930 -0.3361 0.8559
vn -0.5035 -0.0099 0.8639
vn -0.4355 0.0887 0.8958
vn 0.3968 0.0875 0.9137
vn 0.4663 -0.0118 0.8845
vn -0.3318 -0.2909 -0.8974
vn -0.2619 -0.3130 0.9129
vn -0.4009 -0.9130 0.0749
vn 0.1189 0.0217 -0.9927
vn -0.9479 -0.2090 0.2406
vn 0.1312 0.9106 0.3920
vn -0.8548 -0.3793 -0.3543
vn 0.9732 -0.0373 0.2269
vn 0.9699 0.0001 -0.2434
vn -0.9823 -0.0306 0.1848
vn 0.9736 -0.0346 0.2257
vn -0.9443 0.2463 0.2184
vn -0.9597 0.0063 -0.2811
vt 0.769832 0.195645
vt 0.775252 0.120749
vt 0.898457 0.115387
vt 0.893855 0.199439
vt 0.779478 0.033265
vt 0.875888 0.020883
vt 0.079276 0.380758
vt 0.015809 0.352495
vt 0.092810 0.349129
vt 0.640892 0.115732
vt 0.651808 0.045918
vt 0.972902 0.747099
vt 0.945788 0.808209
vt 0.869285 0.817542
vt 0.869303 0.746010
vt 0.623064 0.191154
vt 0.978616 0.563599
vt 0.869350 0.563483
vt 0.869382 0.439703
vt 0.981068 0.426748
vt 0.887298 0.020144
vt 0.903448 0.092046
vt 0.869386 0.423683
vt 0.966087 0.423037
vt 0.919014 0.125551
vt 0.901661 0.199678
vt 0.080227 0.193471
vt 0.035111 0.194551
vt 0.029851 0.129329
vt 0.078457 0.129531
vt 0.524664 0.024934
vt 0.453935 0.048979
vt 0.476762 0.096074
vt 0.529992 0.085338
vt 0.458519 0.014915
vt 0.140591 0.209945
vt 0.084060 0.210053
vt 0.139428 0.189660
vt 0.088688 0.293915
vt 0.019697 0.289600
vt 0.036330 0.210891
vt 0.589766 0.089175
vt 0.538912 0.169399
vt 0.588096 0.171055
vt 0.169119 0.280272
vt 0.494132 0.172296
vt 0.495777 0.194811
vt 0.540097 0.192752
vt 0.594693 0.186440
vt 0.602720 0.254314
vt 0.550300 0.251019
vt 0.546511 0.359212
vt 0.576655 0.358602
vt 0.502818 0.254080
vt 0.133655 0.131663
vt 0.460444 0.638059
vt 0.461859 0.667341
vt 0.511272 0.661029
vt 0.492341 0.643217
vt 0.059953 0.028917
vt 0.089979 0.037143
vt 0.513486 0.356281
vt 0.126069 0.032173
vt 0.187391 0.328606
vt 0.600139 0.026470
vt 0.980612 0.851849
vt 0.869271 0.873069
vt 0.214036 0.700438
vt 0.168892 0.698897
vt 0.170775 0.659242
vt 0.208186 0.653496
vt 0.429138 0.636018
vt 0.382088 0.640297
vt 0.380987 0.679254
vt 0.425514 0.672609
vt 0.172591 0.619486
vt 0.211119 0.618494
vt 0.342980 0.638844
vt 0.341450 0.677655
vt 0.504441 0.606319
vt 0.529468 0.607110
vt 0.250819 0.702808
vt 0.243337 0.651469
vt 0.292311 0.649141
vt 0.300801 0.705699
vt 0.244056 0.622019
vt 0.258050 0.585846
vt 0.290061 0.591615
vt 0.277688 0.628694
vt 0.226990 0.579872
vt 0.239778 0.437910
vt 0.241642 0.380815
vt 0.334062 0.371731
vt 0.335105 0.430080
vt 0.244961 0.564466
vt 0.270260 0.519900
vt 0.334573 0.576660
vt 0.267325 0.484741
vt 0.339743 0.479221
vt 0.337393 0.523671
vt 0.397256 0.433766
vt 0.400592 0.476589
vt 0.218167 0.523740
vt 0.216842 0.468389
vt 0.934188 0.071641
vt 0.985147 0.071450
vt 0.980416 0.114135
vt 0.934188 0.111273
vt 0.409685 0.525397
vt 0.413123 0.381914
vt 0.413123 0.570440
vt 0.588235 0.616390
vt 0.541774 0.616014
vt 0.540412 0.699472
vt 0.594290 0.698674
vt 0.733169 0.616366
vt 0.683834 0.612729
vt 0.688349 0.697632
vt 0.724849 0.697622
vt 0.637083 0.612063
vt 0.634642 0.698467
vt 0.933176 0.242559
vt 0.985452 0.244219
vt 0.985670 0.280546
vt 0.933413 0.282101
vt 0.980360 0.291116
vt 0.933814 0.295150
vt 0.933988 0.335813
vt 0.980548 0.334832
vt 0.637975 0.554612
vt 0.592385 0.555443
vt 0.685764 0.549762
vt 0.727568 0.549351
vt 0.544847 0.548303
vt 0.557765 0.809694
vt 0.510229 0.803468
vt 0.511171 0.765578
vt 0.565124 0.764368
vt 0.479691 0.799649
vt 0.486340 0.766582
vt 0.437092 0.787533
vt 0.443585 0.748829
vt 0.425923 0.754711
vt 0.422123 0.742946
vt 0.429690 0.730629
vt 0.447798 0.694577
vt 0.457086 0.718428
vt 0.949739 0.404064
vt 0.949739 0.353270
vt 0.982292 0.353270
vt 0.982292 0.404064
vt 0.460533 0.693281
vt 0.502277 0.717435
vt 0.495857 0.735141
vt 0.514016 0.729944
vt 0.562185 0.720311
vt 0.408828 0.775679
vt 0.278149 0.967649
vt 0.246334 0.979776
vt 0.249708 0.914564
vt 0.277992 0.912907
vt 0.013923 0.884272
vt 0.022151 0.852843
vt 0.077991 0.867331
vt 0.074449 0.892252
vt 0.315578 0.881871
vt 0.272833 0.868911
vt 0.266436 0.823662
vt 0.311469 0.826118
vt 0.312630 0.841540
vt 0.233032 0.873502
vt 0.237034 0.853143
vt 0.243726 0.809688
vt 0.293162 0.797592
vt 0.353002 0.808376
vt 0.344750 0.831707
vt 0.171111 0.912654
vt 0.129263 0.910165
vt 0.133762 0.881302
vt 0.504295 0.904470
vt 0.456722 0.873442
vt 0.486878 0.832177
vt 0.523186 0.892354
vt 0.393060 0.750737
vt 0.369166 0.770382
vt 0.342151 0.723866
vt 0.371660 0.694150
vt 0.224422 0.982399
vt 0.224589 0.913793
vt 0.464697 0.929008
vt 0.510943 0.418646
vt 0.509620 0.457222
vt 0.450276 0.457321
vt 0.451259 0.416801
vt 0.371260 0.868269
vt 0.391399 0.792592
vt 0.427034 0.854273
vt 0.224914 0.800301
vt 0.250611 0.780243
vt 0.499027 0.969201
vt 0.535560 0.959128
vt 0.557854 0.949811
vt 0.378068 0.967627
vt 0.326324 0.969178
vt 0.319455 0.907637
vt 0.374611 0.893121
vt 0.340158 0.885118
vt 0.330117 0.844664
vt 0.450534 0.480546
vt 0.422105 0.480397
vt 0.434613 0.451640
vt 0.511818 0.394240
vt 0.445658 0.392364
vt 0.509788 0.480859
vt 0.224768 0.847580
vt 0.329170 0.701515
vt 0.145363 0.785723
vt 0.128390 0.783055
vt 0.170261 0.738493
vt 0.116930 0.746993
vt 0.160651 0.716692
vt 0.111510 0.779844
vt 0.893310 0.283615
vt 0.770664 0.270731
vt 0.865483 0.388919
vt 0.769534 0.358310
vt 0.423897 0.371814
vt 0.408299 0.341150
vt 0.485355 0.339413
vt 0.636248 0.267526
vt 0.642876 0.337877
vt 0.765704 0.747046
vt 0.792786 0.808169
vt 0.760084 0.563543
vt 0.757703 0.426691
vt 0.876826 0.390354
vt 0.896865 0.307217
vt 0.772687 0.422987
vt 0.914451 0.274726
vt 0.410556 0.185000
vt 0.408092 0.121083
vt 0.456578 0.117665
vt 0.455645 0.183093
vt 0.253560 0.018334
vt 0.251430 0.078936
vt 0.305153 0.086844
vt 0.325460 0.038610
vt 0.319084 0.004836
vt 0.351414 0.205432
vt 0.351233 0.185114
vt 0.407829 0.201799
vt 0.408760 0.285783
vt 0.455510 0.199477
vt 0.477314 0.276913
vt 0.191942 0.085924
vt 0.197935 0.167602
vt 0.246963 0.163350
vt 0.327602 0.277492
vt 0.291833 0.163878
vt 0.247013 0.186734
vt 0.291379 0.186449
vt 0.192159 0.183314
vt 0.187729 0.251517
vt 0.219266 0.354283
vt 0.249400 0.353300
vt 0.239901 0.245457
vt 0.287479 0.246007
vt 0.353156 0.126862
vt 0.373466 0.625371
vt 0.341578 0.620155
vt 0.322681 0.602307
vt 0.372105 0.596087
vt 0.390482 0.029659
vt 0.419898 0.019465
vt 0.282224 0.348629
vt 0.354142 0.027088
vt 0.312568 0.326929
vt 0.178272 0.023855
vt 0.757941 0.851792
vt 0.013855 0.710087
vt 0.062637 0.719760
vt 0.053791 0.758555
vt 0.012068 0.757539
vt 0.404768 0.627471
vt 0.408460 0.590887
vt 0.452999 0.584325
vt 0.451825 0.623280
vt 0.095615 0.759647
vt 0.099560 0.719322
vt 0.492533 0.585997
vt 0.490931 0.624805
vt 0.329410 0.657029
vt 0.304385 0.656192
vt 0.014143 0.671338
vt 0.013329 0.626462
vt 0.071995 0.639628
vt 0.067412 0.683054
vt 0.098346 0.684520
vt 0.093882 0.648751
vt 0.133695 0.638573
vt 0.137331 0.672574
vt 0.141254 0.705593
vt 0.185664 0.538131
vt 0.086734 0.549483
vt 0.089781 0.610162
vt 0.185643 0.597604
vt 0.176017 0.406617
vt 0.082362 0.396940
vt 0.151191 0.453841
vt 0.081208 0.452173
vt 0.080256 0.498505
vt 0.155426 0.490326
vt 0.011387 0.503289
vt 0.011387 0.547736
vt 0.208505 0.505645
vt 0.205267 0.448094
vt 0.933051 0.227541
vt 0.935500 0.187984
vt 0.981816 0.187984
vt 0.983901 0.230880
vt 0.011387 0.452807
vt 0.011387 0.602224
vt 0.011387 0.406053
vt 0.685388 0.464625
vt 0.679517 0.382326
vt 0.733395 0.381660
vt 0.731848 0.465114
vt 0.540455 0.464294
vt 0.548955 0.383058
vt 0.585455 0.383138
vt 0.589782 0.468052
vt 0.639164 0.382434
vt 0.636531 0.468832
vt 0.926036 0.053242
vt 0.926036 0.013699
vt 0.978301 0.014940
vt 0.978301 0.051267
vt 0.941318 0.172865
vt 0.942408 0.129162
vt 0.988977 0.129542
vt 0.987962 0.170192
vt 0.635511 0.526281
vt 0.681104 0.525562
vt 0.587712 0.531014
vt 0.545907 0.531323
vt 0.728625 0.532818
vt 0.736669 0.725394
vt 0.735353 0.771722
vt 0.683130 0.758703
vt 0.689295 0.721117
vt 0.659178 0.752270
vt 0.658895 0.718191
vt 0.614298 0.760413
vt 0.615218 0.720808
vt 0.598227 0.750739
vt 0.592334 0.761513
vt 0.621741 0.793364
vt 0.608255 0.814858
vt 0.597389 0.775323
vt 0.902963 0.354102
vt 0.935516 0.354102
vt 0.935516 0.404895
vt 0.902963 0.404895
vt 0.620394 0.818928
vt 0.662554 0.785374
vt 0.665487 0.804249
vt 0.724263 0.814542
vt 0.679237 0.794482
vt 0.585527 0.726307
vt 0.170921 0.966691
vt 0.199450 0.914463
vt 0.202557 0.979360
vt 0.434990 0.885665
vt 0.136920 0.840949
vt 0.138178 0.825523
vt 0.183245 0.823379
vt 0.176564 0.868613
vt 0.206044 0.809560
vt 0.212468 0.853064
vt 0.216352 0.873452
vt 0.156680 0.797114
vt 0.104811 0.830875
vt 0.096708 0.807441
vt 0.427703 0.967162
vt 0.542713 0.881290
vt 0.537443 0.824738
vt 0.340263 0.781402
vt 0.301717 0.734772
vt 0.020099 0.966282
vt 0.069986 0.966279
vt 0.582883 0.857700
vt 0.510287 0.543080
vt 0.450588 0.544296
vt 0.450031 0.503768
vt 0.509371 0.504492
vt 0.058337 0.791326
vt 0.199393 0.779972
vt 0.602434 0.906809
vt 0.576490 0.934433
vt 0.122173 0.967791
vt 0.119390 0.843962
vt 0.109116 0.884444
vt 0.434309 0.509284
vt 0.510905 0.567494
vt 0.444729 0.568673
vt 0.612579 0.943799
vt 0.704302 0.960286
vt 0.690069 0.863893
vt 0.628178 0.846809
vt 0.727017 0.964931
vt 0.742045 0.877429
vt 0.749981 0.968131
vt 0.795559 0.882010
vt 0.849700 0.973890
vt 0.859604 0.886554
vt 0.262137 0.727847
vt 0.208247 0.720642
vt 0.265551 0.745007
vt 0.235108 0.768630
vt 0.190786 0.737487
vt 0.268411 0.762268
s 0
f 103/1/1 2/2/1 8/3/1 112/4/1
f 2/2/2 1/5/2 7/6/2 8/3/2
f 119/7/3 5/8/3 117/9/3
f 6/10/4 4/11/4 1/5/4 2/2/4
f 4/12/5 29/13/5 141/14/5 113/15/5
f 111/16/6 6/10/6 2/2/6 103/1/6
f 1/17/7 104/18/7 114/19/7 7/20/7
f 4/12/8 113/15/8 104/18/8
f 3/21/9 5/22/9 8/3/9 7/6/9
f 118/23/10 3/24/10 7/20/10 114/19/10
f 5/25/11 119/26/11 112/4/11 8/3/11
f 18/27/12 11/28/12 19/29/12 22/30/12
f 3/31/13 120/32/13 27/33/13 28/34/13
f 3/31/14 118/35/14 120/32/14
f 15/36/15 16/37/15 18/27/15 17/38/15
f 10/39/16 9/40/16 14/41/16 16/37/16
f 9/42/17 28/34/17 13/43/17 14/44/17
f 27/45/18 10/39/18 16/37/18 15/36/18
f 28/34/19 27/33/19 15/46/19 13/43/19
f 13/43/20 15/46/20 17/47/20 12/48/20
f 16/37/21 14/41/21 11/28/21 18/27/21
f 14/44/22 13/43/22 12/48/22 11/49/22
f 19/50/23 20/51/23 24/52/23 23/53/23
f 11/49/24 12/48/24 20/51/24 19/50/24
f 12/48/25 17/47/25 21/54/25 20/51/25
f 17/38/26 18/27/26 22/30/26 21/55/26
f 39/56/27 38/57/27 36/58/27 34/59/27
f 22/30/28 19/29/28 23/60/28 26/61/28
f 20/51/29 21/54/29 25/62/29 24/52/29
f 21/55/30 22/30/30 26/61/30 25/63/30
f 120/64/31 117/9/31 10/39/31 27/45/31
f 5/65/32 3/31/32 28/34/32 9/42/32
f 117/9/33 5/8/33 9/40/33 10/39/33
f 141/14/34 29/13/34 6/66/34 111/67/34
f 6/66/35 29/13/35 4/12/35
f 30/68/36 31/69/36 32/70/36 33/71/36
f 25/72/37 26/73/37 31/74/37 30/75/37
f 23/76/38 24/77/38 33/71/38 32/70/38
f 26/73/39 23/78/39 32/79/39 31/74/39
f 35/80/40 34/59/40 36/58/40 37/81/40
f 38/82/41 40/83/41 37/84/41 36/85/41
f 41/86/42 39/87/42 34/88/42 35/89/42
f 40/83/43 41/86/43 35/89/43 37/84/43
f 33/71/44 24/77/44 41/86/44 40/83/44
f 24/77/45 25/90/45 39/87/45 41/86/45
f 30/68/46 33/71/46 40/83/46 38/82/46
f 25/72/47 30/75/47 38/57/47 39/56/47
f 43/91/48 45/92/48 44/93/48 42/94/48
f 45/95/49 49/96/49 44/97/49
f 49/96/50 47/98/50 46/99/50 48/100/50
f 47/98/51 43/91/51 42/94/51
f 46/99/52 42/94/52 50/101/52 52/102/52
f 47/98/53 49/96/53 45/103/53 43/104/53
f 50/105/54 51/106/54 53/107/54 52/108/54
f 48/100/55 46/99/55 52/102/55 53/109/55
f 42/94/56 44/93/56 51/110/56 50/101/56
f 44/97/57 48/100/57 53/109/57 51/111/57
f 62/112/58 63/113/58 56/114/58 54/115/58
f 63/116/59 64/117/59 60/118/59 56/119/59
f 64/117/60 65/120/60 58/121/60 60/118/60
f 65/120/61 62/112/61 54/115/61 58/121/61
f 54/122/62 56/123/62 60/124/62 58/125/62
f 59/126/63 61/127/63 57/128/63 55/129/63
f 59/130/64 55/131/64 62/112/64 65/120/64
f 61/132/65 59/130/65 65/120/65 64/117/65
f 57/133/66 61/132/66 64/117/66 63/116/66
f 55/131/67 57/134/67 63/113/67 62/112/67
f 67/135/68 69/136/68 68/137/68 78/138/68
f 42/94/69 46/99/69 47/98/69
f 44/97/70 49/96/70 48/100/70
f 69/136/71 73/139/71 72/140/71 68/137/71
f 73/139/72 71/141/72 70/142/72 72/140/72
f 66/143/73 78/144/73 70/142/73
f 70/142/74 78/145/74 75/146/74 77/147/74
f 71/148/75 73/149/75 69/150/75 67/151/75
f 75/152/76 74/153/76 76/154/76 77/147/76
f 72/140/77 70/142/77 77/147/77 76/154/77
f 78/138/78 68/137/78 74/155/78 75/156/78
f 68/137/79 72/140/79 76/154/79 74/155/79
f 67/157/80 78/144/80 66/143/80
f 71/141/81 66/143/81 70/142/81
f 67/157/82 66/143/82 71/141/82
f 104/18/83 1/17/83 4/12/83
f 82/158/84 88/159/84 96/160/84 97/161/84
f 226/162/85 192/163/85 195/164/85 224/165/85
f 91/166/86 79/167/86 81/168/86 90/169/86 99/170/86
f 79/167/87 85/171/87 98/172/87 86/173/87 81/168/87
f 93/174/88 87/175/88 83/176/88 90/169/88
f 221/177/89 233/178/89 210/179/89
f 92/180/90 84/181/90 200/182/90 211/183/90
f 85/184/91 193/185/91 227/186/91 98/187/91
f 88/159/92 202/188/92 220/189/92 96/160/92
f 89/190/93 84/181/93 92/180/93
f 87/191/94 93/192/94 95/193/94 94/194/94
f 80/195/95 201/196/95 192/197/95
f 203/198/96 212/199/96 93/174/96 86/173/96
f 82/200/97 89/190/97 92/180/97 88/201/97
f 88/201/98 92/180/98 211/183/98 202/202/98
f 84/203/99 89/204/99 223/205/99 225/206/99
f 86/173/100 93/174/100 90/169/100 81/168/100
f 80/195/101 100/207/101 101/208/101 99/170/101 90/169/101 83/176/101
f 217/209/102 216/210/102 94/211/102 95/193/102
f 201/212/103 87/191/103 94/194/103 216/213/103
f 93/192/104 212/214/104 217/209/104 95/193/104
f 89/204/105 82/158/105 97/161/105 223/205/105
f 87/175/106 201/196/106 80/195/106 83/176/106
f 98/172/107 222/215/107 203/198/107 86/173/107
f 222/216/108 98/187/108 227/186/108
f 100/217/109 102/218/109 101/219/109
f 91/220/110 99/221/110 102/218/110
f 100/222/111 91/220/111 102/218/111
f 102/218/112 99/221/112 101/219/112
f 103/1/113 112/4/113 116/223/113 106/224/113
f 106/224/114 116/223/114 115/225/114 105/226/114
f 119/227/115 117/228/115 109/229/115
f 110/230/116 106/224/116 105/226/116 108/231/116
f 108/232/117 113/15/117 141/14/117 142/233/117
f 111/16/118 103/1/118 106/224/118 110/230/118
f 105/234/119 115/235/119 114/19/119 104/18/119
f 108/232/120 104/18/120 113/15/120
f 107/236/121 115/225/121 116/223/121 109/237/121
f 118/23/122 114/19/122 115/235/122 107/238/122
f 109/239/123 116/223/123 112/4/123 119/26/123
f 130/240/124 134/241/124 131/242/124 123/243/124
f 107/244/125 140/245/125 139/246/125 120/247/125
f 107/244/126 120/247/126 118/248/126
f 127/249/127 129/250/127 130/240/127 128/251/127
f 122/252/128 128/251/128 126/253/128 121/254/128
f 121/255/129 126/256/129 125/257/129 140/245/129
f 139/258/130 127/249/130 128/251/130 122/252/130
f 140/245/131 125/257/131 127/259/131 139/246/131
f 125/257/132 124/260/132 129/261/132 127/259/132
f 128/251/133 130/240/133 123/243/133 126/253/133
f 126/256/134 123/262/134 124/260/134 125/257/134
f 131/263/135 135/264/135 136/265/135 132/266/135
f 123/262/136 131/263/136 132/266/136 124/260/136
f 124/260/137 132/266/137 133/267/137 129/261/137
f 129/250/138 133/268/138 134/241/138 130/240/138
f 152/269/139 147/270/139 149/271/139 151/272/139
f 134/241/140 138/273/140 135/274/140 131/242/140
f 132/266/141 136/265/141 137/275/141 133/267/141
f 133/268/142 137/276/142 138/273/142 134/241/142
f 120/277/143 139/258/143 122/252/143 117/228/143
f 109/278/144 121/255/144 140/245/144 107/244/144
f 117/228/145 122/252/145 121/254/145 109/229/145
f 141/14/146 111/67/146 110/279/146 142/233/146
f 110/279/147 108/232/147 142/233/147
f 143/280/148 146/281/148 145/282/148 144/283/148
f 137/284/149 143/285/149 144/286/149 138/287/149
f 135/288/150 145/282/150 146/281/150 136/289/150
f 138/287/151 144/286/151 145/290/151 135/291/151
f 148/292/152 150/293/152 149/271/152 147/270/152
f 151/294/153 149/295/153 150/296/153 153/297/153
f 154/298/154 148/299/154 147/300/154 152/301/154
f 153/297/155 150/296/155 148/299/155 154/298/155
f 146/281/156 153/297/156 154/298/156 136/289/156
f 136/289/157 154/298/157 152/301/157 137/302/157
f 143/280/158 151/294/158 153/297/158 146/281/158
f 137/284/159 152/269/159 151/272/159 143/285/159
f 156/303/160 155/304/160 157/305/160 158/306/160
f 158/307/161 157/308/161 162/309/161
f 162/309/162 161/310/162 159/311/162 160/312/162
f 160/312/163 155/304/163 156/303/163
f 159/311/164 165/313/164 163/314/164 155/304/164
f 160/312/165 156/315/165 158/316/165 162/309/165
f 163/317/166 165/318/166 166/319/166 164/320/166
f 161/310/167 166/321/167 165/313/167 159/311/167
f 155/304/168 163/314/168 164/322/168 157/305/168
f 157/308/169 164/323/169 166/321/169 161/310/169
f 175/324/170 167/325/170 169/326/170 176/327/170
f 176/328/171 169/329/171 173/330/171 177/331/171
f 177/331/172 173/330/172 171/332/172 178/333/172
f 178/333/173 171/332/173 167/325/173 175/324/173
f 167/334/174 171/335/174 173/336/174 169/337/174
f 172/338/175 168/339/175 170/340/175 174/341/175
f 172/342/176 178/333/176 175/324/176 168/343/176
f 174/344/177 177/331/177 178/333/177 172/342/177
f 170/345/178 176/328/178 177/331/178 174/344/178
f 168/343/179 175/324/179 176/327/179 170/346/179
f 180/347/180 191/348/180 181/349/180 182/350/180
f 155/304/181 160/312/181 159/311/181
f 157/308/182 161/310/182 162/309/182
f 182/350/183 181/349/183 185/351/183 186/352/183
f 186/352/184 185/351/184 183/353/184 184/354/184
f 179/355/185 183/353/185 191/356/185
f 183/353/186 190/357/186 188/358/186 191/359/186
f 184/360/187 180/361/187 182/362/187 186/363/187
f 188/364/188 190/357/188 189/365/188 187/366/188
f 185/351/189 189/365/189 190/357/189 183/353/189
f 191/348/190 188/367/190 187/368/190 181/349/190
f 181/349/191 187/368/191 189/365/191 185/351/191
f 180/369/192 179/355/192 191/356/192
f 184/354/193 183/353/193 179/355/193
f 180/369/194 184/354/194 179/355/194
f 104/18/195 108/232/195 105/234/195
f 197/370/196 221/177/196 219/371/196 207/372/196
f 80/195/197 192/197/197 226/373/197 225/206/197
f 210/179/198 229/374/198 209/375/198 196/376/198 194/377/198
f 194/377/199 196/376/199 205/378/199 228/379/199 204/380/199
f 214/381/200 209/375/200 198/382/200 206/383/200
f 225/206/201 226/373/201 200/384/201 84/203/201
f 213/385/202 211/183/202 200/182/202 199/386/202
f 204/387/203 228/388/203 227/186/203 193/185/203
f 207/372/204 219/371/204 220/189/204 202/188/204
f 200/389/205 226/162/205 224/165/205 199/390/205
f 208/391/206 213/385/206 199/386/206
f 206/392/207 215/393/207 218/394/207 214/395/207
f 195/164/208 192/163/208 201/396/208
f 203/198/209 205/378/209 214/381/209 212/397/209
f 197/398/210 207/399/210 213/385/210 208/391/210
f 207/399/211 202/202/211 211/183/211 213/385/211
f 199/390/212 224/165/212 233/178/212 208/400/212
f 205/378/213 196/376/213 209/375/213 214/381/213
f 195/164/214 198/382/214 209/375/214 229/374/214 231/401/214 230/402/214
f 217/209/215 218/394/215 215/403/215 216/210/215
f 201/404/216 216/405/216 215/393/216 206/392/216
f 214/395/217 218/394/217 217/209/217 212/214/217
f 194/406/218 204/407/218 219/408/218 221/409/218
f 204/407/219 193/410/219 220/411/219 219/408/219
f 85/412/220 96/413/220 220/411/220 193/410/220
f 79/414/221 97/415/221 96/413/221 85/412/221
f 206/383/222 198/382/222 195/164/222 201/396/222
f 228/379/223 205/378/223 203/198/223 222/215/223
f 222/216/224 227/186/224 228/388/224
f 230/416/225 231/417/225 232/418/225
f 210/419/226 232/418/226 229/420/226
f 230/421/227 232/418/227 210/419/227
f 232/418/228 231/417/228 229/420/228
f 223/205/229 97/161/229 91/166/229
f 225/206/230 223/205/230 91/166/230 100/207/230 80/195/230
f 221/177/231 210/179/231 194/377/231
f 91/166/232 97/161/232 79/167/232
f 233/178/233 221/177/233 197/370/233 208/400/233
f 233/178/234 224/165/234 195/164/234 230/402/234 210/179/234
