# Blender 4.3.2
# www.blender.org
o beggar
v 0.191058 1.203095 0.142087
v 0.186674 1.251466 -0.097527
v 0.191016 0.993524 0.110083
v 0.200370 1.517601 0.143683
v 0.194926 0.875708 -0.087987
v 0.206382 1.603489 -0.026899
v 0.203855 0.992620 0.125803
v 0.230639 0.877529 -0.097340
v 0.240698 0.795263 0.036384
v 0.061760 0.742005 0.024811
v 0.256720 0.614788 0.177558
v 0.246090 0.633532 0.317796
v 0.246944 0.712833 0.289614
v 0.253277 0.636562 0.185745
v 0.132926 0.713445 0.310022
v 0.125253 0.629472 0.191695
v 0.132255 0.648029 0.332942
v 0.128301 0.619983 0.177397
v 0.244874 0.441648 0.166865
v 0.245270 0.465661 0.310302
v 0.120334 0.479876 0.328468
v 0.101061 0.453885 0.167750
v 0.163991 0.184781 0.263189
v 0.177128 0.170649 0.342203
v 0.095351 0.165000 0.364644
v 0.080006 0.193992 0.263914
v 0.079265 0.892340 0.204783
v 0.230468 0.928585 0.176459
v 0.161691 1.597777 0.081449
v 0.082517 0.093704 0.329171
v 0.068375 0.113821 0.246804
v 0.155597 0.106141 0.242847
v 0.186284 0.098309 0.311889
v 0.095067 0.105182 0.487440
v 0.179127 0.109860 0.473353
v 0.078263 0.059719 0.517457
v 0.201384 0.065257 0.495822
v 0.081484 0.074267 0.408606
v 0.092816 0.135640 0.423922
v 0.193859 0.080074 0.388802
v 0.175510 0.139510 0.406925
v 0.155099 1.369734 0.041170
v 0.130374 1.595253 0.092647
v 0.163203 1.428885 -0.104654
v 0.137777 1.634238 -0.025671
v 0.289202 1.398346 0.030134
v 0.245100 1.564446 0.046330
v 0.295608 1.444493 -0.086894
v 0.257867 1.597853 -0.023295
v 0.213326 1.233295 -0.017967
v 0.208195 1.246555 -0.156153
v 0.314630 1.251910 -0.020086
v 0.316825 1.270051 -0.145645
v 0.262569 0.891444 -0.052538
v 0.206511 1.236585 -0.030422
v 0.277517 0.906069 -0.186878
v 0.210163 1.261158 -0.148902
v 0.364306 0.903289 -0.043857
v 0.316968 1.261157 -0.019970
v 0.370980 0.916950 -0.178903
v 0.312906 1.284015 -0.139180
v 0.222345 1.090397 -0.047285
v 0.231254 1.100784 -0.165862
v 0.358913 1.131351 -0.153593
v 0.349231 1.120062 -0.024724
v 0.293702 0.825168 -0.041558
v 0.278598 0.902508 -0.070478
v 0.288772 0.831964 -0.194013
v 0.287398 0.913133 -0.176273
v 0.340161 0.816396 -0.070012
v 0.346662 0.905247 -0.064541
v 0.358058 0.834753 -0.187970
v 0.355462 0.915872 -0.170336
v 0.278905 0.754212 -0.189970
v 0.269142 0.720824 -0.084297
v 0.319981 0.764196 -0.186682
v 0.318657 0.746980 -0.089851
v 0.289645 0.808838 -0.068513
v 0.085760 1.731275 0.195827
v 0.077025 1.771791 0.041906
v 0.066300 1.657802 0.177352
v 0.069889 1.879946 0.189916
v 0.079629 1.707534 0.062977
v 0.062578 1.896075 0.073730
v 0.020686 1.734107 0.232623
v 0.035221 1.631446 0.196316
v 0.051808 1.691893 0.057736
v 0.032887 1.893226 0.204095
v 0.082204 1.889360 0.133152
v 0.086856 1.681722 0.110869
v 0.102339 1.767956 0.128533
v 0.034870 1.922714 0.132667
v 0.051130 1.657466 0.127456
v 0.055136 1.578187 0.009272
v 0.054310 1.546912 0.085067
v 0.037295 1.801092 0.222322
v 0.087441 1.799673 0.197946
v 0.026720 1.700339 0.222504
v 0.092074 1.705084 0.115863
v 0.097598 1.783104 0.091050
v 0.088500 1.718436 0.090359
v 0.118167 1.787074 0.089494
v 0.010461 1.277663 -0.144793
v -0.009254 1.190446 0.222876
v -0.203850 1.187357 0.157899
v -0.175044 1.259907 -0.097568
v -0.189679 0.868365 0.086746
v -0.181060 1.517601 0.151991
v -0.181891 0.945197 -0.135530
v -0.194243 1.603489 -0.017325
v 0.005955 1.648565 -0.027846
v 0.014557 0.933171 -0.209867
v 0.012018 1.538579 0.184231
v -0.007036 0.925302 0.187457
v -0.204601 0.868693 0.104463
v -0.214322 0.945784 -0.167278
v 0.012703 0.884086 -0.152570
v -0.005125 0.926374 0.130630
v 0.011754 0.934753 -0.155611
v -0.009320 0.876735 0.134797
v -0.212343 0.819009 -0.166605
v -0.029440 0.809927 -0.196554
v -0.194888 0.590621 -0.304697
v -0.187610 0.502297 -0.183647
v -0.188912 0.556875 -0.149882
v -0.192862 0.617925 -0.268772
v -0.075965 0.550733 -0.134648
v -0.063636 0.619045 -0.269602
v -0.074680 0.496648 -0.168117
v -0.065658 0.592233 -0.305287
v -0.201852 0.439808 -0.416006
v -0.202909 0.374254 -0.285103
v -0.079428 0.364059 -0.267384
v -0.057740 0.436645 -0.413559
v -0.148458 0.146836 -0.501209
v -0.161566 0.155725 -0.424160
v -0.081629 0.164272 -0.401894
v -0.063040 0.164821 -0.490186
v -0.057471 0.714731 0.024855
v -0.205856 0.737774 0.009064
v 0.009848 1.616579 0.083815
v -0.143519 1.597777 0.089891
v -0.066730 0.083695 -0.394046
v -0.055703 0.076362 -0.512196
v -0.143196 0.069436 -0.514895
v -0.170770 0.077911 -0.414213
v -0.079800 0.188935 -0.266745
v -0.163742 0.184070 -0.281285
v -0.062976 0.168740 -0.216126
v -0.185934 0.159883 -0.237459
v -0.065400 0.118822 -0.313918
v -0.077206 0.177878 -0.336453
v -0.177661 0.111289 -0.333697
v -0.159778 0.170551 -0.353054
v -0.133584 1.393907 0.137127
v -0.108144 1.618841 0.083487
v -0.158186 1.384681 -0.018239
v -0.128746 1.603252 -0.038604
v -0.268655 1.418619 0.128802
v -0.226461 1.574229 0.067144
v -0.288274 1.410017 0.004676
v -0.247158 1.574725 -0.008341
v -0.194941 1.246943 0.148973
v -0.204652 1.199249 0.018864
v -0.296261 1.265584 0.149550
v -0.312026 1.227931 0.029414
v -0.170882 0.946597 0.284366
v -0.170198 1.250418 0.109879
v -0.237404 0.890752 0.179768
v -0.222168 1.210659 0.008031
v -0.262339 0.966518 0.326850
v -0.271101 1.282598 0.151072
v -0.321423 0.909052 0.218797
v -0.316024 1.240592 0.046347
v -0.166093 1.117460 0.174774
v -0.220477 1.065786 0.081930
v -0.337391 1.104930 0.128626
v -0.278288 1.161089 0.229528
v -0.183607 0.897351 0.337824
v -0.194134 0.947881 0.271629
v -0.237330 0.824336 0.214959
v -0.243575 0.902857 0.188494
v -0.235044 0.877415 0.339204
v -0.254390 0.956564 0.302762
v -0.298667 0.833174 0.246651
v -0.303831 0.911539 0.219627
v -0.213290 0.759425 0.251944
v -0.159055 0.784866 0.345690
v -0.251216 0.771640 0.266444
v -0.210791 0.806765 0.348944
v -0.187152 0.869289 0.323344
v 0.009344 1.777178 0.010533
v 0.005133 1.734720 0.242852
v -0.073688 1.731033 0.192853
v -0.059430 1.771539 0.039383
v -0.053301 1.657620 0.175141
v -0.058036 1.878406 0.187187
v -0.062568 1.707283 0.060343
v -0.046169 1.894767 0.071411
v 0.008658 1.900499 0.048480
v 0.009025 1.702185 0.035409
v 0.005264 1.897560 0.209235
v 0.006068 1.624703 0.202042
v -0.010027 1.734104 0.232029
v -0.022871 1.631408 0.195255
v -0.034516 1.691747 0.056139
v -0.022002 1.892565 0.202924
v -0.068143 1.887551 0.129946
v -0.071462 1.681497 0.107928
v -0.087916 1.767606 0.125015
v 0.006612 1.922374 0.132064
v 0.007099 1.649439 0.144098
v -0.021647 1.922034 0.131461
v -0.036305 1.657380 0.125843
v -0.035948 1.578173 0.007594
v 0.009983 1.572307 -0.012845
v 0.007984 1.529007 0.095659
v -0.037908 1.546900 0.083370
v -0.026545 1.800884 0.221116
v 0.005158 1.800986 0.232876
v -0.075689 1.799160 0.194870
v 0.005568 1.691021 0.223777
v 0.103281 1.808336 0.130518
v -0.065464 1.807143 0.040426
v 0.082885 1.807415 0.043169
v 0.009302 1.813921 0.009165
v 0.005203 1.692797 0.243250
v -0.015557 1.700042 0.221791
v -0.076945 1.704795 0.112749
v -0.081848 1.782773 0.087731
v -0.072482 1.718157 0.087391
v -0.102359 1.786669 0.085416
v -0.088953 1.812671 0.127192
vn 0.3944 0.1088 -0.9125
vn 0.9948 0.0957 0.0344
vn 0.3316 -0.0503 -0.9421
vn 0.9991 -0.0424 -0.0099
vn 0.1690 0.7275 0.6650
vn 0.1685 0.2442 -0.9550
vn 0.3417 -0.0909 0.9354
vn 0.2195 0.0944 0.9710
vn -0.0465 -0.8756 0.4808
vn 0.2999 -0.9513 -0.0711
vn -0.2168 -0.9668 -0.1349
vn 0.0012 0.0597 -0.9982
vn -0.2664 0.7989 0.5392
vn 0.0778 0.0769 0.9940
vn -0.9983 -0.0256 0.0528
vn 0.1559 -0.7309 -0.6644
vn 0.9970 0.0779 0.0008
vn -0.9587 -0.1787 0.2213
vn 0.0923 0.4946 0.8642
vn 0.1668 0.3267 0.9303
vn -0.0227 0.5806 -0.8138
vn 0.9978 0.0365 0.0551
vn 0.9616 -0.2705 -0.0465
vn 0.9983 -0.0393 0.0419
vn 0.1333 -0.0403 0.9903
vn -0.9920 0.1140 0.0534
vn -0.9629 0.2623 0.0631
vn -0.0388 -0.3421 -0.9389
vn 0.1953 0.0793 0.9775
vn -0.9853 0.1092 0.1317
vn -0.8109 -0.5617 0.1640
vn 0.9345 0.3034 -0.1863
vn 0.2245 -0.7492 -0.6231
vn 0.1757 0.9644 0.1978
vn 0.7238 0.6057 0.3305
vn -0.0349 -0.9846 -0.1714
vn -0.9786 0.0945 0.1830
vn 0.9583 0.0953 -0.2695
vn -0.0039 0.2300 -0.9732
vn 0.1224 0.5052 0.8543
vn 0.0239 -0.9905 -0.1352
vn 0.0315 0.9077 0.4184
vn 0.9306 0.3646 0.0337
vn 0.9805 0.1948 0.0267
vn 0.0534 0.8967 0.4393
vn 0.0066 -0.9721 -0.2345
vn -0.9854 0.1668 0.0333
vn -0.9920 -0.0879 -0.0909
vn 0.1303 0.3699 -0.9199
vn 0.9622 0.2005 0.1843
vn 0.3275 -0.1760 0.9283
vn 0.1181 -0.3275 0.9374
vn 0.3189 0.8724 0.3703
vn 0.1998 -0.9727 -0.1180
vn 0.9904 0.1211 0.0672
vn -0.9562 -0.2812 -0.0817
vn 0.0619 0.3052 -0.9503
vn -0.9721 -0.2061 -0.1121
vn 0.0678 0.1218 -0.9902
vn 0.9962 0.0558 0.0670
vn -0.1218 -0.0743 0.9898
vn 0.1230 -0.9880 -0.0939
vn -0.2303 0.9542 0.1908
vn -0.1161 -0.0938 0.9888
vn 0.9656 0.2536 0.0568
vn 0.0682 0.1139 -0.9911
vn -0.9913 -0.1118 -0.0690
vn -0.9968 -0.0669 -0.0439
vn 0.0969 -0.0711 0.9928
vn 0.0757 0.3978 -0.9143
vn 0.0763 0.2141 -0.9738
vn 0.9928 -0.0382 0.1135
vn 0.1428 -0.8559 0.4970
vn 0.1539 -0.2569 0.9541
vn -0.0484 0.9942 0.0958
vn 0.3580 -0.9103 -0.2079
vn 0.9192 -0.3935 0.0171
vn -0.9837 0.1798 0.0061
vn 0.0916 -0.0653 -0.9937
vn -0.9709 -0.1100 0.2128
vn 0.5078 -0.0899 0.8568
vn -0.0952 0.3323 0.9384
vn 0.3749 -0.0158 0.9270
vn 0.4238 0.1889 0.8859
vn -0.3833 -0.0363 -0.9229
vn 0.9557 -0.2457 0.1621
vn 0.5504 -0.2587 0.7938
vn 0.4231 -0.7967 -0.4316
vn -0.9820 -0.0316 0.1861
vn 0.1392 0.9459 -0.2929
vn 0.6456 -0.0458 0.7623
vn 0.2623 0.2147 0.9408
vn 0.5739 0.8131 -0.0977
vn 0.9996 0.0210 0.0198
vn 0.3829 -0.2923 -0.8763
vn 0.0770 -0.9291 -0.3616
vn 0.4984 0.8126 0.3022
vn 0.0947 0.9343 0.3436
vn 0.9304 0.2744 -0.2429
vn 0.5411 -0.8258 -0.1589
vn 0.9444 -0.1193 -0.3063
vn 0.2769 -0.8922 -0.3568
vn 0.4379 0.3384 -0.8329
vn 0.3589 -0.3361 0.8708
vn 0.9404 0.2335 0.2472
vn 0.3670 -0.2909 -0.8836
vn 0.2279 -0.3118 0.9224
vn 0.4060 -0.9094 0.0905
vn -0.0796 0.0218 -0.9966
vn 0.9376 -0.2091 0.2778
vn -0.1466 0.9106 0.3865
vn 0.8681 -0.3793 -0.3202
vn -0.2097 0.2068 -0.9557
vn -0.9976 0.0665 -0.0172
vn -0.1062 -0.0616 -0.9924
vn -0.9994 0.0090 -0.0334
vn -0.1343 0.7246 0.6760
vn -0.1838 0.2558 -0.9491
vn -0.3303 -0.1428 0.9330
vn -0.1761 0.1192 0.9771
vn 0.0696 -0.9523 -0.2970
vn 0.2712 -0.9611 0.0516
vn -0.0502 -0.9983 0.0288
vn 0.0088 0.5825 -0.8128
vn -0.1865 -0.5009 0.8451
vn -0.2605 0.1026 0.9600
vn 0.9976 -0.0502 0.0481
vn -0.0792 0.4093 -0.9090
vn -0.9960 -0.0895 -0.0080
vn 0.9851 -0.1687 0.0342
vn -0.1609 -0.6691 0.7255
vn -0.1418 -0.5233 0.8403
vn -0.0117 0.7981 -0.6024
vn -0.9992 -0.0202 0.0342
vn -0.9851 -0.1367 -0.1043
vn -0.9979 0.0415 0.0500
vn -0.1509 -0.5959 0.7888
vn 0.9957 -0.0468 0.0802
vn 0.9609 0.2605 -0.0939
vn 0.0384 0.2783 -0.9597
vn -0.1653 -0.5506 0.8183
vn 0.9863 -0.0803 0.1444
vn 0.9300 -0.3670 0.0175
vn -0.9863 0.1545 0.0581
vn -0.0477 0.3656 -0.9296
vn -0.1645 0.9644 0.2071
vn -0.7022 0.6114 0.3648
vn 0.0563 -0.9951 0.0818
vn 0.9835 0.1179 0.1372
vn -0.9737 0.0302 -0.2258
vn 0.0467 0.2136 -0.9758
vn -0.1317 0.9000 0.4154
vn -0.0169 -0.8917 0.4522
vn -0.0397 0.9842 -0.1728
vn -0.9331 0.3099 -0.1825
vn -0.9806 0.1748 -0.0886
vn -0.0474 0.9783 -0.2015
vn -0.0157 -0.9199 0.3917
vn 0.9814 0.1671 -0.0947
vn 0.9785 -0.1455 -0.1464
vn -0.2338 -0.0589 -0.9705
vn -0.9413 0.2864 0.1785
vn -0.2244 0.2500 0.9419
vn -0.0121 0.1116 0.9937
vn -0.2958 0.9552 -0.0111
vn -0.1914 -0.9228 0.3342
vn -0.9800 0.1652 0.1107
vn 0.9477 -0.3150 -0.0511
vn -0.1678 -0.1323 -0.9769
vn 0.8787 -0.2848 -0.3830
vn -0.4541 -0.4019 -0.7952
vn -0.8921 0.1343 0.4315
vn 0.4950 0.4395 0.7495
vn 0.0207 -0.8874 0.4606
vn 0.1192 0.9028 -0.4132
vn 0.4928 0.4225 0.7607
vn -0.9017 0.2967 0.3145
vn -0.4535 -0.4090 -0.7919
vn 0.8964 -0.1830 -0.4037
vn 0.9032 -0.1278 -0.4097
vn 0.0096 0.3661 0.9305
vn -0.1796 -0.0329 -0.9832
vn -0.4711 -0.3151 -0.8239
vn -0.8552 0.0736 0.5130
vn 0.2049 -0.4691 0.8590
vn 0.2615 0.2794 0.9239
vn -0.0932 0.8977 -0.4307
vn -0.2453 -0.8687 0.4303
vn -0.7624 -0.2836 0.5817
vn 0.8670 0.1096 -0.4860
vn -0.4437 -0.5637 -0.6967
vn 0.9831 -0.0312 -0.1802
vn -0.1264 0.3892 0.9124
vn 0.3799 0.7634 0.5224
vn -0.3170 0.0388 0.9476
vn -0.4624 0.1911 0.8658
vn 0.4173 -0.0349 -0.9081
vn -0.9601 -0.2493 0.1268
vn -0.5795 -0.2600 0.7724
vn -0.4041 -0.7985 -0.4463
vn 0.4165 0.3793 -0.8263
vn -0.1493 0.9425 -0.2991
vn -0.6725 -0.0473 0.7386
vn -0.3031 0.2138 0.9287
vn -0.3878 0.3803 -0.8396
vn -0.5886 0.7991 -0.1225
vn -0.9997 0.0203 -0.0166
vn -0.3492 -0.2937 -0.8898
vn -0.0622 -0.9293 -0.3640
vn -0.5302 0.8002 0.2803
vn -0.1317 0.9316 0.3387
vn -0.9158 0.2848 -0.2832
vn -0.5314 -0.8279 -0.1792
vn -0.9320 -0.1228 -0.3409
vn -0.2634 -0.8923 -0.3667
vn -0.4076 0.3381 -0.8483
vn -0.3904 -0.3362 0.8570
vn -0.5013 -0.0118 0.8652
vn -0.4336 0.0871 0.8969
vn 0.3987 0.0891 0.9127
vn 0.4686 -0.0099 0.8833
vn -0.3330 -0.2922 -0.8965
vn -0.2586 -0.3137 0.9136
vn -0.3976 -0.9144 0.0760
vn 0.1163 0.0221 -0.9930
vn -0.9465 -0.2127 0.2428
vn 0.1288 0.9111 0.3916
vn -0.8542 -0.3827 -0.3520
vn 0.9739 -0.0338 0.2244
vn 0.9693 0.0037 -0.2458
vn -0.9817 -0.0344 0.1874
vn 0.9743 -0.0309 0.2232
vn -0.9446 0.2428 0.2208
vn -0.9604 0.0028 -0.2787
vt 0.769832 0.195645
vt 0.775252 0.120749
vt 0.898457 0.115387
vt 0.893855 0.199439
vt 0.779478 0.033265
vt 0.875888 0.020883
vt 0.079276 0.380758
vt 0.015809 0.352495
vt 0.092810 0.349129
vt 0.640892 0.115732
vt 0.651808 0.045918
vt 0.972902 0.747099
vt 0.945788 0.808209
vt 0.869285 0.817542
vt 0.869303 0.746010
vt 0.623064 0.191154
vt 0.978616 0.563599
vt 0.869350 0.563483
vt 0.869382 0.439703
vt 0.981068 0.426748
vt 0.887298 0.020144
vt 0.903448 0.092046
vt 0.869386 0.423683
vt 0.966087 0.423037
vt 0.919014 0.125551
vt 0.901661 0.199678
vt 0.080227 0.193471
vt 0.035111 0.194551
vt 0.029851 0.129329
vt 0.078457 0.129531
vt 0.524664 0.024934
vt 0.453935 0.048979
vt 0.476762 0.096074
vt 0.529992 0.085338
vt 0.458519 0.014915
vt 0.140591 0.209945
vt 0.084060 0.210053
vt 0.139428 0.189660
vt 0.088688 0.293915
vt 0.019697 0.289600
vt 0.036330 0.210891
vt 0.589766 0.089175
vt 0.538912 0.169399
vt 0.588096 0.171055
vt 0.169119 0.280272
vt 0.494132 0.172296
vt 0.495777 0.194811
vt 0.540097 0.192752
vt 0.594693 0.186440
vt 0.602720 0.254314
vt 0.550300 0.251019
vt 0.546511 0.359212
vt 0.576655 0.358602
vt 0.502818 0.254080
vt 0.133655 0.131663
vt 0.460444 0.638059
vt 0.461859 0.667341
vt 0.511272 0.661029
vt 0.492341 0.643217
vt 0.059953 0.028917
vt 0.089979 0.037143
vt 0.513486 0.356281
vt 0.126069 0.032173
vt 0.187391 0.328606
vt 0.600139 0.026470
vt 0.980612 0.851849
vt 0.869271 0.873069
vt 0.214036 0.700438
vt 0.168892 0.698897
vt 0.170775 0.659242
vt 0.208186 0.653496
vt 0.429138 0.636018
vt 0.382088 0.640297
vt 0.380987 0.679254
vt 0.425514 0.672609
vt 0.172591 0.619486
vt 0.211119 0.618494
vt 0.342980 0.638844
vt 0.341450 0.677655
vt 0.504441 0.606319
vt 0.529468 0.607110
vt 0.250819 0.702808
vt 0.243337 0.651469
vt 0.292311 0.649141
vt 0.300801 0.705699
vt 0.244056 0.622019
vt 0.258050 0.585846
vt 0.290061 0.591615
vt 0.277688 0.628694
vt 0.226990 0.579872
vt 0.239778 0.437910
vt 0.241642 0.380815
vt 0.334062 0.371731
vt 0.335105 0.430080
vt 0.244961 0.564466
vt 0.270260 0.519900
vt 0.334573 0.576660
vt 0.267325 0.484741
vt 0.339743 0.479221
vt 0.337393 0.523671
vt 0.397256 0.433766
vt 0.400592 0.476589
vt 0.218167 0.523740
vt 0.216842 0.468389
vt 0.934188 0.071641
vt 0.985147 0.071450
vt 0.980416 0.114135
vt 0.934188 0.111273
vt 0.409685 0.525397
vt 0.413123 0.381914
vt 0.413123 0.570440
vt 0.588235 0.616390
vt 0.541774 0.616014
vt 0.540412 0.699472
vt 0.594290 0.698674
vt 0.733169 0.616366
vt 0.683834 0.612729
vt 0.688349 0.697632
vt 0.724849 0.697622
vt 0.637083 0.612063
vt 0.634642 0.698467
vt 0.933176 0.242559
vt 0.985452 0.244219
vt 0.985670 0.280546
vt 0.933413 0.282101
vt 0.980360 0.291116
vt 0.933814 0.295150
vt 0.933988 0.335813
vt 0.980548 0.334832
vt 0.637975 0.554612
vt 0.592385 0.555443
vt 0.685764 0.549762
vt 0.727568 0.549351
vt 0.544847 0.548303
vt 0.557765 0.809694
vt 0.510229 0.803468
vt 0.511171 0.765578
vt 0.565124 0.764368
vt 0.479691 0.799649
vt 0.486340 0.766582
vt 0.437092 0.787533
vt 0.443585 0.748829
vt 0.425923 0.754711
vt 0.422123 0.742946
vt 0.429690 0.730629
vt 0.447798 0.694577
vt 0.457086 0.718428
vt 0.949739 0.404064
vt 0.949739 0.353270
vt 0.982292 0.353270
vt 0.982292 0.404064
vt 0.460533 0.693281
vt 0.502277 0.717435
vt 0.495857 0.735141
vt 0.514016 0.729944
vt 0.562185 0.720311
vt 0.408828 0.775679
vt 0.278149 0.967649
vt 0.246334 0.979776
vt 0.249708 0.914564
vt 0.277992 0.912907
vt 0.013923 0.884272
vt 0.022151 0.852843
vt 0.077991 0.867331
vt 0.074449 0.892252
vt 0.315578 0.881871
vt 0.272833 0.868911
vt 0.266436 0.823662
vt 0.311469 0.826118
vt 0.312630 0.841540
vt 0.233032 0.873502
vt 0.237034 0.853143
vt 0.243726 0.809688
vt 0.293162 0.797592
vt 0.353002 0.808376
vt 0.344750 0.831707
vt 0.171111 0.912654
vt 0.129263 0.910165
vt 0.133762 0.881302
vt 0.504295 0.904470
vt 0.456722 0.873442
vt 0.486878 0.832177
vt 0.523186 0.892354
vt 0.393060 0.750737
vt 0.369166 0.770382
vt 0.342151 0.723866
vt 0.371660 0.694150
vt 0.224422 0.982399
vt 0.224589 0.913793
vt 0.464697 0.929008
vt 0.510943 0.418646
vt 0.509620 0.457222
vt 0.450276 0.457321
vt 0.451259 0.416801
vt 0.371260 0.868269
vt 0.391399 0.792592
vt 0.427034 0.854273
vt 0.224914 0.800301
vt 0.250611 0.780243
vt 0.499027 0.969201
vt 0.535560 0.959128
vt 0.557854 0.949811
vt 0.378068 0.967627
vt 0.326324 0.969178
vt 0.319455 0.907637
vt 0.374611 0.893121
vt 0.340158 0.885118
vt 0.330117 0.844664
vt 0.450534 0.480546
vt 0.422105 0.480397
vt 0.434613 0.451640
vt 0.511818 0.394240
vt 0.445658 0.392364
vt 0.509788 0.480859
vt 0.224768 0.847580
vt 0.329170 0.701515
vt 0.145363 0.785723
vt 0.128390 0.783055
vt 0.170261 0.738493
vt 0.116930 0.746993
vt 0.160651 0.716692
vt 0.111510 0.779844
vt 0.893310 0.283615
vt 0.770664 0.270731
vt 0.865483 0.388919
vt 0.769534 0.358310
vt 0.423897 0.371814
vt 0.408299 0.341150
vt 0.485355 0.339413
vt 0.636248 0.267526
vt 0.642876 0.337877
vt 0.765704 0.747046
vt 0.792786 0.808169
vt 0.760084 0.563543
vt 0.757703 0.426691
vt 0.876826 0.390354
vt 0.896865 0.307217
vt 0.772687 0.422987
vt 0.914451 0.274726
vt 0.410556 0.185000
vt 0.408092 0.121083
vt 0.456578 0.117665
vt 0.455645 0.183093
vt 0.253560 0.018334
vt 0.251430 0.078936
vt 0.305153 0.086844
vt 0.325460 0.038610
vt 0.319084 0.004836
vt 0.351414 0.205432
vt 0.351233 0.185114
vt 0.407829 0.201799
vt 0.408760 0.285783
vt 0.455510 0.199477
vt 0.477314 0.276913
vt 0.191942 0.085924
vt 0.197935 0.167602
vt 0.246963 0.163350
vt 0.327602 0.277492
vt 0.291833 0.163878
vt 0.247013 0.186734
vt 0.291379 0.186449
vt 0.192159 0.183314
vt 0.187729 0.251517
vt 0.219266 0.354283
vt 0.249400 0.353300
vt 0.239901 0.245457
vt 0.287479 0.246007
vt 0.353156 0.126862
vt 0.373466 0.625371
vt 0.341578 0.620155
vt 0.322681 0.602307
vt 0.372105 0.596087
vt 0.390482 0.029659
vt 0.419898 0.019465
vt 0.282224 0.348629
vt 0.354142 0.027088
vt 0.312568 0.326929
vt 0.178272 0.023855
vt 0.757941 0.851792
vt 0.013855 0.710087
vt 0.062637 0.719760
vt 0.053791 0.758555
vt 0.012068 0.757539
vt 0.404768 0.627471
vt 0.408460 0.590887
vt 0.452999 0.584325
vt 0.451825 0.623280
vt 0.095615 0.759647
vt 0.099560 0.719322
vt 0.492533 0.585997
vt 0.490931 0.624805
vt 0.329410 0.657029
vt 0.304385 0.656192
vt 0.014143 0.671338
vt 0.013329 0.626462
vt 0.071995 0.639628
vt 0.067412 0.683054
vt 0.098346 0.684520
vt 0.093882 0.648751
vt 0.133695 0.638573
vt 0.137331 0.672574
vt 0.141254 0.705593
vt 0.185664 0.538131
vt 0.086734 0.549483
vt 0.089781 0.610162
vt 0.185643 0.597604
vt 0.176017 0.406617
vt 0.082362 0.396940
vt 0.151191 0.453841
vt 0.081208 0.452173
vt 0.080256 0.498505
vt 0.155426 0.490326
vt 0.011387 0.503289
vt 0.011387 0.547736
vt 0.208505 0.505645
vt 0.205267 0.448094
vt 0.933051 0.227541
vt 0.935500 0.187984
vt 0.981816 0.187984
vt 0.983901 0.230880
vt 0.011387 0.452807
vt 0.011387 0.602224
vt 0.011387 0.406053
vt 0.685388 0.464625
vt 0.679517 0.382326
vt 0.733395 0.381660
vt 0.731848 0.465114
vt 0.540455 0.464294
vt 0.548955 0.383058
vt 0.585455 0.383138
vt 0.589782 0.468052
vt 0.639164 0.382434
vt 0.636531 0.468832
vt 0.926036 0.053242
vt 0.926036 0.013699
vt 0.978301 0.014940
vt 0.978301 0.051267
vt 0.941318 0.172865
vt 0.942408 0.129162
vt 0.988977 0.129542
vt 0.987962 0.170192
vt 0.635511 0.526281
vt 0.681104 0.525562
vt 0.587712 0.531014
vt 0.545907 0.531323
vt 0.728625 0.532818
vt 0.736669 0.725394
vt 0.735353 0.771722
vt 0.683130 0.758703
vt 0.689295 0.721117
vt 0.659178 0.752270
vt 0.658895 0.718191
vt 0.614298 0.760413
vt 0.615218 0.720808
vt 0.598227 0.750739
vt 0.592334 0.761513
vt 0.621741 0.793364
vt 0.608255 0.814858
vt 0.597389 0.775323
vt 0.902963 0.354102
vt 0.935516 0.354102
vt 0.935516 0.404895
vt 0.902963 0.404895
vt 0.620394 0.818928
vt 0.662554 0.785374
vt 0.665487 0.804249
vt 0.724263 0.814542
vt 0.679237 0.794482
vt 0.585527 0.726307
vt 0.170921 0.966691
vt 0.199450 0.914463
vt 0.202557 0.979360
vt 0.434990 0.885665
vt 0.136920 0.840949
vt 0.138178 0.825523
vt 0.183245 0.823379
vt 0.176564 0.868613
vt 0.206044 0.809560
vt 0.212468 0.853064
vt 0.216352 0.873452
vt 0.156680 0.797114
vt 0.104811 0.830875
vt 0.096708 0.807441
vt 0.427703 0.967162
vt 0.542713 0.881290
vt 0.537443 0.824738
vt 0.340263 0.781402
vt 0.301717 0.734772
vt 0.020099 0.966282
vt 0.069986 0.966279
vt 0.582883 0.857700
vt 0.510287 0.543080
vt 0.450588 0.544296
vt 0.450031 0.503768
vt 0.509371 0.504492
vt 0.058337 0.791326
vt 0.199393 0.779972
vt 0.602434 0.906809
vt 0.576490 0.934433
vt 0.122173 0.967791
vt 0.119390 0.843962
vt 0.109116 0.884444
vt 0.434309 0.509284
vt 0.510905 0.567494
vt 0.444729 0.568673
vt 0.612579 0.943799
vt 0.704302 0.960286
vt 0.690069 0.863893
vt 0.628178 0.846809
vt 0.727017 0.964931
vt 0.742045 0.877429
vt 0.749981 0.968131
vt 0.795559 0.882010
vt 0.849700 0.973890
vt 0.859604 0.886554
vt 0.262137 0.727847
vt 0.208247 0.720642
vt 0.265551 0.745007
vt 0.235108 0.768630
vt 0.190786 0.737487
vt 0.268411 0.762268
s 0
f 103/1/1 2/2/1 8/3/1 112/4/1
f 2/2/2 1/5/2 7/6/2 8/3/2
f 119/7/3 5/8/3 117/9/3
f 6/10/4 4/11/4 1/5/4 2/2/4
f 4/12/5 29/13/5 141/14/5 113/15/5
f 111/16/6 6/10/6 2/2/6 103/1/6
f 1/17/7 104/18/7 114/19/7 7/20/7
f 4/12/8 113/15/8 104/18/8
f 3/21/9 5/22/9 8/3/9 7/6/9
f 118/23/10 3/24/10 7/20/10 114/19/10
f 5/25/11 119/26/11 112/4/11 8/3/11
f 18/27/12 11/28/12 19/29/12 22/30/12
f 3/31/13 120/32/13 27/33/13 28/34/13
f 3/31/14 118/35/14 120/32/14
f 15/36/15 16/37/15 18/27/15 17/38/15
f 10/39/16 9/40/16 14/41/16 16/37/16
f 9/42/17 28/34/17 13/43/17 14/44/17
f 27/45/18 10/39/18 16/37/18 15/36/18
f 28/34/19 27/33/19 15/46/19 13/43/19
f 13/43/20 15/46/20 17/47/20 12/48/20
f 16/37/21 14/41/21 11/28/21 18/27/21
f 14/44/22 13/43/22 12/48/22 11/49/22
f 19/50/23 20/51/23 24/52/23 23/53/23
f 11/49/24 12/48/24 20/51/24 19/50/24
f 12/48/25 17/47/25 21/54/25 20/51/25
f 17/38/26 18/27/26 22/30/26 21/55/26
f 39/56/27 38/57/27 36/58/27 34/59/27
f 22/30/28 19/29/28 23/60/28 26/61/28
f 20/51/29 21/54/29 25/62/29 24/52/29
f 21/55/30 22/30/30 26/61/30 25/63/30
f 120/64/31 117/9/31 10/39/31 27/45/31
f 5/65/32 3/31/32 28/34/32 9/42/32
f 117/9/33 5/8/33 9/40/33 10/39/33
f 141/14/34 29/13/34 6/66/34 111/67/34
f 6/66/35 29/13/35 4/12/35
f 30/68/36 31/69/36 32/70/36 33/71/36
f 25/72/37 26/73/37 31/74/37 30/75/37
f 23/76/38 24/77/38 33/71/38 32/70/38
f 26/73/39 23/78/39 32/79/39 31/74/39
f 35/80/40 34/59/40 36/58/40 37/81/40
f 38/82/41 40/83/41 37/84/41 36/85/41
f 41/86/42 39/87/42 34/88/42 35/89/42
f 40/83/43 41/86/43 35/89/43 37/84/43
f 33/71/44 24/77/44 41/86/44 40/83/44
f 24/77/45 25/90/45 39/87/45 41/86/45
f 30/68/46 33/71/46 40/83/46 38/82/46
f 25/72/47 30/75/47 38/57/47 39/56/47
f 43/91/48 45/92/48 44/93/48 42/94/48
f 45/95/49 49/96/49 44/97/49
f 49/96/50 47/98/50 46/99/50 48/100/50
f 47/98/51 43/91/51 42/94/51
f 46/99/52 42/94/52 50/101/52 52/102/52
f 47/98/53 49/96/53 45/103/53 43/104/53
f 50/105/54 51/106/54 53/107/54 52/108/54
f 48/100/55 46/99/55 52/102/55 53/109/55
f 42/94/56 44/93/56 51/110/56 50/101/56
f 44/97/57 48/100/57 53/109/57 51/111/57
f 62/112/58 63/113/58 56/114/58 54/115/58
f 63/116/59 64/117/59 60/118/59 56/119/59
f 64/117/60 65/120/60 58/121/60 60/118/60
f 65/120/61 62/112/61 54/115/61 58/121/61
f 54/122/62 56/123/62 60/124/62 58/125/62
f 59/126/63 61/127/63 57/128/63 55/129/63
f 59/130/64 55/131/64 62/112/64 65/120/64
f 61/132/65 59/130/65 65/120/65 64/117/65
f 57/133/66 61/132/66 64/117/66 63/116/66
f 55/131/67 57/134/67 63/113/67 62/112/67
f 67/135/68 69/136/68 68/137/68 78/138/68
f 42/94/69 46/99/69 47/98/69
f 44/97/70 49/96/70 48/100/70
f 69/136/71 73/139/71 72/140/71 68/137/71
f 73/139/72 71/141/72 70/142/72 72/140/72
f 66/143/73 78/144/73 70/142/73
f 70/142/74 78/145/74 75/146/74 77/147/74
f 71/148/75 73/149/75 69/150/75 67/151/75
f 75/152/76 74/153/76 76/154/76 77/147/76
f 72/140/77 70/142/77 77/147/77 76/154/77
f 78/138/78 68/137/78 74/155/78 75/156/78
f 68/137/79 72/140/79 76/154/79 74/155/79
f 67/157/80 78/144/80 66/143/80
f 71/141/81 66/143/81 70/142/81
f 67/157/82 66/143/82 71/141/82
f 104/18/83 1/17/83 4/12/83
f 82/158/84 88/159/84 96/160/84 97/161/84
f 226/162/85 192/163/85 195/164/85 224/165/85
f 91/166/86 79/167/86 81/168/86 90/169/86 99/170/86
f 79/167/87 85/171/87 98/172/87 86/173/87 81/168/87
f 93/174/88 87/175/88 83/176/88 90/169/88
f 221/177/89 233/178/89 210/179/89
f 92/180/90 84/181/90 200/182/90 211/183/90
f 85/184/91 193/185/91 227/186/91 98/187/91
f 88/159/92 202/188/92 220/189/92 96/160/92
f 89/190/93 84/181/93 92/180/93
f 87/191/94 93/192/94 95/193/94 94/194/94
f 80/195/95 201/196/95 192/197/95
f 203/198/96 212/199/96 93/174/96 86/173/96
f 82/200/97 89/190/97 92/180/97 88/201/97
f 88/201/98 92/180/98 211/183/98 202/202/98
f 84/203/99 89/204/99 223/205/99 225/206/99
f 86/173/100 93/174/100 90/169/100 81/168/100
f 80/195/101 100/207/101 101/208/101 99/170/101 90/169/101 83/176/101
f 217/209/102 216/210/102 94/211/102 95/193/102
f 201/212/103 87/191/103 94/194/103 216/213/103
f 93/192/104 212/214/104 217/209/104 95/193/104
f 89/204/105 82/158/105 97/161/105 223/205/105
f 87/175/106 201/196/106 80/195/106 83/176/106
f 98/172/107 222/215/107 203/198/107 86/173/107
f 222/216/108 98/187/108 227/186/108
f 100/217/109 102/218/109 101/219/109
f 91/220/110 99/221/110 102/218/110
f 100/222/111 91/220/111 102/218/111
f 102/218/112 99/221/112 101/219/112
f 103/1/113 112/4/113 116/223/113 106/224/113
f 106/224/114 116/223/114 115/225/114 105/226/114
f 119/227/115 117/228/115 109/229/115
f 110/230/116 106/224/116 105/226/116 108/231/116
f 108/232/117 113/15/117 141/14/117 142/233/117
f 111/16/118 103/1/118 106/224/118 110/230/118
f 105/234/119 115/235/119 114/19/119 104/18/119
f 108/232/120 104/18/120 113/15/120
f 107/236/121 115/225/121 116/223/121 109/237/121
f 118/23/122 114/19/122 115/235/122 107/238/122
f 109/239/123 116/223/123 112/4/123 119/26/123
f 130/240/124 134/241/124 131/242/124 123/243/124
f 107/244/125 140/245/125 139/246/125 120/247/125
f 107/244/126 120/247/126 118/248/126
f 127/249/127 129/250/127 130/240/127 128/251/127
f 122/252/128 128/251/128 126/253/128 121/254/128
f 121/255/129 126/256/129 125/257/129 140/245/129
f 139/258/130 127/249/130 128/251/130 122/252/130
f 140/245/131 125/257/131 127/259/131 139/246/131
f 125/257/132 124/260/132 129/261/132 127/259/132
f 128/251/133 130/240/133 123/243/133 126/253/133
f 126/256/134 123/262/134 124/260/134 125/257/134
f 131/263/135 135/264/135 136/265/135 132/266/135
f 123/262/136 131/263/136 132/266/136 124/260/136
f 124/260/137 132/266/137 133/267/137 129/261/137
f 129/250/138 133/268/138 134/241/138 130/240/138
f 152/269/139 147/270/139 149/271/139 151/272/139
f 134/241/140 138/273/140 135/274/140 131/242/140
f 132/266/141 136/265/141 137/275/141 133/267/141
f 133/268/142 137/276/142 138/273/142 134/241/142
f 120/277/143 139/258/143 122/252/143 117/228/143
f 109/278/144 121/255/144 140/245/144 107/244/144
f 117/228/145 122/252/145 121/254/145 109/229/145
f 141/14/146 111/67/146 110/279/146 142/233/146
f 110/279/147 108/232/147 142/233/147
f 143/280/148 146/281/148 145/282/148 144/283/148
f 137/284/149 143/285/149 144/286/149 138/287/149
f 135/288/150 145/282/150 146/281/150 136/289/150
f 138/287/151 144/286/151 145/290/151 135/291/151
f 148/292/152 150/293/152 149/271/152 147/270/152
f 151/294/153 149/295/153 150/296/153 153/297/153
f 154/298/154 148/299/154 147/300/154 152/301/154
f 153/297/155 150/296/155 148/299/155 154/298/155
f 146/281/156 153/297/156 154/298/156 136/289/156
f 136/289/157 154/298/157 152/301/157 137/302/157
f 143/280/158 151/294/158 153/297/158 146/281/158
f 137/284/159 152/269/159 151/272/159 143/285/159
f 156/303/160 155/304/160 157/305/160 158/306/160
f 158/307/161 157/308/161 162/309/161
f 162/309/162 161/310/162 159/311/162 160/312/162
f 160/312/163 155/304/163 156/303/163
f 159/311/164 165/313/164 163/314/164 155/304/164
f 160/312/165 156/315/165 158/316/165 162/309/165
f 163/317/166 165/318/166 166/319/166 164/320/166
f 161/310/167 166/321/167 165/313/167 159/311/167
f 155/304/168 163/314/168 164/322/168 157/305/168
f 157/308/169 164/323/169 166/321/169 161/310/169
f 175/324/170 167/325/170 169/326/170 176/327/170
f 176/328/171 169/329/171 173/330/171 177/331/171
f 177/331/172 173/330/172 171/332/172 178/333/172
f 178/333/173 171/332/173 167/325/173 175/324/173
f 167/334/174 171/335/174 173/336/174 169/337/174
f 172/338/175 168/339/175 170/340/175 174/341/175
f 172/342/176 178/333/176 175/324/176 168/343/176
f 174/344/177 177/331/177 178/333/177 172/342/177
f 170/345/178 176/328/178 177/331/178 174/344/178
f 168/343/179 175/324/179 176/327/179 170/346/179
f 180/347/180 191/348/180 181/349/180 182/350/180
f 155/304/181 160/312/181 159/311/181
f 157/308/182 161/310/182 162/309/182
f 182/350/183 181/349/183 185/351/183 186/352/183
f 186/352/184 185/351/184 183/353/184 184/354/184
f 179/355/185 183/353/185 191/356/185
f 183/353/186 190/357/186 188/358/186 191/359/186
f 184/360/187 180/361/187 182/362/187 186/363/187
f 188/364/188 190/357/188 189/365/188 187/366/188
f 185/351/189 189/365/189 190/357/189 183/353/189
f 191/348/190 188/367/190 187/368/190 181/349/190
f 181/349/191 187/368/191 189/365/191 185/351/191
f 180/369/192 179/355/192 191/356/192
f 184/354/193 183/353/193 179/355/193
f 180/369/194 184/354/194 179/355/194
f 104/18/195 108/232/195 105/234/195
f 197/370/196 221/177/196 219/371/196 207/372/196
f 80/195/197 192/197/197 226/373/197 225/206/197
f 210/179/198 229/374/198 209/375/198 196/376/198 194/377/198
f 194/377/199 196/376/199 205/378/199 228/379/199 204/380/199
f 214/381/200 209/375/200 198/382/200 206/383/200
f 225/206/201 226/373/201 200/384/201 84/203/201
f 213/385/202 211/183/202 200/182/202 199/386/202
f 204/387/203 228/388/203 227/186/203 193/185/203
f 207/372/204 219/371/204 220/189/204 202/188/204
f 200/389/205 226/162/205 224/165/205 199/390/205
f 208/391/206 213/385/206 199/386/206
f 206/392/207 215/393/207 218/394/207 214/395/207
f 195/164/208 192/163/208 201/396/208
f 203/198/209 205/378/209 214/381/209 212/397/209
f 197/398/210 207/399/210 213/385/210 208/391/210
f 207/399/211 202/202/211 211/183/211 213/385/211
f 199/390/212 224/165/212 233/178/212 208/400/212
f 205/378/213 196/376/213 209/375/213 214/381/213
f 195/164/214 198/382/214 209/375/214 229/374/214 231/401/214 230/402/214
f 217/209/215 218/394/215 215/403/215 216/210/215
f 201/404/216 216/405/216 215/393/216 206/392/216
f 214/395/217 218/394/217 217/209/217 212/214/217
f 194/406/218 204/407/218 219/408/218 221/409/218
f 204/407/219 193/410/219 220/411/219 219/408/219
f 85/412/220 96/413/220 220/411/220 193/410/220
f 79/414/221 97/415/221 96/413/221 85/412/221
f 206/383/222 198/382/222 195/164/222 201/396/222
f 228/379/223 205/378/223 203/198/223 222/215/223
f 222/216/224 227/186/224 228/388/224
f 230/416/225 231/417/225 232/418/225
f 210/419/226 232/418/226 229/420/226
f 230/421/227 232/418/227 210/419/227
f 232/418/228 231/417/228 229/420/228
f 223/205/229 97/161/229 91/166/229
f 225/206/230 223/205/230 91/166/230 100/207/230 80/195/230
f 221/177/231 210/179/231 194/377/231
f 91/166/232 97/161/232 79/167/232
f 233/178/233 221/177/233 197/370/233 208/400/233
f 233/178/234 224/165/234 195/164/234 230/402/234 210/179/234
