# Blender 4.3.2
# www.blender.org
o beggar
v 0.201177 1.141805 0.154479
v 0.172216 1.210356 -0.100994
v 0.189712 0.835014 0.095937
v 0.179624 1.467369 0.152618
v 0.183794 0.893168 -0.145418
v 0.193324 1.553256 -0.016565
v 0.204494 0.835696 0.113646
v 0.217292 0.888340 -0.155998
v 0.228967 0.763418 -0.145626
v 0.047320 0.734670 -0.184605
v 0.237400 0.547407 -0.238713
v 0.226390 0.438753 -0.145398
v 0.228142 0.502378 -0.094418
v 0.234248 0.554904 -0.213273
v 0.113746 0.488169 -0.082701
v 0.105823 0.549255 -0.215991
v 0.112312 0.434597 -0.125924
v 0.108795 0.551718 -0.235221
v 0.227331 0.456498 -0.388500
v 0.226920 0.351133 -0.288030
v 0.101797 0.344065 -0.267162
v 0.083459 0.462587 -0.379072
v 0.147814 0.204412 -0.561291
v 0.161099 0.224782 -0.495980
v 0.079425 0.239201 -0.476494
v 0.063835 0.230970 -0.542853
v 0.070277 0.669488 0.048665
v 0.219380 0.706082 0.039094
v 0.142178 1.547544 0.090546
v 0.066014 0.166023 -0.448670
v 0.052102 0.151340 -0.566287
v 0.139297 0.140968 -0.570319
v 0.169746 0.155419 -0.468213
v 0.079382 0.299428 -0.349638
v 0.163418 0.292020 -0.362872
v 0.062546 0.291051 -0.295694
v 0.185609 0.278407 -0.314441
v 0.065419 0.220545 -0.379488
v 0.077018 0.272815 -0.415345
v 0.177724 0.209181 -0.396794
v 0.159728 0.261191 -0.431012
v 0.129248 1.347388 0.143280
v 0.107102 1.570819 0.082386
v 0.155171 1.332990 -0.011477
v 0.128638 1.551155 -0.038954
v 0.264687 1.370186 0.135489
v 0.225002 1.524284 0.068588
v 0.285346 1.357454 0.011887
v 0.246402 1.522158 -0.006673
v 0.188662 1.200136 0.160309
v 0.198984 1.148265 0.031856
v 0.290196 1.217556 0.161279
v 0.306604 1.175960 0.042538
v 0.153839 0.906329 0.304668
v 0.163316 1.203136 0.118740
v 0.222904 0.845578 0.204548
v 0.217986 1.158761 0.020268
v 0.244147 0.926649 0.349364
v 0.263287 1.235528 0.161990
v 0.305867 0.864246 0.245608
v 0.310975 1.188891 0.060497
v 0.155141 1.072862 0.188510
v 0.211754 1.016899 0.099567
v 0.327649 1.056247 0.148576
v 0.266123 1.117067 0.245239
v 0.162527 0.860306 0.359540
v 0.177774 0.908159 0.292283
v 0.218120 0.781189 0.241375
v 0.228639 0.858481 0.212736
v 0.213006 0.838403 0.363685
v 0.237032 0.915472 0.325607
v 0.278441 0.788633 0.275298
v 0.287897 0.865794 0.246060
v 0.189971 0.718544 0.279353
v 0.133089 0.749205 0.369914
v 0.227749 0.729719 0.295026
v 0.185506 0.769132 0.374627
v 0.165499 0.831661 0.346110
v 0.072555 1.681043 0.192731
v 0.057751 1.721558 0.039275
v 0.052381 1.607570 0.175038
v 0.056464 1.829713 0.187450
v 0.061185 1.657302 0.060226
v 0.044572 1.845843 0.071644
v 0.008985 1.683875 0.232067
v 0.022075 1.581214 0.195214
v 0.033179 1.641661 0.056087
v 0.020051 1.842993 0.203079
v 0.066529 1.839128 0.130245
v 0.070297 1.631490 0.107795
v 0.086465 1.717723 0.124834
v 0.019213 1.872482 0.131628
v 0.035254 1.607234 0.125779
v 0.034591 1.527955 0.007530
v 0.036758 1.496680 0.083298
v 0.025175 1.750860 0.221118
v 0.074319 1.749440 0.194782
v 0.014615 1.650107 0.221717
v 0.075709 1.654852 0.112579
v 0.080248 1.732871 0.087567
v 0.071130 1.668203 0.087237
v 0.100740 1.736842 0.085201
v -0.011966 1.227431 -0.144671
v 0.008469 1.141499 0.224606
v -0.192381 1.152974 0.150679
v -0.188637 1.204067 -0.093738
v -0.191397 0.920131 0.123811
v -0.201716 1.467368 0.143111
v -0.193522 0.836419 -0.087472
v -0.207210 1.553256 -0.027522
v -0.006812 1.598332 -0.027776
v -0.016225 0.882951 -0.212250
v -0.013751 1.488347 0.184256
v 0.006806 0.872180 0.193428
v -0.204314 0.919379 0.140028
v -0.229224 0.828941 -0.115026
v -0.012789 0.832625 -0.156854
v 0.005014 0.873799 0.134337
v -0.013163 0.884489 -0.157682
v 0.007109 0.824097 0.137712
v -0.230673 0.728788 0.009391
v -0.050369 0.687272 -0.013465
v -0.231208 0.503454 0.115789
v -0.222887 0.525894 0.260924
v -0.223577 0.597444 0.239523
v -0.228218 0.537405 0.121921
v -0.110868 0.600060 0.256827
v -0.099332 0.532750 0.123583
v -0.110264 0.535495 0.275957
v -0.102155 0.505229 0.114719
v -0.230428 0.323658 0.126967
v -0.231524 0.360377 0.268219
v -0.108118 0.368971 0.287263
v -0.086279 0.328261 0.129506
v -0.165969 0.071434 0.247747
v -0.179080 0.063363 0.327999
v -0.099152 0.059399 0.350835
v -0.081040 0.077471 0.248671
v -0.072441 0.800870 0.195177
v -0.223022 0.830998 0.173692
v -0.011266 1.566347 0.083863
v -0.162967 1.547544 0.080885
v -0.084671 -0.017680 0.324084
v -0.072146 -0.003507 0.238548
v -0.159597 -0.009247 0.234572
v -0.188640 -0.015557 0.306726
v -0.096193 0.049230 0.468011
v -0.180411 0.044083 0.454688
v -0.078887 0.026126 0.516698
v -0.202215 0.018589 0.496136
v -0.083013 -0.017556 0.414262
v -0.094589 0.042338 0.399965
v -0.195555 -0.021882 0.393937
v -0.177360 0.037761 0.392303
v -0.152449 1.320136 0.034384
v -0.132540 1.544369 0.093061
v -0.160245 1.383631 -0.109618
v -0.139521 1.586870 -0.024066
v -0.286958 1.346555 0.022840
v -0.246196 1.512870 0.044621
v -0.293091 1.396191 -0.092767
v -0.258913 1.548180 -0.024068
v -0.207476 1.184533 -0.029546
v -0.201239 1.202178 -0.167195
v -0.309091 1.201301 -0.032145
v -0.310396 1.223293 -0.157099
v -0.247543 0.842964 -0.076539
v -0.202442 1.188526 -0.040398
v -0.257988 0.861949 -0.210760
v -0.202475 1.217199 -0.158010
v -0.349832 0.851646 -0.071283
v -0.313878 1.209617 -0.033261
v -0.351958 0.869925 -0.205931
v -0.306129 1.236817 -0.151371
v -0.213369 1.042648 -0.062895
v -0.218235 1.057006 -0.181292
v -0.347096 1.083540 -0.172779
v -0.341809 1.067935 -0.044105
v -0.275156 0.776931 -0.068068
v -0.263456 0.855837 -0.094198
v -0.263668 0.788434 -0.219886
v -0.268028 0.868991 -0.199976
v -0.319646 0.766250 -0.098916
v -0.331762 0.854363 -0.091429
v -0.333199 0.786932 -0.217068
v -0.336334 0.867517 -0.197207
v -0.249304 0.711319 -0.217422
v -0.242388 0.675512 -0.112318
v -0.291017 0.718750 -0.215827
v -0.293090 0.698837 -0.119528
v -0.268887 0.761660 -0.095220
v -0.011115 1.726946 0.010597
v -0.006152 1.684487 0.242902
v -0.086885 1.680800 0.196054
v -0.078697 1.721307 0.042140
v -0.067213 1.607388 0.177551
v -0.071469 1.828173 0.189774
v -0.081005 1.657051 0.063207
v -0.064182 1.844534 0.073619
v -0.010303 1.850267 0.048542
v -0.010452 1.651952 0.035467
v -0.007348 1.847327 0.209306
v -0.006829 1.574471 0.202087
v -0.021727 1.683871 0.232685
v -0.036013 1.581175 0.196447
v -0.053140 1.641515 0.057899
v -0.034842 1.842333 0.204076
v -0.083827 1.837319 0.132976
v -0.088014 1.631265 0.111106
v -0.103780 1.717373 0.128829
v -0.009048 1.872142 0.132141
v -0.008086 1.599207 0.144147
v -0.037309 1.871802 0.132655
v -0.052176 1.607148 0.127620
v -0.056489 1.527941 0.009449
v -0.011400 1.522075 -0.012787
v -0.009114 1.478775 0.095711
v -0.055455 1.496668 0.085243
v -0.038663 1.750651 0.222433
v -0.006520 1.750754 0.232933
v -0.088805 1.748928 0.198148
v -0.006470 1.640789 0.223824
v 0.087485 1.758104 0.126781
v -0.084685 1.756910 0.043420
v 0.063657 1.757183 0.040305
v -0.011212 1.763688 0.009232
v -0.006066 1.642565 0.243297
v -0.027657 1.649809 0.222674
v -0.093302 1.654563 0.116140
v -0.099189 1.732541 0.091336
v -0.089844 1.667925 0.090625
v -0.119776 1.736436 0.089832
v -0.104730 1.762439 0.131046
vn 0.2335 0.1897 -0.9537
vn 0.9968 0.0787 -0.0125
vn 0.0628 -0.0155 -0.9979
vn 0.9994 0.0049 -0.0341
vn 0.1318 0.7243 0.6768
vn 0.1777 0.2611 -0.9488
vn 0.3467 -0.1155 0.9308
vn 0.1734 0.1248 0.9769
vn -0.0524 -0.9758 -0.2123
vn -0.1848 -0.9824 0.0279
vn 0.0159 -0.9944 0.1046
vn 0.0077 0.8521 -0.5234
vn 0.1957 -0.3973 0.8966
vn 0.2181 0.0753 0.9730
vn -0.9988 -0.0462 0.0132
vn 0.1006 0.2579 -0.9609
vn 0.9985 0.0075 0.0543
vn -0.9645 -0.2639 -0.0097
vn 0.1710 -0.5426 0.8224
vn 0.1548 -0.6215 0.7680
vn -0.0055 0.9936 -0.1127
vn 0.9979 -0.0368 0.0525
vn 0.9651 -0.1948 -0.1748
vn 0.9986 -0.0533 -0.0000
vn 0.1279 -0.8421 0.5240
vn -0.9932 0.0158 0.1150
vn -0.9620 0.2274 -0.1510
vn -0.0180 0.5735 -0.8190
vn 0.0612 -0.8785 0.4738
vn -0.9864 -0.0505 0.1565
vn -0.8966 -0.4427 0.0110
vn 0.9621 0.2609 0.0790
vn 0.0924 0.1633 -0.9822
vn 0.1637 0.9644 0.2078
vn 0.7008 0.6116 0.3672
vn -0.0898 -0.9848 0.1487
vn -0.9769 0.1647 0.1362
vn 0.9687 -0.0338 -0.2460
vn -0.0775 0.2310 -0.9699
vn 0.1253 0.9713 0.2021
vn 0.0204 -0.7655 0.6431
vn 0.0362 0.9178 -0.3955
vn 0.9333 0.2619 -0.2459
vn 0.9796 0.1426 -0.1418
vn 0.0349 0.8742 -0.4843
vn 0.0233 -0.7926 0.6092
vn -0.9837 0.1374 -0.1156
vn -0.9788 -0.1382 -0.1512
vn 0.2421 -0.0922 -0.9659
vn 0.9431 0.2805 0.1785
vn 0.2187 0.2767 0.9357
vn 0.0043 0.1425 0.9898
vn 0.3077 0.9507 -0.0382
vn 0.1769 -0.9141 0.3648
vn 0.9809 0.1567 0.1149
vn -0.9511 -0.3049 -0.0504
vn 0.1752 -0.1650 -0.9706
vn -0.8699 -0.2876 -0.4007
vn 0.4738 -0.4385 -0.7637
vn 0.8794 0.1389 0.4554
vn -0.5127 0.4749 0.7153
vn -0.0488 -0.8685 0.4933
vn -0.0924 0.8876 -0.4513
vn -0.5111 0.4583 0.7272
vn 0.8952 0.2965 0.3326
vn 0.4729 -0.4455 -0.7602
vn -0.8854 -0.1864 -0.4259
vn -0.8904 -0.1054 -0.4427
vn -0.0137 0.3952 0.9185
vn 0.1883 -0.0659 -0.9799
vn 0.4906 -0.3607 -0.7932
vn 0.8362 0.0566 0.5456
vn -0.2584 -0.4319 0.8641
vn -0.2868 0.3200 0.9029
vn 0.1472 0.8785 -0.4545
vn 0.1920 -0.8630 0.4672
vn 0.7260 -0.2942 0.6216
vn -0.8415 0.1277 -0.5249
vn 0.4480 -0.6036 -0.6595
vn -0.9755 0.0018 -0.2198
vn 0.1053 0.4139 0.9042
vn -0.3690 0.7948 0.4818
vn 0.3418 0.0280 0.9394
vn 0.4584 0.1889 0.8684
vn -0.4195 -0.0363 -0.9070
vn 0.9613 -0.2457 0.1243
vn 0.5813 -0.2587 0.7714
vn 0.4058 -0.7967 -0.4480
vn -0.9739 -0.0316 0.2248
vn 0.1275 0.9459 -0.2982
vn 0.6752 -0.0458 0.7363
vn 0.2992 0.2147 0.9297
vn 0.5696 0.8131 -0.1203
vn 0.9996 0.0210 -0.0197
vn 0.3481 -0.2923 -0.8907
vn 0.0627 -0.9291 -0.3644
vn 0.5099 0.8126 0.2823
vn 0.1082 0.9343 0.3396
vn 0.9201 0.2744 -0.2794
vn 0.5344 -0.8258 -0.1802
vn 0.9316 -0.1193 -0.3434
vn 0.2626 -0.8922 -0.3674
vn 0.4047 0.3384 -0.8495
vn 0.3930 -0.3361 0.8559
vn 0.9494 0.2335 0.2099
vn 0.3319 -0.2909 -0.8974
vn 0.2641 -0.3118 0.9127
vn 0.4093 -0.9094 0.0744
vn -0.1189 0.0218 -0.9927
vn 0.9479 -0.2091 0.2405
vn -0.1312 0.9106 0.3920
vn 0.8548 -0.3793 -0.3542
vn -0.3756 0.1366 -0.9166
vn -0.9958 0.0841 0.0356
vn -0.3587 -0.0175 -0.9333
vn -0.9991 -0.0412 -0.0094
vn -0.1715 0.7276 0.6642
vn -0.1732 0.2397 -0.9553
vn -0.3037 -0.0708 0.9501
vn -0.2233 0.0985 0.9698
vn 0.0779 -0.9354 0.3448
vn -0.2140 -0.9749 -0.0623
vn 0.2471 -0.9689 -0.0103
vn 0.0070 -0.0723 -0.9974
vn 0.1404 0.6078 0.7816
vn -0.0378 0.0661 0.9971
vn 0.9973 -0.0160 0.0718
vn -0.1403 -0.5669 -0.8118
vn -0.9992 0.0111 0.0372
vn 0.9746 -0.1436 0.1718
vn -0.1099 0.2890 0.9510
vn -0.1512 0.2808 0.9478
vn 0.0049 0.2366 -0.9716
vn -0.9988 0.0277 0.0406
vn -0.9752 -0.2188 -0.0342
vn -0.9995 0.0238 0.0203
vn -0.1470 0.0582 0.9874
vn 0.9951 0.0583 0.0804
vn 0.9601 0.2639 -0.0925
vn 0.0335 -0.4265 -0.9039
vn -0.2024 0.1754 0.9635
vn 0.9867 0.0724 0.1454
vn 0.8706 -0.4808 0.1042
vn -0.9604 0.2588 -0.1031
vn -0.2663 -0.6212 -0.7370
vn -0.1765 0.9644 0.1971
vn -0.7254 0.6051 0.3280
vn 0.0322 -0.9922 -0.1204
vn 0.9787 0.1033 0.1775
vn -0.9629 0.0752 -0.2592
vn 0.0183 0.1443 -0.9894
vn -0.1295 0.8755 0.4656
vn -0.0194 -0.9248 0.3801
vn -0.0450 0.9937 -0.1023
vn -0.9220 0.3546 -0.1552
vn -0.9807 0.1954 0.0075
vn -0.0700 0.9324 0.3546
vn 0.0162 -0.9993 -0.0345
vn 0.9818 0.1887 -0.0209
vn 0.9943 -0.0664 -0.0832
vn -0.1283 0.3959 -0.9093
vn -0.9676 0.1766 0.1803
vn -0.3332 -0.2109 0.9190
vn -0.1210 -0.3586 0.9256
vn -0.3392 0.8544 0.3937
vn -0.1801 -0.9721 -0.1501
vn -0.9931 0.1004 0.0606
vn 0.9621 -0.2606 -0.0804
vn -0.0584 0.3333 -0.9410
vn 0.9812 -0.1747 -0.0825
vn -0.0351 0.1551 -0.9873
vn -0.9992 0.0255 0.0314
vn 0.0876 -0.1061 0.9905
vn -0.0906 -0.9870 -0.1326
vn 0.1952 0.9529 0.2322
vn 0.0825 -0.1258 0.9886
vn -0.9741 0.2243 0.0292
vn -0.0352 0.1473 -0.9885
vn 0.9960 -0.0815 -0.0355
vn 1.0000 -0.0063 0.0017
vn -0.1053 -0.1037 0.9890
vn -0.0743 0.4246 -0.9023
vn -0.0445 0.2374 -0.9704
vn -0.9928 -0.1003 0.0652
vn -0.1133 -0.8769 0.4671
vn -0.1816 -0.2932 0.9386
vn -0.0164 0.9921 0.1241
vn -0.2923 -0.9235 -0.2485
vn -0.8934 -0.4476 -0.0369
vn 0.9697 0.2375 0.0575
vn -0.0418 -0.0417 -0.9983
vn 0.9650 -0.0584 0.2557
vn -0.5401 -0.1447 0.8291
vn 0.0318 0.3099 0.9502
vn -0.3448 0.0124 0.9386
vn -0.4279 0.1911 0.8834
vn 0.3812 -0.0349 -0.9239
vn -0.9543 -0.2493 0.1646
vn -0.5485 -0.2600 0.7947
vn -0.4214 -0.7985 -0.4300
vn 0.3835 0.3793 -0.8421
vn -0.1610 0.9425 -0.2930
vn -0.6428 -0.0473 0.7645
vn -0.2662 0.2138 0.9399
vn -0.4207 0.3803 -0.8236
vn -0.5930 0.7991 -0.0991
vn -0.9995 0.0203 0.0229
vn -0.3841 -0.2937 -0.8754
vn -0.0765 -0.9293 -0.3612
vn -0.5187 0.8002 0.3010
vn -0.1182 0.9316 0.3437
vn -0.9263 0.2848 -0.2469
vn -0.5381 -0.8279 -0.1581
vn -0.9448 -0.1228 -0.3038
vn -0.2777 -0.8923 -0.3560
vn -0.4408 0.3381 -0.8315
vn -0.3563 -0.3362 0.8718
vn -0.4667 -0.0118 0.8843
vn -0.3978 0.0871 0.9133
vn 0.4344 0.0891 0.8963
vn 0.5031 -0.0099 0.8642
vn -0.3682 -0.2922 -0.8826
vn -0.2224 -0.3137 0.9231
vn -0.3943 -0.9144 0.0916
vn 0.0770 0.0221 -0.9968
vn -0.9361 -0.2127 0.2800
vn 0.1442 0.9111 0.3862
vn -0.8674 -0.3827 -0.3180
vn 0.9820 -0.0338 0.1858
vn 0.9588 0.0037 -0.2839
vn -0.9735 -0.0344 0.2260
vn 0.9823 -0.0309 0.1846
vn -0.9352 0.2428 0.2579
vn -0.9706 0.0028 -0.2405
vt 0.769832 0.195645
vt 0.775252 0.120749
vt 0.898457 0.115387
vt 0.893855 0.199439
vt 0.779478 0.033265
vt 0.875888 0.020883
vt 0.079276 0.380758
vt 0.015809 0.352495
vt 0.092810 0.349129
vt 0.640892 0.115732
vt 0.651808 0.045918
vt 0.972902 0.747099
vt 0.945788 0.808209
vt 0.869285 0.817542
vt 0.869303 0.746010
vt 0.623064 0.191154
vt 0.978616 0.563599
vt 0.869350 0.563483
vt 0.869382 0.439703
vt 0.981068 0.426748
vt 0.887298 0.020144
vt 0.903448 0.092046
vt 0.869386 0.423683
vt 0.966087 0.423037
vt 0.919014 0.125551
vt 0.901661 0.199678
vt 0.080227 0.193471
vt 0.035111 0.194551
vt 0.029851 0.129329
vt 0.078457 0.129531
vt 0.524664 0.024934
vt 0.453935 0.048979
vt 0.476762 0.096074
vt 0.529992 0.085338
vt 0.458519 0.014915
vt 0.140591 0.209945
vt 0.084060 0.210053
vt 0.139428 0.189660
vt 0.088688 0.293915
vt 0.019697 0.289600
vt 0.036330 0.210891
vt 0.589766 0.089175
vt 0.538912 0.169399
vt 0.588096 0.171055
vt 0.169119 0.280272
vt 0.494132 0.172296
vt 0.495777 0.194811
vt 0.540097 0.192752
vt 0.594693 0.186440
vt 0.602720 0.254314
vt 0.550300 0.251019
vt 0.546511 0.359212
vt 0.576655 0.358602
vt 0.502818 0.254080
vt 0.133655 0.131663
vt 0.460444 0.638059
vt 0.461859 0.667341
vt 0.511272 0.661029
vt 0.492341 0.643217
vt 0.059953 0.028917
vt 0.089979 0.037143
vt 0.513486 0.356281
vt 0.126069 0.032173
vt 0.187391 0.328606
vt 0.600139 0.026470
vt 0.980612 0.851849
vt 0.869271 0.873069
vt 0.214036 0.700438
vt 0.168892 0.698897
vt 0.170775 0.659242
vt 0.208186 0.653496
vt 0.429138 0.636018
vt 0.382088 0.640297
vt 0.380987 0.679254
vt 0.425514 0.672609
vt 0.172591 0.619486
vt 0.211119 0.618494
vt 0.342980 0.638844
vt 0.341450 0.677655
vt 0.504441 0.606319
vt 0.529468 0.607110
vt 0.250819 0.702808
vt 0.243337 0.651469
vt 0.292311 0.649141
vt 0.300801 0.705699
vt 0.244056 0.622019
vt 0.258050 0.585846
vt 0.290061 0.591615
vt 0.277688 0.628694
vt 0.226990 0.579872
vt 0.239778 0.437910
vt 0.241642 0.380815
vt 0.334062 0.371731
vt 0.335105 0.430080
vt 0.244961 0.564466
vt 0.270260 0.519900
vt 0.334573 0.576660
vt 0.267325 0.484741
vt 0.339743 0.479221
vt 0.337393 0.523671
vt 0.397256 0.433766
vt 0.400592 0.476589
vt 0.218167 0.523740
vt 0.216842 0.468389
vt 0.934188 0.071641
vt 0.985147 0.071450
vt 0.980416 0.114135
vt 0.934188 0.111273
vt 0.409685 0.525397
vt 0.413123 0.381914
vt 0.413123 0.570440
vt 0.588235 0.616390
vt 0.541774 0.616014
vt 0.540412 0.699472
vt 0.594290 0.698674
vt 0.733169 0.616366
vt 0.683834 0.612729
vt 0.688349 0.697632
vt 0.724849 0.697622
vt 0.637083 0.612063
vt 0.634642 0.698467
vt 0.933176 0.242559
vt 0.985452 0.244219
vt 0.985670 0.280546
vt 0.933413 0.282101
vt 0.980360 0.291116
vt 0.933814 0.295150
vt 0.933988 0.335813
vt 0.980548 0.334832
vt 0.637975 0.554612
vt 0.592385 0.555443
vt 0.685764 0.549762
vt 0.727568 0.549351
vt 0.544847 0.548303
vt 0.557765 0.809694
vt 0.510229 0.803468
vt 0.511171 0.765578
vt 0.565124 0.764368
vt 0.479691 0.799649
vt 0.486340 0.766582
vt 0.437092 0.787533
vt 0.443585 0.748829
vt 0.425923 0.754711
vt 0.422123 0.742946
vt 0.429690 0.730629
vt 0.447798 0.694577
vt 0.457086 0.718428
vt 0.949739 0.404064
vt 0.949739 0.353270
vt 0.982292 0.353270
vt 0.982292 0.404064
vt 0.460533 0.693281
vt 0.502277 0.717435
vt 0.495857 0.735141
vt 0.514016 0.729944
vt 0.562185 0.720311
vt 0.408828 0.775679
vt 0.278149 0.967649
vt 0.246334 0.979776
vt 0.249708 0.914564
vt 0.277992 0.912907
vt 0.013923 0.884272
vt 0.022151 0.852843
vt 0.077991 0.867331
vt 0.074449 0.892252
vt 0.315578 0.881871
vt 0.272833 0.868911
vt 0.266436 0.823662
vt 0.311469 0.826118
vt 0.312630 0.841540
vt 0.233032 0.873502
vt 0.237034 0.853143
vt 0.243726 0.809688
vt 0.293162 0.797592
vt 0.353002 0.808376
vt 0.344750 0.831707
vt 0.171111 0.912654
vt 0.129263 0.910165
vt 0.133762 0.881302
vt 0.504295 0.904470
vt 0.456722 0.873442
vt 0.486878 0.832177
vt 0.523186 0.892354
vt 0.393060 0.750737
vt 0.369166 0.770382
vt 0.342151 0.723866
vt 0.371660 0.694150
vt 0.224422 0.982399
vt 0.224589 0.913793
vt 0.464697 0.929008
vt 0.510943 0.418646
vt 0.509620 0.457222
vt 0.450276 0.457321
vt 0.451259 0.416801
vt 0.371260 0.868269
vt 0.391399 0.792592
vt 0.427034 0.854273
vt 0.224914 0.800301
vt 0.250611 0.780243
vt 0.499027 0.969201
vt 0.535560 0.959128
vt 0.557854 0.949811
vt 0.378068 0.967627
vt 0.326324 0.969178
vt 0.319455 0.907637
vt 0.374611 0.893121
vt 0.340158 0.885118
vt 0.330117 0.844664
vt 0.450534 0.480546
vt 0.422105 0.480397
vt 0.434613 0.451640
vt 0.511818 0.394240
vt 0.445658 0.392364
vt 0.509788 0.480859
vt 0.224768 0.847580
vt 0.329170 0.701515
vt 0.145363 0.785723
vt 0.128390 0.783055
vt 0.170261 0.738493
vt 0.116930 0.746993
vt 0.160651 0.716692
vt 0.111510 0.779844
vt 0.893310 0.283615
vt 0.770664 0.270731
vt 0.865483 0.388919
vt 0.769534 0.358310
vt 0.423897 0.371814
vt 0.408299 0.341150
vt 0.485355 0.339413
vt 0.636248 0.267526
vt 0.642876 0.337877
vt 0.765704 0.747046
vt 0.792786 0.808169
vt 0.760084 0.563543
vt 0.757703 0.426691
vt 0.876826 0.390354
vt 0.896865 0.307217
vt 0.772687 0.422987
vt 0.914451 0.274726
vt 0.410556 0.185000
vt 0.408092 0.121083
vt 0.456578 0.117665
vt 0.455645 0.183093
vt 0.253560 0.018334
vt 0.251430 0.078936
vt 0.305153 0.086844
vt 0.325460 0.038610
vt 0.319084 0.004836
vt 0.351414 0.205432
vt 0.351233 0.185114
vt 0.407829 0.201799
vt 0.408760 0.285783
vt 0.455510 0.199477
vt 0.477314 0.276913
vt 0.191942 0.085924
vt 0.197935 0.167602
vt 0.246963 0.163350
vt 0.327602 0.277492
vt 0.291833 0.163878
vt 0.247013 0.186734
vt 0.291379 0.186449
vt 0.192159 0.183314
vt 0.187729 0.251517
vt 0.219266 0.354283
vt 0.249400 0.353300
vt 0.239901 0.245457
vt 0.287479 0.246007
vt 0.353156 0.126862
vt 0.373466 0.625371
vt 0.341578 0.620155
vt 0.322681 0.602307
vt 0.372105 0.596087
vt 0.390482 0.029659
vt 0.419898 0.019465
vt 0.282224 0.348629
vt 0.354142 0.027088
vt 0.312568 0.326929
vt 0.178272 0.023855
vt 0.757941 0.851792
vt 0.013855 0.710087
vt 0.062637 0.719760
vt 0.053791 0.758555
vt 0.012068 0.757539
vt 0.404768 0.627471
vt 0.408460 0.590887
vt 0.452999 0.584325
vt 0.451825 0.623280
vt 0.095615 0.759647
vt 0.099560 0.719322
vt 0.492533 0.585997
vt 0.490931 0.624805
vt 0.329410 0.657029
vt 0.304385 0.656192
vt 0.014143 0.671338
vt 0.013329 0.626462
vt 0.071995 0.639628
vt 0.067412 0.683054
vt 0.098346 0.684520
vt 0.093882 0.648751
vt 0.133695 0.638573
vt 0.137331 0.672574
vt 0.141254 0.705593
vt 0.185664 0.538131
vt 0.086734 0.549483
vt 0.089781 0.610162
vt 0.185643 0.597604
vt 0.176017 0.406617
vt 0.082362 0.396940
vt 0.151191 0.453841
vt 0.081208 0.452173
vt 0.080256 0.498505
vt 0.155426 0.490326
vt 0.011387 0.503289
vt 0.011387 0.547736
vt 0.208505 0.505645
vt 0.205267 0.448094
vt 0.933051 0.227541
vt 0.935500 0.187984
vt 0.981816 0.187984
vt 0.983901 0.230880
vt 0.011387 0.452807
vt 0.011387 0.602224
vt 0.011387 0.406053
vt 0.685388 0.464625
vt 0.679517 0.382326
vt 0.733395 0.381660
vt 0.731848 0.465114
vt 0.540455 0.464294
vt 0.548955 0.383058
vt 0.585455 0.383138
vt 0.589782 0.468052
vt 0.639164 0.382434
vt 0.636531 0.468832
vt 0.926036 0.053242
vt 0.926036 0.013699
vt 0.978301 0.014940
vt 0.978301 0.051267
vt 0.941318 0.172865
vt 0.942408 0.129162
vt 0.988977 0.129542
vt 0.987962 0.170192
vt 0.635511 0.526281
vt 0.681104 0.525562
vt 0.587712 0.531014
vt 0.545907 0.531323
vt 0.728625 0.532818
vt 0.736669 0.725394
vt 0.735353 0.771722
vt 0.683130 0.758703
vt 0.689295 0.721117
vt 0.659178 0.752270
vt 0.658895 0.718191
vt 0.614298 0.760413
vt 0.615218 0.720808
vt 0.598227 0.750739
vt 0.592334 0.761513
vt 0.621741 0.793364
vt 0.608255 0.814858
vt 0.597389 0.775323
vt 0.902963 0.354102
vt 0.935516 0.354102
vt 0.935516 0.404895
vt 0.902963 0.404895
vt 0.620394 0.818928
vt 0.662554 0.785374
vt 0.665487 0.804249
vt 0.724263 0.814542
vt 0.679237 0.794482
vt 0.585527 0.726307
vt 0.170921 0.966691
vt 0.199450 0.914463
vt 0.202557 0.979360
vt 0.434990 0.885665
vt 0.136920 0.840949
vt 0.138178 0.825523
vt 0.183245 0.823379
vt 0.176564 0.868613
vt 0.206044 0.809560
vt 0.212468 0.853064
vt 0.216352 0.873452
vt 0.156680 0.797114
vt 0.104811 0.830875
vt 0.096708 0.807441
vt 0.427703 0.967162
vt 0.542713 0.881290
vt 0.537443 0.824738
vt 0.340263 0.781402
vt 0.301717 0.734772
vt 0.020099 0.966282
vt 0.069986 0.966279
vt 0.582883 0.857700
vt 0.510287 0.543080
vt 0.450588 0.544296
vt 0.450031 0.503768
vt 0.509371 0.504492
vt 0.058337 0.791326
vt 0.199393 0.779972
vt 0.602434 0.906809
vt 0.576490 0.934433
vt 0.122173 0.967791
vt 0.119390 0.843962
vt 0.109116 0.884444
vt 0.434309 0.509284
vt 0.510905 0.567494
vt 0.444729 0.568673
vt 0.612579 0.943799
vt 0.704302 0.960286
vt 0.690069 0.863893
vt 0.628178 0.846809
vt 0.727017 0.964931
vt 0.742045 0.877429
vt 0.749981 0.968131
vt 0.795559 0.882010
vt 0.849700 0.973890
vt 0.859604 0.886554
vt 0.262137 0.727847
vt 0.208247 0.720642
vt 0.265551 0.745007
vt 0.235108 0.768630
vt 0.190786 0.737487
vt 0.268411 0.762268
s 0
f 103/1/1 2/2/1 8/3/1 112/4/1
f 2/2/2 1/5/2 7/6/2 8/3/2
f 119/7/3 5/8/3 117/9/3
f 6/10/4 4/11/4 1/5/4 2/2/4
f 4/12/5 29/13/5 141/14/5 113/15/5
f 111/16/6 6/10/6 2/2/6 103/1/6
f 1/17/7 104/18/7 114/19/7 7/20/7
f 4/12/8 113/15/8 104/18/8
f 3/21/9 5/22/9 8/3/9 7/6/9
f 118/23/10 3/24/10 7/20/10 114/19/10
f 5/25/11 119/26/11 112/4/11 8/3/11
f 18/27/12 11/28/12 19/29/12 22/30/12
f 3/31/13 120/32/13 27/33/13 28/34/13
f 3/31/14 118/35/14 120/32/14
f 15/36/15 16/37/15 18/27/15 17/38/15
f 10/39/16 9/40/16 14/41/16 16/37/16
f 9/42/17 28/34/17 13/43/17 14/44/17
f 27/45/18 10/39/18 16/37/18 15/36/18
f 28/34/19 27/33/19 15/46/19 13/43/19
f 13/43/20 15/46/20 17/47/20 12/48/20
f 16/37/21 14/41/21 11/28/21 18/27/21
f 14/44/22 13/43/22 12/48/22 11/49/22
f 19/50/23 20/51/23 24/52/23 23/53/23
f 11/49/24 12/48/24 20/51/24 19/50/24
f 12/48/25 17/47/25 21/54/25 20/51/25
f 17/38/26 18/27/26 22/30/26 21/55/26
f 39/56/27 38/57/27 36/58/27 34/59/27
f 22/30/28 19/29/28 23/60/28 26/61/28
f 20/51/29 21/54/29 25/62/29 24/52/29
f 21/55/30 22/30/30 26/61/30 25/63/30
f 120/64/31 117/9/31 10/39/31 27/45/31
f 5/65/32 3/31/32 28/34/32 9/42/32
f 117/9/33 5/8/33 9/40/33 10/39/33
f 141/14/34 29/13/34 6/66/34 111/67/34
f 6/66/35 29/13/35 4/12/35
f 30/68/36 31/69/36 32/70/36 33/71/36
f 25/72/37 26/73/37 31/74/37 30/75/37
f 23/76/38 24/77/38 33/71/38 32/70/38
f 26/73/39 23/78/39 32/79/39 31/74/39
f 35/80/40 34/59/40 36/58/40 37/81/40
f 38/82/41 40/83/41 37/84/41 36/85/41
f 41/86/42 39/87/42 34/88/42 35/89/42
f 40/83/43 41/86/43 35/89/43 37/84/43
f 33/71/44 24/77/44 41/86/44 40/83/44
f 24/77/45 25/90/45 39/87/45 41/86/45
f 30/68/46 33/71/46 40/83/46 38/82/46
f 25/72/47 30/75/47 38/57/47 39/56/47
f 43/91/48 45/92/48 44/93/48 42/94/48
f 45/95/49 49/96/49 44/97/49
f 49/96/50 47/98/50 46/99/50 48/100/50
f 47/98/51 43/91/51 42/94/51
f 46/99/52 42/94/52 50/101/52 52/102/52
f 47/98/53 49/96/53 45/103/53 43/104/53
f 50/105/54 51/106/54 53/107/54 52/108/54
f 48/100/55 46/99/55 52/102/55 53/109/55
f 42/94/56 44/93/56 51/110/56 50/101/56
f 44/97/57 48/100/57 53/109/57 51/111/57
f 62/112/58 63/113/58 56/114/58 54/115/58
f 63/116/59 64/117/59 60/118/59 56/119/59
f 64/117/60 65/120/60 58/121/60 60/118/60
f 65/120/61 62/112/61 54/115/61 58/121/61
f 54/122/62 56/123/62 60/124/62 58/125/62
f 59/126/63 61/127/63 57/128/63 55/129/63
f 59/130/64 55/131/64 62/112/64 65/120/64
f 61/132/65 59/130/65 65/120/65 64/117/65
f 57/133/66 61/132/66 64/117/66 63/116/66
f 55/131/67 57/134/67 63/113/67 62/112/67
f 67/135/68 69/136/68 68/137/68 78/138/68
f 42/94/69 46/99/69 47/98/69
f 44/97/70 49/96/70 48/100/70
f 69/136/71 73/139/71 72/140/71 68/137/71
f 73/139/72 71/141/72 70/142/72 72/140/72
f 66/143/73 78/144/73 70/142/73
f 70/142/74 78/145/74 75/146/74 77/147/74
f 71/148/75 73/149/75 69/150/75 67/151/75
f 75/152/76 74/153/76 76/154/76 77/147/76
f 72/140/77 70/142/77 77/147/77 76/154/77
f 78/138/78 68/137/78 74/155/78 75/156/78
f 68/137/79 72/140/79 76/154/79 74/155/79
f 67/157/80 78/144/80 66/143/80
f 71/141/81 66/143/81 70/142/81
f 67/157/82 66/143/82 71/141/82
f 104/18/83 1/17/83 4/12/83
f 82/158/84 88/159/84 96/160/84 97/161/84
f 226/162/85 192/163/85 195/164/85 224/165/85
f 91/166/86 79/167/86 81/168/86 90/169/86 99/170/86
f 79/167/87 85/171/87 98/172/87 86/173/87 81/168/87
f 93/174/88 87/175/88 83/176/88 90/169/88
f 221/177/89 233/178/89 210/179/89
f 92/180/90 84/181/90 200/182/90 211/183/90
f 85/184/91 193/185/91 227/186/91 98/187/91
f 88/159/92 202/188/92 220/189/92 96/160/92
f 89/190/93 84/181/93 92/180/93
f 87/191/94 93/192/94 95/193/94 94/194/94
f 80/195/95 201/196/95 192/197/95
f 203/198/96 212/199/96 93/174/96 86/173/96
f 82/200/97 89/190/97 92/180/97 88/201/97
f 88/201/98 92/180/98 211/183/98 202/202/98
f 84/203/99 89/204/99 223/205/99 225/206/99
f 86/173/100 93/174/100 90/169/100 81/168/100
f 80/195/101 100/207/101 101/208/101 99/170/101 90/169/101 83/176/101
f 217/209/102 216/210/102 94/211/102 95/193/102
f 201/212/103 87/191/103 94/194/103 216/213/103
f 93/192/104 212/214/104 217/209/104 95/193/104
f 89/204/105 82/158/105 97/161/105 223/205/105
f 87/175/106 201/196/106 80/195/106 83/176/106
f 98/172/107 222/215/107 203/198/107 86/173/107
f 222/216/108 98/187/108 227/186/108
f 100/217/109 102/218/109 101/219/109
f 91/220/110 99/221/110 102/218/110
f 100/222/111 91/220/111 102/218/111
f 102/218/112 99/221/112 101/219/112
f 103/1/113 112/4/113 116/223/113 106/224/113
f 106/224/114 116/223/114 115/225/114 105/226/114
f 119/227/115 117/228/115 109/229/115
f 110/230/116 106/224/116 105/226/116 108/231/116
f 108/232/117 113/15/117 141/14/117 142/233/117
f 111/16/118 103/1/118 106/224/118 110/230/118
f 105/234/119 115/235/119 114/19/119 104/18/119
f 108/232/120 104/18/120 113/15/120
f 107/236/121 115/225/121 116/223/121 109/237/121
f 118/23/122 114/19/122 115/235/122 107/238/122
f 109/239/123 116/223/123 112/4/123 119/26/123
f 130/240/124 134/241/124 131/242/124 123/243/124
f 107/244/125 140/245/125 139/246/125 120/247/125
f 107/244/126 120/247/126 118/248/126
f 127/249/127 129/250/127 130/240/127 128/251/127
f 122/252/128 128/251/128 126/253/128 121/254/128
f 121/255/129 126/256/129 125/257/129 140/245/129
f 139/258/130 127/249/130 128/251/130 122/252/130
f 140/245/131 125/257/131 127/259/131 139/246/131
f 125/257/132 124/260/132 129/261/132 127/259/132
f 128/251/133 130/240/133 123/243/133 126/253/133
f 126/256/134 123/262/134 124/260/134 125/257/134
f 131/263/135 135/264/135 136/265/135 132/266/135
f 123/262/136 131/263/136 132/266/136 124/260/136
f 124/260/137 132/266/137 133/267/137 129/261/137
f 129/250/138 133/268/138 134/241/138 130/240/138
f 152/269/139 147/270/139 149/271/139 151/272/139
f 134/241/140 138/273/140 135/274/140 131/242/140
f 132/266/141 136/265/141 137/275/141 133/267/141
f 133/268/142 137/276/142 138/273/142 134/241/142
f 120/277/143 139/258/143 122/252/143 117/228/143
f 109/278/144 121/255/144 140/245/144 107/244/144
f 117/228/145 122/252/145 121/254/145 109/229/145
f 141/14/146 111/67/146 110/279/146 142/233/146
f 110/279/147 108/232/147 142/233/147
f 143/280/148 146/281/148 145/282/148 144/283/148
f 137/284/149 143/285/149 144/286/149 138/287/149
f 135/288/150 145/282/150 146/281/150 136/289/150
f 138/287/151 144/286/151 145/290/151 135/291/151
f 148/292/152 150/293/152 149/271/152 147/270/152
f 151/294/153 149/295/153 150/296/153 153/297/153
f 154/298/154 148/299/154 147/300/154 152/301/154
f 153/297/155 150/296/155 148/299/155 154/298/155
f 146/281/156 153/297/156 154/298/156 136/289/156
f 136/289/157 154/298/157 152/301/157 137/302/157
f 143/280/158 151/294/158 153/297/158 146/281/158
f 137/284/159 152/269/159 151/272/159 143/285/159
f 156/303/160 155/304/160 157/305/160 158/306/160
f 158/307/161 157/308/161 162/309/161
f 162/309/162 161/310/162 159/311/162 160/312/162
f 160/312/163 155/304/163 156/303/163
f 159/311/164 165/313/164 163/314/164 155/304/164
f 160/312/165 156/315/165 158/316/165 162/309/165
f 163/317/166 165/318/166 166/319/166 164/320/166
f 161/310/167 166/321/167 165/313/167 159/311/167
f 155/304/168 163/314/168 164/322/168 157/305/168
f 157/308/169 164/323/169 166/321/169 161/310/169
f 175/324/170 167/325/170 169/326/170 176/327/170
f 176/328/171 169/329/171 173/330/171 177/331/171
f 177/331/172 173/330/172 171/332/172 178/333/172
f 178/333/173 171/332/173 167/325/173 175/324/173
f 167/334/174 171/335/174 173/336/174 169/337/174
f 172/338/175 168/339/175 170/340/175 174/341/175
f 172/342/176 178/333/176 175/324/176 168/343/176
f 174/344/177 177/331/177 178/333/177 172/342/177
f 170/345/178 176/328/178 177/331/178 174/344/178
f 168/343/179 175/324/179 176/327/179 170/346/179
f 180/347/180 191/348/180 181/349/180 182/350/180
f 155/304/181 160/312/181 159/311/181
f 157/308/182 161/310/182 162/309/182
f 182/350/183 181/349/183 185/351/183 186/352/183
f 186/352/184 185/351/184 183/353/184 184/354/184
f 179/355/185 183/353/185 191/356/185
f 183/353/186 190/357/186 188/358/186 191/359/186
f 184/360/187 180/361/187 182/362/187 186/363/187
f 188/364/188 190/357/188 189/365/188 187/366/188
f 185/351/189 189/365/189 190/357/189 183/353/189
f 191/348/190 188/367/190 187/368/190 181/349/190
f 181/349/191 187/368/191 189/365/191 185/351/191
f 180/369/192 179/355/192 191/356/192
f 184/354/193 183/353/193 179/355/193
f 180/369/194 184/354/194 179/355/194
f 104/18/195 108/232/195 105/234/195
f 197/370/196 221/177/196 219/371/196 207/372/196
f 80/195/197 192/197/197 226/373/197 225/206/197
f 210/179/198 229/374/198 209/375/198 196/376/198 194/377/198
f 194/377/199 196/376/199 205/378/199 228/379/199 204/380/199
f 214/381/200 209/375/200 198/382/200 206/383/200
f 225/206/201 226/373/201 200/384/201 84/203/201
f 213/385/202 211/183/202 200/182/202 199/386/202
f 204/387/203 228/388/203 227/186/203 193/185/203
f 207/372/204 219/371/204 220/189/204 202/188/204
f 200/389/205 226/162/205 224/165/205 199/390/205
f 208/391/206 213/385/206 199/386/206
f 206/392/207 215/393/207 218/394/207 214/395/207
f 195/164/208 192/163/208 201/396/208
f 203/198/209 205/378/209 214/381/209 212/397/209
f 197/398/210 207/399/210 213/385/210 208/391/210
f 207/399/211 202/202/211 211/183/211 213/385/211
f 199/390/212 224/165/212 233/178/212 208/400/212
f 205/378/213 196/376/213 209/375/213 214/381/213
f 195/164/214 198/382/214 209/375/214 229/374/214 231/401/214 230/402/214
f 217/209/215 218/394/215 215/403/215 216/210/215
f 201/404/216 216/405/216 215/393/216 206/392/216
f 214/395/217 218/394/217 217/209/217 212/214/217
f 194/406/218 204/407/218 219/408/218 221/409/218
f 204/407/219 193/410/219 220/411/219 219/408/219
f 85/412/220 96/413/220 220/411/220 193/410/220
f 79/414/221 97/415/221 96/413/221 85/412/221
f 206/383/222 198/382/222 195/164/222 201/396/222
f 228/379/223 205/378/223 203/198/223 222/215/223
f 222/216/224 227/186/224 228/388/224
f 230/416/225 231/417/225 232/418/225
f 210/419/226 232/418/226 229/420/226
f 230/421/227 232/418/227 210/419/227
f 232/418/228 231/417/228 229/420/228
f 223/205/229 97/161/229 91/166/229
f 225/206/230 223/205/230 91/166/230 100/207/230 80/195/230
f 221/177/231 210/179/231 194/377/231
f 91/166/232 97/161/232 79/167/232
f 233/178/233 221/177/233 197/370/233 208/400/233
f 233/178/234 224/165/234 195/164/234 230/402/234 210/179/234
