# Blender 4.3.2
# www.blender.org
o beggar
v 0.195969 1.112352 0.152972
v 0.173402 1.175004 -0.101640
v 0.186522 0.827132 0.110710
v 0.183293 1.432044 0.151017
v 0.190877 0.846550 -0.137556
v 0.195668 1.517931 -0.018493
v 0.200732 0.828230 0.128099
v 0.224489 0.844335 -0.146603
v 0.247832 0.721513 -0.104632
v 0.070810 0.669412 -0.150325
v 0.281712 0.518172 -0.125830
v 0.263753 0.405871 -0.059329
v 0.265163 0.476641 0.002113
v 0.277371 0.508280 -0.115858
v 0.152072 0.454315 0.011303
v 0.151189 0.494011 -0.118700
v 0.150963 0.402376 -0.034766
v 0.154903 0.522630 -0.116269
v 0.255939 0.487126 -0.290627
v 0.251085 0.359114 -0.223219
v 0.126750 0.354575 -0.197502
v 0.113328 0.499773 -0.271509
v 0.151107 0.289343 -0.513273
v 0.164145 0.322522 -0.467220
v 0.082619 0.342832 -0.453761
v 0.069126 0.321773 -0.489601
v 0.082138 0.653270 0.092423
v 0.229053 0.704870 0.087386
v 0.145607 1.512220 0.088880
v 0.068957 0.286555 -0.407232
v 0.053098 0.258087 -0.507263
v 0.139674 0.245844 -0.512554
v 0.172443 0.271912 -0.423910
v 0.080420 0.423982 -0.327998
v 0.164882 0.419925 -0.342016
v 0.063262 0.413513 -0.273909
v 0.186854 0.405436 -0.292248
v 0.068842 0.346558 -0.358870
v 0.079538 0.398213 -0.396052
v 0.181472 0.338351 -0.374124
v 0.162985 0.382300 -0.416153
v 0.140206 1.302950 0.127173
v 0.109865 1.529725 0.085069
v 0.162662 1.301838 -0.028787
v 0.128932 1.520547 -0.037918
v 0.274664 1.330602 0.118197
v 0.228722 1.488224 0.064895
v 0.292592 1.328483 -0.006464
v 0.248283 1.492822 -0.010755
v 0.204409 1.156774 0.130887
v 0.213056 1.115723 -0.001541
v 0.305368 1.177285 0.130972
v 0.320033 1.145885 0.008915
v 0.210313 0.846194 0.253451
v 0.180939 1.157929 0.096251
v 0.273284 0.799983 0.142168
v 0.228645 1.126716 -0.010540
v 0.302938 0.869512 0.291439
v 0.282178 1.194116 0.133063
v 0.358376 0.821406 0.177066
v 0.322814 1.160376 0.023700
v 0.188686 1.021823 0.153881
v 0.240058 0.978421 0.055266
v 0.357188 1.022255 0.096990
v 0.301358 1.069424 0.204165
v 0.231478 0.793662 0.303976
v 0.232495 0.847764 0.239806
v 0.282767 0.731477 0.174301
v 0.279794 0.811299 0.151398
v 0.284505 0.778708 0.300893
v 0.293768 0.860838 0.267195
v 0.345139 0.744786 0.202181
v 0.341067 0.824373 0.178786
v 0.267563 0.663033 0.209562
v 0.218080 0.679107 0.307898
v 0.305137 0.678193 0.222058
v 0.267664 0.705705 0.308736
v 0.236557 0.766716 0.287917
v 0.074836 1.645718 0.193165
v 0.061078 1.686233 0.039612
v 0.054783 1.572245 0.175335
v 0.058781 1.794388 0.187775
v 0.064369 1.621977 0.060586
v 0.047679 1.810518 0.071890
v 0.010999 1.648550 0.232067
v 0.024340 1.545889 0.195304
v 0.036392 1.606336 0.056256
v 0.022262 1.807668 0.203156
v 0.069235 1.803803 0.130640
v 0.073157 1.596165 0.108216
v 0.089208 1.682399 0.125365
v 0.021911 1.837157 0.131700
v 0.037992 1.571909 0.125961
v 0.038135 1.492630 0.007709
v 0.039785 1.461355 0.083491
v 0.027263 1.715535 0.221229
v 0.076586 1.714116 0.195228
v 0.016700 1.614782 0.221756
v 0.078535 1.619527 0.113037
v 0.083245 1.697546 0.088057
v 0.074130 1.632879 0.087664
v 0.103752 1.701517 0.085830
v -0.008107 1.192106 -0.144951
v 0.005077 1.107969 0.221642
v -0.191791 1.118239 0.144152
v -0.185151 1.167825 -0.098473
v -0.190461 0.897067 0.114384
v -0.198253 1.432044 0.144584
v -0.194853 0.801091 -0.088494
v -0.205075 1.517931 -0.025908
v -0.004615 1.563007 -0.027936
v -0.010612 0.843315 -0.212599
v -0.009311 1.453022 0.184198
v 0.003507 0.846185 0.192945
v -0.203565 0.896554 0.130242
v -0.230302 0.793918 -0.116172
v -0.007817 0.790174 -0.155543
v 0.002664 0.844133 0.133908
v -0.008612 0.845339 -0.158137
v 0.003912 0.793148 0.139386
v -0.241705 0.704797 0.016363
v -0.063030 0.650031 0.000033
v -0.259608 0.512168 0.134190
v -0.247501 0.508271 0.274406
v -0.248458 0.592254 0.257922
v -0.255998 0.530228 0.145802
v -0.136340 0.589142 0.277902
v -0.128139 0.521776 0.150509
v -0.135509 0.520407 0.290858
v -0.131340 0.517867 0.134288
v -0.246212 0.344647 0.092959
v -0.245378 0.343792 0.238296
v -0.122243 0.355326 0.257530
v -0.102488 0.357888 0.094729
v -0.162218 0.067529 0.140001
v -0.174883 0.068205 0.222438
v -0.094912 0.069709 0.245604
v -0.078402 0.083735 0.144269
v -0.080853 0.780590 0.197454
v -0.229741 0.820129 0.171463
v -0.007630 1.531022 0.083752
v -0.159687 1.512220 0.082342
v -0.079924 -0.009145 0.230739
v -0.066206 -0.005082 0.130162
v -0.153376 -0.015035 0.126960
v -0.183779 -0.010055 0.211867
v -0.091517 0.043848 0.381631
v -0.175751 0.045084 0.367616
v -0.074079 0.006257 0.420927
v -0.197434 0.006247 0.399887
v -0.078353 -0.003896 0.311906
v -0.090057 0.059431 0.312539
v -0.190927 -0.003505 0.292565
v -0.172889 0.058884 0.294211
v -0.155695 1.284442 0.052176
v -0.127455 1.511887 0.092062
v -0.165099 1.336409 -0.096283
v -0.136025 1.545067 -0.027935
v -0.289573 1.314227 0.041523
v -0.243190 1.480333 0.048866
v -0.297039 1.354609 -0.077556
v -0.256513 1.510420 -0.022155
v -0.216431 1.146019 0.000665
v -0.213066 1.152360 -0.138065
v -0.317516 1.165832 -0.001024
v -0.321239 1.177768 -0.127288
v -0.262414 0.804510 -0.011735
v -0.206982 1.150454 -0.013732
v -0.283545 0.810702 -0.145899
v -0.216151 1.167583 -0.133219
v -0.363703 0.816699 0.000846
v -0.316958 1.175441 0.000223
v -0.376595 0.821900 -0.134340
v -0.318447 1.190826 -0.120239
v -0.222901 1.003472 -0.020722
v -0.237261 1.006428 -0.139182
v -0.364365 1.037482 -0.123000
v -0.348760 1.034269 0.005742
v -0.294226 0.737982 0.004289
v -0.279217 0.813196 -0.029821
v -0.297113 0.735931 -0.148357
v -0.293313 0.817934 -0.135470
v -0.342257 0.728597 -0.021205
v -0.346817 0.817735 -0.020598
v -0.365926 0.740551 -0.138968
v -0.360913 0.822473 -0.126247
v -0.288491 0.658344 -0.140297
v -0.273862 0.630857 -0.033491
v -0.329148 0.669381 -0.135510
v -0.323106 0.657713 -0.038033
v -0.291881 0.720052 -0.021841
v -0.007592 1.691621 0.010466
v -0.004211 1.649163 0.242799
v -0.084623 1.645476 0.195402
v -0.075387 1.685982 0.041547
v -0.064825 1.572063 0.177033
v -0.069165 1.792849 0.189227
v -0.077838 1.621726 0.062598
v -0.061086 1.809209 0.073124
v -0.007038 1.814942 0.048415
v -0.007098 1.616627 0.035339
v -0.005178 1.812002 0.209195
v -0.004610 1.539146 0.201980
v -0.019717 1.648547 0.232476
v -0.033755 1.545851 0.196142
v -0.049938 1.606190 0.057480
v -0.032636 1.807008 0.203779
v -0.081136 1.801994 0.132346
v -0.085173 1.595940 0.110448
v -0.101060 1.682049 0.128064
v -0.006353 1.836817 0.132021
v -0.005473 1.563882 0.144033
v -0.034616 1.836477 0.132342
v -0.049449 1.571823 0.127206
v -0.052956 1.492616 0.009008
v -0.007717 1.486750 -0.012920
v -0.006171 1.443450 0.095591
v -0.052439 1.461343 0.084808
v -0.036582 1.715327 0.222109
v -0.004512 1.715429 0.232828
v -0.086558 1.713603 0.197483
v -0.004400 1.605464 0.223719
v 0.090215 1.722779 0.127318
v -0.081384 1.721585 0.042787
v 0.066976 1.721858 0.040683
v -0.007679 1.728364 0.009100
v -0.004128 1.607240 0.243194
v -0.025578 1.614485 0.222425
v -0.090496 1.619238 0.115446
v -0.096213 1.697216 0.090602
v -0.086864 1.632600 0.089956
v -0.116789 1.701112 0.088958
v -0.102025 1.727114 0.130274
vn 0.2562 0.1758 -0.9505
vn 0.9959 0.0887 0.0154
vn 0.1028 -0.0452 -0.9937
vn 0.9995 -0.0110 -0.0279
vn 0.1381 0.7250 0.6748
vn 0.1736 0.2601 -0.9499
vn 0.3211 -0.0906 0.9427
vn 0.1807 0.1136 0.9770
vn -0.0114 -0.9976 -0.0684
vn -0.0783 -0.9953 0.0564
vn -0.0074 -0.9980 0.0629
vn 0.0438 0.9836 -0.1749
vn 0.1490 -0.1915 0.9701
vn 0.1344 0.1091 0.9849
vn -0.9986 -0.0350 -0.0409
vn 0.1595 -0.0067 -0.9872
vn 0.9857 0.1209 0.1174
vn -0.9288 -0.3697 -0.0249
vn 0.1443 -0.3278 0.9336
vn 0.1845 -0.6498 0.7374
vn 0.0188 0.1883 0.9819
vn 0.9918 -0.0744 0.1041
vn 0.9347 -0.2367 -0.2652
vn 0.9868 -0.1396 -0.0824
vn 0.0893 -0.9594 0.2677
vn -0.9797 0.0741 0.1862
vn -0.9662 0.2061 -0.1546
vn 0.0272 0.7561 -0.6539
vn -0.0550 -0.9924 0.1103
vn -0.9796 -0.0376 0.1975
vn -0.8549 -0.5183 0.0240
vn 0.9238 0.3747 0.0792
vn 0.1815 -0.0523 -0.9820
vn 0.1658 0.9644 0.2061
vn 0.7046 0.6109 0.3610
vn -0.0995 -0.9488 0.2999
vn -0.9582 0.2638 0.1108
vn 0.9542 -0.1523 -0.2575
vn -0.1187 0.1846 -0.9756
vn 0.0921 0.9691 0.2286
vn 0.0353 -0.7791 0.6260
vn 0.0258 0.9128 -0.4075
vn 0.9314 0.2807 -0.2318
vn 0.9753 0.0975 -0.1981
vn 0.0029 0.6867 -0.7269
vn 0.0513 -0.6146 0.7871
vn -0.9832 0.1079 -0.1470
vn -0.9777 -0.1567 -0.1398
vn 0.2204 -0.0067 -0.9754
vn 0.9385 0.2951 0.1793
vn 0.2337 0.2076 0.9499
vn 0.0248 0.0628 0.9977
vn 0.2781 0.9600 0.0319
vn 0.2132 -0.9343 0.2855
vn 0.9784 0.1782 0.1050
vn -0.9425 -0.3300 -0.0534
vn 0.1556 -0.0810 -0.9845
vn -0.8829 -0.3185 -0.3450
vn 0.4260 -0.3319 -0.8417
vn 0.9080 0.1668 0.3843
vn -0.4718 0.3692 0.8007
vn 0.0601 -0.9094 0.4116
vn -0.1974 0.9137 -0.3552
vn -0.4679 0.3519 0.8107
vn 0.9008 0.3352 0.2760
vn 0.4260 -0.3392 -0.8387
vn -0.9078 -0.2170 -0.3590
vn -0.9146 -0.1961 -0.3537
vn -0.0025 0.3197 0.9475
vn 0.1655 0.0189 -0.9860
vn 0.4378 -0.2329 -0.8684
vn 0.8794 0.1332 0.4571
vn -0.0983 -0.5231 0.8466
vn -0.2192 0.2131 0.9521
vn -0.0215 0.9201 -0.3910
vn 0.3550 -0.8589 0.3692
vn 0.8252 -0.2339 0.5142
vn -0.9061 0.0467 -0.4204
vn 0.4429 -0.4881 -0.7521
vn -0.9864 -0.1176 -0.1148
vn 0.1550 0.3600 0.9200
vn -0.4105 0.7004 0.5840
vn 0.3380 0.0192 0.9409
vn 0.4525 0.1889 0.8715
vn -0.4133 -0.0363 -0.9099
vn 0.9605 -0.2457 0.1308
vn 0.5761 -0.2587 0.7754
vn 0.4088 -0.7967 -0.4452
vn -0.9754 -0.0316 0.2181
vn 0.1295 0.9459 -0.2973
vn 0.6701 -0.0458 0.7408
vn 0.2929 0.2147 0.9317
vn 0.5704 0.8131 -0.1164
vn 0.9997 0.0210 -0.0129
vn 0.3541 -0.2923 -0.8883
vn 0.0651 -0.9291 -0.3639
vn 0.5080 0.8126 0.2857
vn 0.1058 0.9343 0.3403
vn 0.9220 0.2744 -0.2731
vn 0.5356 -0.8258 -0.1765
vn 0.9339 -0.1193 -0.3370
vn 0.2651 -0.8922 -0.3656
vn 0.4105 0.3384 -0.8468
vn 0.3872 -0.3361 0.8586
vn 0.9480 0.2335 0.2163
vn 0.3380 -0.2909 -0.8951
vn 0.2579 -0.3118 0.9145
vn 0.4088 -0.9094 0.0772
vn -0.1121 0.0218 -0.9935
vn 0.9462 -0.2091 0.2470
vn -0.1339 0.9106 0.3911
vn 0.8572 -0.3793 -0.3484
vn -0.3576 0.1327 -0.9244
vn -0.9951 0.0935 0.0308
vn -0.3396 -0.0491 -0.9393
vn -0.9992 -0.0384 -0.0121
vn -0.1650 0.7272 0.6663
vn -0.1680 0.2471 -0.9543
vn -0.3368 -0.0734 0.9387
vn -0.2145 0.0965 0.9719
vn 0.0472 -0.9148 0.4011
vn -0.2460 -0.9691 -0.0203
vn 0.2270 -0.9739 0.0056
vn -0.0099 0.2383 -0.9711
vn 0.1763 0.6761 0.7154
vn -0.0715 0.1048 0.9919
vn 0.9980 -0.0349 0.0521
vn -0.1616 -0.6467 -0.7454
vn -0.9959 0.0890 0.0136
vn 0.9554 -0.2119 0.2056
vn -0.0992 0.3831 0.9184
vn -0.1649 0.1848 0.9688
vn 0.0201 0.7824 -0.6225
vn -0.9971 0.0293 0.0709
vn -0.9611 -0.2715 -0.0501
vn -0.9974 -0.0569 0.0443
vn -0.1260 -0.2102 0.9695
vn 0.9910 0.1118 0.0742
vn 0.9614 0.2750 -0.0068
vn 0.0473 -0.1634 -0.9854
vn -0.1985 -0.0830 0.9766
vn 0.9849 0.1000 0.1415
vn 0.8274 -0.5394 0.1565
vn -0.9339 0.3249 -0.1491
vn -0.2779 -0.6545 -0.7031
vn -0.1744 0.9644 0.1989
vn -0.7213 0.6066 0.3344
vn 0.0547 -0.9983 0.0179
vn 0.9786 0.1313 0.1583
vn -0.9675 0.0371 -0.2502
vn 0.0189 0.1587 -0.9871
vn -0.1178 0.6822 0.7216
vn -0.0173 -0.9957 0.0914
vn -0.0348 0.9790 0.2008
vn -0.9342 0.3543 -0.0405
vn -0.9812 0.1905 -0.0297
vn -0.0487 0.9887 0.1421
vn -0.0104 -0.9973 0.0723
vn 0.9815 0.1882 -0.0362
vn 0.9894 -0.1053 -0.0996
vn -0.1385 0.3257 -0.9353
vn -0.9570 0.2219 0.1869
vn -0.3167 -0.1256 0.9402
vn -0.1090 -0.2792 0.9540
vn -0.3029 0.8938 0.3307
vn -0.2135 -0.9746 -0.0669
vn -0.9877 0.1373 0.0743
vn 0.9514 -0.2974 -0.0804
vn -0.0714 0.2586 -0.9634
vn 0.9669 -0.2110 -0.1435
vn -0.1135 0.0597 -0.9917
vn -0.9923 0.0582 0.1090
vn 0.1672 -0.0122 0.9859
vn -0.1227 -0.9921 -0.0265
vn 0.2344 0.9647 0.1203
vn 0.1615 -0.0318 0.9864
vn -0.9632 0.2550 0.0851
vn -0.1139 0.0518 -0.9921
vn 0.9876 -0.1142 -0.1073
vn 0.9917 -0.0907 -0.0906
vn -0.0839 -0.0206 0.9963
vn -0.0836 0.3531 -0.9319
vn -0.1229 0.1596 -0.9795
vn -0.9861 -0.0103 0.1659
vn -0.1326 -0.8228 0.5527
vn -0.1087 -0.1985 0.9740
vn 0.0717 0.9968 0.0351
vn -0.3851 -0.9128 -0.1360
vn -0.9242 -0.3720 0.0867
vn 0.9858 0.1586 -0.0544
vn -0.1444 -0.1201 -0.9822
vn 0.9784 -0.1185 0.1691
vn -0.4641 -0.0298 0.8853
vn 0.1501 0.3833 0.9113
vn -0.3666 -0.0088 0.9303
vn -0.4339 0.1911 0.8805
vn 0.3874 -0.0349 -0.9212
vn -0.9554 -0.2493 0.1581
vn -0.5539 -0.2600 0.7909
vn -0.4184 -0.7985 -0.4329
vn 0.3893 0.3793 -0.8394
vn -0.1590 0.9425 -0.2941
vn -0.6480 -0.0473 0.7601
vn -0.2726 0.2138 0.9381
vn -0.4150 0.3803 -0.8265
vn -0.5923 0.7991 -0.1032
vn -0.9997 0.0203 0.0161
vn -0.3781 -0.2937 -0.8780
vn -0.0740 -0.9293 -0.3617
vn -0.5208 0.8002 0.2974
vn -0.1205 0.9316 0.3429
vn -0.9245 0.2848 -0.2532
vn -0.5370 -0.8279 -0.1617
vn -0.9427 -0.1228 -0.3102
vn -0.2753 -0.8923 -0.3579
vn -0.4351 0.3381 -0.8345
vn -0.3622 -0.3362 0.8693
vn -0.4727 -0.0118 0.8811
vn -0.4040 0.0871 0.9106
vn 0.4283 0.0891 0.8992
vn 0.4972 -0.0099 0.8676
vn -0.3621 -0.2922 -0.8851
vn -0.2287 -0.3137 0.9216
vn -0.3949 -0.9144 0.0889
vn 0.0838 0.0221 -0.9962
vn -0.9380 -0.2127 0.2736
vn 0.1415 0.9111 0.3872
vn -0.8653 -0.3827 -0.3239
vn 0.9807 -0.0338 0.1925
vn 0.9608 0.0037 -0.2774
vn -0.9750 -0.0344 0.2193
vn 0.9811 -0.0309 0.1913
vn -0.9369 0.2428 0.2515
vn -0.9690 0.0028 -0.2471
vt 0.769832 0.195645
vt 0.775252 0.120749
vt 0.898457 0.115387
vt 0.893855 0.199439
vt 0.779478 0.033265
vt 0.875888 0.020883
vt 0.079276 0.380758
vt 0.015809 0.352495
vt 0.092810 0.349129
vt 0.640892 0.115732
vt 0.651808 0.045918
vt 0.972902 0.747099
vt 0.945788 0.808209
vt 0.869285 0.817542
vt 0.869303 0.746010
vt 0.623064 0.191154
vt 0.978616 0.563599
vt 0.869350 0.563483
vt 0.869382 0.439703
vt 0.981068 0.426748
vt 0.887298 0.020144
vt 0.903448 0.092046
vt 0.869386 0.423683
vt 0.966087 0.423037
vt 0.919014 0.125551
vt 0.901661 0.199678
vt 0.080227 0.193471
vt 0.035111 0.194551
vt 0.029851 0.129329
vt 0.078457 0.129531
vt 0.524664 0.024934
vt 0.453935 0.048979
vt 0.476762 0.096074
vt 0.529992 0.085338
vt 0.458519 0.014915
vt 0.140591 0.209945
vt 0.084060 0.210053
vt 0.139428 0.189660
vt 0.088688 0.293915
vt 0.019697 0.289600
vt 0.036330 0.210891
vt 0.589766 0.089175
vt 0.538912 0.169399
vt 0.588096 0.171055
vt 0.169119 0.280272
vt 0.494132 0.172296
vt 0.495777 0.194811
vt 0.540097 0.192752
vt 0.594693 0.186440
vt 0.602720 0.254314
vt 0.550300 0.251019
vt 0.546511 0.359212
vt 0.576655 0.358602
vt 0.502818 0.254080
vt 0.133655 0.131663
vt 0.460444 0.638059
vt 0.461859 0.667341
vt 0.511272 0.661029
vt 0.492341 0.643217
vt 0.059953 0.028917
vt 0.089979 0.037143
vt 0.513486 0.356281
vt 0.126069 0.032173
vt 0.187391 0.328606
vt 0.600139 0.026470
vt 0.980612 0.851849
vt 0.869271 0.873069
vt 0.214036 0.700438
vt 0.168892 0.698897
vt 0.170775 0.659242
vt 0.208186 0.653496
vt 0.429138 0.636018
vt 0.382088 0.640297
vt 0.380987 0.679254
vt 0.425514 0.672609
vt 0.172591 0.619486
vt 0.211119 0.618494
vt 0.342980 0.638844
vt 0.341450 0.677655
vt 0.504441 0.606319
vt 0.529468 0.607110
vt 0.250819 0.702808
vt 0.243337 0.651469
vt 0.292311 0.649141
vt 0.300801 0.705699
vt 0.244056 0.622019
vt 0.258050 0.585846
vt 0.290061 0.591615
vt 0.277688 0.628694
vt 0.226990 0.579872
vt 0.239778 0.437910
vt 0.241642 0.380815
vt 0.334062 0.371731
vt 0.335105 0.430080
vt 0.244961 0.564466
vt 0.270260 0.519900
vt 0.334573 0.576660
vt 0.267325 0.484741
vt 0.339743 0.479221
vt 0.337393 0.523671
vt 0.397256 0.433766
vt 0.400592 0.476589
vt 0.218167 0.523740
vt 0.216842 0.468389
vt 0.934188 0.071641
vt 0.985147 0.071450
vt 0.980416 0.114135
vt 0.934188 0.111273
vt 0.409685 0.525397
vt 0.413123 0.381914
vt 0.413123 0.570440
vt 0.588235 0.616390
vt 0.541774 0.616014
vt 0.540412 0.699472
vt 0.594290 0.698674
vt 0.733169 0.616366
vt 0.683834 0.612729
vt 0.688349 0.697632
vt 0.724849 0.697622
vt 0.637083 0.612063
vt 0.634642 0.698467
vt 0.933176 0.242559
vt 0.985452 0.244219
vt 0.985670 0.280546
vt 0.933413 0.282101
vt 0.980360 0.291116
vt 0.933814 0.295150
vt 0.933988 0.335813
vt 0.980548 0.334832
vt 0.637975 0.554612
vt 0.592385 0.555443
vt 0.685764 0.549762
vt 0.727568 0.549351
vt 0.544847 0.548303
vt 0.557765 0.809694
vt 0.510229 0.803468
vt 0.511171 0.765578
vt 0.565124 0.764368
vt 0.479691 0.799649
vt 0.486340 0.766582
vt 0.437092 0.787533
vt 0.443585 0.748829
vt 0.425923 0.754711
vt 0.422123 0.742946
vt 0.429690 0.730629
vt 0.447798 0.694577
vt 0.457086 0.718428
vt 0.949739 0.404064
vt 0.949739 0.353270
vt 0.982292 0.353270
vt 0.982292 0.404064
vt 0.460533 0.693281
vt 0.502277 0.717435
vt 0.495857 0.735141
vt 0.514016 0.729944
vt 0.562185 0.720311
vt 0.408828 0.775679
vt 0.278149 0.967649
vt 0.246334 0.979776
vt 0.249708 0.914564
vt 0.277992 0.912907
vt 0.013923 0.884272
vt 0.022151 0.852843
vt 0.077991 0.867331
vt 0.074449 0.892252
vt 0.315578 0.881871
vt 0.272833 0.868911
vt 0.266436 0.823662
vt 0.311469 0.826118
vt 0.312630 0.841540
vt 0.233032 0.873502
vt 0.237034 0.853143
vt 0.243726 0.809688
vt 0.293162 0.797592
vt 0.353002 0.808376
vt 0.344750 0.831707
vt 0.171111 0.912654
vt 0.129263 0.910165
vt 0.133762 0.881302
vt 0.504295 0.904470
vt 0.456722 0.873442
vt 0.486878 0.832177
vt 0.523186 0.892354
vt 0.393060 0.750737
vt 0.369166 0.770382
vt 0.342151 0.723866
vt 0.371660 0.694150
vt 0.224422 0.982399
vt 0.224589 0.913793
vt 0.464697 0.929008
vt 0.510943 0.418646
vt 0.509620 0.457222
vt 0.450276 0.457321
vt 0.451259 0.416801
vt 0.371260 0.868269
vt 0.391399 0.792592
vt 0.427034 0.854273
vt 0.224914 0.800301
vt 0.250611 0.780243
vt 0.499027 0.969201
vt 0.535560 0.959128
vt 0.557854 0.949811
vt 0.378068 0.967627
vt 0.326324 0.969178
vt 0.319455 0.907637
vt 0.374611 0.893121
vt 0.340158 0.885118
vt 0.330117 0.844664
vt 0.450534 0.480546
vt 0.422105 0.480397
vt 0.434613 0.451640
vt 0.511818 0.394240
vt 0.445658 0.392364
vt 0.509788 0.480859
vt 0.224768 0.847580
vt 0.329170 0.701515
vt 0.145363 0.785723
vt 0.128390 0.783055
vt 0.170261 0.738493
vt 0.116930 0.746993
vt 0.160651 0.716692
vt 0.111510 0.779844
vt 0.893310 0.283615
vt 0.770664 0.270731
vt 0.865483 0.388919
vt 0.769534 0.358310
vt 0.423897 0.371814
vt 0.408299 0.341150
vt 0.485355 0.339413
vt 0.636248 0.267526
vt 0.642876 0.337877
vt 0.765704 0.747046
vt 0.792786 0.808169
vt 0.760084 0.563543
vt 0.757703 0.426691
vt 0.876826 0.390354
vt 0.896865 0.307217
vt 0.772687 0.422987
vt 0.914451 0.274726
vt 0.410556 0.185000
vt 0.408092 0.121083
vt 0.456578 0.117665
vt 0.455645 0.183093
vt 0.253560 0.018334
vt 0.251430 0.078936
vt 0.305153 0.086844
vt 0.325460 0.038610
vt 0.319084 0.004836
vt 0.351414 0.205432
vt 0.351233 0.185114
vt 0.407829 0.201799
vt 0.408760 0.285783
vt 0.455510 0.199477
vt 0.477314 0.276913
vt 0.191942 0.085924
vt 0.197935 0.167602
vt 0.246963 0.163350
vt 0.327602 0.277492
vt 0.291833 0.163878
vt 0.247013 0.186734
vt 0.291379 0.186449
vt 0.192159 0.183314
vt 0.187729 0.251517
vt 0.219266 0.354283
vt 0.249400 0.353300
vt 0.239901 0.245457
vt 0.287479 0.246007
vt 0.353156 0.126862
vt 0.373466 0.625371
vt 0.341578 0.620155
vt 0.322681 0.602307
vt 0.372105 0.596087
vt 0.390482 0.029659
vt 0.419898 0.019465
vt 0.282224 0.348629
vt 0.354142 0.027088
vt 0.312568 0.326929
vt 0.178272 0.023855
vt 0.757941 0.851792
vt 0.013855 0.710087
vt 0.062637 0.719760
vt 0.053791 0.758555
vt 0.012068 0.757539
vt 0.404768 0.627471
vt 0.408460 0.590887
vt 0.452999 0.584325
vt 0.451825 0.623280
vt 0.095615 0.759647
vt 0.099560 0.719322
vt 0.492533 0.585997
vt 0.490931 0.624805
vt 0.329410 0.657029
vt 0.304385 0.656192
vt 0.014143 0.671338
vt 0.013329 0.626462
vt 0.071995 0.639628
vt 0.067412 0.683054
vt 0.098346 0.684520
vt 0.093882 0.648751
vt 0.133695 0.638573
vt 0.137331 0.672574
vt 0.141254 0.705593
vt 0.185664 0.538131
vt 0.086734 0.549483
vt 0.089781 0.610162
vt 0.185643 0.597604
vt 0.176017 0.406617
vt 0.082362 0.396940
vt 0.151191 0.453841
vt 0.081208 0.452173
vt 0.080256 0.498505
vt 0.155426 0.490326
vt 0.011387 0.503289
vt 0.011387 0.547736
vt 0.208505 0.505645
vt 0.205267 0.448094
vt 0.933051 0.227541
vt 0.935500 0.187984
vt 0.981816 0.187984
vt 0.983901 0.230880
vt 0.011387 0.452807
vt 0.011387 0.602224
vt 0.011387 0.406053
vt 0.685388 0.464625
vt 0.679517 0.382326
vt 0.733395 0.381660
vt 0.731848 0.465114
vt 0.540455 0.464294
vt 0.548955 0.383058
vt 0.585455 0.383138
vt 0.589782 0.468052
vt 0.639164 0.382434
vt 0.636531 0.468832
vt 0.926036 0.053242
vt 0.926036 0.013699
vt 0.978301 0.014940
vt 0.978301 0.051267
vt 0.941318 0.172865
vt 0.942408 0.129162
vt 0.988977 0.129542
vt 0.987962 0.170192
vt 0.635511 0.526281
vt 0.681104 0.525562
vt 0.587712 0.531014
vt 0.545907 0.531323
vt 0.728625 0.532818
vt 0.736669 0.725394
vt 0.735353 0.771722
vt 0.683130 0.758703
vt 0.689295 0.721117
vt 0.659178 0.752270
vt 0.658895 0.718191
vt 0.614298 0.760413
vt 0.615218 0.720808
vt 0.598227 0.750739
vt 0.592334 0.761513
vt 0.621741 0.793364
vt 0.608255 0.814858
vt 0.597389 0.775323
vt 0.902963 0.354102
vt 0.935516 0.354102
vt 0.935516 0.404895
vt 0.902963 0.404895
vt 0.620394 0.818928
vt 0.662554 0.785374
vt 0.665487 0.804249
vt 0.724263 0.814542
vt 0.679237 0.794482
vt 0.585527 0.726307
vt 0.170921 0.966691
vt 0.199450 0.914463
vt 0.202557 0.979360
vt 0.434990 0.885665
vt 0.136920 0.840949
vt 0.138178 0.825523
vt 0.183245 0.823379
vt 0.176564 0.868613
vt 0.206044 0.809560
vt 0.212468 0.853064
vt 0.216352 0.873452
vt 0.156680 0.797114
vt 0.104811 0.830875
vt 0.096708 0.807441
vt 0.427703 0.967162
vt 0.542713 0.881290
vt 0.537443 0.824738
vt 0.340263 0.781402
vt 0.301717 0.734772
vt 0.020099 0.966282
vt 0.069986 0.966279
vt 0.582883 0.857700
vt 0.510287 0.543080
vt 0.450588 0.544296
vt 0.450031 0.503768
vt 0.509371 0.504492
vt 0.058337 0.791326
vt 0.199393 0.779972
vt 0.602434 0.906809
vt 0.576490 0.934433
vt 0.122173 0.967791
vt 0.119390 0.843962
vt 0.109116 0.884444
vt 0.434309 0.509284
vt 0.510905 0.567494
vt 0.444729 0.568673
vt 0.612579 0.943799
vt 0.704302 0.960286
vt 0.690069 0.863893
vt 0.628178 0.846809
vt 0.727017 0.964931
vt 0.742045 0.877429
vt 0.749981 0.968131
vt 0.795559 0.882010
vt 0.849700 0.973890
vt 0.859604 0.886554
vt 0.262137 0.727847
vt 0.208247 0.720642
vt 0.265551 0.745007
vt 0.235108 0.768630
vt 0.190786 0.737487
vt 0.268411 0.762268
s 0
f 103/1/1 2/2/1 8/3/1 112/4/1
f 2/2/2 1/5/2 7/6/2 8/3/2
f 119/7/3 5/8/3 117/9/3
f 6/10/4 4/11/4 1/5/4 2/2/4
f 4/12/5 29/13/5 141/14/5 113/15/5
f 111/16/6 6/10/6 2/2/6 103/1/6
f 1/17/7 104/18/7 114/19/7 7/20/7
f 4/12/8 113/15/8 104/18/8
f 3/21/9 5/22/9 8/3/9 7/6/9
f 118/23/10 3/24/10 7/20/10 114/19/10
f 5/25/11 119/26/11 112/4/11 8/3/11
f 18/27/12 11/28/12 19/29/12 22/30/12
f 3/31/13 120/32/13 27/33/13 28/34/13
f 3/31/14 118/35/14 120/32/14
f 15/36/15 16/37/15 18/27/15 17/38/15
f 10/39/16 9/40/16 14/41/16 16/37/16
f 9/42/17 28/34/17 13/43/17 14/44/17
f 27/45/18 10/39/18 16/37/18 15/36/18
f 28/34/19 27/33/19 15/46/19 13/43/19
f 13/43/20 15/46/20 17/47/20 12/48/20
f 16/37/21 14/41/21 11/28/21 18/27/21
f 14/44/22 13/43/22 12/48/22 11/49/22
f 19/50/23 20/51/23 24/52/23 23/53/23
f 11/49/24 12/48/24 20/51/24 19/50/24
f 12/48/25 17/47/25 21/54/25 20/51/25
f 17/38/26 18/27/26 22/30/26 21/55/26
f 39/56/27 38/57/27 36/58/27 34/59/27
f 22/30/28 19/29/28 23/60/28 26/61/28
f 20/51/29 21/54/29 25/62/29 24/52/29
f 21/55/30 22/30/30 26/61/30 25/63/30
f 120/64/31 117/9/31 10/39/31 27/45/31
f 5/65/32 3/31/32 28/34/32 9/42/32
f 117/9/33 5/8/33 9/40/33 10/39/33
f 141/14/34 29/13/34 6/66/34 111/67/34
f 6/66/35 29/13/35 4/12/35
f 30/68/36 31/69/36 32/70/36 33/71/36
f 25/72/37 26/73/37 31/74/37 30/75/37
f 23/76/38 24/77/38 33/71/38 32/70/38
f 26/73/39 23/78/39 32/79/39 31/74/39
f 35/80/40 34/59/40 36/58/40 37/81/40
f 38/82/41 40/83/41 37/84/41 36/85/41
f 41/86/42 39/87/42 34/88/42 35/89/42
f 40/83/43 41/86/43 35/89/43 37/84/43
f 33/71/44 24/77/44 41/86/44 40/83/44
f 24/77/45 25/90/45 39/87/45 41/86/45
f 30/68/46 33/71/46 40/83/46 38/82/46
f 25/72/47 30/75/47 38/57/47 39/56/47
f 43/91/48 45/92/48 44/93/48 42/94/48
f 45/95/49 49/96/49 44/97/49
f 49/96/50 47/98/50 46/99/50 48/100/50
f 47/98/51 43/91/51 42/94/51
f 46/99/52 42/94/52 50/101/52 52/102/52
f 47/98/53 49/96/53 45/103/53 43/104/53
f 50/105/54 51/106/54 53/107/54 52/108/54
f 48/100/55 46/99/55 52/102/55 53/109/55
f 42/94/56 44/93/56 51/110/56 50/101/56
f 44/97/57 48/100/57 53/109/57 51/111/57
f 62/112/58 63/113/58 56/114/58 54/115/58
f 63/116/59 64/117/59 60/118/59 56/119/59
f 64/117/60 65/120/60 58/121/60 60/118/60
f 65/120/61 62/112/61 54/115/61 58/121/61
f 54/122/62 56/123/62 60/124/62 58/125/62
f 59/126/63 61/127/63 57/128/63 55/129/63
f 59/130/64 55/131/64 62/112/64 65/120/64
f 61/132/65 59/130/65 65/120/65 64/117/65
f 57/133/66 61/132/66 64/117/66 63/116/66
f 55/131/67 57/134/67 63/113/67 62/112/67
f 67/135/68 69/136/68 68/137/68 78/138/68
f 42/94/69 46/99/69 47/98/69
f 44/97/70 49/96/70 48/100/70
f 69/136/71 73/139/71 72/140/71 68/137/71
f 73/139/72 71/141/72 70/142/72 72/140/72
f 66/143/73 78/144/73 70/142/73
f 70/142/74 78/145/74 75/146/74 77/147/74
f 71/148/75 73/149/75 69/150/75 67/151/75
f 75/152/76 74/153/76 76/154/76 77/147/76
f 72/140/77 70/142/77 77/147/77 76/154/77
f 78/138/78 68/137/78 74/155/78 75/156/78
f 68/137/79 72/140/79 76/154/79 74/155/79
f 67/157/80 78/144/80 66/143/80
f 71/141/81 66/143/81 70/142/81
f 67/157/82 66/143/82 71/141/82
f 104/18/83 1/17/83 4/12/83
f 82/158/84 88/159/84 96/160/84 97/161/84
f 226/162/85 192/163/85 195/164/85 224/165/85
f 91/166/86 79/167/86 81/168/86 90/169/86 99/170/86
f 79/167/87 85/171/87 98/172/87 86/173/87 81/168/87
f 93/174/88 87/175/88 83/176/88 90/169/88
f 221/177/89 233/178/89 210/179/89
f 92/180/90 84/181/90 200/182/90 211/183/90
f 85/184/91 193/185/91 227/186/91 98/187/91
f 88/159/92 202/188/92 220/189/92 96/160/92
f 89/190/93 84/181/93 92/180/93
f 87/191/94 93/192/94 95/193/94 94/194/94
f 80/195/95 201/196/95 192/197/95
f 203/198/96 212/199/96 93/174/96 86/173/96
f 82/200/97 89/190/97 92/180/97 88/201/97
f 88/201/98 92/180/98 211/183/98 202/202/98
f 84/203/99 89/204/99 223/205/99 225/206/99
f 86/173/100 93/174/100 90/169/100 81/168/100
f 80/195/101 100/207/101 101/208/101 99/170/101 90/169/101 83/176/101
f 217/209/102 216/210/102 94/211/102 95/193/102
f 201/212/103 87/191/103 94/194/103 216/213/103
f 93/192/104 212/214/104 217/209/104 95/193/104
f 89/204/105 82/158/105 97/161/105 223/205/105
f 87/175/106 201/196/106 80/195/106 83/176/106
f 98/172/107 222/215/107 203/198/107 86/173/107
f 222/216/108 98/187/108 227/186/108
f 100/217/109 102/218/109 101/219/109
f 91/220/110 99/221/110 102/218/110
f 100/222/111 91/220/111 102/218/111
f 102/218/112 99/221/112 101/219/112
f 103/1/113 112/4/113 116/223/113 106/224/113
f 106/224/114 116/223/114 115/225/114 105/226/114
f 119/227/115 117/228/115 109/229/115
f 110/230/116 106/224/116 105/226/116 108/231/116
f 108/232/117 113/15/117 141/14/117 142/233/117
f 111/16/118 103/1/118 106/224/118 110/230/118
f 105/234/119 115/235/119 114/19/119 104/18/119
f 108/232/120 104/18/120 113/15/120
f 107/236/121 115/225/121 116/223/121 109/237/121
f 118/23/122 114/19/122 115/235/122 107/238/122
f 109/239/123 116/223/123 112/4/123 119/26/123
f 130/240/124 134/241/124 131/242/124 123/243/124
f 107/244/125 140/245/125 139/246/125 120/247/125
f 107/244/126 120/247/126 118/248/126
f 127/249/127 129/250/127 130/240/127 128/251/127
f 122/252/128 128/251/128 126/253/128 121/254/128
f 121/255/129 126/256/129 125/257/129 140/245/129
f 139/258/130 127/249/130 128/251/130 122/252/130
f 140/245/131 125/257/131 127/259/131 139/246/131
f 125/257/132 124/260/132 129/261/132 127/259/132
f 128/251/133 130/240/133 123/243/133 126/253/133
f 126/256/134 123/262/134 124/260/134 125/257/134
f 131/263/135 135/264/135 136/265/135 132/266/135
f 123/262/136 131/263/136 132/266/136 124/260/136
f 124/260/137 132/266/137 133/267/137 129/261/137
f 129/250/138 133/268/138 134/241/138 130/240/138
f 152/269/139 147/270/139 149/271/139 151/272/139
f 134/241/140 138/273/140 135/274/140 131/242/140
f 132/266/141 136/265/141 137/275/141 133/267/141
f 133/268/142 137/276/142 138/273/142 134/241/142
f 120/277/143 139/258/143 122/252/143 117/228/143
f 109/278/144 121/255/144 140/245/144 107/244/144
f 117/228/145 122/252/145 121/254/145 109/229/145
f 141/14/146 111/67/146 110/279/146 142/233/146
f 110/279/147 108/232/147 142/233/147
f 143/280/148 146/281/148 145/282/148 144/283/148
f 137/284/149 143/285/149 144/286/149 138/287/149
f 135/288/150 145/282/150 146/281/150 136/289/150
f 138/287/151 144/286/151 145/290/151 135/291/151
f 148/292/152 150/293/152 149/271/152 147/270/152
f 151/294/153 149/295/153 150/296/153 153/297/153
f 154/298/154 148/299/154 147/300/154 152/301/154
f 153/297/155 150/296/155 148/299/155 154/298/155
f 146/281/156 153/297/156 154/298/156 136/289/156
f 136/289/157 154/298/157 152/301/157 137/302/157
f 143/280/158 151/294/158 153/297/158 146/281/158
f 137/284/159 152/269/159 151/272/159 143/285/159
f 156/303/160 155/304/160 157/305/160 158/306/160
f 158/307/161 157/308/161 162/309/161
f 162/309/162 161/310/162 159/311/162 160/312/162
f 160/312/163 155/304/163 156/303/163
f 159/311/164 165/313/164 163/314/164 155/304/164
f 160/312/165 156/315/165 158/316/165 162/309/165
f 163/317/166 165/318/166 166/319/166 164/320/166
f 161/310/167 166/321/167 165/313/167 159/311/167
f 155/304/168 163/314/168 164/322/168 157/305/168
f 157/308/169 164/323/169 166/321/169 161/310/169
f 175/324/170 167/325/170 169/326/170 176/327/170
f 176/328/171 169/329/171 173/330/171 177/331/171
f 177/331/172 173/330/172 171/332/172 178/333/172
f 178/333/173 171/332/173 167/325/173 175/324/173
f 167/334/174 171/335/174 173/336/174 169/337/174
f 172/338/175 168/339/175 170/340/175 174/341/175
f 172/342/176 178/333/176 175/324/176 168/343/176
f 174/344/177 177/331/177 178/333/177 172/342/177
f 170/345/178 176/328/178 177/331/178 174/344/178
f 168/343/179 175/324/179 176/327/179 170/346/179
f 180/347/180 191/348/180 181/349/180 182/350/180
f 155/304/181 160/312/181 159/311/181
f 157/308/182 161/310/182 162/309/182
f 182/350/183 181/349/183 185/351/183 186/352/183
f 186/352/184 185/351/184 183/353/184 184/354/184
f 179/355/185 183/353/185 191/356/185
f 183/353/186 190/357/186 188/358/186 191/359/186
f 184/360/187 180/361/187 182/362/187 186/363/187
f 188/364/188 190/357/188 189/365/188 187/366/188
f 185/351/189 189/365/189 190/357/189 183/353/189
f 191/348/190 188/367/190 187/368/190 181/349/190
f 181/349/191 187/368/191 189/365/191 185/351/191
f 180/369/192 179/355/192 191/356/192
f 184/354/193 183/353/193 179/355/193
f 180/369/194 184/354/194 179/355/194
f 104/18/195 108/232/195 105/234/195
f 197/370/196 221/177/196 219/371/196 207/372/196
f 80/195/197 192/197/197 226/373/197 225/206/197
f 210/179/198 229/374/198 209/375/198 196/376/198 194/377/198
f 194/377/199 196/376/199 205/378/199 228/379/199 204/380/199
f 214/381/200 209/375/200 198/382/200 206/383/200
f 225/206/201 226/373/201 200/384/201 84/203/201
f 213/385/202 211/183/202 200/182/202 199/386/202
f 204/387/203 228/388/203 227/186/203 193/185/203
f 207/372/204 219/371/204 220/189/204 202/188/204
f 200/389/205 226/162/205 224/165/205 199/390/205
f 208/391/206 213/385/206 199/386/206
f 206/392/207 215/393/207 218/394/207 214/395/207
f 195/164/208 192/163/208 201/396/208
f 203/198/209 205/378/209 214/381/209 212/397/209
f 197/398/210 207/399/210 213/385/210 208/391/210
f 207/399/211 202/202/211 211/183/211 213/385/211
f 199/390/212 224/165/212 233/178/212 208/400/212
f 205/378/213 196/376/213 209/375/213 214/381/213
f 195/164/214 198/382/214 209/375/214 229/374/214 231/401/214 230/402/214
f 217/209/215 218/394/215 215/403/215 216/210/215
f 201/404/216 216/405/216 215/393/216 206/392/216
f 214/395/217 218/394/217 217/209/217 212/214/217
f 194/406/218 204/407/218 219/408/218 221/409/218
f 204/407/219 193/410/219 220/411/219 219/408/219
f 85/412/220 96/413/220 220/411/220 193/410/220
f 79/414/221 97/415/221 96/413/221 85/412/221
f 206/383/222 198/382/222 195/164/222 201/396/222
f 228/379/223 205/378/223 203/198/223 222/215/223
f 222/216/224 227/186/224 228/388/224
f 230/416/225 231/417/225 232/418/225
f 210/419/226 232/418/226 229/420/226
f 230/421/227 232/418/227 210/419/227
f 232/418/228 231/417/228 229/420/228
f 223/205/229 97/161/229 91/166/229
f 225/206/230 223/205/230 91/166/230 100/207/230 80/195/230
f 221/177/231 210/179/231 194/377/231
f 91/166/232 97/161/232 79/167/232
f 233/178/233 221/177/233 197/370/233 208/400/233
f 233/178/234 224/165/234 195/164/234 230/402/234 210/179/234
