# Blender 4.3.2
# www.blender.org
o beggar
v 0.200807 1.198864 0.156099
v 0.177452 1.264000 -0.098834
v 0.190846 0.901972 0.106436
v 0.185333 1.521454 0.150131
v 0.185114 0.932820 -0.140077
v 0.196966 1.607342 -0.019546
v 0.205351 0.902640 0.123514
v 0.219200 0.928131 -0.150083
v 0.221907 0.798062 -0.121415
v 0.039676 0.774565 -0.155256
v 0.216319 0.553651 -0.187179
v 0.207635 0.482223 -0.057975
v 0.209123 0.549538 -0.030941
v 0.213751 0.578704 -0.160185
v 0.094360 0.543239 -0.015478
v 0.084718 0.576483 -0.161727
v 0.093047 0.481565 -0.040312
v 0.087222 0.556822 -0.187217
v 0.215798 0.401466 -0.286339
v 0.216418 0.345837 -0.151297
v 0.091057 0.341827 -0.131054
v 0.071654 0.403852 -0.281956
v 0.151142 0.111893 -0.349938
v 0.163837 0.109182 -0.269086
v 0.081871 0.112549 -0.245990
v 0.066160 0.128366 -0.339084
v 0.063908 0.740668 0.084782
v 0.214466 0.769814 0.070020
v 0.147519 1.601630 0.087965
v 0.068830 0.032435 -0.255528
v 0.057077 0.040537 -0.367779
v 0.144518 0.032849 -0.371887
v 0.172885 0.030675 -0.275527
v 0.080997 0.100659 -0.107624
v 0.165058 0.100441 -0.122402
v 0.063904 0.066923 -0.064830
v 0.187035 0.064750 -0.086865
v 0.067153 0.046644 -0.172514
v 0.078912 0.109738 -0.177918
v 0.179563 0.045027 -0.192638
v 0.161634 0.107300 -0.196437
v 0.144437 1.388217 0.117633
v 0.111858 1.616429 0.086365
v 0.164918 1.394434 -0.038479
v 0.129432 1.613052 -0.037140
v 0.278558 1.417338 0.108278
v 0.230758 1.576860 0.062842
v 0.294917 1.421080 -0.016561
v 0.249323 1.585078 -0.012753
v 0.209778 1.242548 0.113838
v 0.217052 1.207680 -0.020433
v 0.310574 1.263850 0.113619
v 0.323923 1.238197 -0.009922
v 0.217776 0.925445 0.219389
v 0.187567 1.246322 0.081989
v 0.275420 0.884940 0.103109
v 0.230402 1.220752 -0.028310
v 0.312241 0.945083 0.254840
v 0.290816 1.278744 0.116664
v 0.362202 0.902981 0.135676
v 0.326440 1.250910 0.003943
v 0.195242 1.106951 0.131211
v 0.241854 1.068676 0.028205
v 0.361309 1.108202 0.067574
v 0.310652 1.149799 0.179520
v 0.241383 0.868827 0.266155
v 0.239373 0.926417 0.205120
v 0.287048 0.814234 0.131073
v 0.282807 0.895187 0.112810
v 0.294268 0.854367 0.259900
v 0.301763 0.938294 0.230457
v 0.350556 0.826324 0.156864
v 0.345196 0.907064 0.138147
v 0.273645 0.743852 0.163101
v 0.228535 0.754158 0.264273
v 0.311689 0.758506 0.174747
v 0.278023 0.780948 0.264398
v 0.245828 0.842845 0.248410
v 0.076358 1.734848 0.193412
v 0.063324 1.775393 0.039807
v 0.056112 1.661470 0.175512
v 0.060882 1.883563 0.187957
v 0.066294 1.711140 0.060796
v 0.050264 1.899728 0.072031
v 0.012388 1.737907 0.232080
v 0.025523 1.635221 0.195371
v 0.038276 1.695602 0.056365
v 0.024356 1.896978 0.203203
v 0.071580 1.892937 0.130860
v 0.074809 1.685333 0.108461
v 0.091126 1.771459 0.125663
v 0.024375 1.926465 0.131746
v 0.039510 1.661227 0.126079
v 0.040096 1.582027 0.007832
v 0.041451 1.550754 0.083619
v 0.028952 1.804828 0.221298
v 0.078365 1.803226 0.195478
v 0.017996 1.704124 0.221791
v 0.080253 1.708655 0.113300
v 0.085355 1.786627 0.088332
v 0.075992 1.722010 0.087910
v 0.105885 1.790522 0.086180
v -0.005941 1.281517 -0.145061
v 0.006934 1.196153 0.217751
v -0.188950 1.204385 0.128784
v -0.182259 1.250820 -0.103874
v -0.185914 1.025222 0.081281
v -0.196293 1.521454 0.145420
v -0.198502 0.883202 -0.070828
v -0.203859 1.607342 -0.024977
v -0.003382 1.652418 -0.027999
v -0.009116 0.931427 -0.208260
v -0.006822 1.542432 0.184176
v 0.006375 0.946086 0.182884
v -0.198826 1.024355 0.096300
v -0.234081 0.874984 -0.096661
v -0.009245 0.879918 -0.147167
v 0.004482 0.941356 0.127712
v -0.007352 0.933842 -0.154396
v 0.002696 0.890869 0.135860
v -0.257715 0.835093 0.061734
v -0.083905 0.764829 0.071008
v -0.299712 0.737216 0.234069
v -0.281231 0.735849 0.361076
v -0.281521 0.825769 0.328428
v -0.295313 0.735870 0.249178
v -0.171079 0.821183 0.355108
v -0.170089 0.724893 0.263936
v -0.170636 0.755408 0.377761
v -0.173445 0.748269 0.237365
v -0.270719 0.583231 0.169202
v -0.266225 0.571698 0.313253
v -0.144027 0.591915 0.331267
v -0.128388 0.607916 0.169284
v -0.162504 0.301139 0.194396
v -0.175397 0.333156 0.267825
v -0.095711 0.347164 0.287855
v -0.080725 0.330899 0.198095
v -0.090692 0.953916 0.201354
v -0.236091 1.000503 0.160083
v -0.005590 1.620433 0.083708
v -0.157834 1.601630 0.083176
v -0.079941 0.270964 0.313805
v -0.064204 0.238271 0.203922
v -0.150700 0.222951 0.203586
v -0.183347 0.259187 0.295520
v -0.094206 0.399291 0.415132
v -0.178155 0.391628 0.401746
v -0.077436 0.389839 0.468842
v -0.200388 0.376891 0.449623
v -0.079802 0.321052 0.383354
v -0.091563 0.374223 0.349098
v -0.192039 0.309632 0.365418
v -0.174129 0.363417 0.333904
v -0.158353 1.374079 0.062269
v -0.124451 1.602384 0.091377
v -0.168681 1.419477 -0.088268
v -0.133966 1.630288 -0.029885
v -0.291666 1.406433 0.052021
v -0.241464 1.571586 0.051180
v -0.299901 1.441546 -0.068667
v -0.255108 1.598728 -0.020958
v -0.222904 1.234905 0.017916
v -0.221355 1.234882 -0.120990
v -0.323532 1.256949 0.016648
v -0.328767 1.263242 -0.109969
v -0.283952 0.894884 0.023424
v -0.211249 1.236875 0.000833
v -0.311999 0.895680 -0.109608
v -0.226016 1.248654 -0.118740
v -0.383659 0.913053 0.040587
v -0.318897 1.268339 0.019158
v -0.403596 0.912371 -0.093841
v -0.326145 1.277921 -0.101695
v -0.234953 1.090785 0.002219
v -0.255558 1.088755 -0.115336
v -0.379859 1.127291 -0.094214
v -0.357466 1.129498 0.033543
v -0.320783 0.829551 0.043915
v -0.301306 0.901600 0.005502
v -0.333286 0.821438 -0.108042
v -0.321441 0.903215 -0.099259
v -0.370943 0.823541 0.021715
v -0.367536 0.912671 0.018402
v -0.400705 0.832708 -0.094910
v -0.387671 0.914287 -0.086359
v -0.331095 0.743789 -0.096863
v -0.312376 0.719539 0.010088
v -0.370239 0.758682 -0.090252
v -0.359231 0.750567 0.007151
v -0.321659 0.810413 0.018564
v -0.005219 1.781031 0.010409
v -0.002859 1.738573 0.242755
v -0.083109 1.735165 0.195064
v -0.073147 1.775644 0.041243
v -0.063502 1.661658 0.176770
v -0.067073 1.882494 0.188940
v -0.075920 1.711383 0.062287
v -0.058509 1.898819 0.072868
v -0.004350 1.904352 0.048356
v -0.005098 1.706038 0.035288
v -0.003090 1.901414 0.209142
v -0.003469 1.628556 0.201939
v -0.018331 1.738011 0.232376
v -0.032574 1.635339 0.195993
v -0.048058 1.695745 0.057272
v -0.030546 1.896520 0.203625
v -0.078802 1.891680 0.132016
v -0.083528 1.685590 0.110109
v -0.099151 1.771809 0.127665
v -0.003890 1.926228 0.131963
v -0.004038 1.653293 0.143988
v -0.032156 1.925992 0.132181
v -0.047935 1.661326 0.126997
v -0.050999 1.582040 0.008784
v -0.005671 1.576161 -0.012972
v -0.004537 1.532860 0.095544
v -0.050777 1.550765 0.084585
v -0.034896 1.804855 0.221945
v -0.002865 1.804839 0.232780
v -0.084787 1.803314 0.197136
v -0.003142 1.694874 0.223677
v 0.092274 1.811836 0.127618
v -0.079017 1.811269 0.042459
v 0.069349 1.810996 0.040898
v -0.005165 1.817774 0.009042
v -0.002933 1.696651 0.243153
v -0.024281 1.703965 0.222304
v -0.088785 1.708933 0.115087
v -0.094111 1.786957 0.090221
v -0.085008 1.722290 0.089611
v -0.114667 1.790928 0.088501
v -0.099958 1.816878 0.129870
vn 0.2503 0.1730 -0.9526
vn 0.9973 0.0737 -0.0053
vn 0.0728 -0.1350 -0.9882
vn 0.9996 -0.0029 -0.0286
vn 0.1417 0.7254 0.6736
vn 0.1771 0.2558 -0.9504
vn 0.2815 -0.1156 0.9526
vn 0.1843 0.1021 0.9775
vn -0.0663 -0.9919 -0.1085
vn -0.1857 -0.9759 0.1150
vn -0.0269 -0.9949 0.0970
vn -0.0025 0.5364 -0.8440
vn 0.1544 -0.2498 0.9559
vn 0.1439 0.1527 0.9777
vn -0.9985 -0.0384 0.0385
vn 0.1027 0.1161 -0.9879
vn 0.9987 -0.0403 0.0304
vn -0.9784 -0.2005 0.0509
vn 0.1580 -0.4208 0.8933
vn 0.1437 -0.3719 0.9171
vn 0.0068 0.7615 -0.6481
vn 0.9988 -0.0150 0.0456
vn 0.9776 -0.1802 -0.1090
vn 0.9994 0.0063 0.0335
vn 0.1410 -0.5467 0.8254
vn -0.9962 0.0049 0.0866
vn -0.9612 0.2747 -0.0236
vn -0.0472 0.2143 -0.9756
vn 0.1832 -0.4586 0.8696
vn -0.9904 -0.0178 0.1368
vn -0.9135 -0.4042 0.0454
vn 0.9753 0.2185 0.0333
vn 0.1090 -0.0049 -0.9940
vn 0.1669 0.9644 0.2052
vn 0.7067 0.6105 0.3575
vn -0.0541 -0.9978 -0.0387
vn -0.9849 0.0972 0.1430
vn 0.9730 0.0553 -0.2239
vn -0.0417 0.2937 -0.9550
vn 0.1248 0.7464 0.6537
vn 0.0171 -0.9828 0.1838
vn 0.0374 0.9934 0.1083
vn 0.9340 0.3478 -0.0815
vn 0.9811 0.1888 -0.0434
vn 0.0440 0.9984 0.0349
vn 0.0160 -0.9855 0.1692
vn -0.9842 0.1717 -0.0431
vn -0.9782 -0.1580 -0.1347
vn 0.2081 0.0398 -0.9773
vn 0.9384 0.2942 0.1811
vn 0.2442 0.1658 0.9555
vn 0.0370 0.0172 0.9992
vn 0.2712 0.9598 0.0726
vn 0.2238 -0.9447 0.2397
vn 0.9783 0.1811 0.1010
vn -0.9406 -0.3348 -0.0569
vn 0.1437 -0.0345 -0.9890
vn -0.9015 -0.2842 -0.3265
vn 0.3861 -0.2880 -0.8764
vn 0.9255 0.1301 0.3558
vn -0.4328 0.3284 0.8395
vn 0.0607 -0.9329 0.3550
vn -0.1955 0.9359 -0.2929
vn -0.4288 0.3104 0.8484
vn 0.9168 0.3047 0.2579
vn 0.3860 -0.2955 -0.8739
vn -0.9251 -0.1817 -0.3335
vn -0.9288 -0.1813 -0.3233
vn 0.0071 0.2759 0.9612
vn 0.1529 0.0654 -0.9861
vn 0.3995 -0.1818 -0.8985
vn 0.8984 0.1125 0.4245
vn -0.0589 -0.5699 0.8196
vn -0.1773 0.1587 0.9713
vn -0.0418 0.9403 -0.3378
vn 0.3738 -0.8760 0.3047
vn 0.8480 -0.2575 0.4633
vn -0.9241 0.0649 -0.3767
vn 0.4105 -0.4431 -0.7970
vn -0.9902 -0.1166 -0.0774
vn 0.1946 0.3092 0.9309
vn -0.3863 0.6645 0.6397
vn 0.3025 0.0321 0.9526
vn 0.4500 0.1873 0.8732
vn -0.4101 -0.0349 -0.9114
vn 0.9591 -0.2493 0.1343
vn 0.5723 -0.2607 0.7775
vn 0.4076 -0.7984 -0.4432
vn -0.9763 -0.0280 0.2146
vn 0.1341 0.9454 -0.2969
vn 0.6673 -0.0483 0.7432
vn 0.2902 0.2137 0.9328
vn 0.5738 0.8109 -0.1143
vn 0.9998 0.0203 -0.0086
vn 0.3563 -0.2937 -0.8870
vn 0.0643 -0.9293 -0.3638
vn 0.5099 0.8107 0.2876
vn 0.1080 0.9340 0.3406
vn 0.9240 0.2710 -0.2698
vn 0.5331 -0.8278 -0.1750
vn 0.9347 -0.1229 -0.3335
vn 0.2663 -0.8923 -0.3646
vn 0.4143 0.3381 -0.8450
vn 0.3836 -0.3362 0.8601
vn 0.9480 0.2300 0.2198
vn 0.3402 -0.2923 -0.8938
vn 0.2536 -0.3125 0.9154
vn 0.4055 -0.9107 0.0787
vn -0.1084 0.0222 -0.9939
vn 0.9445 -0.2128 0.2503
vn -0.1319 0.9111 0.3906
vn 0.8570 -0.3826 -0.3451
vn -0.3728 0.0994 -0.9226
vn -0.9933 0.1084 0.0404
vn -0.3734 -0.1104 -0.9211
vn -0.9991 -0.0413 -0.0114
vn -0.1614 0.7270 0.6674
vn -0.1627 0.2527 -0.9538
vn -0.4210 -0.1304 0.8976
vn -0.2088 0.0862 0.9742
vn -0.0008 -0.7640 0.6452
vn -0.3769 -0.9262 -0.0082
vn 0.2537 -0.9672 0.0102
vn -0.0421 0.4025 -0.9145
vn 0.4255 0.8852 0.1882
vn -0.1655 0.1628 0.9727
vn 0.9972 -0.0707 0.0238
vn -0.2110 -0.8938 -0.3957
vn -0.9781 0.1918 -0.0806
vn 0.9170 -0.2286 0.3267
vn -0.0354 0.7298 0.6828
vn -0.2032 0.3269 0.9230
vn -0.0372 0.8564 0.5149
vn -0.9897 0.0706 0.1246
vn -0.9341 -0.3570 -0.0024
vn -0.9837 -0.1628 0.0756
vn -0.0932 -0.2863 0.9536
vn 0.9761 0.2123 0.0476
vn 0.9611 0.2355 -0.1441
vn 0.0376 -0.0857 -0.9956
vn -0.1447 -0.2190 0.9649
vn 0.9771 0.1764 0.1187
vn 0.7066 -0.6404 0.3011
vn -0.8727 0.3631 -0.3265
vn -0.2589 -0.8342 -0.4870
vn -0.1732 0.9644 0.1999
vn -0.7190 0.6073 0.3380
vn 0.0997 -0.9341 0.3429
vn 0.9737 0.2050 0.0996
vn -0.9690 -0.0811 -0.2334
vn 0.0453 -0.0800 -0.9958
vn -0.1314 0.9659 0.2229
vn -0.0179 -0.7804 0.6250
vn -0.0392 0.9277 -0.3712
vn -0.9331 0.2655 -0.2426
vn -0.9815 0.1363 -0.1345
vn -0.0508 0.9115 -0.4082
vn -0.0109 -0.8114 0.5843
vn 0.9808 0.1520 -0.1218
vn 0.9853 -0.1325 -0.1077
vn -0.1443 0.2861 -0.9473
vn -0.9490 0.2522 0.1891
vn -0.3061 -0.0755 0.9490
vn -0.1018 -0.2331 0.9671
vn -0.2780 0.9146 0.2936
vn -0.2363 -0.9715 -0.0197
vn -0.9833 0.1633 0.0809
vn 0.9432 -0.3226 -0.0792
vn -0.0792 0.2163 -0.9731
vn 0.9457 -0.2690 -0.1823
vn -0.1640 0.0175 -0.9863
vn -0.9807 0.1162 0.1571
vn 0.2196 0.0268 0.9752
vn -0.1741 -0.9843 0.0308
vn 0.2892 0.9555 0.0584
vn 0.2130 0.0075 0.9770
vn -0.9430 0.3098 0.1216
vn -0.1648 0.0096 -0.9863
vn 0.9733 -0.1718 -0.1522
vn 0.9723 -0.1846 -0.1436
vn -0.0702 0.0264 0.9972
vn -0.0887 0.3124 -0.9458
vn -0.1687 0.1294 -0.9771
vn -0.9709 0.0867 0.2231
vn -0.1705 -0.7836 0.5974
vn -0.0654 -0.1472 0.9869
vn 0.1618 0.9867 -0.0159
vn -0.4722 -0.8787 -0.0705
vn -0.9464 -0.2822 0.1575
vn 0.9907 0.0656 -0.1188
vn -0.2150 -0.1471 -0.9655
vn 0.9727 -0.2003 0.1176
vn -0.4092 0.0495 0.9111
vn 0.2396 0.4055 0.8821
vn -0.4148 -0.0573 0.9081
vn -0.4364 0.1928 0.8789
vn 0.3907 -0.0363 -0.9198
vn -0.9569 -0.2457 0.1546
vn -0.5577 -0.2580 0.7889
vn -0.4197 -0.7967 -0.4348
vn 0.3937 0.3778 -0.8380
vn -0.1544 0.9430 -0.2947
vn -0.6509 -0.0449 0.7578
vn -0.2752 0.2149 0.9371
vn -0.4106 0.3818 -0.8280
vn -0.5890 0.8012 -0.1054
vn -0.9997 0.0210 0.0118
vn -0.3760 -0.2923 -0.8793
vn -0.0749 -0.9292 -0.3619
vn -0.5189 0.8021 0.2955
vn -0.1184 0.9321 0.3424
vn -0.9226 0.2882 -0.2566
vn -0.5395 -0.8260 -0.1632
vn -0.9420 -0.1193 -0.3138
vn -0.2741 -0.8922 -0.3590
vn -0.4313 0.3384 -0.8364
vn -0.3658 -0.3361 0.8679
vn -0.4760 -0.0099 0.8794
vn -0.4070 0.0887 0.9091
vn 0.4254 0.0875 0.9008
vn 0.4940 -0.0118 0.8694
vn -0.3599 -0.2909 -0.8865
vn -0.2330 -0.3130 0.9207
vn -0.3984 -0.9130 0.0876
vn 0.0875 0.0217 -0.9959
vn -0.9398 -0.2090 0.2703
vn 0.1435 0.9106 0.3877
vn -0.8655 -0.3793 -0.3272
vn 0.9799 -0.0373 0.1961
vn 0.9618 0.0001 -0.2739
vn -0.9760 -0.0306 0.2157
vn 0.9802 -0.0346 0.1949
vn -0.9369 0.2463 0.2481
vn -0.9681 0.0063 -0.2507
vt 0.769832 0.195645
vt 0.775252 0.120749
vt 0.898457 0.115387
vt 0.893855 0.199439
vt 0.779478 0.033265
vt 0.875888 0.020883
vt 0.079276 0.380758
vt 0.015809 0.352495
vt 0.092810 0.349129
vt 0.640892 0.115732
vt 0.651808 0.045918
vt 0.972902 0.747099
vt 0.945788 0.808209
vt 0.869285 0.817542
vt 0.869303 0.746010
vt 0.623064 0.191154
vt 0.978616 0.563599
vt 0.869350 0.563483
vt 0.869382 0.439703
vt 0.981068 0.426748
vt 0.887298 0.020144
vt 0.903448 0.092046
vt 0.869386 0.423683
vt 0.966087 0.423037
vt 0.919014 0.125551
vt 0.901661 0.199678
vt 0.080227 0.193471
vt 0.035111 0.194551
vt 0.029851 0.129329
vt 0.078457 0.129531
vt 0.524664 0.024934
vt 0.453935 0.048979
vt 0.476762 0.096074
vt 0.529992 0.085338
vt 0.458519 0.014915
vt 0.140591 0.209945
vt 0.084060 0.210053
vt 0.139428 0.189660
vt 0.088688 0.293915
vt 0.019697 0.289600
vt 0.036330 0.210891
vt 0.589766 0.089175
vt 0.538912 0.169399
vt 0.588096 0.171055
vt 0.169119 0.280272
vt 0.494132 0.172296
vt 0.495777 0.194811
vt 0.540097 0.192752
vt 0.594693 0.186440
vt 0.602720 0.254314
vt 0.550300 0.251019
vt 0.546511 0.359212
vt 0.576655 0.358602
vt 0.502818 0.254080
vt 0.133655 0.131663
vt 0.460444 0.638059
vt 0.461859 0.667341
vt 0.511272 0.661029
vt 0.492341 0.643217
vt 0.059953 0.028917
vt 0.089979 0.037143
vt 0.513486 0.356281
vt 0.126069 0.032173
vt 0.187391 0.328606
vt 0.600139 0.026470
vt 0.980612 0.851849
vt 0.869271 0.873069
vt 0.214036 0.700438
vt 0.168892 0.698897
vt 0.170775 0.659242
vt 0.208186 0.653496
vt 0.429138 0.636018
vt 0.382088 0.640297
vt 0.380987 0.679254
vt 0.425514 0.672609
vt 0.172591 0.619486
vt 0.211119 0.618494
vt 0.342980 0.638844
vt 0.341450 0.677655
vt 0.504441 0.606319
vt 0.529468 0.607110
vt 0.250819 0.702808
vt 0.243337 0.651469
vt 0.292311 0.649141
vt 0.300801 0.705699
vt 0.244056 0.622019
vt 0.258050 0.585846
vt 0.290061 0.591615
vt 0.277688 0.628694
vt 0.226990 0.579872
vt 0.239778 0.437910
vt 0.241642 0.380815
vt 0.334062 0.371731
vt 0.335105 0.430080
vt 0.244961 0.564466
vt 0.270260 0.519900
vt 0.334573 0.576660
vt 0.267325 0.484741
vt 0.339743 0.479221
vt 0.337393 0.523671
vt 0.397256 0.433766
vt 0.400592 0.476589
vt 0.218167 0.523740
vt 0.216842 0.468389
vt 0.934188 0.071641
vt 0.985147 0.071450
vt 0.980416 0.114135
vt 0.934188 0.111273
vt 0.409685 0.525397
vt 0.413123 0.381914
vt 0.413123 0.570440
vt 0.588235 0.616390
vt 0.541774 0.616014
vt 0.540412 0.699472
vt 0.594290 0.698674
vt 0.733169 0.616366
vt 0.683834 0.612729
vt 0.688349 0.697632
vt 0.724849 0.697622
vt 0.637083 0.612063
vt 0.634642 0.698467
vt 0.933176 0.242559
vt 0.985452 0.244219
vt 0.985670 0.280546
vt 0.933413 0.282101
vt 0.980360 0.291116
vt 0.933814 0.295150
vt 0.933988 0.335813
vt 0.980548 0.334832
vt 0.637975 0.554612
vt 0.592385 0.555443
vt 0.685764 0.549762
vt 0.727568 0.549351
vt 0.544847 0.548303
vt 0.557765 0.809694
vt 0.510229 0.803468
vt 0.511171 0.765578
vt 0.565124 0.764368
vt 0.479691 0.799649
vt 0.486340 0.766582
vt 0.437092 0.787533
vt 0.443585 0.748829
vt 0.425923 0.754711
vt 0.422123 0.742946
vt 0.429690 0.730629
vt 0.447798 0.694577
vt 0.457086 0.718428
vt 0.949739 0.404064
vt 0.949739 0.353270
vt 0.982292 0.353270
vt 0.982292 0.404064
vt 0.460533 0.693281
vt 0.502277 0.717435
vt 0.495857 0.735141
vt 0.514016 0.729944
vt 0.562185 0.720311
vt 0.408828 0.775679
vt 0.278149 0.967649
vt 0.246334 0.979776
vt 0.249708 0.914564
vt 0.277992 0.912907
vt 0.013923 0.884272
vt 0.022151 0.852843
vt 0.077991 0.867331
vt 0.074449 0.892252
vt 0.315578 0.881871
vt 0.272833 0.868911
vt 0.266436 0.823662
vt 0.311469 0.826118
vt 0.312630 0.841540
vt 0.233032 0.873502
vt 0.237034 0.853143
vt 0.243726 0.809688
vt 0.293162 0.797592
vt 0.353002 0.808376
vt 0.344750 0.831707
vt 0.171111 0.912654
vt 0.129263 0.910165
vt 0.133762 0.881302
vt 0.504295 0.904470
vt 0.456722 0.873442
vt 0.486878 0.832177
vt 0.523186 0.892354
vt 0.393060 0.750737
vt 0.369166 0.770382
vt 0.342151 0.723866
vt 0.371660 0.694150
vt 0.224422 0.982399
vt 0.224589 0.913793
vt 0.464697 0.929008
vt 0.510943 0.418646
vt 0.509620 0.457222
vt 0.450276 0.457321
vt 0.451259 0.416801
vt 0.371260 0.868269
vt 0.391399 0.792592
vt 0.427034 0.854273
vt 0.224914 0.800301
vt 0.250611 0.780243
vt 0.499027 0.969201
vt 0.535560 0.959128
vt 0.557854 0.949811
vt 0.378068 0.967627
vt 0.326324 0.969178
vt 0.319455 0.907637
vt 0.374611 0.893121
vt 0.340158 0.885118
vt 0.330117 0.844664
vt 0.450534 0.480546
vt 0.422105 0.480397
vt 0.434613 0.451640
vt 0.511818 0.394240
vt 0.445658 0.392364
vt 0.509788 0.480859
vt 0.224768 0.847580
vt 0.329170 0.701515
vt 0.145363 0.785723
vt 0.128390 0.783055
vt 0.170261 0.738493
vt 0.116930 0.746993
vt 0.160651 0.716692
vt 0.111510 0.779844
vt 0.893310 0.283615
vt 0.770664 0.270731
vt 0.865483 0.388919
vt 0.769534 0.358310
vt 0.423897 0.371814
vt 0.408299 0.341150
vt 0.485355 0.339413
vt 0.636248 0.267526
vt 0.642876 0.337877
vt 0.765704 0.747046
vt 0.792786 0.808169
vt 0.760084 0.563543
vt 0.757703 0.426691
vt 0.876826 0.390354
vt 0.896865 0.307217
vt 0.772687 0.422987
vt 0.914451 0.274726
vt 0.410556 0.185000
vt 0.408092 0.121083
vt 0.456578 0.117665
vt 0.455645 0.183093
vt 0.253560 0.018334
vt 0.251430 0.078936
vt 0.305153 0.086844
vt 0.325460 0.038610
vt 0.319084 0.004836
vt 0.351414 0.205432
vt 0.351233 0.185114
vt 0.407829 0.201799
vt 0.408760 0.285783
vt 0.455510 0.199477
vt 0.477314 0.276913
vt 0.191942 0.085924
vt 0.197935 0.167602
vt 0.246963 0.163350
vt 0.327602 0.277492
vt 0.291833 0.163878
vt 0.247013 0.186734
vt 0.291379 0.186449
vt 0.192159 0.183314
vt 0.187729 0.251517
vt 0.219266 0.354283
vt 0.249400 0.353300
vt 0.239901 0.245457
vt 0.287479 0.246007
vt 0.353156 0.126862
vt 0.373466 0.625371
vt 0.341578 0.620155
vt 0.322681 0.602307
vt 0.372105 0.596087
vt 0.390482 0.029659
vt 0.419898 0.019465
vt 0.282224 0.348629
vt 0.354142 0.027088
vt 0.312568 0.326929
vt 0.178272 0.023855
vt 0.757941 0.851792
vt 0.013855 0.710087
vt 0.062637 0.719760
vt 0.053791 0.758555
vt 0.012068 0.757539
vt 0.404768 0.627471
vt 0.408460 0.590887
vt 0.452999 0.584325
vt 0.451825 0.623280
vt 0.095615 0.759647
vt 0.099560 0.719322
vt 0.492533 0.585997
vt 0.490931 0.624805
vt 0.329410 0.657029
vt 0.304385 0.656192
vt 0.014143 0.671338
vt 0.013329 0.626462
vt 0.071995 0.639628
vt 0.067412 0.683054
vt 0.098346 0.684520
vt 0.093882 0.648751
vt 0.133695 0.638573
vt 0.137331 0.672574
vt 0.141254 0.705593
vt 0.185664 0.538131
vt 0.086734 0.549483
vt 0.089781 0.610162
vt 0.185643 0.597604
vt 0.176017 0.406617
vt 0.082362 0.396940
vt 0.151191 0.453841
vt 0.081208 0.452173
vt 0.080256 0.498505
vt 0.155426 0.490326
vt 0.011387 0.503289
vt 0.011387 0.547736
vt 0.208505 0.505645
vt 0.205267 0.448094
vt 0.933051 0.227541
vt 0.935500 0.187984
vt 0.981816 0.187984
vt 0.983901 0.230880
vt 0.011387 0.452807
vt 0.011387 0.602224
vt 0.011387 0.406053
vt 0.685388 0.464625
vt 0.679517 0.382326
vt 0.733395 0.381660
vt 0.731848 0.465114
vt 0.540455 0.464294
vt 0.548955 0.383058
vt 0.585455 0.383138
vt 0.589782 0.468052
vt 0.639164 0.382434
vt 0.636531 0.468832
vt 0.926036 0.053242
vt 0.926036 0.013699
vt 0.978301 0.014940
vt 0.978301 0.051267
vt 0.941318 0.172865
vt 0.942408 0.129162
vt 0.988977 0.129542
vt 0.987962 0.170192
vt 0.635511 0.526281
vt 0.681104 0.525562
vt 0.587712 0.531014
vt 0.545907 0.531323
vt 0.728625 0.532818
vt 0.736669 0.725394
vt 0.735353 0.771722
vt 0.683130 0.758703
vt 0.689295 0.721117
vt 0.659178 0.752270
vt 0.658895 0.718191
vt 0.614298 0.760413
vt 0.615218 0.720808
vt 0.598227 0.750739
vt 0.592334 0.761513
vt 0.621741 0.793364
vt 0.608255 0.814858
vt 0.597389 0.775323
vt 0.902963 0.354102
vt 0.935516 0.354102
vt 0.935516 0.404895
vt 0.902963 0.404895
vt 0.620394 0.818928
vt 0.662554 0.785374
vt 0.665487 0.804249
vt 0.724263 0.814542
vt 0.679237 0.794482
vt 0.585527 0.726307
vt 0.170921 0.966691
vt 0.199450 0.914463
vt 0.202557 0.979360
vt 0.434990 0.885665
vt 0.136920 0.840949
vt 0.138178 0.825523
vt 0.183245 0.823379
vt 0.176564 0.868613
vt 0.206044 0.809560
vt 0.212468 0.853064
vt 0.216352 0.873452
vt 0.156680 0.797114
vt 0.104811 0.830875
vt 0.096708 0.807441
vt 0.427703 0.967162
vt 0.542713 0.881290
vt 0.537443 0.824738
vt 0.340263 0.781402
vt 0.301717 0.734772
vt 0.020099 0.966282
vt 0.069986 0.966279
vt 0.582883 0.857700
vt 0.510287 0.543080
vt 0.450588 0.544296
vt 0.450031 0.503768
vt 0.509371 0.504492
vt 0.058337 0.791326
vt 0.199393 0.779972
vt 0.602434 0.906809
vt 0.576490 0.934433
vt 0.122173 0.967791
vt 0.119390 0.843962
vt 0.109116 0.884444
vt 0.434309 0.509284
vt 0.510905 0.567494
vt 0.444729 0.568673
vt 0.612579 0.943799
vt 0.704302 0.960286
vt 0.690069 0.863893
vt 0.628178 0.846809
vt 0.727017 0.964931
vt 0.742045 0.877429
vt 0.749981 0.968131
vt 0.795559 0.882010
vt 0.849700 0.973890
vt 0.859604 0.886554
vt 0.262137 0.727847
vt 0.208247 0.720642
vt 0.265551 0.745007
vt 0.235108 0.768630
vt 0.190786 0.737487
vt 0.268411 0.762268
s 0
f 103/1/1 2/2/1 8/3/1 112/4/1
f 2/2/2 1/5/2 7/6/2 8/3/2
f 119/7/3 5/8/3 117/9/3
f 6/10/4 4/11/4 1/5/4 2/2/4
f 4/12/5 29/13/5 141/14/5 113/15/5
f 111/16/6 6/10/6 2/2/6 103/1/6
f 1/17/7 104/18/7 114/19/7 7/20/7
f 4/12/8 113/15/8 104/18/8
f 3/21/9 5/22/9 8/3/9 7/6/9
f 118/23/10 3/24/10 7/20/10 114/19/10
f 5/25/11 119/26/11 112/4/11 8/3/11
f 18/27/12 11/28/12 19/29/12 22/30/12
f 3/31/13 120/32/13 27/33/13 28/34/13
f 3/31/14 118/35/14 120/32/14
f 15/36/15 16/37/15 18/27/15 17/38/15
f 10/39/16 9/40/16 14/41/16 16/37/16
f 9/42/17 28/34/17 13/43/17 14/44/17
f 27/45/18 10/39/18 16/37/18 15/36/18
f 28/34/19 27/33/19 15/46/19 13/43/19
f 13/43/20 15/46/20 17/47/20 12/48/20
f 16/37/21 14/41/21 11/28/21 18/27/21
f 14/44/22 13/43/22 12/48/22 11/49/22
f 19/50/23 20/51/23 24/52/23 23/53/23
f 11/49/24 12/48/24 20/51/24 19/50/24
f 12/48/25 17/47/25 21/54/25 20/51/25
f 17/38/26 18/27/26 22/30/26 21/55/26
f 39/56/27 38/57/27 36/58/27 34/59/27
f 22/30/28 19/29/28 23/60/28 26/61/28
f 20/51/29 21/54/29 25/62/29 24/52/29
f 21/55/30 22/30/30 26/61/30 25/63/30
f 120/64/31 117/9/31 10/39/31 27/45/31
f 5/65/32 3/31/32 28/34/32 9/42/32
f 117/9/33 5/8/33 9/40/33 10/39/33
f 141/14/34 29/13/34 6/66/34 111/67/34
f 6/66/35 29/13/35 4/12/35
f 30/68/36 31/69/36 32/70/36 33/71/36
f 25/72/37 26/73/37 31/74/37 30/75/37
f 23/76/38 24/77/38 33/71/38 32/70/38
f 26/73/39 23/78/39 32/79/39 31/74/39
f 35/80/40 34/59/40 36/58/40 37/81/40
f 38/82/41 40/83/41 37/84/41 36/85/41
f 41/86/42 39/87/42 34/88/42 35/89/42
f 40/83/43 41/86/43 35/89/43 37/84/43
f 33/71/44 24/77/44 41/86/44 40/83/44
f 24/77/45 25/90/45 39/87/45 41/86/45
f 30/68/46 33/71/46 40/83/46 38/82/46
f 25/72/47 30/75/47 38/57/47 39/56/47
f 43/91/48 45/92/48 44/93/48 42/94/48
f 45/95/49 49/96/49 44/97/49
f 49/96/50 47/98/50 46/99/50 48/100/50
f 47/98/51 43/91/51 42/94/51
f 46/99/52 42/94/52 50/101/52 52/102/52
f 47/98/53 49/96/53 45/103/53 43/104/53
f 50/105/54 51/106/54 53/107/54 52/108/54
f 48/100/55 46/99/55 52/102/55 53/109/55
f 42/94/56 44/93/56 51/110/56 50/101/56
f 44/97/57 48/100/57 53/109/57 51/111/57
f 62/112/58 63/113/58 56/114/58 54/115/58
f 63/116/59 64/117/59 60/118/59 56/119/59
f 64/117/60 65/120/60 58/121/60 60/118/60
f 65/120/61 62/112/61 54/115/61 58/121/61
f 54/122/62 56/123/62 60/124/62 58/125/62
f 59/126/63 61/127/63 57/128/63 55/129/63
f 59/130/64 55/131/64 62/112/64 65/120/64
f 61/132/65 59/130/65 65/120/65 64/117/65
f 57/133/66 61/132/66 64/117/66 63/116/66
f 55/131/67 57/134/67 63/113/67 62/112/67
f 67/135/68 69/136/68 68/137/68 78/138/68
f 42/94/69 46/99/69 47/98/69
f 44/97/70 49/96/70 48/100/70
f 69/136/71 73/139/71 72/140/71 68/137/71
f 73/139/72 71/141/72 70/142/72 72/140/72
f 66/143/73 78/144/73 70/142/73
f 70/142/74 78/145/74 75/146/74 77/147/74
f 71/148/75 73/149/75 69/150/75 67/151/75
f 75/152/76 74/153/76 76/154/76 77/147/76
f 72/140/77 70/142/77 77/147/77 76/154/77
f 78/138/78 68/137/78 74/155/78 75/156/78
f 68/137/79 72/140/79 76/154/79 74/155/79
f 67/157/80 78/144/80 66/143/80
f 71/141/81 66/143/81 70/142/81
f 67/157/82 66/143/82 71/141/82
f 104/18/83 1/17/83 4/12/83
f 82/158/84 88/159/84 96/160/84 97/161/84
f 226/162/85 192/163/85 195/164/85 224/165/85
f 91/166/86 79/167/86 81/168/86 90/169/86 99/170/86
f 79/167/87 85/171/87 98/172/87 86/173/87 81/168/87
f 93/174/88 87/175/88 83/176/88 90/169/88
f 221/177/89 233/178/89 210/179/89
f 92/180/90 84/181/90 200/182/90 211/183/90
f 85/184/91 193/185/91 227/186/91 98/187/91
f 88/159/92 202/188/92 220/189/92 96/160/92
f 89/190/93 84/181/93 92/180/93
f 87/191/94 93/192/94 95/193/94 94/194/94
f 80/195/95 201/196/95 192/197/95
f 203/198/96 212/199/96 93/174/96 86/173/96
f 82/200/97 89/190/97 92/180/97 88/201/97
f 88/201/98 92/180/98 211/183/98 202/202/98
f 84/203/99 89/204/99 223/205/99 225/206/99
f 86/173/100 93/174/100 90/169/100 81/168/100
f 80/195/101 100/207/101 101/208/101 99/170/101 90/169/101 83/176/101
f 217/209/102 216/210/102 94/211/102 95/193/102
f 201/212/103 87/191/103 94/194/103 216/213/103
f 93/192/104 212/214/104 217/209/104 95/193/104
f 89/204/105 82/158/105 97/161/105 223/205/105
f 87/175/106 201/196/106 80/195/106 83/176/106
f 98/172/107 222/215/107 203/198/107 86/173/107
f 222/216/108 98/187/108 227/186/108
f 100/217/109 102/218/109 101/219/109
f 91/220/110 99/221/110 102/218/110
f 100/222/111 91/220/111 102/218/111
f 102/218/112 99/221/112 101/219/112
f 103/1/113 112/4/113 116/223/113 106/224/113
f 106/224/114 116/223/114 115/225/114 105/226/114
f 119/227/115 117/228/115 109/229/115
f 110/230/116 106/224/116 105/226/116 108/231/116
f 108/232/117 113/15/117 141/14/117 142/233/117
f 111/16/118 103/1/118 106/224/118 110/230/118
f 105/234/119 115/235/119 114/19/119 104/18/119
f 108/232/120 104/18/120 113/15/120
f 107/236/121 115/225/121 116/223/121 109/237/121
f 118/23/122 114/19/122 115/235/122 107/238/122
f 109/239/123 116/223/123 112/4/123 119/26/123
f 130/240/124 134/241/124 131/242/124 123/243/124
f 107/244/125 140/245/125 139/246/125 120/247/125
f 107/244/126 120/247/126 118/248/126
f 127/249/127 129/250/127 130/240/127 128/251/127
f 122/252/128 128/251/128 126/253/128 121/254/128
f 121/255/129 126/256/129 125/257/129 140/245/129
f 139/258/130 127/249/130 128/251/130 122/252/130
f 140/245/131 125/257/131 127/259/131 139/246/131
f 125/257/132 124/260/132 129/261/132 127/259/132
f 128/251/133 130/240/133 123/243/133 126/253/133
f 126/256/134 123/262/134 124/260/134 125/257/134
f 131/263/135 135/264/135 136/265/135 132/266/135
f 123/262/136 131/263/136 132/266/136 124/260/136
f 124/260/137 132/266/137 133/267/137 129/261/137
f 129/250/138 133/268/138 134/241/138 130/240/138
f 152/269/139 147/270/139 149/271/139 151/272/139
f 134/241/140 138/273/140 135/274/140 131/242/140
f 132/266/141 136/265/141 137/275/141 133/267/141
f 133/268/142 137/276/142 138/273/142 134/241/142
f 120/277/143 139/258/143 122/252/143 117/228/143
f 109/278/144 121/255/144 140/245/144 107/244/144
f 117/228/145 122/252/145 121/254/145 109/229/145
f 141/14/146 111/67/146 110/279/146 142/233/146
f 110/279/147 108/232/147 142/233/147
f 143/280/148 146/281/148 145/282/148 144/283/148
f 137/284/149 143/285/149 144/286/149 138/287/149
f 135/288/150 145/282/150 146/281/150 136/289/150
f 138/287/151 144/286/151 145/290/151 135/291/151
f 148/292/152 150/293/152 149/271/152 147/270/152
f 151/294/153 149/295/153 150/296/153 153/297/153
f 154/298/154 148/299/154 147/300/154 152/301/154
f 153/297/155 150/296/155 148/299/155 154/298/155
f 146/281/156 153/297/156 154/298/156 136/289/156
f 136/289/157 154/298/157 152/301/157 137/302/157
f 143/280/158 151/294/158 153/297/158 146/281/158
f 137/284/159 152/269/159 151/272/159 143/285/159
f 156/303/160 155/304/160 157/305/160 158/306/160
f 158/307/161 157/308/161 162/309/161
f 162/309/162 161/310/162 159/311/162 160/312/162
f 160/312/163 155/304/163 156/303/163
f 159/311/164 165/313/164 163/314/164 155/304/164
f 160/312/165 156/315/165 158/316/165 162/309/165
f 163/317/166 165/318/166 166/319/166 164/320/166
f 161/310/167 166/321/167 165/313/167 159/311/167
f 155/304/168 163/314/168 164/322/168 157/305/168
f 157/308/169 164/323/169 166/321/169 161/310/169
f 175/324/170 167/325/170 169/326/170 176/327/170
f 176/328/171 169/329/171 173/330/171 177/331/171
f 177/331/172 173/330/172 171/332/172 178/333/172
f 178/333/173 171/332/173 167/325/173 175/324/173
f 167/334/174 171/335/174 173/336/174 169/337/174
f 172/338/175 168/339/175 170/340/175 174/341/175
f 172/342/176 178/333/176 175/324/176 168/343/176
f 174/344/177 177/331/177 178/333/177 172/342/177
f 170/345/178 176/328/178 177/331/178 174/344/178
f 168/343/179 175/324/179 176/327/179 170/346/179
f 180/347/180 191/348/180 181/349/180 182/350/180
f 155/304/181 160/312/181 159/311/181
f 157/308/182 161/310/182 162/309/182
f 182/350/183 181/349/183 185/351/183 186/352/183
f 186/352/184 185/351/184 183/353/184 184/354/184
f 179/355/185 183/353/185 191/356/185
f 183/353/186 190/357/186 188/358/186 191/359/186
f 184/360/187 180/361/187 182/362/187 186/363/187
f 188/364/188 190/357/188 189/365/188 187/366/188
f 185/351/189 189/365/189 190/357/189 183/353/189
f 191/348/190 188/367/190 187/368/190 181/349/190
f 181/349/191 187/368/191 189/365/191 185/351/191
f 180/369/192 179/355/192 191/356/192
f 184/354/193 183/353/193 179/355/193
f 180/369/194 184/354/194 179/355/194
f 104/18/195 108/232/195 105/234/195
f 197/370/196 221/177/196 219/371/196 207/372/196
f 80/195/197 192/197/197 226/373/197 225/206/197
f 210/179/198 229/374/198 209/375/198 196/376/198 194/377/198
f 194/377/199 196/376/199 205/378/199 228/379/199 204/380/199
f 214/381/200 209/375/200 198/382/200 206/383/200
f 225/206/201 226/373/201 200/384/201 84/203/201
f 213/385/202 211/183/202 200/182/202 199/386/202
f 204/387/203 228/388/203 227/186/203 193/185/203
f 207/372/204 219/371/204 220/189/204 202/188/204
f 200/389/205 226/162/205 224/165/205 199/390/205
f 208/391/206 213/385/206 199/386/206
f 206/392/207 215/393/207 218/394/207 214/395/207
f 195/164/208 192/163/208 201/396/208
f 203/198/209 205/378/209 214/381/209 212/397/209
f 197/398/210 207/399/210 213/385/210 208/391/210
f 207/399/211 202/202/211 211/183/211 213/385/211
f 199/390/212 224/165/212 233/178/212 208/400/212
f 205/378/213 196/376/213 209/375/213 214/381/213
f 195/164/214 198/382/214 209/375/214 229/374/214 231/401/214 230/402/214
f 217/209/215 218/394/215 215/403/215 216/210/215
f 201/404/216 216/405/216 215/393/216 206/392/216
f 214/395/217 218/394/217 217/209/217 212/214/217
f 194/406/218 204/407/218 219/408/218 221/409/218
f 204/407/219 193/410/219 220/411/219 219/408/219
f 85/412/220 96/413/220 220/411/220 193/410/220
f 79/414/221 97/415/221 96/413/221 85/412/221
f 206/383/222 198/382/222 195/164/222 201/396/222
f 228/379/223 205/378/223 203/198/223 222/215/223
f 222/216/224 227/186/224 228/388/224
f 230/416/225 231/417/225 232/418/225
f 210/419/226 232/418/226 229/420/226
f 230/421/227 232/418/227 210/419/227
f 232/418/228 231/417/228 229/420/228
f 223/205/229 97/161/229 91/166/229
f 225/206/230 223/205/230 91/166/230 100/207/230 80/195/230
f 221/177/231 210/179/231 194/377/231
f 91/166/232 97/161/232 79/167/232
f 233/178/233 221/177/233 197/370/233 208/400/233
f 233/178/234 224/165/234 195/164/234 230/402/234 210/179/234
