# Blender 4.3.2
# www.blender.org
o beggar
v 0.196592 1.173578 0.150922
v 0.180538 1.230098 -0.099992
v 0.191200 0.911093 0.118807
v 0.190860 1.489419 0.147746
v 0.189991 0.876772 -0.125280
v 0.200460 1.575307 -0.022333
v 0.205137 0.911548 0.135311
v 0.224674 0.875116 -0.134219
v 0.233488 0.753268 -0.057228
v 0.052907 0.710935 -0.087418
v 0.242354 0.519224 -0.030270
v 0.231440 0.472112 0.105113
v 0.232912 0.552544 0.117302
v 0.239136 0.538716 -0.011967
v 0.118510 0.545834 0.134436
v 0.110713 0.532125 -0.011648
v 0.117312 0.477843 0.123901
v 0.113717 0.524229 -0.029574
v 0.233081 0.365025 -0.113818
v 0.232709 0.324613 0.026060
v 0.107546 0.328467 0.047519
v 0.089163 0.374399 -0.108884
v 0.155140 0.079610 -0.144990
v 0.167492 0.070101 -0.063098
v 0.085467 0.070086 -0.040157
v 0.070859 0.095882 -0.135888
v 0.073116 0.758480 0.149297
v 0.223656 0.795640 0.131474
v 0.152710 1.569595 0.085523
v 0.072374 -0.007489 -0.061220
v 0.059681 0.009227 -0.166018
v 0.146969 0.000260 -0.170666
v 0.176378 -0.006795 -0.080299
v 0.083821 0.033207 0.094467
v 0.167988 0.035956 0.080450
v 0.066522 -0.007982 0.130105
v 0.189805 -0.005815 0.108907
v 0.070518 -0.007777 0.020658
v 0.082180 0.055296 0.026970
v 0.183053 -0.005568 0.001383
v 0.165034 0.056424 0.008236
v 0.155052 1.346938 0.090386
v 0.117591 1.576536 0.089282
v 0.170015 1.373169 -0.064266
v 0.130937 1.589089 -0.034160
v 0.288263 1.379813 0.080474
v 0.236253 1.542744 0.057130
v 0.300229 1.399569 -0.043351
v 0.252052 1.560792 -0.017378
v 0.222655 1.204307 0.066107
v 0.225864 1.186764 -0.071659
v 0.323012 1.227578 0.065337
v 0.332508 1.217953 -0.060821
v 0.262781 0.872413 0.124927
v 0.205113 1.208026 0.042515
v 0.306309 0.852341 -0.002302
v 0.234257 1.201085 -0.074776
v 0.360341 0.891378 0.151165
v 0.310877 1.240178 0.068861
v 0.395935 0.869764 0.021802
v 0.332634 1.230992 -0.050270
v 0.223423 1.063512 0.068716
v 0.257646 1.043142 -0.043808
v 0.379852 1.082440 -0.013755
v 0.342659 1.104578 0.108535
v 0.296686 0.809285 0.159332
v 0.282416 0.874499 0.108445
v 0.327638 0.778671 0.012984
v 0.315220 0.860675 0.007868
v 0.349154 0.800692 0.144557
v 0.346626 0.888267 0.127495
v 0.393001 0.792686 0.032376
v 0.379430 0.874442 0.026918
v 0.323705 0.703550 0.035356
v 0.291924 0.695345 0.141655
v 0.361821 0.719790 0.044366
v 0.338942 0.726209 0.139810
v 0.300559 0.786579 0.137442
v 0.079859 1.702813 0.194197
v 0.068430 1.743358 0.040464
v 0.059801 1.629435 0.176087
v 0.064441 1.851528 0.188580
v 0.071181 1.679105 0.061483
v 0.055034 1.867693 0.072550
v 0.015489 1.705871 0.232195
v 0.029007 1.603186 0.195624
v 0.043211 1.663567 0.056759
v 0.027758 1.864943 0.203444
v 0.075735 1.860901 0.131598
v 0.079198 1.653298 0.109234
v 0.095334 1.739424 0.126606
v 0.028523 1.894429 0.131991
v 0.043716 1.629192 0.126482
v 0.045537 1.549992 0.008248
v 0.046101 1.518718 0.084046
v 0.032165 1.772793 0.221586
v 0.081844 1.771191 0.196284
v 0.021203 1.672088 0.221965
v 0.084591 1.676619 0.114130
v 0.089954 1.754592 0.089217
v 0.080595 1.689975 0.088697
v 0.110504 1.758487 0.087280
v 0.000000 1.249481 -0.145189
v 0.002995 1.167086 0.217422
v -0.188334 1.176160 0.133019
v -0.177676 1.224011 -0.107058
v -0.177911 0.976014 0.098995
v -0.190860 1.489419 0.147746
v -0.201011 0.866195 -0.092334
v -0.200460 1.575307 -0.022333
v 0.000000 1.620383 -0.028071
v -0.001803 0.896071 -0.211090
v 0.000000 1.510397 0.184150
v 0.005155 0.918257 0.191142
v -0.191120 0.976466 0.114476
v -0.236294 0.861035 -0.120261
v -0.003990 0.840924 -0.150434
v 0.003407 0.911345 0.133177
v -0.001453 0.898801 -0.156859
v -0.000583 0.858828 0.141373
v -0.267147 0.795231 0.022322
v -0.098907 0.705677 0.013551
v -0.323794 0.681679 0.171230
v -0.295952 0.611757 0.258971
v -0.295526 0.709790 0.274921
v -0.318718 0.654662 0.179472
v -0.186686 0.687583 0.298372
v -0.196508 0.632739 0.192401
v -0.186557 0.623257 0.286100
v -0.199923 0.691963 0.184834
v -0.284645 0.618983 0.014317
v -0.272959 0.516860 0.115357
v -0.151571 0.529554 0.143093
v -0.144114 0.648120 0.031211
v -0.157663 0.374585 -0.135296
v -0.170311 0.423569 -0.113738
v -0.090904 0.448688 -0.112012
v -0.078062 0.418232 -0.124211
v -0.090144 0.855865 0.194651
v -0.231287 0.922528 0.163779
v 0.000000 1.588397 0.083657
v -0.152710 1.569595 0.085523
v -0.074642 0.425752 -0.039283
v -0.058295 0.360233 -0.117067
v -0.144012 0.344157 -0.118153
v -0.177685 0.403810 -0.045281
v -0.090433 0.580590 -0.101034
v -0.174294 0.564992 -0.098060
v -0.073926 0.626643 -0.072161
v -0.196734 0.603040 -0.066873
v -0.075600 0.520680 -0.040815
v -0.087355 0.511103 -0.102731
v -0.187688 0.498325 -0.037472
v -0.169825 0.496496 -0.099085
v -0.157146 1.346540 0.090386
v -0.117287 1.575734 0.089282
v -0.171834 1.372926 -0.064266
v -0.130501 1.588426 -0.034160
v -0.290006 1.380806 0.080474
v -0.236296 1.543185 0.057130
v -0.301765 1.400686 -0.043351
v -0.251905 1.561397 -0.017378
v -0.226237 1.204624 0.066107
v -0.229629 1.187115 -0.071659
v -0.326345 1.228943 0.065337
v -0.335941 1.219417 -0.060821
v -0.288780 0.873042 0.124926
v -0.209169 1.204137 0.042515
v -0.333535 0.855876 -0.002302
v -0.238706 1.199128 -0.074776
v -0.384882 0.898382 0.151165
v -0.312590 1.243174 0.068861
v -0.421821 0.879155 0.021802
v -0.334904 1.235439 -0.050270
v -0.236942 1.061140 0.068716
v -0.272431 1.043064 -0.043808
v -0.391788 1.090313 -0.013755
v -0.353220 1.109958 0.108535
v -0.327814 0.811815 0.159332
v -0.308337 0.875667 0.108445
v -0.361132 0.783793 0.012984
v -0.342148 0.864530 0.007868
v -0.380803 0.807476 0.144557
v -0.371230 0.894562 0.127495
v -0.425153 0.803028 0.032376
v -0.405041 0.883425 0.026918
v -0.363262 0.708600 0.035356
v -0.332246 0.697861 0.141655
v -0.399946 0.727857 0.044366
v -0.376625 0.732412 0.139810
v -0.333504 0.789494 0.137442
v 0.000199 1.748996 0.010352
v 0.000131 1.706538 0.242710
v -0.079616 1.703130 0.194183
v -0.068049 1.743609 0.040475
v -0.059819 1.629623 0.176095
v -0.063517 1.850459 0.188227
v -0.071041 1.679348 0.061489
v -0.053741 1.866784 0.072251
v 0.000670 1.872317 0.048306
v 0.000059 1.674003 0.035231
v 0.000251 1.869378 0.209097
v -0.000052 1.596521 0.201890
v -0.015231 1.705976 0.232170
v -0.029094 1.603304 0.195640
v -0.043128 1.663710 0.056764
v -0.027146 1.864485 0.203293
v -0.074651 1.859645 0.131184
v -0.079148 1.653555 0.109229
v -0.094954 1.739774 0.126620
v 0.000257 1.894193 0.131913
v -0.000016 1.621257 0.143936
v -0.028009 1.893957 0.131836
v -0.043733 1.629291 0.126488
v -0.045563 1.550005 0.008249
v -0.000010 1.544126 -0.013033
v -0.000009 1.500825 0.095490
v -0.046132 1.518730 0.084048
v -0.031687 1.772819 0.221566
v 0.000229 1.772804 0.232736
v -0.081316 1.771279 0.196237
v 0.000048 1.662839 0.223630
v 0.096461 1.779801 0.128573
v -0.073931 1.779233 0.041630
v 0.074444 1.778961 0.041618
v 0.000266 1.785739 0.008986
v 0.000053 1.664615 0.243107
v -0.021076 1.671930 0.222036
v -0.084457 1.676898 0.114152
v -0.089523 1.754922 0.089231
v -0.080414 1.690255 0.088716
v -0.110060 1.758893 0.087297
v -0.095784 1.784842 0.128817
vn 0.2977 0.1510 -0.9426
vn 0.9964 0.0843 0.0099
vn 0.1487 -0.1155 -0.9821
vn 0.9996 -0.0190 -0.0218
vn 0.1515 0.7263 0.6705
vn 0.1703 0.2542 -0.9520
vn 0.2960 -0.0719 0.9525
vn 0.1967 0.0963 0.9757
vn -0.0454 -0.9898 0.1347
vn -0.0000 -0.9951 0.0985
vn -0.1053 -0.9944 0.0118
vn 0.0067 0.4716 -0.8818
vn 0.0814 0.1343 0.9876
vn 0.0757 0.1481 0.9861
vn -0.9988 -0.0365 0.0340
vn 0.1351 -0.2714 -0.9529
vn 0.9984 0.0355 0.0441
vn -0.9653 -0.2376 0.1086
vn 0.1382 -0.0464 0.9893
vn 0.1541 -0.1522 0.9763
vn -0.0073 0.7971 -0.6038
vn 0.9979 -0.0022 0.0644
vn 0.9668 -0.2330 -0.1047
vn 0.9988 -0.0415 0.0278
vn 0.1290 -0.4629 0.8770
vn -0.9937 0.0669 0.0904
vn -0.9617 0.2732 0.0216
vn -0.0486 0.1107 -0.9927
vn 0.1902 -0.3488 0.9177
vn -0.9889 0.0441 0.1419
vn -0.8783 -0.4681 0.0972
vn 0.9557 0.2927 -0.0328
vn 0.2125 -0.3811 -0.8998
vn 0.1701 0.9644 0.2025
vn 0.7128 0.6091 0.3478
vn -0.0564 -0.9925 -0.1087
vn -0.9832 0.0972 0.1545
vn 0.9711 0.0673 -0.2290
vn -0.0286 0.3215 -0.9465
vn 0.1184 0.6111 0.7826
vn 0.0182 -0.9998 -0.0023
vn 0.0347 0.9563 0.2902
vn 0.9342 0.3567 -0.0093
vn 0.9813 0.1921 -0.0114
vn 0.0445 0.9782 0.2030
vn 0.0143 -0.9999 0.0053
vn -0.9842 0.1764 -0.0161
vn -0.9795 -0.1603 -0.1221
vn 0.1735 0.1667 -0.9706
vn 0.9391 0.2887 0.1865
vn 0.2743 0.0494 0.9604
vn 0.0713 -0.1078 0.9916
vn 0.2574 0.9485 0.1845
vn 0.2478 -0.9624 0.1110
vn 0.9780 0.1874 0.0916
vn -0.9362 -0.3447 -0.0684
vn 0.1100 0.0932 -0.9896
vn -0.9264 -0.2784 -0.2535
vn 0.2796 -0.1367 -0.9504
vn 0.9588 0.1230 0.2559
vn -0.3319 0.1796 0.9261
vn 0.1351 -0.9706 0.1993
vn -0.2609 0.9577 -0.1215
vn -0.3262 0.1607 0.9315
vn 0.9322 0.3095 0.1875
vn 0.2801 -0.1444 -0.9491
vn -0.9540 -0.1773 -0.2420
vn -0.9483 -0.2170 -0.2314
vn 0.0357 0.1529 0.9876
vn 0.1175 0.1921 -0.9743
vn 0.2876 -0.0162 -0.9576
vn 0.9368 0.1321 0.3239
vn 0.0922 -0.6829 0.7247
vn -0.0565 0.0032 0.9984
vn -0.1537 0.9709 -0.1836
vn 0.4728 -0.8729 0.1204
vn 0.9186 -0.2426 0.3121
vn -0.9684 0.0337 -0.2470
vn 0.3307 -0.2872 -0.8990
vn -0.9807 -0.1935 0.0271
vn 0.2949 0.1909 0.9363
vn -0.3436 0.5298 0.7754
vn 0.3244 0.0154 0.9458
vn 0.4408 0.1873 0.8778
vn -0.4005 -0.0349 -0.9156
vn 0.9576 -0.2493 0.1443
vn 0.5641 -0.2607 0.7834
vn 0.4122 -0.7984 -0.4389
vn -0.9785 -0.0280 0.2043
vn 0.1372 0.9454 -0.2955
vn 0.6595 -0.0483 0.7502
vn 0.2805 0.2137 0.9358
vn 0.5750 0.8109 -0.1083
vn 0.9998 0.0203 0.0018
vn 0.3655 -0.2937 -0.8833
vn 0.0681 -0.9293 -0.3631
vn 0.5069 0.8107 0.2929
vn 0.1045 0.9340 0.3417
vn 0.9268 0.2710 -0.2601
vn 0.5349 -0.8278 -0.1694
vn 0.9381 -0.1229 -0.3237
vn 0.2701 -0.8923 -0.3618
vn 0.4231 0.3381 -0.8406
vn 0.3746 -0.3362 0.8641
vn 0.9457 0.2300 0.2297
vn 0.3495 -0.2923 -0.8902
vn 0.2440 -0.3125 0.9180
vn 0.4047 -0.9107 0.0829
vn -0.0980 0.0222 -0.9949
vn 0.9418 -0.2128 0.2602
vn -0.1360 0.9111 0.3892
vn 0.8606 -0.3826 -0.3361
vn -0.3134 0.1303 -0.9406
vn -0.9928 0.1051 0.0572
vn -0.2926 -0.0928 -0.9517
vn -0.9993 -0.0359 -0.0143
vn -0.1515 0.7263 0.6705
vn -0.1592 0.2611 -0.9521
vn -0.3956 -0.0908 0.9139
vn -0.1964 0.0929 0.9761
vn -0.0355 -0.8811 0.4715
vn -0.3210 -0.9460 0.0448
vn 0.1624 -0.9864 0.0243
vn -0.0986 0.9316 -0.3498
vn 0.2597 0.7104 0.6541
vn -0.1266 0.1623 0.9786
vn 0.9794 -0.1623 -0.1204
vn -0.2791 -0.7496 -0.6002
vn -0.9507 0.3102 -0.0019
vn 0.8747 -0.4194 0.2429
vn -0.0127 0.4952 0.8687
vn -0.2304 -0.1662 0.9588
vn -0.0977 0.1701 0.9806
vn -0.9635 -0.0163 0.2671
vn -0.8961 -0.4047 -0.1824
vn -0.9591 -0.2780 -0.0525
vn -0.0413 -0.8385 0.5434
vn 0.9542 0.2373 0.1820
vn 0.9606 -0.0388 -0.2752
vn -0.0642 0.5212 -0.8510
vn 0.1189 -0.9209 0.3713
vn 0.9693 0.0958 0.2266
vn 0.7330 -0.6467 0.2110
vn -0.8385 0.5029 -0.2097
vn -0.3306 -0.6571 -0.6774
vn -0.1701 0.9644 0.2025
vn -0.7128 0.6091 0.3478
vn 0.1248 -0.7424 0.6582
vn 0.9348 0.3485 -0.0685
vn -0.9453 -0.3069 -0.1106
vn 0.1470 -0.2099 -0.9666
vn -0.1403 0.5688 -0.8104
vn -0.0188 0.2764 0.9609
vn -0.0429 0.0174 -0.9989
vn -0.9286 -0.1294 -0.3477
vn -0.9805 -0.0297 -0.1943
vn -0.0547 0.1755 -0.9830
vn -0.0055 -0.0334 0.9994
vn 0.9789 -0.0061 -0.2043
vn 0.9778 -0.1706 -0.1221
vn -0.1717 0.1685 -0.9706
vn -0.9360 0.2985 0.1865
vn -0.2737 0.0522 0.9604
vn -0.0724 -0.1071 0.9916
vn -0.2475 0.9512 0.1845
vn -0.2579 -0.9598 0.1110
vn -0.9760 0.1976 0.0916
vn 0.9326 -0.3545 -0.0684
vn -0.1090 0.0943 -0.9896
vn 0.9061 -0.3387 -0.2535
vn -0.2879 -0.1180 -0.9504
vn -0.9487 0.1858 0.2559
vn 0.3430 0.1574 0.9261
vn -0.1986 -0.9596 0.1993
vn 0.3233 0.9385 -0.1215
vn 0.3361 0.1389 0.9315
vn -0.9099 0.3701 0.1875
vn -0.2889 -0.1257 -0.9491
vn 0.9402 -0.2396 -0.2420
vn 0.9278 -0.2927 -0.2314
vn -0.0341 0.1533 0.9876
vn -0.1155 0.1933 -0.9743
vn -0.2880 0.0070 -0.9576
vn -0.9231 0.2072 0.3239
vn -0.1469 -0.6732 0.7247
vn 0.0566 -0.0013 0.9984
vn 0.2314 0.9554 -0.1836
vn -0.5416 -0.8320 0.1204
vn -0.9351 -0.1679 0.3121
vn 0.9680 -0.0444 -0.2470
vn -0.3528 -0.2596 -0.8990
vn 0.9620 -0.2718 0.0271
vn -0.2786 0.2141 0.9363
vn 0.3852 0.5004 0.7754
vn -0.4050 -0.0462 0.9131
vn -0.4455 0.1928 0.8743
vn 0.4003 -0.0363 -0.9157
vn -0.9585 -0.2457 0.1446
vn -0.5659 -0.2580 0.7830
vn -0.4151 -0.7967 -0.4392
vn 0.4025 0.3778 -0.8338
vn -0.1513 0.9430 -0.2963
vn -0.6588 -0.0449 0.7510
vn -0.2850 0.2149 0.9341
vn -0.4019 0.3818 -0.8323
vn -0.5879 0.8012 -0.1115
vn -0.9998 0.0210 0.0014
vn -0.3667 -0.2923 -0.8832
vn -0.0711 -0.9292 -0.3626
vn -0.5220 0.8021 0.2900
vn -0.1219 0.9321 0.3411
vn -0.9198 0.2882 -0.2662
vn -0.5378 -0.8260 -0.1688
vn -0.9387 -0.1193 -0.3236
vn -0.2703 -0.8922 -0.3618
vn -0.4225 0.3384 -0.8408
vn -0.3749 -0.3361 0.8640
vn -0.4852 -0.0099 0.8744
vn -0.4165 0.0887 0.9048
vn 0.4159 0.0875 0.9052
vn 0.4849 -0.0118 0.8745
vn -0.3506 -0.2909 -0.8902
vn -0.2426 -0.3130 0.9183
vn -0.3992 -0.9130 0.0834
vn 0.0979 0.0217 -0.9950
vn -0.9426 -0.2090 0.2605
vn 0.1394 0.9106 0.3892
vn -0.8620 -0.3793 -0.3362
vn 0.9778 -0.0373 0.2063
vn 0.9646 0.0001 -0.2638
vn -0.9782 -0.0306 0.2055
vn 0.9781 -0.0346 0.2052
vn -0.9395 0.2463 0.2383
vn -0.9654 0.0063 -0.2608
vt 0.769832 0.195645
vt 0.775252 0.120749
vt 0.898457 0.115387
vt 0.893855 0.199439
vt 0.779478 0.033265
vt 0.875888 0.020883
vt 0.079276 0.380758
vt 0.015809 0.352495
vt 0.092810 0.349129
vt 0.640892 0.115732
vt 0.651808 0.045918
vt 0.972902 0.747099
vt 0.945788 0.808209
vt 0.869285 0.817542
vt 0.869303 0.746010
vt 0.623064 0.191154
vt 0.978616 0.563599
vt 0.869350 0.563483
vt 0.869382 0.439703
vt 0.981068 0.426748
vt 0.887298 0.020144
vt 0.903448 0.092046
vt 0.869386 0.423683
vt 0.966087 0.423037
vt 0.919014 0.125551
vt 0.901661 0.199678
vt 0.080227 0.193471
vt 0.035111 0.194551
vt 0.029851 0.129329
vt 0.078457 0.129531
vt 0.524664 0.024934
vt 0.453935 0.048979
vt 0.476762 0.096074
vt 0.529992 0.085338
vt 0.458519 0.014915
vt 0.140591 0.209945
vt 0.084060 0.210053
vt 0.139428 0.189660
vt 0.088688 0.293915
vt 0.019697 0.289600
vt 0.036330 0.210891
vt 0.589766 0.089175
vt 0.538912 0.169399
vt 0.588096 0.171055
vt 0.169119 0.280272
vt 0.494132 0.172296
vt 0.495777 0.194811
vt 0.540097 0.192752
vt 0.594693 0.186440
vt 0.602720 0.254314
vt 0.550300 0.251019
vt 0.546511 0.359212
vt 0.576655 0.358602
vt 0.502818 0.254080
vt 0.133655 0.131663
vt 0.460444 0.638059
vt 0.461859 0.667341
vt 0.511272 0.661029
vt 0.492341 0.643217
vt 0.059953 0.028917
vt 0.089979 0.037143
vt 0.513486 0.356281
vt 0.126069 0.032173
vt 0.187391 0.328606
vt 0.600139 0.026470
vt 0.980612 0.851849
vt 0.869271 0.873069
vt 0.214036 0.700438
vt 0.168892 0.698897
vt 0.170775 0.659242
vt 0.208186 0.653496
vt 0.429138 0.636018
vt 0.382088 0.640297
vt 0.380987 0.679254
vt 0.425514 0.672609
vt 0.172591 0.619486
vt 0.211119 0.618494
vt 0.342980 0.638844
vt 0.341450 0.677655
vt 0.504441 0.606319
vt 0.529468 0.607110
vt 0.250819 0.702808
vt 0.243337 0.651469
vt 0.292311 0.649141
vt 0.300801 0.705699
vt 0.244056 0.622019
vt 0.258050 0.585846
vt 0.290061 0.591615
vt 0.277688 0.628694
vt 0.226990 0.579872
vt 0.239778 0.437910
vt 0.241642 0.380815
vt 0.334062 0.371731
vt 0.335105 0.430080
vt 0.244961 0.564466
vt 0.270260 0.519900
vt 0.334573 0.576660
vt 0.267325 0.484741
vt 0.339743 0.479221
vt 0.337393 0.523671
vt 0.397256 0.433766
vt 0.400592 0.476589
vt 0.218167 0.523740
vt 0.216842 0.468389
vt 0.934188 0.071641
vt 0.985147 0.071450
vt 0.980416 0.114135
vt 0.934188 0.111273
vt 0.409685 0.525397
vt 0.413123 0.381914
vt 0.413123 0.570440
vt 0.588235 0.616390
vt 0.541774 0.616014
vt 0.540412 0.699472
vt 0.594290 0.698674
vt 0.733169 0.616366
vt 0.683834 0.612729
vt 0.688349 0.697632
vt 0.724849 0.697622
vt 0.637083 0.612063
vt 0.634642 0.698467
vt 0.933176 0.242559
vt 0.985452 0.244219
vt 0.985670 0.280546
vt 0.933413 0.282101
vt 0.980360 0.291116
vt 0.933814 0.295150
vt 0.933988 0.335813
vt 0.980548 0.334832
vt 0.637975 0.554612
vt 0.592385 0.555443
vt 0.685764 0.549762
vt 0.727568 0.549351
vt 0.544847 0.548303
vt 0.557765 0.809694
vt 0.510229 0.803468
vt 0.511171 0.765578
vt 0.565124 0.764368
vt 0.479691 0.799649
vt 0.486340 0.766582
vt 0.437092 0.787533
vt 0.443585 0.748829
vt 0.425923 0.754711
vt 0.422123 0.742946
vt 0.429690 0.730629
vt 0.447798 0.694577
vt 0.457086 0.718428
vt 0.949739 0.404064
vt 0.949739 0.353270
vt 0.982292 0.353270
vt 0.982292 0.404064
vt 0.460533 0.693281
vt 0.502277 0.717435
vt 0.495857 0.735141
vt 0.514016 0.729944
vt 0.562185 0.720311
vt 0.408828 0.775679
vt 0.278149 0.967649
vt 0.246334 0.979776
vt 0.249708 0.914564
vt 0.277992 0.912907
vt 0.013923 0.884272
vt 0.022151 0.852843
vt 0.077991 0.867331
vt 0.074449 0.892252
vt 0.315578 0.881871
vt 0.272833 0.868911
vt 0.266436 0.823662
vt 0.311469 0.826118
vt 0.312630 0.841540
vt 0.233032 0.873502
vt 0.237034 0.853143
vt 0.243726 0.809688
vt 0.293162 0.797592
vt 0.353002 0.808376
vt 0.344750 0.831707
vt 0.171111 0.912654
vt 0.129263 0.910165
vt 0.133762 0.881302
vt 0.504295 0.904470
vt 0.456722 0.873442
vt 0.486878 0.832177
vt 0.523186 0.892354
vt 0.393060 0.750737
vt 0.369166 0.770382
vt 0.342151 0.723866
vt 0.371660 0.694150
vt 0.224422 0.982399
vt 0.224589 0.913793
vt 0.464697 0.929008
vt 0.510943 0.418646
vt 0.509620 0.457222
vt 0.450276 0.457321
vt 0.451259 0.416801
vt 0.371260 0.868269
vt 0.391399 0.792592
vt 0.427034 0.854273
vt 0.224914 0.800301
vt 0.250611 0.780243
vt 0.499027 0.969201
vt 0.535560 0.959128
vt 0.557854 0.949811
vt 0.378068 0.967627
vt 0.326324 0.969178
vt 0.319455 0.907637
vt 0.374611 0.893121
vt 0.340158 0.885118
vt 0.330117 0.844664
vt 0.450534 0.480546
vt 0.422105 0.480397
vt 0.434613 0.451640
vt 0.511818 0.394240
vt 0.445658 0.392364
vt 0.509788 0.480859
vt 0.224768 0.847580
vt 0.329170 0.701515
vt 0.145363 0.785723
vt 0.128390 0.783055
vt 0.170261 0.738493
vt 0.116930 0.746993
vt 0.160651 0.716692
vt 0.111510 0.779844
vt 0.893310 0.283615
vt 0.770664 0.270731
vt 0.865483 0.388919
vt 0.769534 0.358310
vt 0.423897 0.371814
vt 0.408299 0.341150
vt 0.485355 0.339413
vt 0.636248 0.267526
vt 0.642876 0.337877
vt 0.765704 0.747046
vt 0.792786 0.808169
vt 0.760084 0.563543
vt 0.757703 0.426691
vt 0.876826 0.390354
vt 0.896865 0.307217
vt 0.772687 0.422987
vt 0.914451 0.274726
vt 0.410556 0.185000
vt 0.408092 0.121083
vt 0.456578 0.117665
vt 0.455645 0.183093
vt 0.253560 0.018334
vt 0.251430 0.078936
vt 0.305153 0.086844
vt 0.325460 0.038610
vt 0.319084 0.004836
vt 0.351414 0.205432
vt 0.351233 0.185114
vt 0.407829 0.201799
vt 0.408760 0.285783
vt 0.455510 0.199477
vt 0.477314 0.276913
vt 0.191942 0.085924
vt 0.197935 0.167602
vt 0.246963 0.163350
vt 0.327602 0.277492
vt 0.291833 0.163878
vt 0.247013 0.186734
vt 0.291379 0.186449
vt 0.192159 0.183314
vt 0.187729 0.251517
vt 0.219266 0.354283
vt 0.249400 0.353300
vt 0.239901 0.245457
vt 0.287479 0.246007
vt 0.353156 0.126862
vt 0.373466 0.625371
vt 0.341578 0.620155
vt 0.322681 0.602307
vt 0.372105 0.596087
vt 0.390482 0.029659
vt 0.419898 0.019465
vt 0.282224 0.348629
vt 0.354142 0.027088
vt 0.312568 0.326929
vt 0.178272 0.023855
vt 0.757941 0.851792
vt 0.013855 0.710087
vt 0.062637 0.719760
vt 0.053791 0.758555
vt 0.012068 0.757539
vt 0.404768 0.627471
vt 0.408460 0.590887
vt 0.452999 0.584325
vt 0.451825 0.623280
vt 0.095615 0.759647
vt 0.099560 0.719322
vt 0.492533 0.585997
vt 0.490931 0.624805
vt 0.329410 0.657029
vt 0.304385 0.656192
vt 0.014143 0.671338
vt 0.013329 0.626462
vt 0.071995 0.639628
vt 0.067412 0.683054
vt 0.098346 0.684520
vt 0.093882 0.648751
vt 0.133695 0.638573
vt 0.137331 0.672574
vt 0.141254 0.705593
vt 0.185664 0.538131
vt 0.086734 0.549483
vt 0.089781 0.610162
vt 0.185643 0.597604
vt 0.176017 0.406617
vt 0.082362 0.396940
vt 0.151191 0.453841
vt 0.081208 0.452173
vt 0.080256 0.498505
vt 0.155426 0.490326
vt 0.011387 0.503289
vt 0.011387 0.547736
vt 0.208505 0.505645
vt 0.205267 0.448094
vt 0.933051 0.227541
vt 0.935500 0.187984
vt 0.981816 0.187984
vt 0.983901 0.230880
vt 0.011387 0.452807
vt 0.011387 0.602224
vt 0.011387 0.406053
vt 0.685388 0.464625
vt 0.679517 0.382326
vt 0.733395 0.381660
vt 0.731848 0.465114
vt 0.540455 0.464294
vt 0.548955 0.383058
vt 0.585455 0.383138
vt 0.589782 0.468052
vt 0.639164 0.382434
vt 0.636531 0.468832
vt 0.926036 0.053242
vt 0.926036 0.013699
vt 0.978301 0.014940
vt 0.978301 0.051267
vt 0.941318 0.172865
vt 0.942408 0.129162
vt 0.988977 0.129542
vt 0.987962 0.170192
vt 0.635511 0.526281
vt 0.681104 0.525562
vt 0.587712 0.531014
vt 0.545907 0.531323
vt 0.728625 0.532818
vt 0.736669 0.725394
vt 0.735353 0.771722
vt 0.683130 0.758703
vt 0.689295 0.721117
vt 0.659178 0.752270
vt 0.658895 0.718191
vt 0.614298 0.760413
vt 0.615218 0.720808
vt 0.598227 0.750739
vt 0.592334 0.761513
vt 0.621741 0.793364
vt 0.608255 0.814858
vt 0.597389 0.775323
vt 0.902963 0.354102
vt 0.935516 0.354102
vt 0.935516 0.404895
vt 0.902963 0.404895
vt 0.620394 0.818928
vt 0.662554 0.785374
vt 0.665487 0.804249
vt 0.724263 0.814542
vt 0.679237 0.794482
vt 0.585527 0.726307
vt 0.170921 0.966691
vt 0.199450 0.914463
vt 0.202557 0.979360
vt 0.434990 0.885665
vt 0.136920 0.840949
vt 0.138178 0.825523
vt 0.183245 0.823379
vt 0.176564 0.868613
vt 0.206044 0.809560
vt 0.212468 0.853064
vt 0.216352 0.873452
vt 0.156680 0.797114
vt 0.104811 0.830875
vt 0.096708 0.807441
vt 0.427703 0.967162
vt 0.542713 0.881290
vt 0.537443 0.824738
vt 0.340263 0.781402
vt 0.301717 0.734772
vt 0.020099 0.966282
vt 0.069986 0.966279
vt 0.582883 0.857700
vt 0.510287 0.543080
vt 0.450588 0.544296
vt 0.450031 0.503768
vt 0.509371 0.504492
vt 0.058337 0.791326
vt 0.199393 0.779972
vt 0.602434 0.906809
vt 0.576490 0.934433
vt 0.122173 0.967791
vt 0.119390 0.843962
vt 0.109116 0.884444
vt 0.434309 0.509284
vt 0.510905 0.567494
vt 0.444729 0.568673
vt 0.612579 0.943799
vt 0.704302 0.960286
vt 0.690069 0.863893
vt 0.628178 0.846809
vt 0.727017 0.964931
vt 0.742045 0.877429
vt 0.749981 0.968131
vt 0.795559 0.882010
vt 0.849700 0.973890
vt 0.859604 0.886554
vt 0.262137 0.727847
vt 0.208247 0.720642
vt 0.265551 0.745007
vt 0.235108 0.768630
vt 0.190786 0.737487
vt 0.268411 0.762268
s 0
f 103/1/1 2/2/1 8/3/1 112/4/1
f 2/2/2 1/5/2 7/6/2 8/3/2
f 119/7/3 5/8/3 117/9/3
f 6/10/4 4/11/4 1/5/4 2/2/4
f 4/12/5 29/13/5 141/14/5 113/15/5
f 111/16/6 6/10/6 2/2/6 103/1/6
f 1/17/7 104/18/7 114/19/7 7/20/7
f 4/12/8 113/15/8 104/18/8
f 3/21/9 5/22/9 8/3/9 7/6/9
f 118/23/10 3/24/10 7/20/10 114/19/10
f 5/25/11 119/26/11 112/4/11 8/3/11
f 18/27/12 11/28/12 19/29/12 22/30/12
f 3/31/13 120/32/13 27/33/13 28/34/13
f 3/31/14 118/35/14 120/32/14
f 15/36/15 16/37/15 18/27/15 17/38/15
f 10/39/16 9/40/16 14/41/16 16/37/16
f 9/42/17 28/34/17 13/43/17 14/44/17
f 27/45/18 10/39/18 16/37/18 15/36/18
f 28/34/19 27/33/19 15/46/19 13/43/19
f 13/43/20 15/46/20 17/47/20 12/48/20
f 16/37/21 14/41/21 11/28/21 18/27/21
f 14/44/22 13/43/22 12/48/22 11/49/22
f 19/50/23 20/51/23 24/52/23 23/53/23
f 11/49/24 12/48/24 20/51/24 19/50/24
f 12/48/25 17/47/25 21/54/25 20/51/25
f 17/38/26 18/27/26 22/30/26 21/55/26
f 39/56/27 38/57/27 36/58/27 34/59/27
f 22/30/28 19/29/28 23/60/28 26/61/28
f 20/51/29 21/54/29 25/62/29 24/52/29
f 21/55/30 22/30/30 26/61/30 25/63/30
f 120/64/31 117/9/31 10/39/31 27/45/31
f 5/65/32 3/31/32 28/34/32 9/42/32
f 117/9/33 5/8/33 9/40/33 10/39/33
f 141/14/34 29/13/34 6/66/34 111/67/34
f 6/66/35 29/13/35 4/12/35
f 30/68/36 31/69/36 32/70/36 33/71/36
f 25/72/37 26/73/37 31/74/37 30/75/37
f 23/76/38 24/77/38 33/71/38 32/70/38
f 26/73/39 23/78/39 32/79/39 31/74/39
f 35/80/40 34/59/40 36/58/40 37/81/40
f 38/82/41 40/83/41 37/84/41 36/85/41
f 41/86/42 39/87/42 34/88/42 35/89/42
f 40/83/43 41/86/43 35/89/43 37/84/43
f 33/71/44 24/77/44 41/86/44 40/83/44
f 24/77/45 25/90/45 39/87/45 41/86/45
f 30/68/46 33/71/46 40/83/46 38/82/46
f 25/72/47 30/75/47 38/57/47 39/56/47
f 43/91/48 45/92/48 44/93/48 42/94/48
f 45/95/49 49/96/49 44/97/49
f 49/96/50 47/98/50 46/99/50 48/100/50
f 47/98/51 43/91/51 42/94/51
f 46/99/52 42/94/52 50/101/52 52/102/52
f 47/98/53 49/96/53 45/103/53 43/104/53
f 50/105/54 51/106/54 53/107/54 52/108/54
f 48/100/55 46/99/55 52/102/55 53/109/55
f 42/94/56 44/93/56 51/110/56 50/101/56
f 44/97/57 48/100/57 53/109/57 51/111/57
f 62/112/58 63/113/58 56/114/58 54/115/58
f 63/116/59 64/117/59 60/118/59 56/119/59
f 64/117/60 65/120/60 58/121/60 60/118/60
f 65/120/61 62/112/61 54/115/61 58/121/61
f 54/122/62 56/123/62 60/124/62 58/125/62
f 59/126/63 61/127/63 57/128/63 55/129/63
f 59/130/64 55/131/64 62/112/64 65/120/64
f 61/132/65 59/130/65 65/120/65 64/117/65
f 57/133/66 61/132/66 64/117/66 63/116/66
f 55/131/67 57/134/67 63/113/67 62/112/67
f 67/135/68 69/136/68 68/137/68 78/138/68
f 42/94/69 46/99/69 47/98/69
f 44/97/70 49/96/70 48/100/70
f 69/136/71 73/139/71 72/140/71 68/137/71
f 73/139/72 71/141/72 70/142/72 72/140/72
f 66/143/73 78/144/73 70/142/73
f 70/142/74 78/145/74 75/146/74 77/147/74
f 71/148/75 73/149/75 69/150/75 67/151/75
f 75/152/76 74/153/76 76/154/76 77/147/76
f 72/140/77 70/142/77 77/147/77 76/154/77
f 78/138/78 68/137/78 74/155/78 75/156/78
f 68/137/79 72/140/79 76/154/79 74/155/79
f 67/157/80 78/144/80 66/143/80
f 71/141/81 66/143/81 70/142/81
f 67/157/82 66/143/82 71/141/82
f 104/18/83 1/17/83 4/12/83
f 82/158/84 88/159/84 96/160/84 97/161/84
f 226/162/85 192/163/85 195/164/85 224/165/85
f 91/166/86 79/167/86 81/168/86 90/169/86 99/170/86
f 79/167/87 85/171/87 98/172/87 86/173/87 81/168/87
f 93/174/88 87/175/88 83/176/88 90/169/88
f 221/177/89 233/178/89 210/179/89
f 92/180/90 84/181/90 200/182/90 211/183/90
f 85/184/91 193/185/91 227/186/91 98/187/91
f 88/159/92 202/188/92 220/189/92 96/160/92
f 89/190/93 84/181/93 92/180/93
f 87/191/94 93/192/94 95/193/94 94/194/94
f 80/195/95 201/196/95 192/197/95
f 203/198/96 212/199/96 93/174/96 86/173/96
f 82/200/97 89/190/97 92/180/97 88/201/97
f 88/201/98 92/180/98 211/183/98 202/202/98
f 84/203/99 89/204/99 223/205/99 225/206/99
f 86/173/100 93/174/100 90/169/100 81/168/100
f 80/195/101 100/207/101 101/208/101 99/170/101 90/169/101 83/176/101
f 217/209/102 216/210/102 94/211/102 95/193/102
f 201/212/103 87/191/103 94/194/103 216/213/103
f 93/192/104 212/214/104 217/209/104 95/193/104
f 89/204/105 82/158/105 97/161/105 223/205/105
f 87/175/106 201/196/106 80/195/106 83/176/106
f 98/172/107 222/215/107 203/198/107 86/173/107
f 222/216/108 98/187/108 227/186/108
f 100/217/109 102/218/109 101/219/109
f 91/220/110 99/221/110 102/218/110
f 100/222/111 91/220/111 102/218/111
f 102/218/112 99/221/112 101/219/112
f 103/1/113 112/4/113 116/223/113 106/224/113
f 106/224/114 116/223/114 115/225/114 105/226/114
f 119/227/115 117/228/115 109/229/115
f 110/230/116 106/224/116 105/226/116 108/231/116
f 108/232/117 113/15/117 141/14/117 142/233/117
f 111/16/118 103/1/118 106/224/118 110/230/118
f 105/234/119 115/235/119 114/19/119 104/18/119
f 108/232/120 104/18/120 113/15/120
f 107/236/121 115/225/121 116/223/121 109/237/121
f 118/23/122 114/19/122 115/235/122 107/238/122
f 109/239/123 116/223/123 112/4/123 119/26/123
f 130/240/124 134/241/124 131/242/124 123/243/124
f 107/244/125 140/245/125 139/246/125 120/247/125
f 107/244/126 120/247/126 118/248/126
f 127/249/127 129/250/127 130/240/127 128/251/127
f 122/252/128 128/251/128 126/253/128 121/254/128
f 121/255/129 126/256/129 125/257/129 140/245/129
f 139/258/130 127/249/130 128/251/130 122/252/130
f 140/245/131 125/257/131 127/259/131 139/246/131
f 125/257/132 124/260/132 129/261/132 127/259/132
f 128/251/133 130/240/133 123/243/133 126/253/133
f 126/256/134 123/262/134 124/260/134 125/257/134
f 131/263/135 135/264/135 136/265/135 132/266/135
f 123/262/136 131/263/136 132/266/136 124/260/136
f 124/260/137 132/266/137 133/267/137 129/261/137
f 129/250/138 133/268/138 134/241/138 130/240/138
f 152/269/139 147/270/139 149/271/139 151/272/139
f 134/241/140 138/273/140 135/274/140 131/242/140
f 132/266/141 136/265/141 137/275/141 133/267/141
f 133/268/142 137/276/142 138/273/142 134/241/142
f 120/277/143 139/258/143 122/252/143 117/228/143
f 109/278/144 121/255/144 140/245/144 107/244/144
f 117/228/145 122/252/145 121/254/145 109/229/145
f 141/14/146 111/67/146 110/279/146 142/233/146
f 110/279/147 108/232/147 142/233/147
f 143/280/148 146/281/148 145/282/148 144/283/148
f 137/284/149 143/285/149 144/286/149 138/287/149
f 135/288/150 145/282/150 146/281/150 136/289/150
f 138/287/151 144/286/151 145/290/151 135/291/151
f 148/292/152 150/293/152 149/271/152 147/270/152
f 151/294/153 149/295/153 150/296/153 153/297/153
f 154/298/154 148/299/154 147/300/154 152/301/154
f 153/297/155 150/296/155 148/299/155 154/298/155
f 146/281/156 153/297/156 154/298/156 136/289/156
f 136/289/157 154/298/157 152/301/157 137/302/157
f 143/280/158 151/294/158 153/297/158 146/281/158
f 137/284/159 152/269/159 151/272/159 143/285/159
f 156/303/160 155/304/160 157/305/160 158/306/160
f 158/307/161 157/308/161 162/309/161
f 162/309/162 161/310/162 159/311/162 160/312/162
f 160/312/163 155/304/163 156/303/163
f 159/311/164 165/313/164 163/314/164 155/304/164
f 160/312/165 156/315/165 158/316/165 162/309/165
f 163/317/166 165/318/166 166/319/166 164/320/166
f 161/310/167 166/321/167 165/313/167 159/311/167
f 155/304/168 163/314/168 164/322/168 157/305/168
f 157/308/169 164/323/169 166/321/169 161/310/169
f 175/324/170 167/325/170 169/326/170 176/327/170
f 176/328/171 169/329/171 173/330/171 177/331/171
f 177/331/172 173/330/172 171/332/172 178/333/172
f 178/333/173 171/332/173 167/325/173 175/324/173
f 167/334/174 171/335/174 173/336/174 169/337/174
f 172/338/175 168/339/175 170/340/175 174/341/175
f 172/342/176 178/333/176 175/324/176 168/343/176
f 174/344/177 177/331/177 178/333/177 172/342/177
f 170/345/178 176/328/178 177/331/178 174/344/178
f 168/343/179 175/324/179 176/327/179 170/346/179
f 180/347/180 191/348/180 181/349/180 182/350/180
f 155/304/181 160/312/181 159/311/181
f 157/308/182 161/310/182 162/309/182
f 182/350/183 181/349/183 185/351/183 186/352/183
f 186/352/184 185/351/184 183/353/184 184/354/184
f 179/355/185 183/353/185 191/356/185
f 183/353/186 190/357/186 188/358/186 191/359/186
f 184/360/187 180/361/187 182/362/187 186/363/187
f 188/364/188 190/357/188 189/365/188 187/366/188
f 185/351/189 189/365/189 190/357/189 183/353/189
f 191/348/190 188/367/190 187/368/190 181/349/190
f 181/349/191 187/368/191 189/365/191 185/351/191
f 180/369/192 179/355/192 191/356/192
f 184/354/193 183/353/193 179/355/193
f 180/369/194 184/354/194 179/355/194
f 104/18/195 108/232/195 105/234/195
f 197/370/196 221/177/196 219/371/196 207/372/196
f 80/195/197 192/197/197 226/373/197 225/206/197
f 210/179/198 229/374/198 209/375/198 196/376/198 194/377/198
f 194/377/199 196/376/199 205/378/199 228/379/199 204/380/199
f 214/381/200 209/375/200 198/382/200 206/383/200
f 225/206/201 226/373/201 200/384/201 84/203/201
f 213/385/202 211/183/202 200/182/202 199/386/202
f 204/387/203 228/388/203 227/186/203 193/185/203
f 207/372/204 219/371/204 220/189/204 202/188/204
f 200/389/205 226/162/205 224/165/205 199/390/205
f 208/391/206 213/385/206 199/386/206
f 206/392/207 215/393/207 218/394/207 214/395/207
f 195/164/208 192/163/208 201/396/208
f 203/198/209 205/378/209 214/381/209 212/397/209
f 197/398/210 207/399/210 213/385/210 208/391/210
f 207/399/211 202/202/211 211/183/211 213/385/211
f 199/390/212 224/165/212 233/178/212 208/400/212
f 205/378/213 196/376/213 209/375/213 214/381/213
f 195/164/214 198/382/214 209/375/214 229/374/214 231/401/214 230/402/214
f 217/209/215 218/394/215 215/403/215 216/210/215
f 201/404/216 216/405/216 215/393/216 206/392/216
f 214/395/217 218/394/217 217/209/217 212/214/217
f 194/406/218 204/407/218 219/408/218 221/409/218
f 204/407/219 193/410/219 220/411/219 219/408/219
f 85/412/220 96/413/220 220/411/220 193/410/220
f 79/414/221 97/415/221 96/413/221 85/412/221
f 206/383/222 198/382/222 195/164/222 201/396/222
f 228/379/223 205/378/223 203/198/223 222/215/223
f 222/216/224 227/186/224 228/388/224
f 230/416/225 231/417/225 232/418/225
f 210/419/226 232/418/226 229/420/226
f 230/421/227 232/418/227 210/419/227
f 232/418/228 231/417/228 229/420/228
f 223/205/229 97/161/229 91/166/229
f 225/206/230 223/205/230 91/166/230 100/207/230 80/195/230
f 221/177/231 210/179/231 194/377/231
f 91/166/232 97/161/232 79/167/232
f 233/178/233 221/177/233 197/370/233 208/400/233
f 233/178/234 224/165/234 195/164/234 230/402/234 210/179/234
